G75*
G70*
%OFA0B0*%
%FSLAX24Y24*%
%IPPOS*%
%LPD*%
%AMOC8*
5,1,8,0,0,1.08239X$1,22.5*
%
%ADD10C,0.0060*%
%ADD11C,0.0050*%
D10*
X024867Y018746D02*
X025117Y018496D01*
X026617Y018496D01*
X026867Y018746D01*
X026867Y019246D01*
X026617Y019496D01*
X026867Y019746D01*
X026867Y020246D01*
X026617Y020496D01*
X026867Y020746D01*
X026867Y021246D01*
X026617Y021496D01*
X026867Y021746D01*
X026867Y022246D01*
X026617Y022496D01*
X025117Y022496D01*
X024867Y022246D01*
X024867Y021746D01*
X025117Y021496D01*
X024867Y021246D01*
X024867Y020746D01*
X025117Y020496D01*
X024867Y020246D01*
X024867Y019746D01*
X025117Y019496D01*
X024867Y019246D01*
X024867Y018746D01*
D11*
X024692Y018971D02*
X024242Y018971D01*
X024242Y018821D02*
X024242Y019121D01*
X024542Y018821D02*
X024692Y018971D01*
X027117Y022021D02*
X027192Y022021D01*
X027267Y022096D01*
X027267Y022246D01*
X027192Y022321D01*
X027117Y022321D01*
X027042Y022246D01*
X027042Y022096D01*
X027117Y022021D01*
X027267Y022096D02*
X027342Y022021D01*
X027417Y022021D01*
X027492Y022096D01*
X027492Y022246D01*
X027417Y022321D01*
X027342Y022321D01*
X027267Y022246D01*
M02*
