%
M48
M72
T01C0.0197
T02C0.0236
T03C0.0240
T04C0.0320
T05C0.0354
T06C0.0400
T07C0.0433
T08C0.0551
T09C0.0787
T10C0.1181
%
T01
X12016Y13909
X12766Y14284
X12391Y15284
X12766Y16284
X12391Y17284
X12017Y18154
X3266Y17534
X3266Y16034
X35378Y16563
X42662Y16563
X42662Y23453
X35378Y23453
T02
X23516Y22409
X20391Y21284
X18641Y20284
X16891Y20284
X15391Y18784
X14891Y18284
X14391Y17784
X17141Y17784
X18141Y18284
X19016Y18784
X20391Y19034
X23016Y19284
X23516Y19659
X23016Y20409
X14641Y22409
X10266Y22409
X9391Y8784
X9391Y7409
T03
X7766Y14034
X7766Y16034
T04
X6266Y16409
X5266Y16409
X6266Y15409
X4266Y15034
X3266Y15034
X5266Y14034
X6266Y14034
X9266Y15409
X10516Y15784
X9266Y16409
X10516Y16784
X10516Y17784
X9266Y17784
X10516Y18784
X10516Y19784
X10516Y20784
X9266Y20784
X10516Y21784
X8266Y22409
X7266Y22409
X6266Y22409
X6266Y20784
X6266Y19409
X7266Y19409
X8266Y19409
X6266Y17784
X5266Y19409
X13516Y19784
X13516Y18784
X13516Y17784
X13516Y16784
X13516Y15784
X13516Y14784
X13516Y13784
X13516Y12784
X13516Y11784
X13516Y10784
X13516Y9784
X14641Y9534
X15641Y9534
X16641Y9534
X18016Y8284
X16641Y7909
X15641Y7909
X14641Y7909
X13516Y7409
X13516Y6409
X14641Y6284
X16641Y6284
X18016Y6284
X19141Y6284
X21141Y6284
X22141Y6284
X25141Y6284
X21141Y11534
X22141Y12534
X22141Y13534
X23641Y12909
X24641Y12909
X20141Y14534
X19141Y14534
X19141Y13534
X19141Y12534
X19141Y11534
X16516Y11534
X13516Y8784
X10516Y8784
X10516Y9784
X10516Y10784
X10516Y11784
X10516Y12784
X10516Y13784
X10516Y14784
X16516Y15534
X16016Y20284
X15016Y20284
X13516Y20784
X13516Y21784
X15016Y23284
X16016Y23284
X8266Y9909
X7266Y9909
X6266Y9909
X5266Y9534
X5266Y8534
X6266Y7909
X7266Y7909
X8266Y7909
X10516Y7409
X10516Y6409
X5266Y6409
X4266Y6409
X3266Y6409
X2266Y6409
X2266Y7534
X2266Y8534
X2266Y9534
X5266Y7534
T05
X24550Y19261
X25550Y19261
X25550Y20261
X24550Y20261
X24550Y21261
X25550Y21261
X25550Y22261
X24550Y22261
X42016Y9534
X42016Y8534
X42016Y7534
T06
X25641Y16784
X24641Y16784
X22796Y16394
X20236Y16394
X18016Y16531
X18016Y17531
X20236Y18174
X22796Y18174
X22016Y20284
X21016Y20284
X21016Y21284
X22016Y21284
X22016Y22284
X21016Y22284
X14016Y23284
X13016Y23284
X12016Y23284
X11016Y23284
X10016Y23284
X9016Y23284
X2936Y22776
X2936Y19816
X2236Y17531
X2236Y16531
X2236Y15531
X2236Y14531
X2236Y13531
X2236Y12531
X2236Y11531
X2236Y10531
X18016Y10531
X18016Y11531
X18016Y12531
X18016Y13531
X18016Y14531
X18016Y15531
T07
X19391Y10534
X20891Y10534
X22391Y10534
X22391Y7534
X20891Y7534
X19391Y7534
T08
X573Y2657
X3723Y2657
X18016Y22034
X39549Y2657
X42699Y2657
T09
X42070Y5834
X42070Y15676
X1125Y18629
X1125Y9180
T10
X37528Y13219
X39851Y13219
X38709Y15070
M30
