%
M48
M72
T01C0.0197
T02C0.0236
T03C0.0240
T04C0.0320
T05C0.0354
T06C0.0400
T07C0.0433
T08C0.0551
T09C0.0600
T10C0.1181
T11C0.1260
T12C0.1300
%
T01
X17367Y11496
X17867Y11996
X14867Y13996
X15367Y14496
X12992Y15121
X12617Y13621
X12992Y16996
X12618Y17865
T02
X1166Y576
X11117Y5996
X14117Y5996
X29242Y11746
X30367Y11746
X21085Y18371
X20367Y18996
X20367Y19996
X16367Y18371
X15992Y20996
X12492Y20996
X1166Y23805
X43292Y576
T03
X8367Y13746
X8367Y15746
T04
X9867Y15746
X11117Y15496
X9867Y14746
X11117Y14496
X11117Y13496
X11117Y12496
X11117Y11496
X11117Y10496
X11117Y9496
X11117Y8496
X11117Y6996
X14117Y6996
X15617Y7246
X15617Y6246
X15617Y5246
X18367Y5246
X18367Y6246
X18367Y7246
X20992Y7746
X21992Y7746
X22992Y7746
X22992Y6746
X21992Y5746
X24992Y6746
X24992Y7746
X26492Y7746
X27492Y7746
X28742Y7746
X26492Y8746
X27492Y10746
X28742Y10746
X24992Y10746
X22992Y10746
X22992Y11746
X20992Y11746
X19867Y10996
X20992Y10746
X18492Y8996
X15492Y8996
X14117Y9496
X14117Y10496
X14117Y11496
X14117Y12496
X14117Y13496
X14117Y14496
X14117Y15496
X14117Y16496
X14117Y17496
X14117Y18496
X14117Y19496
X15492Y20246
X16492Y20246
X14117Y20496
X14117Y21496
X15492Y23246
X16492Y23246
X11117Y21496
X11117Y20496
X11117Y19496
X11117Y18496
X11117Y17496
X11117Y16496
X8617Y17496
X7867Y18996
X6867Y18996
X5867Y18996
X4367Y18996
X5617Y20246
X5867Y21746
X6867Y21746
X7867Y21746
X8617Y20246
X5617Y17496
X4367Y15996
X5867Y15746
X6867Y15746
X4367Y14896
X4367Y14096
X5867Y13746
X6867Y13746
X5117Y9246
X5117Y8246
X5867Y8246
X6867Y8246
X7867Y8246
X5117Y7246
X4117Y6246
X4117Y5246
X5867Y5746
X6867Y5746
X7867Y5746
X2117Y7246
X2117Y8246
X2117Y9246
X1367Y6246
X1367Y5246
X14117Y8496
X19867Y14996
X29742Y15121
X29742Y14121
X32742Y14121
X32742Y15121
X34092Y16871
X34892Y16871
X29492Y5746
X26492Y5746
T05
X18492Y8121
X15492Y8121
T06
X18617Y10242
X18617Y11242
X18617Y12242
X18617Y13242
X18617Y14242
X18617Y15242
X18617Y16242
X18617Y17242
X21617Y18996
X22617Y18996
X22617Y19996
X21617Y19996
X21617Y20996
X22617Y20996
X22617Y21996
X21617Y21996
X21617Y22996
X22617Y22996
X25367Y21996
X26367Y21996
X26367Y20996
X25367Y20996
X25367Y19996
X26367Y19996
X26367Y18996
X25367Y18996
X29742Y16371
X30742Y16371
X31742Y16371
X28397Y14386
X25837Y14386
X24347Y15246
X21387Y15246
X25837Y12606
X28397Y12606
X39867Y7121
X39867Y5996
X12617Y22996
X11617Y22996
X10617Y22996
X9617Y22996
X8617Y22996
X7617Y22996
X2837Y17242
X2837Y16242
X2837Y15242
X2837Y14242
X2837Y13242
X2837Y12242
X2837Y11242
X2837Y10242
T07
X42617Y10246
X42617Y9246
X42617Y8246
X42617Y7246
X42617Y6246
T08
X18617Y21746
X2867Y21746
X2867Y5746
T09
X4315Y2938
X1166Y2938
X20457Y2938
X23607Y2938
X40142Y2938
X43292Y2938
T10
X40451Y12931
X38128Y12931
X39310Y14781
T11
X42898Y970
X1560Y970
X1560Y23411
T12
X30742Y22271
M30
