G75*
G70*
%OFA0B0*%
%FSLAX24Y24*%
%IPPOS*%
%LPD*%
%AMOC8*
5,1,8,0,0,1.08239X$1,22.5*
%
%ADD10C,0.0160*%
%ADD11R,0.0157X0.0079*%
%ADD12R,0.0079X0.0079*%
%ADD13R,0.0236X0.0079*%
%ADD14R,0.0472X0.0079*%
%ADD15R,0.0315X0.0079*%
%ADD16R,0.1024X0.0079*%
%ADD17R,0.0394X0.0079*%
%ADD18R,0.0630X0.0079*%
%ADD19R,0.0709X0.0079*%
%ADD20R,0.0551X0.0079*%
%ADD21R,0.0787X0.0079*%
%ADD22R,0.0945X0.0079*%
%ADD23R,0.0866X0.0079*%
%ADD24R,0.1102X0.0079*%
%ADD25R,0.1181X0.0079*%
%ADD26R,0.2835X0.0079*%
%ADD27R,0.2913X0.0079*%
%ADD28R,0.2992X0.0079*%
%ADD29R,0.1339X0.0079*%
%ADD30R,0.1417X0.0079*%
%ADD31R,0.1654X0.0079*%
%ADD32R,0.3465X0.0079*%
%ADD33R,0.3071X0.0079*%
%ADD34R,0.2520X0.0079*%
%ADD35R,0.1890X0.0079*%
%ADD36C,0.0030*%
%ADD37C,0.0060*%
%ADD38C,0.0020*%
%ADD39C,0.0100*%
%ADD40C,0.0050*%
%ADD41R,0.0150X0.0200*%
%ADD42R,0.0700X0.0200*%
%ADD43R,0.0200X0.0150*%
%ADD44C,0.0010*%
%ADD45C,0.0080*%
%ADD46C,0.0000*%
%ADD47C,0.0040*%
%ADD48R,0.0500X0.0350*%
%ADD49R,0.0200X0.0800*%
%ADD50R,0.0250X0.0200*%
%ADD51R,0.0240X0.0340*%
%ADD52C,0.0120*%
D10*
X000772Y000183D02*
X000772Y004907D01*
X001855Y004907D01*
X002445Y004907D02*
X003528Y004907D01*
X004119Y004907D02*
X005201Y004907D01*
X005792Y004907D02*
X006875Y004907D01*
X007465Y004907D02*
X008548Y004907D01*
X009138Y004907D02*
X010221Y004907D01*
X010812Y004907D02*
X011894Y004907D01*
X012485Y004907D02*
X013567Y004907D01*
X014158Y004907D02*
X015241Y004907D01*
X015831Y004907D02*
X016914Y004907D01*
X017504Y004907D02*
X018587Y004907D01*
X019178Y004907D02*
X020260Y004907D01*
X020851Y004907D02*
X021934Y004907D01*
X022524Y004907D02*
X023607Y004907D01*
X024197Y004907D02*
X025280Y004907D01*
X025871Y004907D02*
X026953Y004907D01*
X027544Y004907D02*
X028627Y004907D01*
X029217Y004907D02*
X030300Y004907D01*
X030890Y004907D02*
X031973Y004907D01*
X032564Y004907D02*
X033646Y004907D01*
X034237Y004907D02*
X035319Y004907D01*
X035910Y004907D02*
X036993Y004907D01*
X037583Y004907D02*
X038666Y004907D01*
X039256Y004907D02*
X040339Y004907D01*
X040930Y004907D02*
X042012Y004907D01*
X042603Y004907D02*
X043686Y004907D01*
X043686Y004120D01*
X043686Y004907D01*
X043686Y024198D01*
X000772Y024198D01*
X000772Y004907D01*
X000772Y000183D02*
X043686Y000183D01*
X043686Y004120D01*
D11*
X036796Y008057D03*
X036796Y008293D03*
X037190Y008293D03*
X035300Y008293D03*
X035300Y008057D03*
X033961Y008057D03*
X033961Y008450D03*
X033095Y008450D03*
X033095Y008214D03*
X033095Y008135D03*
X032623Y008057D03*
X033410Y010104D03*
X033410Y010183D03*
X033410Y010261D03*
X033489Y010340D03*
X033567Y010419D03*
X033646Y010497D03*
X033882Y010655D03*
X034040Y010734D03*
X035772Y011127D03*
X035851Y011049D03*
X035930Y010970D03*
X036008Y010891D03*
X036008Y010812D03*
X036087Y010734D03*
X036087Y010655D03*
X036166Y010576D03*
X036166Y010497D03*
X036245Y010340D03*
X036245Y010261D03*
X036245Y010183D03*
X036245Y010104D03*
X037662Y011049D03*
D12*
X037859Y010970D03*
X036205Y010419D03*
X033371Y008608D03*
X033528Y008450D03*
X033449Y008371D03*
X033449Y008293D03*
X033607Y008293D03*
X033607Y008371D03*
X033686Y008135D03*
X033686Y008057D03*
X033922Y008135D03*
X033922Y008214D03*
X033922Y008293D03*
X033922Y008371D03*
X034079Y008371D03*
X034158Y008293D03*
X034158Y008214D03*
X034079Y008135D03*
X034473Y008135D03*
X034473Y008057D03*
X034473Y008214D03*
X034473Y008293D03*
X034552Y008371D03*
X034552Y008450D03*
X034630Y008293D03*
X034630Y008214D03*
X034630Y008135D03*
X034709Y008057D03*
X034788Y008135D03*
X034788Y008214D03*
X034788Y008293D03*
X034867Y008371D03*
X034867Y008450D03*
X034945Y008293D03*
X034945Y008214D03*
X034945Y008135D03*
X034945Y008057D03*
X035182Y008135D03*
X035182Y008214D03*
X035418Y008214D03*
X035418Y008135D03*
X035654Y008135D03*
X035654Y008057D03*
X035654Y008214D03*
X035890Y008214D03*
X035890Y008135D03*
X035890Y008057D03*
X036048Y008057D03*
X036048Y008135D03*
X036048Y008214D03*
X036048Y008293D03*
X036048Y008450D03*
X036363Y008450D03*
X036363Y008371D03*
X036363Y008214D03*
X036363Y008135D03*
X036363Y008057D03*
X036678Y008135D03*
X036678Y008214D03*
X036914Y008214D03*
X036914Y008135D03*
X037150Y008135D03*
X037150Y008057D03*
X037150Y008214D03*
X033371Y008135D03*
X033371Y008057D03*
X033213Y008057D03*
X033056Y008057D03*
X033056Y008293D03*
X033056Y008371D03*
X033213Y008371D03*
X033213Y008293D03*
X032741Y008293D03*
X032741Y008214D03*
X032741Y008135D03*
X032504Y008135D03*
X032504Y008214D03*
X032504Y008293D03*
D13*
X033528Y008214D03*
X034001Y008923D03*
X035497Y008844D03*
X035733Y008293D03*
X036363Y008293D03*
X033764Y010576D03*
X034158Y010812D03*
D14*
X034827Y010497D03*
X034827Y010419D03*
X033961Y009080D03*
X034827Y008608D03*
X032623Y008923D03*
D15*
X033174Y008686D03*
X034119Y008844D03*
X035615Y008923D03*
X037268Y011206D03*
X037504Y011127D03*
D16*
X035654Y009553D03*
X035654Y009474D03*
X034788Y008686D03*
X032583Y010183D03*
X032662Y010261D03*
X032741Y010340D03*
X032819Y010419D03*
X032898Y010497D03*
X032977Y010576D03*
X032504Y010104D03*
X032426Y010025D03*
X032268Y009789D03*
X032190Y009631D03*
D17*
X032819Y008844D03*
X032977Y008765D03*
X034001Y009001D03*
X034315Y008765D03*
X035339Y008765D03*
X035654Y009001D03*
D18*
X035693Y009159D03*
X033961Y009159D03*
X032465Y009001D03*
X034827Y010340D03*
X034827Y010655D03*
D19*
X034788Y010261D03*
X035654Y009238D03*
X032347Y009080D03*
X032190Y009159D03*
D20*
X034788Y010576D03*
X035182Y011127D03*
X035497Y011206D03*
X036993Y011285D03*
X035654Y009080D03*
D21*
X034827Y010183D03*
X034827Y010734D03*
X034985Y011049D03*
X033961Y009316D03*
X033961Y009238D03*
X032071Y009238D03*
D22*
X032071Y009316D03*
X032071Y009395D03*
X032071Y009474D03*
X032150Y009553D03*
X032229Y009710D03*
X032308Y009868D03*
X032386Y009946D03*
X033961Y009474D03*
X033961Y009395D03*
X035693Y009395D03*
D23*
X035654Y009316D03*
X034788Y010104D03*
X034788Y010812D03*
X034867Y010970D03*
D24*
X034749Y010891D03*
X035300Y011679D03*
X033174Y010734D03*
X033095Y010655D03*
X033961Y009631D03*
X033961Y009553D03*
D25*
X035654Y009631D03*
X033528Y010970D03*
X033371Y010891D03*
X033292Y010812D03*
D26*
X034827Y009710D03*
D27*
X034788Y009789D03*
D28*
X034827Y009868D03*
X034827Y009946D03*
X034827Y010025D03*
D29*
X033843Y011127D03*
X033686Y011049D03*
D30*
X034040Y011206D03*
D31*
X034315Y011285D03*
D32*
X035378Y011364D03*
D33*
X035339Y011442D03*
D34*
X035300Y011521D03*
D35*
X035300Y011600D03*
D36*
X035457Y007811D02*
X035457Y007520D01*
X035360Y007520D02*
X035554Y007520D01*
X035655Y007569D02*
X035703Y007520D01*
X035800Y007520D01*
X035848Y007569D01*
X035848Y007762D01*
X035655Y007569D01*
X035655Y007762D01*
X035703Y007811D01*
X035800Y007811D01*
X035848Y007762D01*
X035949Y007762D02*
X035998Y007811D01*
X036095Y007811D01*
X036143Y007762D01*
X036143Y007714D01*
X035949Y007520D01*
X036143Y007520D01*
X035457Y007811D02*
X035360Y007714D01*
X035261Y007569D02*
X035261Y007520D01*
X035213Y007520D01*
X035213Y007569D01*
X035261Y007569D01*
X035112Y007569D02*
X035063Y007520D01*
X034966Y007520D01*
X034918Y007569D01*
X035112Y007762D01*
X035112Y007569D01*
X035112Y007762D02*
X035063Y007811D01*
X034966Y007811D01*
X034918Y007762D01*
X034918Y007569D01*
X034819Y007569D02*
X034819Y007520D01*
X034771Y007520D01*
X034771Y007569D01*
X034819Y007569D01*
X034670Y007520D02*
X034476Y007520D01*
X034573Y007520D02*
X034573Y007811D01*
X034476Y007714D01*
X034377Y007569D02*
X034377Y007520D01*
X034329Y007520D01*
X034329Y007569D01*
X034377Y007569D01*
X034131Y007520D02*
X034131Y007811D01*
X034034Y007811D02*
X034228Y007811D01*
X033934Y007811D02*
X033838Y007811D01*
X033886Y007811D02*
X033886Y007520D01*
X033838Y007520D02*
X033934Y007520D01*
X033737Y007520D02*
X033591Y007665D01*
X033543Y007617D02*
X033737Y007811D01*
X033543Y007811D02*
X033543Y007520D01*
D37*
X029142Y008346D02*
X029142Y008496D01*
X029092Y008546D01*
X029092Y009946D01*
X029142Y009996D01*
X029142Y010146D01*
X029140Y010163D01*
X029136Y010180D01*
X029129Y010196D01*
X029119Y010210D01*
X029106Y010223D01*
X029092Y010233D01*
X029076Y010240D01*
X029059Y010244D01*
X029042Y010246D01*
X028442Y010246D01*
X028425Y010244D01*
X028408Y010240D01*
X028392Y010233D01*
X028378Y010223D01*
X028365Y010210D01*
X028355Y010196D01*
X028348Y010180D01*
X028344Y010163D01*
X028342Y010146D01*
X028342Y009996D01*
X028392Y009946D01*
X028392Y008546D01*
X028342Y008496D01*
X028342Y008346D01*
X028344Y008329D01*
X028348Y008312D01*
X028355Y008296D01*
X028365Y008282D01*
X028378Y008269D01*
X028392Y008259D01*
X028408Y008252D01*
X028425Y008248D01*
X028442Y008246D01*
X029042Y008246D01*
X029059Y008248D01*
X029076Y008252D01*
X029092Y008259D01*
X029106Y008269D01*
X029119Y008282D01*
X029129Y008296D01*
X029136Y008312D01*
X029140Y008329D01*
X029142Y008346D01*
X027892Y008346D02*
X027892Y008496D01*
X027842Y008546D01*
X027842Y009946D01*
X027892Y009996D01*
X027892Y010146D01*
X027890Y010163D01*
X027886Y010180D01*
X027879Y010196D01*
X027869Y010210D01*
X027856Y010223D01*
X027842Y010233D01*
X027826Y010240D01*
X027809Y010244D01*
X027792Y010246D01*
X027192Y010246D01*
X027175Y010244D01*
X027158Y010240D01*
X027142Y010233D01*
X027128Y010223D01*
X027115Y010210D01*
X027105Y010196D01*
X027098Y010180D01*
X027094Y010163D01*
X027092Y010146D01*
X027092Y009996D01*
X027142Y009946D01*
X027142Y008546D01*
X027092Y008496D01*
X027092Y008346D01*
X027094Y008329D01*
X027098Y008312D01*
X027105Y008296D01*
X027115Y008282D01*
X027128Y008269D01*
X027142Y008259D01*
X027158Y008252D01*
X027175Y008248D01*
X027192Y008246D01*
X027792Y008246D01*
X027809Y008248D01*
X027826Y008252D01*
X027842Y008259D01*
X027856Y008269D01*
X027869Y008282D01*
X027879Y008296D01*
X027886Y008312D01*
X027890Y008329D01*
X027892Y008346D01*
X026992Y009096D02*
X026992Y007396D01*
X026990Y007379D01*
X026986Y007362D01*
X026979Y007346D01*
X026969Y007332D01*
X026956Y007319D01*
X026942Y007309D01*
X026926Y007302D01*
X026909Y007298D01*
X026892Y007296D01*
X026092Y007296D01*
X026075Y007298D01*
X026058Y007302D01*
X026042Y007309D01*
X026028Y007319D01*
X026015Y007332D01*
X026005Y007346D01*
X025998Y007362D01*
X025994Y007379D01*
X025992Y007396D01*
X025992Y009096D01*
X025994Y009113D01*
X025998Y009130D01*
X026005Y009146D01*
X026015Y009160D01*
X026028Y009173D01*
X026042Y009183D01*
X026058Y009190D01*
X026075Y009194D01*
X026092Y009196D01*
X026892Y009196D01*
X026909Y009194D01*
X026926Y009190D01*
X026942Y009183D01*
X026956Y009173D01*
X026969Y009160D01*
X026979Y009146D01*
X026986Y009130D01*
X026990Y009113D01*
X026992Y009096D01*
X026492Y008396D02*
X026492Y008346D01*
X026492Y008146D02*
X026492Y008096D01*
X025342Y008496D02*
X024992Y008496D01*
X024642Y008496D01*
X024642Y009996D01*
X024992Y009996D01*
X025342Y009996D01*
X025342Y008496D01*
X024992Y008496D02*
X024992Y008146D01*
X025342Y007346D02*
X022642Y007346D01*
X022625Y007344D01*
X022608Y007340D01*
X022592Y007333D01*
X022578Y007323D01*
X022565Y007310D01*
X022555Y007296D01*
X022548Y007280D01*
X022544Y007263D01*
X022542Y007246D01*
X022542Y006246D01*
X022544Y006229D01*
X022548Y006212D01*
X022555Y006196D01*
X022565Y006182D01*
X022578Y006169D01*
X022592Y006159D01*
X022608Y006152D01*
X022625Y006148D01*
X022642Y006146D01*
X025342Y006146D01*
X025359Y006148D01*
X025376Y006152D01*
X025392Y006159D01*
X025406Y006169D01*
X025419Y006182D01*
X025429Y006196D01*
X025436Y006212D01*
X025440Y006229D01*
X025442Y006246D01*
X025442Y007246D01*
X025440Y007263D01*
X025436Y007280D01*
X025429Y007296D01*
X025419Y007310D01*
X025406Y007323D01*
X025392Y007333D01*
X025376Y007340D01*
X025359Y007344D01*
X025342Y007346D01*
X024592Y006746D02*
X024112Y006746D01*
X023862Y006746D02*
X023392Y006746D01*
X021992Y006866D02*
X021992Y007346D01*
X021992Y006616D02*
X021992Y006146D01*
X022592Y005396D02*
X022590Y005379D01*
X022586Y005362D01*
X022579Y005346D01*
X022569Y005332D01*
X022556Y005319D01*
X022542Y005309D01*
X022526Y005302D01*
X022509Y005298D01*
X022492Y005296D01*
X021492Y005296D01*
X021475Y005298D01*
X021458Y005302D01*
X021442Y005309D01*
X021428Y005319D01*
X021415Y005332D01*
X021405Y005346D01*
X021398Y005362D01*
X021394Y005379D01*
X021392Y005396D01*
X021392Y008096D01*
X021394Y008113D01*
X021398Y008130D01*
X021405Y008146D01*
X021415Y008160D01*
X021428Y008173D01*
X021442Y008183D01*
X021458Y008190D01*
X021475Y008194D01*
X021492Y008196D01*
X022492Y008196D01*
X022509Y008194D01*
X022526Y008190D01*
X022542Y008183D01*
X022556Y008173D01*
X022569Y008160D01*
X022579Y008146D01*
X022586Y008130D01*
X022590Y008113D01*
X022592Y008096D01*
X022592Y005396D01*
X023357Y003438D02*
X023107Y003188D01*
X023107Y002688D01*
X023357Y002438D01*
X023857Y002438D01*
X024107Y002688D01*
X024107Y003188D01*
X023857Y003438D01*
X023357Y003438D01*
X020957Y003188D02*
X020957Y002688D01*
X020707Y002438D01*
X020207Y002438D01*
X019957Y002688D01*
X019957Y003188D01*
X020207Y003438D01*
X020707Y003438D01*
X020957Y003188D01*
X026992Y005446D02*
X026992Y006046D01*
X026994Y006063D01*
X026998Y006080D01*
X027005Y006096D01*
X027015Y006110D01*
X027028Y006123D01*
X027042Y006133D01*
X027058Y006140D01*
X027075Y006144D01*
X027092Y006146D01*
X027242Y006146D01*
X027292Y006096D01*
X028692Y006096D01*
X028742Y006146D01*
X028892Y006146D01*
X028909Y006144D01*
X028926Y006140D01*
X028942Y006133D01*
X028956Y006123D01*
X028969Y006110D01*
X028979Y006096D01*
X028986Y006080D01*
X028990Y006063D01*
X028992Y006046D01*
X028992Y005446D01*
X028990Y005429D01*
X028986Y005412D01*
X028979Y005396D01*
X028969Y005382D01*
X028956Y005369D01*
X028942Y005359D01*
X028926Y005352D01*
X028909Y005348D01*
X028892Y005346D01*
X028742Y005346D01*
X028692Y005396D01*
X027292Y005396D01*
X027242Y005346D01*
X027092Y005346D01*
X027075Y005348D01*
X027058Y005352D01*
X027042Y005359D01*
X027028Y005369D01*
X027015Y005382D01*
X027005Y005396D01*
X026998Y005412D01*
X026994Y005429D01*
X026992Y005446D01*
X022992Y008146D02*
X022992Y008496D01*
X023342Y008496D01*
X023342Y009996D01*
X022992Y009996D01*
X022642Y009996D01*
X022642Y008496D01*
X022992Y008496D01*
X021342Y008496D02*
X020992Y008496D01*
X020642Y008496D01*
X020642Y009996D01*
X020992Y009996D01*
X021342Y009996D01*
X021342Y008496D01*
X020992Y008496D02*
X020992Y008146D01*
X018117Y008946D02*
X018117Y009546D01*
X018115Y009563D01*
X018111Y009580D01*
X018104Y009596D01*
X018094Y009610D01*
X018081Y009623D01*
X018067Y009633D01*
X018051Y009640D01*
X018034Y009644D01*
X018017Y009646D01*
X017867Y009646D01*
X017817Y009596D01*
X016417Y009596D01*
X016367Y009646D01*
X016217Y009646D01*
X016200Y009644D01*
X016183Y009640D01*
X016167Y009633D01*
X016153Y009623D01*
X016140Y009610D01*
X016130Y009596D01*
X016123Y009580D01*
X016119Y009563D01*
X016117Y009546D01*
X016117Y008946D01*
X016119Y008929D01*
X016123Y008912D01*
X016130Y008896D01*
X016140Y008882D01*
X016153Y008869D01*
X016167Y008859D01*
X016183Y008852D01*
X016200Y008848D01*
X016217Y008846D01*
X016367Y008846D01*
X016417Y008896D01*
X017817Y008896D01*
X017867Y008846D01*
X018017Y008846D01*
X018034Y008848D01*
X018051Y008852D01*
X018067Y008859D01*
X018081Y008869D01*
X018094Y008882D01*
X018104Y008896D01*
X018111Y008912D01*
X018115Y008929D01*
X018117Y008946D01*
X017667Y008396D02*
X016067Y008396D01*
X016050Y008394D01*
X016033Y008390D01*
X016017Y008383D01*
X016003Y008373D01*
X015990Y008360D01*
X015980Y008346D01*
X015973Y008330D01*
X015969Y008313D01*
X015967Y008296D01*
X015967Y007696D01*
X015969Y007679D01*
X015973Y007662D01*
X015980Y007646D01*
X015990Y007632D01*
X016003Y007619D01*
X016017Y007609D01*
X016033Y007602D01*
X016050Y007598D01*
X016067Y007596D01*
X017667Y007596D01*
X017684Y007598D01*
X017701Y007602D01*
X017717Y007609D01*
X017731Y007619D01*
X017744Y007632D01*
X017754Y007646D01*
X017761Y007662D01*
X017765Y007679D01*
X017767Y007696D01*
X017767Y008296D01*
X017765Y008313D01*
X017761Y008330D01*
X017754Y008346D01*
X017744Y008360D01*
X017731Y008373D01*
X017717Y008383D01*
X017701Y008390D01*
X017684Y008394D01*
X017667Y008396D01*
X017117Y007996D02*
X016867Y007996D01*
X016867Y008246D01*
X016867Y007996D02*
X016267Y007996D01*
X016467Y007746D02*
X016467Y008246D01*
X016867Y007996D01*
X016867Y007746D01*
X016867Y007996D02*
X016467Y007746D01*
X013717Y007696D02*
X011517Y007696D01*
X011517Y022296D01*
X012367Y022296D01*
X012369Y022266D01*
X012374Y022236D01*
X012383Y022207D01*
X012396Y022180D01*
X012411Y022154D01*
X012430Y022130D01*
X012451Y022109D01*
X012475Y022090D01*
X012501Y022075D01*
X012528Y022062D01*
X012557Y022053D01*
X012587Y022048D01*
X012617Y022046D01*
X012647Y022048D01*
X012677Y022053D01*
X012706Y022062D01*
X012733Y022075D01*
X012759Y022090D01*
X012783Y022109D01*
X012804Y022130D01*
X012823Y022154D01*
X012838Y022180D01*
X012851Y022207D01*
X012860Y022236D01*
X012865Y022266D01*
X012867Y022296D01*
X013717Y022296D01*
X013717Y007696D01*
X013517Y007396D02*
X013367Y007396D01*
X013317Y007346D01*
X011917Y007346D01*
X011867Y007396D01*
X011717Y007396D01*
X011700Y007394D01*
X011683Y007390D01*
X011667Y007383D01*
X011653Y007373D01*
X011640Y007360D01*
X011630Y007346D01*
X011623Y007330D01*
X011619Y007313D01*
X011617Y007296D01*
X011617Y006696D01*
X011619Y006679D01*
X011623Y006662D01*
X011630Y006646D01*
X011640Y006632D01*
X011653Y006619D01*
X011667Y006609D01*
X011683Y006602D01*
X011700Y006598D01*
X011717Y006596D01*
X011867Y006596D01*
X011917Y006646D01*
X013317Y006646D01*
X013367Y006596D01*
X013517Y006596D01*
X013534Y006598D01*
X013551Y006602D01*
X013567Y006609D01*
X013581Y006619D01*
X013594Y006632D01*
X013604Y006646D01*
X013611Y006662D01*
X013615Y006679D01*
X013617Y006696D01*
X013617Y007296D01*
X013615Y007313D01*
X013611Y007330D01*
X013604Y007346D01*
X013594Y007360D01*
X013581Y007373D01*
X013567Y007383D01*
X013551Y007390D01*
X013534Y007394D01*
X013517Y007396D01*
X020642Y011146D02*
X023342Y011146D01*
X023359Y011148D01*
X023376Y011152D01*
X023392Y011159D01*
X023406Y011169D01*
X023419Y011182D01*
X023429Y011196D01*
X023436Y011212D01*
X023440Y011229D01*
X023442Y011246D01*
X023442Y012246D01*
X023440Y012263D01*
X023436Y012280D01*
X023429Y012296D01*
X023419Y012310D01*
X023406Y012323D01*
X023392Y012333D01*
X023376Y012340D01*
X023359Y012344D01*
X023342Y012346D01*
X020642Y012346D01*
X020625Y012344D01*
X020608Y012340D01*
X020592Y012333D01*
X020578Y012323D01*
X020565Y012310D01*
X020555Y012296D01*
X020548Y012280D01*
X020544Y012263D01*
X020542Y012246D01*
X020542Y011246D01*
X020544Y011229D01*
X020548Y011212D01*
X020555Y011196D01*
X020565Y011182D01*
X020578Y011169D01*
X020592Y011159D01*
X020608Y011152D01*
X020625Y011148D01*
X020642Y011146D01*
X020217Y011746D02*
X019517Y011746D01*
X019500Y011748D01*
X019483Y011752D01*
X019467Y011759D01*
X019453Y011769D01*
X019440Y011782D01*
X019430Y011796D01*
X019423Y011812D01*
X019419Y011829D01*
X019417Y011846D01*
X019417Y011996D01*
X019467Y012046D01*
X019467Y013946D01*
X019417Y013996D01*
X019417Y014146D01*
X019419Y014163D01*
X019423Y014180D01*
X019430Y014196D01*
X019440Y014210D01*
X019453Y014223D01*
X019467Y014233D01*
X019483Y014240D01*
X019500Y014244D01*
X019517Y014246D01*
X020217Y014246D01*
X020234Y014244D01*
X020251Y014240D01*
X020267Y014233D01*
X020281Y014223D01*
X020294Y014210D01*
X020304Y014196D01*
X020311Y014180D01*
X020315Y014163D01*
X020317Y014146D01*
X020317Y013996D01*
X020267Y013946D01*
X020267Y012046D01*
X020317Y011996D01*
X020317Y011846D01*
X020315Y011829D01*
X020311Y011812D01*
X020304Y011796D01*
X020294Y011782D01*
X020281Y011769D01*
X020267Y011759D01*
X020251Y011752D01*
X020234Y011748D01*
X020217Y011746D01*
X021392Y011746D02*
X021862Y011746D01*
X022112Y011746D02*
X022592Y011746D01*
X022992Y010346D02*
X022992Y009996D01*
X024992Y009996D02*
X024992Y010346D01*
X020992Y010346D02*
X020992Y009996D01*
X022367Y015246D02*
X022369Y015290D01*
X022375Y015334D01*
X022385Y015377D01*
X022398Y015419D01*
X022415Y015460D01*
X022436Y015499D01*
X022460Y015536D01*
X022487Y015571D01*
X022517Y015603D01*
X022550Y015633D01*
X022586Y015659D01*
X022623Y015683D01*
X022663Y015702D01*
X022704Y015719D01*
X022747Y015731D01*
X022790Y015740D01*
X022834Y015745D01*
X022878Y015746D01*
X022922Y015743D01*
X022966Y015736D01*
X023009Y015725D01*
X023051Y015711D01*
X023091Y015693D01*
X023130Y015671D01*
X023166Y015647D01*
X023200Y015619D01*
X023232Y015588D01*
X023261Y015554D01*
X023287Y015518D01*
X023309Y015480D01*
X023328Y015440D01*
X023343Y015398D01*
X023355Y015356D01*
X023363Y015312D01*
X023367Y015268D01*
X023367Y015224D01*
X023363Y015180D01*
X023355Y015136D01*
X023343Y015094D01*
X023328Y015052D01*
X023309Y015012D01*
X023287Y014974D01*
X023261Y014938D01*
X023232Y014904D01*
X023200Y014873D01*
X023166Y014845D01*
X023130Y014821D01*
X023091Y014799D01*
X023051Y014781D01*
X023009Y014767D01*
X022966Y014756D01*
X022922Y014749D01*
X022878Y014746D01*
X022834Y014747D01*
X022790Y014752D01*
X022747Y014761D01*
X022704Y014773D01*
X022663Y014790D01*
X022623Y014809D01*
X022586Y014833D01*
X022550Y014859D01*
X022517Y014889D01*
X022487Y014921D01*
X022460Y014956D01*
X022436Y014993D01*
X022415Y015032D01*
X022398Y015073D01*
X022385Y015115D01*
X022375Y015158D01*
X022369Y015202D01*
X022367Y015246D01*
X020467Y015246D02*
X020470Y015364D01*
X020479Y015481D01*
X020493Y015598D01*
X020513Y015714D01*
X020539Y015829D01*
X020570Y015943D01*
X020607Y016055D01*
X020650Y016164D01*
X020697Y016272D01*
X020750Y016377D01*
X020808Y016480D01*
X020871Y016579D01*
X020939Y016676D01*
X021012Y016769D01*
X021089Y016858D01*
X021170Y016943D01*
X021255Y017024D01*
X021344Y017101D01*
X021437Y017174D01*
X021534Y017242D01*
X021633Y017305D01*
X021736Y017363D01*
X021841Y017416D01*
X021949Y017463D01*
X022058Y017506D01*
X022170Y017543D01*
X022284Y017574D01*
X022399Y017600D01*
X022515Y017620D01*
X022632Y017634D01*
X022749Y017643D01*
X022867Y017646D01*
X022985Y017643D01*
X023102Y017634D01*
X023219Y017620D01*
X023335Y017600D01*
X023450Y017574D01*
X023564Y017543D01*
X023676Y017506D01*
X023785Y017463D01*
X023893Y017416D01*
X023998Y017363D01*
X024101Y017305D01*
X024200Y017242D01*
X024297Y017174D01*
X024390Y017101D01*
X024479Y017024D01*
X024564Y016943D01*
X024645Y016858D01*
X024722Y016769D01*
X024795Y016676D01*
X024863Y016579D01*
X024926Y016480D01*
X024984Y016377D01*
X025037Y016272D01*
X025084Y016164D01*
X025127Y016055D01*
X025164Y015943D01*
X025195Y015829D01*
X025221Y015714D01*
X025241Y015598D01*
X025255Y015481D01*
X025264Y015364D01*
X025267Y015246D01*
X025264Y015128D01*
X025255Y015011D01*
X025241Y014894D01*
X025221Y014778D01*
X025195Y014663D01*
X025164Y014549D01*
X025127Y014437D01*
X025084Y014328D01*
X025037Y014220D01*
X024984Y014115D01*
X024926Y014012D01*
X024863Y013913D01*
X024795Y013816D01*
X024722Y013723D01*
X024645Y013634D01*
X024564Y013549D01*
X024479Y013468D01*
X024390Y013391D01*
X024297Y013318D01*
X024200Y013250D01*
X024101Y013187D01*
X023998Y013129D01*
X023893Y013076D01*
X023785Y013029D01*
X023676Y012986D01*
X023564Y012949D01*
X023450Y012918D01*
X023335Y012892D01*
X023219Y012872D01*
X023102Y012858D01*
X022985Y012849D01*
X022867Y012846D01*
X022749Y012849D01*
X022632Y012858D01*
X022515Y012872D01*
X022399Y012892D01*
X022284Y012918D01*
X022170Y012949D01*
X022058Y012986D01*
X021949Y013029D01*
X021841Y013076D01*
X021736Y013129D01*
X021633Y013187D01*
X021534Y013250D01*
X021437Y013318D01*
X021344Y013391D01*
X021255Y013468D01*
X021170Y013549D01*
X021089Y013634D01*
X021012Y013723D01*
X020939Y013816D01*
X020871Y013913D01*
X020808Y014012D01*
X020750Y014115D01*
X020697Y014220D01*
X020650Y014328D01*
X020607Y014437D01*
X020570Y014549D01*
X020539Y014663D01*
X020513Y014778D01*
X020493Y014894D01*
X020479Y015011D01*
X020470Y015128D01*
X020467Y015246D01*
X021367Y018496D02*
X021117Y018746D01*
X021117Y019246D01*
X021367Y019496D01*
X021117Y019746D01*
X021117Y020246D01*
X021367Y020496D01*
X021117Y020746D01*
X021117Y021246D01*
X021367Y021496D01*
X021117Y021746D01*
X021117Y022246D01*
X021367Y022496D01*
X021117Y022746D01*
X021117Y023246D01*
X021367Y023496D01*
X022867Y023496D01*
X023117Y023246D01*
X023117Y022746D01*
X022867Y022496D01*
X023117Y022246D01*
X023117Y021746D01*
X022867Y021496D01*
X023117Y021246D01*
X023117Y020746D01*
X022867Y020496D01*
X023117Y020246D01*
X023117Y019746D01*
X022867Y019496D01*
X023117Y019246D01*
X023117Y018746D01*
X022867Y018496D01*
X021367Y018496D01*
X015767Y019346D02*
X015767Y019496D01*
X015717Y019546D01*
X015717Y020946D01*
X015767Y020996D01*
X015767Y021146D01*
X015765Y021163D01*
X015761Y021180D01*
X015754Y021196D01*
X015744Y021210D01*
X015731Y021223D01*
X015717Y021233D01*
X015701Y021240D01*
X015684Y021244D01*
X015667Y021246D01*
X015067Y021246D01*
X015050Y021244D01*
X015033Y021240D01*
X015017Y021233D01*
X015003Y021223D01*
X014990Y021210D01*
X014980Y021196D01*
X014973Y021180D01*
X014969Y021163D01*
X014967Y021146D01*
X014967Y020996D01*
X015017Y020946D01*
X015017Y019546D01*
X014967Y019496D01*
X014967Y019346D01*
X014969Y019329D01*
X014973Y019312D01*
X014980Y019296D01*
X014990Y019282D01*
X015003Y019269D01*
X015017Y019259D01*
X015033Y019252D01*
X015050Y019248D01*
X015067Y019246D01*
X015667Y019246D01*
X015684Y019248D01*
X015701Y019252D01*
X015717Y019259D01*
X015731Y019269D01*
X015744Y019282D01*
X015754Y019296D01*
X015761Y019312D01*
X015765Y019329D01*
X015767Y019346D01*
X010267Y019346D02*
X010267Y019496D01*
X010217Y019546D01*
X010217Y020946D01*
X010267Y020996D01*
X010267Y021146D01*
X010265Y021163D01*
X010261Y021180D01*
X010254Y021196D01*
X010244Y021210D01*
X010231Y021223D01*
X010217Y021233D01*
X010201Y021240D01*
X010184Y021244D01*
X010167Y021246D01*
X009567Y021246D01*
X009550Y021244D01*
X009533Y021240D01*
X009517Y021233D01*
X009503Y021223D01*
X009490Y021210D01*
X009480Y021196D01*
X009473Y021180D01*
X009469Y021163D01*
X009467Y021146D01*
X009467Y020996D01*
X009517Y020946D01*
X009517Y019546D01*
X009467Y019496D01*
X009467Y019346D01*
X009469Y019329D01*
X009473Y019312D01*
X009480Y019296D01*
X009490Y019282D01*
X009503Y019269D01*
X009517Y019259D01*
X009533Y019252D01*
X009550Y019248D01*
X009567Y019246D01*
X010167Y019246D01*
X010184Y019248D01*
X010201Y019252D01*
X010217Y019259D01*
X010231Y019269D01*
X010244Y019282D01*
X010254Y019296D01*
X010261Y019312D01*
X010265Y019329D01*
X010267Y019346D01*
X008117Y019946D02*
X008117Y020546D01*
X008115Y020563D01*
X008111Y020580D01*
X008104Y020596D01*
X008094Y020610D01*
X008081Y020623D01*
X008067Y020633D01*
X008051Y020640D01*
X008034Y020644D01*
X008017Y020646D01*
X007867Y020646D01*
X007817Y020596D01*
X006417Y020596D01*
X006367Y020646D01*
X006217Y020646D01*
X006200Y020644D01*
X006183Y020640D01*
X006167Y020633D01*
X006153Y020623D01*
X006140Y020610D01*
X006130Y020596D01*
X006123Y020580D01*
X006119Y020563D01*
X006117Y020546D01*
X006117Y019946D01*
X006119Y019929D01*
X006123Y019912D01*
X006130Y019896D01*
X006140Y019882D01*
X006153Y019869D01*
X006167Y019859D01*
X006183Y019852D01*
X006200Y019848D01*
X006217Y019846D01*
X006367Y019846D01*
X006417Y019896D01*
X007817Y019896D01*
X007867Y019846D01*
X008017Y019846D01*
X008034Y019848D01*
X008051Y019852D01*
X008067Y019859D01*
X008081Y019869D01*
X008094Y019882D01*
X008104Y019896D01*
X008111Y019912D01*
X008115Y019929D01*
X008117Y019946D01*
X008017Y017896D02*
X007867Y017896D01*
X007817Y017846D01*
X006417Y017846D01*
X006367Y017896D01*
X006217Y017896D01*
X006200Y017894D01*
X006183Y017890D01*
X006167Y017883D01*
X006153Y017873D01*
X006140Y017860D01*
X006130Y017846D01*
X006123Y017830D01*
X006119Y017813D01*
X006117Y017796D01*
X006117Y017196D01*
X006119Y017179D01*
X006123Y017162D01*
X006130Y017146D01*
X006140Y017132D01*
X006153Y017119D01*
X006167Y017109D01*
X006183Y017102D01*
X006200Y017098D01*
X006217Y017096D01*
X006367Y017096D01*
X006417Y017146D01*
X007817Y017146D01*
X007867Y017096D01*
X008017Y017096D01*
X008034Y017098D01*
X008051Y017102D01*
X008067Y017109D01*
X008081Y017119D01*
X008094Y017132D01*
X008104Y017146D01*
X008111Y017162D01*
X008115Y017179D01*
X008117Y017196D01*
X008117Y017796D01*
X008115Y017813D01*
X008111Y017830D01*
X008104Y017846D01*
X008094Y017860D01*
X008081Y017873D01*
X008067Y017883D01*
X008051Y017890D01*
X008034Y017894D01*
X008017Y017896D01*
X007467Y016096D02*
X007469Y016155D01*
X007475Y016213D01*
X007484Y016272D01*
X007498Y016329D01*
X007515Y016385D01*
X007536Y016440D01*
X007560Y016494D01*
X007588Y016546D01*
X007619Y016596D01*
X007653Y016644D01*
X007690Y016689D01*
X007731Y016732D01*
X007774Y016773D01*
X007819Y016810D01*
X007867Y016844D01*
X007917Y016875D01*
X007969Y016903D01*
X008023Y016927D01*
X008078Y016948D01*
X008134Y016965D01*
X008191Y016979D01*
X008250Y016988D01*
X008308Y016994D01*
X008367Y016996D01*
X008426Y016994D01*
X008484Y016988D01*
X008543Y016979D01*
X008600Y016965D01*
X008656Y016948D01*
X008711Y016927D01*
X008765Y016903D01*
X008817Y016875D01*
X008867Y016844D01*
X008915Y016810D01*
X008960Y016773D01*
X009003Y016732D01*
X009044Y016689D01*
X009081Y016644D01*
X009115Y016596D01*
X009146Y016546D01*
X009174Y016494D01*
X009198Y016440D01*
X009219Y016385D01*
X009236Y016329D01*
X009250Y016272D01*
X009259Y016213D01*
X009265Y016155D01*
X009267Y016096D01*
X009267Y013396D01*
X009265Y013337D01*
X009259Y013279D01*
X009250Y013220D01*
X009236Y013163D01*
X009219Y013107D01*
X009198Y013052D01*
X009174Y012998D01*
X009146Y012946D01*
X009115Y012896D01*
X009081Y012848D01*
X009044Y012803D01*
X009003Y012760D01*
X008960Y012719D01*
X008915Y012682D01*
X008867Y012648D01*
X008817Y012617D01*
X008765Y012589D01*
X008711Y012565D01*
X008656Y012544D01*
X008600Y012527D01*
X008543Y012513D01*
X008484Y012504D01*
X008426Y012498D01*
X008367Y012496D01*
X008308Y012498D01*
X008250Y012504D01*
X008191Y012513D01*
X008134Y012527D01*
X008078Y012544D01*
X008023Y012565D01*
X007969Y012589D01*
X007917Y012617D01*
X007867Y012648D01*
X007819Y012682D01*
X007774Y012719D01*
X007731Y012760D01*
X007690Y012803D01*
X007653Y012848D01*
X007619Y012896D01*
X007588Y012946D01*
X007560Y012998D01*
X007536Y013052D01*
X007515Y013107D01*
X007498Y013163D01*
X007484Y013220D01*
X007475Y013279D01*
X007469Y013337D01*
X007467Y013396D01*
X007467Y016096D01*
X007317Y016146D02*
X007317Y015346D01*
X007315Y015329D01*
X007311Y015312D01*
X007304Y015296D01*
X007294Y015282D01*
X007281Y015269D01*
X007267Y015259D01*
X007251Y015252D01*
X007234Y015248D01*
X007217Y015246D01*
X005517Y015246D01*
X005500Y015248D01*
X005483Y015252D01*
X005467Y015259D01*
X005453Y015269D01*
X005440Y015282D01*
X005430Y015296D01*
X005423Y015312D01*
X005419Y015329D01*
X005417Y015346D01*
X005417Y016146D01*
X005419Y016163D01*
X005423Y016180D01*
X005430Y016196D01*
X005440Y016210D01*
X005453Y016223D01*
X005467Y016233D01*
X005483Y016240D01*
X005500Y016244D01*
X005517Y016246D01*
X007217Y016246D01*
X007234Y016244D01*
X007251Y016240D01*
X007267Y016233D01*
X007281Y016223D01*
X007294Y016210D01*
X007304Y016196D01*
X007311Y016180D01*
X007315Y016163D01*
X007317Y016146D01*
X006517Y015746D02*
X006467Y015746D01*
X006267Y015746D02*
X006217Y015746D01*
X005167Y014896D02*
X004967Y014896D01*
X005067Y014996D02*
X005067Y014796D01*
X005517Y014246D02*
X007217Y014246D01*
X007234Y014244D01*
X007251Y014240D01*
X007267Y014233D01*
X007281Y014223D01*
X007294Y014210D01*
X007304Y014196D01*
X007311Y014180D01*
X007315Y014163D01*
X007317Y014146D01*
X007317Y013346D01*
X007315Y013329D01*
X007311Y013312D01*
X007304Y013296D01*
X007294Y013282D01*
X007281Y013269D01*
X007267Y013259D01*
X007251Y013252D01*
X007234Y013248D01*
X007217Y013246D01*
X005517Y013246D01*
X005500Y013248D01*
X005483Y013252D01*
X005467Y013259D01*
X005453Y013269D01*
X005440Y013282D01*
X005430Y013296D01*
X005423Y013312D01*
X005419Y013329D01*
X005417Y013346D01*
X005417Y014146D01*
X005419Y014163D01*
X005423Y014180D01*
X005430Y014196D01*
X005440Y014210D01*
X005453Y014223D01*
X005467Y014233D01*
X005483Y014240D01*
X005500Y014244D01*
X005517Y014246D01*
X006217Y013746D02*
X006267Y013746D01*
X006467Y013746D02*
X006517Y013746D01*
X003367Y014496D02*
X003369Y014559D01*
X003375Y014621D01*
X003385Y014683D01*
X003398Y014745D01*
X003416Y014805D01*
X003437Y014864D01*
X003462Y014922D01*
X003491Y014978D01*
X003523Y015032D01*
X003558Y015084D01*
X003596Y015133D01*
X003638Y015181D01*
X003682Y015225D01*
X003730Y015267D01*
X003779Y015305D01*
X003831Y015340D01*
X003885Y015372D01*
X003941Y015401D01*
X003999Y015426D01*
X004058Y015447D01*
X004118Y015465D01*
X004180Y015478D01*
X004242Y015488D01*
X004304Y015494D01*
X004367Y015496D01*
X004430Y015494D01*
X004492Y015488D01*
X004554Y015478D01*
X004616Y015465D01*
X004676Y015447D01*
X004735Y015426D01*
X004793Y015401D01*
X004849Y015372D01*
X004903Y015340D01*
X004955Y015305D01*
X005004Y015267D01*
X005052Y015225D01*
X005096Y015181D01*
X005138Y015133D01*
X005176Y015084D01*
X005211Y015032D01*
X005243Y014978D01*
X005272Y014922D01*
X005297Y014864D01*
X005318Y014805D01*
X005336Y014745D01*
X005349Y014683D01*
X005359Y014621D01*
X005365Y014559D01*
X005367Y014496D01*
X005365Y014433D01*
X005359Y014371D01*
X005349Y014309D01*
X005336Y014247D01*
X005318Y014187D01*
X005297Y014128D01*
X005272Y014070D01*
X005243Y014014D01*
X005211Y013960D01*
X005176Y013908D01*
X005138Y013859D01*
X005096Y013811D01*
X005052Y013767D01*
X005004Y013725D01*
X004955Y013687D01*
X004903Y013652D01*
X004849Y013620D01*
X004793Y013591D01*
X004735Y013566D01*
X004676Y013545D01*
X004616Y013527D01*
X004554Y013514D01*
X004492Y013504D01*
X004430Y013498D01*
X004367Y013496D01*
X004304Y013498D01*
X004242Y013504D01*
X004180Y013514D01*
X004118Y013527D01*
X004058Y013545D01*
X003999Y013566D01*
X003941Y013591D01*
X003885Y013620D01*
X003831Y013652D01*
X003779Y013687D01*
X003730Y013725D01*
X003682Y013767D01*
X003638Y013811D01*
X003596Y013859D01*
X003558Y013908D01*
X003523Y013960D01*
X003491Y014014D01*
X003462Y014070D01*
X003437Y014128D01*
X003416Y014187D01*
X003398Y014247D01*
X003385Y014309D01*
X003375Y014371D01*
X003369Y014433D01*
X003367Y014496D01*
X004067Y016496D02*
X004667Y016496D01*
X004684Y016498D01*
X004701Y016502D01*
X004717Y016509D01*
X004731Y016519D01*
X004744Y016532D01*
X004754Y016546D01*
X004761Y016562D01*
X004765Y016579D01*
X004767Y016596D01*
X004767Y016746D01*
X004717Y016796D01*
X004717Y018196D01*
X004767Y018246D01*
X004767Y018396D01*
X004765Y018413D01*
X004761Y018430D01*
X004754Y018446D01*
X004744Y018460D01*
X004731Y018473D01*
X004717Y018483D01*
X004701Y018490D01*
X004684Y018494D01*
X004667Y018496D01*
X004067Y018496D01*
X004050Y018494D01*
X004033Y018490D01*
X004017Y018483D01*
X004003Y018473D01*
X003990Y018460D01*
X003980Y018446D01*
X003973Y018430D01*
X003969Y018413D01*
X003967Y018396D01*
X003967Y018246D01*
X004017Y018196D01*
X004017Y016796D01*
X003967Y016746D01*
X003967Y016596D01*
X003969Y016579D01*
X003973Y016562D01*
X003980Y016546D01*
X003990Y016532D01*
X004003Y016519D01*
X004017Y016509D01*
X004033Y016502D01*
X004050Y016498D01*
X004067Y016496D01*
X009367Y016096D02*
X009367Y014396D01*
X009369Y014379D01*
X009373Y014362D01*
X009380Y014346D01*
X009390Y014332D01*
X009403Y014319D01*
X009417Y014309D01*
X009433Y014302D01*
X009450Y014298D01*
X009467Y014296D01*
X010267Y014296D01*
X010284Y014298D01*
X010301Y014302D01*
X010317Y014309D01*
X010331Y014319D01*
X010344Y014332D01*
X010354Y014346D01*
X010361Y014362D01*
X010365Y014379D01*
X010367Y014396D01*
X010367Y016096D01*
X010365Y016113D01*
X010361Y016130D01*
X010354Y016146D01*
X010344Y016160D01*
X010331Y016173D01*
X010317Y016183D01*
X010301Y016190D01*
X010284Y016194D01*
X010267Y016196D01*
X009467Y016196D01*
X009450Y016194D01*
X009433Y016190D01*
X009417Y016183D01*
X009403Y016173D01*
X009390Y016160D01*
X009380Y016146D01*
X009373Y016130D01*
X009369Y016113D01*
X009367Y016096D01*
X009867Y015396D02*
X009867Y015346D01*
X009867Y015146D02*
X009867Y015096D01*
X004517Y009646D02*
X004367Y009646D01*
X004317Y009596D01*
X002917Y009596D01*
X002867Y009646D01*
X002717Y009646D01*
X002700Y009644D01*
X002683Y009640D01*
X002667Y009633D01*
X002653Y009623D01*
X002640Y009610D01*
X002630Y009596D01*
X002623Y009580D01*
X002619Y009563D01*
X002617Y009546D01*
X002617Y008946D01*
X002619Y008929D01*
X002623Y008912D01*
X002630Y008896D01*
X002640Y008882D01*
X002653Y008869D01*
X002667Y008859D01*
X002683Y008852D01*
X002700Y008848D01*
X002717Y008846D01*
X002867Y008846D01*
X002917Y008896D01*
X004317Y008896D01*
X004367Y008846D01*
X004517Y008846D01*
X004534Y008848D01*
X004551Y008852D01*
X004567Y008859D01*
X004581Y008869D01*
X004594Y008882D01*
X004604Y008896D01*
X004611Y008912D01*
X004615Y008929D01*
X004617Y008946D01*
X004617Y009546D01*
X004615Y009563D01*
X004611Y009580D01*
X004604Y009596D01*
X004594Y009610D01*
X004581Y009623D01*
X004567Y009633D01*
X004551Y009640D01*
X004534Y009644D01*
X004517Y009646D01*
X004517Y008646D02*
X004367Y008646D01*
X004317Y008596D01*
X002917Y008596D01*
X002867Y008646D01*
X002717Y008646D01*
X002700Y008644D01*
X002683Y008640D01*
X002667Y008633D01*
X002653Y008623D01*
X002640Y008610D01*
X002630Y008596D01*
X002623Y008580D01*
X002619Y008563D01*
X002617Y008546D01*
X002617Y007946D01*
X002619Y007929D01*
X002623Y007912D01*
X002630Y007896D01*
X002640Y007882D01*
X002653Y007869D01*
X002667Y007859D01*
X002683Y007852D01*
X002700Y007848D01*
X002717Y007846D01*
X002867Y007846D01*
X002917Y007896D01*
X004317Y007896D01*
X004367Y007846D01*
X004517Y007846D01*
X004534Y007848D01*
X004551Y007852D01*
X004567Y007859D01*
X004581Y007869D01*
X004594Y007882D01*
X004604Y007896D01*
X004611Y007912D01*
X004615Y007929D01*
X004617Y007946D01*
X004617Y008546D01*
X004615Y008563D01*
X004611Y008580D01*
X004604Y008596D01*
X004594Y008610D01*
X004581Y008623D01*
X004567Y008633D01*
X004551Y008640D01*
X004534Y008644D01*
X004517Y008646D01*
X004517Y007646D02*
X004367Y007646D01*
X004317Y007596D01*
X002917Y007596D01*
X002867Y007646D01*
X002717Y007646D01*
X002700Y007644D01*
X002683Y007640D01*
X002667Y007633D01*
X002653Y007623D01*
X002640Y007610D01*
X002630Y007596D01*
X002623Y007580D01*
X002619Y007563D01*
X002617Y007546D01*
X002617Y006946D01*
X002619Y006929D01*
X002623Y006912D01*
X002630Y006896D01*
X002640Y006882D01*
X002653Y006869D01*
X002667Y006859D01*
X002683Y006852D01*
X002700Y006848D01*
X002717Y006846D01*
X002867Y006846D01*
X002917Y006896D01*
X004317Y006896D01*
X004367Y006846D01*
X004517Y006846D01*
X004534Y006848D01*
X004551Y006852D01*
X004567Y006859D01*
X004581Y006869D01*
X004594Y006882D01*
X004604Y006896D01*
X004611Y006912D01*
X004615Y006929D01*
X004617Y006946D01*
X004617Y007546D01*
X004615Y007563D01*
X004611Y007580D01*
X004604Y007596D01*
X004594Y007610D01*
X004581Y007623D01*
X004567Y007633D01*
X004551Y007640D01*
X004534Y007644D01*
X004517Y007646D01*
X004517Y006696D02*
X003717Y006696D01*
X003700Y006694D01*
X003683Y006690D01*
X003667Y006683D01*
X003653Y006673D01*
X003640Y006660D01*
X003630Y006646D01*
X003623Y006630D01*
X003619Y006613D01*
X003617Y006596D01*
X003617Y004896D01*
X003619Y004879D01*
X003623Y004862D01*
X003630Y004846D01*
X003640Y004832D01*
X003653Y004819D01*
X003667Y004809D01*
X003683Y004802D01*
X003700Y004798D01*
X003717Y004796D01*
X004517Y004796D01*
X004534Y004798D01*
X004551Y004802D01*
X004567Y004809D01*
X004581Y004819D01*
X004594Y004832D01*
X004604Y004846D01*
X004611Y004862D01*
X004615Y004879D01*
X004617Y004896D01*
X004617Y006596D01*
X004615Y006613D01*
X004611Y006630D01*
X004604Y006646D01*
X004594Y006660D01*
X004581Y006673D01*
X004567Y006683D01*
X004551Y006690D01*
X004534Y006694D01*
X004517Y006696D01*
X004117Y005896D02*
X004117Y005846D01*
X004117Y005646D02*
X004117Y005596D01*
X001867Y004896D02*
X001867Y006596D01*
X001865Y006613D01*
X001861Y006630D01*
X001854Y006646D01*
X001844Y006660D01*
X001831Y006673D01*
X001817Y006683D01*
X001801Y006690D01*
X001784Y006694D01*
X001767Y006696D01*
X000967Y006696D01*
X000950Y006694D01*
X000933Y006690D01*
X000917Y006683D01*
X000903Y006673D01*
X000890Y006660D01*
X000880Y006646D01*
X000873Y006630D01*
X000869Y006613D01*
X000867Y006596D01*
X000867Y004896D01*
X000869Y004879D01*
X000873Y004862D01*
X000880Y004846D01*
X000890Y004832D01*
X000903Y004819D01*
X000917Y004809D01*
X000933Y004802D01*
X000950Y004798D01*
X000967Y004796D01*
X001767Y004796D01*
X001784Y004798D01*
X001801Y004802D01*
X001817Y004809D01*
X001831Y004819D01*
X001844Y004832D01*
X001854Y004846D01*
X001861Y004862D01*
X001865Y004879D01*
X001867Y004896D01*
X001367Y005596D02*
X001367Y005646D01*
X001367Y005846D02*
X001367Y005896D01*
X001416Y003438D02*
X000916Y003438D01*
X000666Y003188D01*
X000666Y002688D01*
X000916Y002438D01*
X001416Y002438D01*
X001666Y002688D01*
X001666Y003188D01*
X001416Y003438D01*
X003815Y003188D02*
X003815Y002688D01*
X004065Y002438D01*
X004565Y002438D01*
X004815Y002688D01*
X004815Y003188D01*
X004565Y003438D01*
X004065Y003438D01*
X003815Y003188D01*
X027817Y017246D02*
X027817Y022146D01*
X028167Y022146D01*
X028167Y022746D01*
X027817Y022746D01*
X027817Y023496D01*
X031917Y023496D01*
X031917Y022746D01*
X031567Y022746D01*
X031567Y022146D01*
X031917Y022146D01*
X031917Y017246D01*
X027817Y017246D01*
X032185Y020667D02*
X032185Y020817D01*
X032235Y020867D01*
X032235Y022267D01*
X032185Y022317D01*
X032185Y022467D01*
X032187Y022484D01*
X032191Y022501D01*
X032198Y022517D01*
X032208Y022531D01*
X032221Y022544D01*
X032235Y022554D01*
X032251Y022561D01*
X032268Y022565D01*
X032285Y022567D01*
X032885Y022567D01*
X032902Y022565D01*
X032919Y022561D01*
X032935Y022554D01*
X032949Y022544D01*
X032962Y022531D01*
X032972Y022517D01*
X032979Y022501D01*
X032983Y022484D01*
X032985Y022467D01*
X032985Y022317D01*
X032935Y022267D01*
X032935Y020867D01*
X032985Y020817D01*
X032985Y020667D01*
X032983Y020650D01*
X032979Y020633D01*
X032972Y020617D01*
X032962Y020603D01*
X032949Y020590D01*
X032935Y020580D01*
X032919Y020573D01*
X032902Y020569D01*
X032885Y020567D01*
X032285Y020567D01*
X032268Y020569D01*
X032251Y020573D01*
X032235Y020580D01*
X032221Y020590D01*
X032208Y020603D01*
X032198Y020617D01*
X032191Y020633D01*
X032187Y020650D01*
X032185Y020667D01*
X029157Y022146D02*
X029159Y022199D01*
X029165Y022252D01*
X029175Y022304D01*
X029189Y022355D01*
X029206Y022405D01*
X029227Y022454D01*
X029252Y022501D01*
X029280Y022546D01*
X029312Y022589D01*
X029347Y022629D01*
X029384Y022666D01*
X029424Y022701D01*
X029467Y022733D01*
X029512Y022761D01*
X029559Y022786D01*
X029608Y022807D01*
X029658Y022824D01*
X029709Y022838D01*
X029761Y022848D01*
X029814Y022854D01*
X029867Y022856D01*
X029920Y022854D01*
X029973Y022848D01*
X030025Y022838D01*
X030076Y022824D01*
X030126Y022807D01*
X030175Y022786D01*
X030222Y022761D01*
X030267Y022733D01*
X030310Y022701D01*
X030350Y022666D01*
X030387Y022629D01*
X030422Y022589D01*
X030454Y022546D01*
X030482Y022501D01*
X030507Y022454D01*
X030528Y022405D01*
X030545Y022355D01*
X030559Y022304D01*
X030569Y022252D01*
X030575Y022199D01*
X030577Y022146D01*
X030575Y022093D01*
X030569Y022040D01*
X030559Y021988D01*
X030545Y021937D01*
X030528Y021887D01*
X030507Y021838D01*
X030482Y021791D01*
X030454Y021746D01*
X030422Y021703D01*
X030387Y021663D01*
X030350Y021626D01*
X030310Y021591D01*
X030267Y021559D01*
X030222Y021531D01*
X030175Y021506D01*
X030126Y021485D01*
X030076Y021468D01*
X030025Y021454D01*
X029973Y021444D01*
X029920Y021438D01*
X029867Y021436D01*
X029814Y021438D01*
X029761Y021444D01*
X029709Y021454D01*
X029658Y021468D01*
X029608Y021485D01*
X029559Y021506D01*
X029512Y021531D01*
X029467Y021559D01*
X029424Y021591D01*
X029384Y021626D01*
X029347Y021663D01*
X029312Y021703D01*
X029280Y021746D01*
X029252Y021791D01*
X029227Y021838D01*
X029206Y021887D01*
X029189Y021937D01*
X029175Y021988D01*
X029165Y022040D01*
X029159Y022093D01*
X029157Y022146D01*
X027170Y022664D02*
X027170Y023264D01*
X027168Y023281D01*
X027164Y023298D01*
X027157Y023314D01*
X027147Y023328D01*
X027134Y023341D01*
X027120Y023351D01*
X027104Y023358D01*
X027087Y023362D01*
X027070Y023364D01*
X026920Y023364D01*
X026870Y023314D01*
X025470Y023314D01*
X025420Y023364D01*
X025270Y023364D01*
X025253Y023362D01*
X025236Y023358D01*
X025220Y023351D01*
X025206Y023341D01*
X025193Y023328D01*
X025183Y023314D01*
X025176Y023298D01*
X025172Y023281D01*
X025170Y023264D01*
X025170Y022664D01*
X025172Y022647D01*
X025176Y022630D01*
X025183Y022614D01*
X025193Y022600D01*
X025206Y022587D01*
X025220Y022577D01*
X025236Y022570D01*
X025253Y022566D01*
X025270Y022564D01*
X025420Y022564D01*
X025470Y022614D01*
X026870Y022614D01*
X026920Y022564D01*
X027070Y022564D01*
X027087Y022566D01*
X027104Y022570D01*
X027120Y022577D01*
X027134Y022587D01*
X027147Y022600D01*
X027157Y022614D01*
X027164Y022630D01*
X027168Y022647D01*
X027170Y022664D01*
X033795Y023164D02*
X033995Y023164D01*
X033895Y023064D02*
X033895Y023264D01*
X033295Y022464D02*
X033297Y022527D01*
X033303Y022589D01*
X033313Y022651D01*
X033326Y022713D01*
X033344Y022773D01*
X033365Y022832D01*
X033390Y022890D01*
X033419Y022946D01*
X033451Y023000D01*
X033486Y023052D01*
X033524Y023101D01*
X033566Y023149D01*
X033610Y023193D01*
X033658Y023235D01*
X033707Y023273D01*
X033759Y023308D01*
X033813Y023340D01*
X033869Y023369D01*
X033927Y023394D01*
X033986Y023415D01*
X034046Y023433D01*
X034108Y023446D01*
X034170Y023456D01*
X034232Y023462D01*
X034295Y023464D01*
X034358Y023462D01*
X034420Y023456D01*
X034482Y023446D01*
X034544Y023433D01*
X034604Y023415D01*
X034663Y023394D01*
X034721Y023369D01*
X034777Y023340D01*
X034831Y023308D01*
X034883Y023273D01*
X034932Y023235D01*
X034980Y023193D01*
X035024Y023149D01*
X035066Y023101D01*
X035104Y023052D01*
X035139Y023000D01*
X035171Y022946D01*
X035200Y022890D01*
X035225Y022832D01*
X035246Y022773D01*
X035264Y022713D01*
X035277Y022651D01*
X035287Y022589D01*
X035293Y022527D01*
X035295Y022464D01*
X035293Y022401D01*
X035287Y022339D01*
X035277Y022277D01*
X035264Y022215D01*
X035246Y022155D01*
X035225Y022096D01*
X035200Y022038D01*
X035171Y021982D01*
X035139Y021928D01*
X035104Y021876D01*
X035066Y021827D01*
X035024Y021779D01*
X034980Y021735D01*
X034932Y021693D01*
X034883Y021655D01*
X034831Y021620D01*
X034777Y021588D01*
X034721Y021559D01*
X034663Y021534D01*
X034604Y021513D01*
X034544Y021495D01*
X034482Y021482D01*
X034420Y021472D01*
X034358Y021466D01*
X034295Y021464D01*
X034232Y021466D01*
X034170Y021472D01*
X034108Y021482D01*
X034046Y021495D01*
X033986Y021513D01*
X033927Y021534D01*
X033869Y021559D01*
X033813Y021588D01*
X033759Y021620D01*
X033707Y021655D01*
X033658Y021693D01*
X033610Y021735D01*
X033566Y021779D01*
X033524Y021827D01*
X033486Y021876D01*
X033451Y021928D01*
X033419Y021982D01*
X033390Y022038D01*
X033365Y022096D01*
X033344Y022155D01*
X033326Y022215D01*
X033313Y022277D01*
X033303Y022339D01*
X033297Y022401D01*
X033295Y022464D01*
X038492Y007621D02*
X038242Y007371D01*
X038242Y006871D01*
X038492Y006621D01*
X038992Y006621D01*
X039242Y006871D01*
X039242Y007371D01*
X038992Y007621D01*
X038492Y007621D01*
X039367Y007371D02*
X039617Y007621D01*
X040117Y007621D01*
X040367Y007371D01*
X040367Y006871D01*
X040117Y006621D01*
X039617Y006621D01*
X039367Y006871D01*
X039367Y007371D01*
X039892Y003438D02*
X039642Y003188D01*
X039642Y002688D01*
X039892Y002438D01*
X040392Y002438D01*
X040642Y002688D01*
X040642Y003188D01*
X040392Y003438D01*
X039892Y003438D01*
X039013Y002971D02*
X038586Y002971D01*
X038800Y003184D02*
X038800Y002757D01*
X037725Y003078D02*
X037618Y003078D01*
X037405Y002864D01*
X037405Y002651D02*
X037405Y003078D01*
X037187Y002971D02*
X037187Y002864D01*
X036760Y002864D01*
X036760Y002757D02*
X036760Y002971D01*
X036867Y003078D01*
X037080Y003078D01*
X037187Y002971D01*
X036867Y002651D02*
X036760Y002757D01*
X036867Y002651D02*
X037080Y002651D01*
X036542Y002651D02*
X036222Y002651D01*
X036115Y002757D01*
X036115Y002971D01*
X036222Y003078D01*
X036542Y003078D01*
X036542Y002544D01*
X036436Y002437D01*
X036329Y002437D01*
X035899Y002651D02*
X035686Y002651D01*
X035793Y002651D02*
X035793Y003078D01*
X035686Y003078D01*
X035793Y003291D02*
X035793Y003398D01*
X035468Y002971D02*
X035468Y002864D01*
X035041Y002864D01*
X035041Y002757D02*
X035041Y002971D01*
X035148Y003078D01*
X035361Y003078D01*
X035468Y002971D01*
X035148Y002651D02*
X035041Y002757D01*
X035148Y002651D02*
X035361Y002651D01*
X034824Y002757D02*
X034824Y002971D01*
X034610Y002971D01*
X034397Y003184D02*
X034397Y002757D01*
X034503Y002651D01*
X034717Y002651D01*
X034824Y002757D01*
X034824Y003184D02*
X034717Y003291D01*
X034503Y003291D01*
X034397Y003184D01*
X042792Y003188D02*
X042792Y002688D01*
X043042Y002438D01*
X043542Y002438D01*
X043792Y002688D01*
X043792Y003188D01*
X043542Y003438D01*
X043042Y003438D01*
X042792Y003188D01*
D38*
X031667Y017496D02*
X028067Y017496D01*
X028067Y020746D01*
X031667Y020746D01*
X031667Y017496D01*
X009067Y016096D02*
X009067Y013396D01*
X009065Y013345D01*
X009060Y013294D01*
X009050Y013244D01*
X009037Y013194D01*
X009021Y013146D01*
X009001Y013099D01*
X008977Y013053D01*
X008951Y013010D01*
X008921Y012968D01*
X008888Y012929D01*
X008853Y012892D01*
X008815Y012858D01*
X008774Y012827D01*
X008732Y012798D01*
X008687Y012773D01*
X008641Y012752D01*
X008593Y012733D01*
X008544Y012719D01*
X008494Y012708D01*
X008444Y012700D01*
X008393Y012696D01*
X008341Y012696D01*
X008290Y012700D01*
X008240Y012708D01*
X008190Y012719D01*
X008141Y012733D01*
X008093Y012752D01*
X008047Y012773D01*
X008002Y012798D01*
X007960Y012827D01*
X007919Y012858D01*
X007881Y012892D01*
X007846Y012929D01*
X007813Y012968D01*
X007783Y013010D01*
X007757Y013053D01*
X007733Y013099D01*
X007713Y013146D01*
X007697Y013194D01*
X007684Y013244D01*
X007674Y013294D01*
X007669Y013345D01*
X007667Y013396D01*
X007667Y016096D01*
X007669Y016147D01*
X007674Y016198D01*
X007684Y016248D01*
X007697Y016298D01*
X007713Y016346D01*
X007733Y016393D01*
X007757Y016439D01*
X007783Y016482D01*
X007813Y016524D01*
X007846Y016563D01*
X007881Y016600D01*
X007919Y016634D01*
X007960Y016665D01*
X008002Y016694D01*
X008047Y016719D01*
X008093Y016740D01*
X008141Y016759D01*
X008190Y016773D01*
X008240Y016784D01*
X008290Y016792D01*
X008341Y016796D01*
X008393Y016796D01*
X008444Y016792D01*
X008494Y016784D01*
X008544Y016773D01*
X008593Y016759D01*
X008641Y016740D01*
X008687Y016719D01*
X008732Y016694D01*
X008774Y016665D01*
X008815Y016634D01*
X008853Y016600D01*
X008888Y016563D01*
X008921Y016524D01*
X008951Y016482D01*
X008977Y016439D01*
X009001Y016393D01*
X009021Y016346D01*
X009037Y016298D01*
X009050Y016248D01*
X009060Y016198D01*
X009065Y016147D01*
X009067Y016096D01*
D39*
X009567Y015346D02*
X009867Y015346D01*
X010167Y015346D01*
X010167Y015146D02*
X009867Y015146D01*
X009567Y015146D01*
X006467Y015446D02*
X006467Y015746D01*
X006467Y016046D01*
X006267Y016046D02*
X006267Y015746D01*
X006267Y015446D01*
X006267Y014046D02*
X006267Y013746D01*
X006267Y013446D01*
X006467Y013446D02*
X006467Y013746D01*
X006467Y014046D01*
X004417Y005846D02*
X004117Y005846D01*
X003817Y005846D01*
X003817Y005646D02*
X004117Y005646D01*
X004417Y005646D01*
X001667Y005646D02*
X001367Y005646D01*
X001067Y005646D01*
X001067Y005846D02*
X001367Y005846D01*
X001667Y005846D01*
X026192Y008146D02*
X026492Y008146D01*
X026792Y008146D01*
X026792Y008346D02*
X026492Y008346D01*
X026192Y008346D01*
D40*
X019601Y007490D02*
X019601Y004931D01*
X017042Y004931D01*
X015567Y005693D02*
X015567Y005798D01*
X014967Y005421D02*
X014967Y007070D01*
X015567Y006798D02*
X015567Y006693D01*
X018417Y006693D02*
X018417Y006798D01*
X019017Y007070D02*
X019017Y005421D01*
X018417Y005693D02*
X018417Y005798D01*
X013105Y004931D02*
X008380Y004931D01*
X007419Y005796D02*
X007314Y005796D01*
X006419Y005796D02*
X006314Y005796D01*
X006042Y006396D02*
X007691Y006396D01*
X007419Y008296D02*
X007314Y008296D01*
X007691Y008896D02*
X006042Y008896D01*
X006314Y008296D02*
X006419Y008296D01*
X001884Y007490D02*
X001884Y004931D01*
X004443Y004931D01*
X001884Y011427D02*
X001884Y016151D01*
X005912Y019433D02*
X005939Y019489D01*
X005970Y019543D01*
X006004Y019595D01*
X006041Y019645D01*
X006042Y019646D02*
X007691Y019646D01*
X007419Y019046D02*
X007314Y019046D01*
X007817Y019442D02*
X007790Y019496D01*
X007760Y019547D01*
X007727Y019597D01*
X007692Y019645D01*
X007817Y018549D02*
X007788Y018492D01*
X007755Y018436D01*
X007720Y018383D01*
X007680Y018332D01*
X007638Y018284D01*
X007593Y018238D01*
X007546Y018195D01*
X007496Y018155D01*
X007443Y018118D01*
X007388Y018085D01*
X007332Y018054D01*
X007273Y018028D01*
X007213Y018005D01*
X007152Y017985D01*
X007090Y017970D01*
X007027Y017958D01*
X006963Y017950D01*
X006899Y017946D01*
X006835Y017946D01*
X006771Y017950D01*
X006707Y017958D01*
X006644Y017970D01*
X006582Y017985D01*
X006521Y018005D01*
X006461Y018028D01*
X006402Y018054D01*
X006346Y018085D01*
X006291Y018118D01*
X006238Y018155D01*
X006188Y018195D01*
X006141Y018238D01*
X006096Y018284D01*
X006054Y018332D01*
X006014Y018383D01*
X005979Y018436D01*
X005946Y018492D01*
X005917Y018549D01*
X006314Y019046D02*
X006419Y019046D01*
X001884Y020088D02*
X001884Y022647D01*
X004443Y022647D01*
X006042Y022396D02*
X007691Y022396D01*
X008380Y022647D02*
X013105Y022647D01*
X017042Y022647D02*
X019601Y022647D01*
X019601Y020088D01*
X023291Y018985D02*
X023366Y019060D01*
X023667Y018760D01*
X023742Y018835D01*
X023742Y018985D01*
X023667Y019060D01*
X023366Y019060D01*
X023291Y018985D02*
X023291Y018835D01*
X023366Y018760D01*
X023667Y018760D01*
X023742Y018600D02*
X023742Y018300D01*
X023742Y018450D02*
X023291Y018450D01*
X023441Y018300D01*
X019601Y016151D02*
X019601Y011427D01*
X037770Y011238D02*
X037770Y014781D01*
X043518Y014781D01*
X043518Y011238D01*
X037770Y011238D01*
X020942Y022760D02*
X020942Y023060D01*
X020942Y022910D02*
X020491Y022910D01*
X020641Y022760D01*
X007419Y021796D02*
X007314Y021796D01*
X007817Y022192D02*
X007790Y022246D01*
X007760Y022297D01*
X007727Y022347D01*
X007692Y022395D01*
X007817Y021299D02*
X007788Y021242D01*
X007755Y021186D01*
X007720Y021133D01*
X007680Y021082D01*
X007638Y021034D01*
X007593Y020988D01*
X007546Y020945D01*
X007496Y020905D01*
X007443Y020868D01*
X007388Y020835D01*
X007332Y020804D01*
X007273Y020778D01*
X007213Y020755D01*
X007152Y020735D01*
X007090Y020720D01*
X007027Y020708D01*
X006963Y020700D01*
X006899Y020696D01*
X006835Y020696D01*
X006771Y020700D01*
X006707Y020708D01*
X006644Y020720D01*
X006582Y020735D01*
X006521Y020755D01*
X006461Y020778D01*
X006402Y020804D01*
X006346Y020835D01*
X006291Y020868D01*
X006238Y020905D01*
X006188Y020945D01*
X006141Y020988D01*
X006096Y021034D01*
X006054Y021082D01*
X006014Y021133D01*
X005979Y021186D01*
X005946Y021242D01*
X005917Y021299D01*
X006314Y021796D02*
X006419Y021796D01*
X005912Y022183D02*
X005939Y022239D01*
X005970Y022293D01*
X006004Y022345D01*
X006041Y022395D01*
D41*
X006042Y020246D03*
X008192Y020246D03*
X008192Y017496D03*
X006042Y017496D03*
X004692Y009246D03*
X004692Y008246D03*
X004692Y007246D03*
X002542Y007246D03*
X002542Y008246D03*
X002542Y009246D03*
X011542Y006996D03*
X013692Y006996D03*
X016042Y009246D03*
X018192Y009246D03*
X026917Y005746D03*
X029067Y005746D03*
X027245Y022964D03*
X025095Y022964D03*
D42*
X022992Y009646D03*
X024992Y008846D03*
X020992Y008846D03*
D43*
X027492Y008171D03*
X028742Y008171D03*
X028742Y010321D03*
X027492Y010321D03*
X015367Y019171D03*
X015367Y021321D03*
X009867Y021321D03*
X009867Y019171D03*
X004367Y018571D03*
X004367Y016421D03*
X032585Y020492D03*
X032585Y022642D03*
D44*
X007832Y008705D02*
X007796Y008688D01*
X007797Y008688D02*
X007771Y008738D01*
X007743Y008787D01*
X007712Y008834D01*
X007679Y008879D01*
X007710Y008903D01*
X007745Y008857D01*
X007777Y008808D01*
X007806Y008757D01*
X007833Y008705D01*
X007825Y008701D01*
X007798Y008753D01*
X007769Y008803D01*
X007738Y008851D01*
X007703Y008898D01*
X007696Y008892D01*
X007730Y008846D01*
X007762Y008798D01*
X007791Y008749D01*
X007817Y008698D01*
X007809Y008694D01*
X007783Y008744D01*
X007754Y008794D01*
X007723Y008841D01*
X007689Y008887D01*
X007682Y008881D01*
X007716Y008836D01*
X007746Y008789D01*
X007775Y008740D01*
X007800Y008690D01*
X005902Y007786D02*
X005938Y007803D01*
X005937Y007803D02*
X005966Y007747D01*
X005998Y007693D01*
X006033Y007641D01*
X006071Y007592D01*
X006113Y007545D01*
X006157Y007500D01*
X006204Y007458D01*
X006253Y007419D01*
X006304Y007383D01*
X006358Y007351D01*
X006413Y007321D01*
X006470Y007296D01*
X006529Y007273D01*
X006588Y007254D01*
X006649Y007239D01*
X006711Y007228D01*
X006773Y007220D01*
X006836Y007216D01*
X006898Y007216D01*
X006961Y007220D01*
X007023Y007228D01*
X007085Y007239D01*
X007146Y007254D01*
X007205Y007273D01*
X007264Y007296D01*
X007321Y007321D01*
X007376Y007351D01*
X007430Y007383D01*
X007481Y007419D01*
X007530Y007458D01*
X007577Y007500D01*
X007621Y007545D01*
X007663Y007592D01*
X007701Y007641D01*
X007736Y007693D01*
X007768Y007747D01*
X007797Y007803D01*
X007832Y007786D01*
X007833Y007786D01*
X007803Y007728D01*
X007770Y007672D01*
X007733Y007618D01*
X007694Y007566D01*
X007651Y007517D01*
X007605Y007471D01*
X007556Y007428D01*
X007505Y007387D01*
X007452Y007350D01*
X007396Y007316D01*
X007339Y007286D01*
X007279Y007259D01*
X007219Y007235D01*
X007156Y007216D01*
X007093Y007200D01*
X007029Y007188D01*
X006965Y007180D01*
X006900Y007176D01*
X006834Y007176D01*
X006769Y007180D01*
X006705Y007188D01*
X006641Y007200D01*
X006578Y007216D01*
X006515Y007235D01*
X006455Y007259D01*
X006395Y007286D01*
X006338Y007316D01*
X006282Y007350D01*
X006229Y007387D01*
X006178Y007428D01*
X006129Y007471D01*
X006083Y007517D01*
X006040Y007566D01*
X006001Y007618D01*
X005964Y007672D01*
X005931Y007728D01*
X005901Y007786D01*
X005909Y007790D01*
X005939Y007732D01*
X005972Y007677D01*
X006008Y007623D01*
X006047Y007572D01*
X006090Y007524D01*
X006135Y007478D01*
X006183Y007435D01*
X006234Y007394D01*
X006287Y007358D01*
X006342Y007324D01*
X006399Y007294D01*
X006458Y007267D01*
X006518Y007244D01*
X006580Y007225D01*
X006643Y007209D01*
X006706Y007197D01*
X006770Y007189D01*
X006835Y007185D01*
X006899Y007185D01*
X006964Y007189D01*
X007028Y007197D01*
X007091Y007209D01*
X007154Y007225D01*
X007216Y007244D01*
X007276Y007267D01*
X007335Y007294D01*
X007392Y007324D01*
X007447Y007358D01*
X007500Y007394D01*
X007551Y007435D01*
X007599Y007478D01*
X007644Y007524D01*
X007687Y007572D01*
X007726Y007623D01*
X007762Y007677D01*
X007795Y007732D01*
X007825Y007790D01*
X007817Y007793D01*
X007787Y007736D01*
X007755Y007681D01*
X007719Y007628D01*
X007680Y007578D01*
X007637Y007530D01*
X007592Y007484D01*
X007545Y007441D01*
X007495Y007402D01*
X007442Y007365D01*
X007387Y007332D01*
X007331Y007302D01*
X007272Y007275D01*
X007213Y007252D01*
X007152Y007233D01*
X007089Y007218D01*
X007026Y007206D01*
X006963Y007198D01*
X006899Y007194D01*
X006835Y007194D01*
X006771Y007198D01*
X006708Y007206D01*
X006645Y007218D01*
X006582Y007233D01*
X006521Y007252D01*
X006462Y007275D01*
X006403Y007302D01*
X006347Y007332D01*
X006292Y007365D01*
X006239Y007402D01*
X006189Y007441D01*
X006142Y007484D01*
X006097Y007530D01*
X006054Y007578D01*
X006015Y007628D01*
X005979Y007681D01*
X005947Y007736D01*
X005917Y007793D01*
X005925Y007797D01*
X005955Y007741D01*
X005987Y007686D01*
X006023Y007634D01*
X006061Y007584D01*
X006103Y007536D01*
X006148Y007491D01*
X006195Y007448D01*
X006245Y007409D01*
X006297Y007373D01*
X006351Y007340D01*
X006407Y007310D01*
X006465Y007284D01*
X006524Y007261D01*
X006585Y007242D01*
X006646Y007227D01*
X006709Y007215D01*
X006772Y007207D01*
X006835Y007203D01*
X006899Y007203D01*
X006962Y007207D01*
X007025Y007215D01*
X007088Y007227D01*
X007149Y007242D01*
X007210Y007261D01*
X007269Y007284D01*
X007327Y007310D01*
X007383Y007340D01*
X007437Y007373D01*
X007489Y007409D01*
X007539Y007448D01*
X007586Y007491D01*
X007631Y007536D01*
X007673Y007584D01*
X007711Y007634D01*
X007747Y007686D01*
X007779Y007741D01*
X007809Y007797D01*
X007800Y007801D01*
X007772Y007745D01*
X007739Y007691D01*
X007704Y007639D01*
X007666Y007589D01*
X007624Y007542D01*
X007580Y007497D01*
X007533Y007455D01*
X007484Y007416D01*
X007432Y007380D01*
X007378Y007347D01*
X007323Y007318D01*
X007265Y007292D01*
X007207Y007269D01*
X007147Y007251D01*
X007086Y007235D01*
X007024Y007224D01*
X006961Y007216D01*
X006898Y007212D01*
X006836Y007212D01*
X006773Y007216D01*
X006710Y007224D01*
X006648Y007235D01*
X006587Y007251D01*
X006527Y007269D01*
X006469Y007292D01*
X006411Y007318D01*
X006356Y007347D01*
X006302Y007380D01*
X006250Y007416D01*
X006201Y007455D01*
X006154Y007497D01*
X006110Y007542D01*
X006068Y007589D01*
X006030Y007639D01*
X005995Y007691D01*
X005962Y007745D01*
X005934Y007801D01*
X006023Y008903D02*
X006055Y008878D01*
X006054Y008879D02*
X006019Y008831D01*
X005987Y008782D01*
X005958Y008731D01*
X005932Y008679D01*
X005896Y008695D01*
X005896Y008696D01*
X005923Y008750D01*
X005953Y008803D01*
X005986Y008854D01*
X006023Y008903D01*
X006030Y008898D01*
X005994Y008849D01*
X005961Y008798D01*
X005931Y008746D01*
X005904Y008692D01*
X005912Y008688D01*
X005939Y008742D01*
X005968Y008794D01*
X006001Y008844D01*
X006037Y008892D01*
X006044Y008887D01*
X006009Y008839D01*
X005976Y008789D01*
X005947Y008738D01*
X005920Y008684D01*
X005928Y008681D01*
X005955Y008733D01*
X005984Y008784D01*
X006016Y008834D01*
X006051Y008881D01*
X006023Y006403D02*
X006055Y006378D01*
X006054Y006379D02*
X006019Y006331D01*
X005987Y006282D01*
X005958Y006231D01*
X005932Y006179D01*
X005896Y006195D01*
X005896Y006196D01*
X005923Y006250D01*
X005953Y006303D01*
X005986Y006354D01*
X006023Y006403D01*
X006030Y006398D01*
X005994Y006349D01*
X005961Y006298D01*
X005931Y006246D01*
X005904Y006192D01*
X005912Y006188D01*
X005939Y006242D01*
X005968Y006294D01*
X006001Y006344D01*
X006037Y006392D01*
X006044Y006387D01*
X006009Y006339D01*
X005976Y006289D01*
X005947Y006238D01*
X005920Y006184D01*
X005928Y006181D01*
X005955Y006233D01*
X005984Y006284D01*
X006016Y006334D01*
X006051Y006381D01*
X005902Y005286D02*
X005938Y005303D01*
X005937Y005303D02*
X005966Y005247D01*
X005998Y005193D01*
X006033Y005141D01*
X006071Y005092D01*
X006113Y005045D01*
X006157Y005000D01*
X006204Y004958D01*
X006253Y004919D01*
X006304Y004883D01*
X006358Y004851D01*
X006413Y004821D01*
X006470Y004796D01*
X006529Y004773D01*
X006588Y004754D01*
X006649Y004739D01*
X006711Y004728D01*
X006773Y004720D01*
X006836Y004716D01*
X006898Y004716D01*
X006961Y004720D01*
X007023Y004728D01*
X007085Y004739D01*
X007146Y004754D01*
X007205Y004773D01*
X007264Y004796D01*
X007321Y004821D01*
X007376Y004851D01*
X007430Y004883D01*
X007481Y004919D01*
X007530Y004958D01*
X007577Y005000D01*
X007621Y005045D01*
X007663Y005092D01*
X007701Y005141D01*
X007736Y005193D01*
X007768Y005247D01*
X007797Y005303D01*
X007832Y005286D01*
X007833Y005286D01*
X007803Y005228D01*
X007770Y005172D01*
X007733Y005118D01*
X007694Y005066D01*
X007651Y005017D01*
X007605Y004971D01*
X007556Y004928D01*
X007505Y004887D01*
X007452Y004850D01*
X007396Y004816D01*
X007339Y004786D01*
X007279Y004759D01*
X007219Y004735D01*
X007156Y004716D01*
X007093Y004700D01*
X007029Y004688D01*
X006965Y004680D01*
X006900Y004676D01*
X006834Y004676D01*
X006769Y004680D01*
X006705Y004688D01*
X006641Y004700D01*
X006578Y004716D01*
X006515Y004735D01*
X006455Y004759D01*
X006395Y004786D01*
X006338Y004816D01*
X006282Y004850D01*
X006229Y004887D01*
X006178Y004928D01*
X006129Y004971D01*
X006083Y005017D01*
X006040Y005066D01*
X006001Y005118D01*
X005964Y005172D01*
X005931Y005228D01*
X005901Y005286D01*
X005909Y005290D01*
X005939Y005232D01*
X005972Y005177D01*
X006008Y005123D01*
X006047Y005072D01*
X006090Y005024D01*
X006135Y004978D01*
X006183Y004935D01*
X006234Y004894D01*
X006287Y004858D01*
X006342Y004824D01*
X006399Y004794D01*
X006458Y004767D01*
X006518Y004744D01*
X006580Y004725D01*
X006643Y004709D01*
X006706Y004697D01*
X006770Y004689D01*
X006835Y004685D01*
X006899Y004685D01*
X006964Y004689D01*
X007028Y004697D01*
X007091Y004709D01*
X007154Y004725D01*
X007216Y004744D01*
X007276Y004767D01*
X007335Y004794D01*
X007392Y004824D01*
X007447Y004858D01*
X007500Y004894D01*
X007551Y004935D01*
X007599Y004978D01*
X007644Y005024D01*
X007687Y005072D01*
X007726Y005123D01*
X007762Y005177D01*
X007795Y005232D01*
X007825Y005290D01*
X007817Y005293D01*
X007787Y005236D01*
X007755Y005181D01*
X007719Y005128D01*
X007680Y005078D01*
X007637Y005030D01*
X007592Y004984D01*
X007545Y004941D01*
X007495Y004902D01*
X007442Y004865D01*
X007387Y004832D01*
X007331Y004802D01*
X007272Y004775D01*
X007213Y004752D01*
X007152Y004733D01*
X007089Y004718D01*
X007026Y004706D01*
X006963Y004698D01*
X006899Y004694D01*
X006835Y004694D01*
X006771Y004698D01*
X006708Y004706D01*
X006645Y004718D01*
X006582Y004733D01*
X006521Y004752D01*
X006462Y004775D01*
X006403Y004802D01*
X006347Y004832D01*
X006292Y004865D01*
X006239Y004902D01*
X006189Y004941D01*
X006142Y004984D01*
X006097Y005030D01*
X006054Y005078D01*
X006015Y005128D01*
X005979Y005181D01*
X005947Y005236D01*
X005917Y005293D01*
X005925Y005297D01*
X005955Y005241D01*
X005987Y005186D01*
X006023Y005134D01*
X006061Y005084D01*
X006103Y005036D01*
X006148Y004991D01*
X006195Y004948D01*
X006245Y004909D01*
X006297Y004873D01*
X006351Y004840D01*
X006407Y004810D01*
X006465Y004784D01*
X006524Y004761D01*
X006585Y004742D01*
X006646Y004727D01*
X006709Y004715D01*
X006772Y004707D01*
X006835Y004703D01*
X006899Y004703D01*
X006962Y004707D01*
X007025Y004715D01*
X007088Y004727D01*
X007149Y004742D01*
X007210Y004761D01*
X007269Y004784D01*
X007327Y004810D01*
X007383Y004840D01*
X007437Y004873D01*
X007489Y004909D01*
X007539Y004948D01*
X007586Y004991D01*
X007631Y005036D01*
X007673Y005084D01*
X007711Y005134D01*
X007747Y005186D01*
X007779Y005241D01*
X007809Y005297D01*
X007800Y005301D01*
X007772Y005245D01*
X007739Y005191D01*
X007704Y005139D01*
X007666Y005089D01*
X007624Y005042D01*
X007580Y004997D01*
X007533Y004955D01*
X007484Y004916D01*
X007432Y004880D01*
X007378Y004847D01*
X007323Y004818D01*
X007265Y004792D01*
X007207Y004769D01*
X007147Y004751D01*
X007086Y004735D01*
X007024Y004724D01*
X006961Y004716D01*
X006898Y004712D01*
X006836Y004712D01*
X006773Y004716D01*
X006710Y004724D01*
X006648Y004735D01*
X006587Y004751D01*
X006527Y004769D01*
X006469Y004792D01*
X006411Y004818D01*
X006356Y004847D01*
X006302Y004880D01*
X006250Y004916D01*
X006201Y004955D01*
X006154Y004997D01*
X006110Y005042D01*
X006068Y005089D01*
X006030Y005139D01*
X005995Y005191D01*
X005962Y005245D01*
X005934Y005301D01*
X007832Y006205D02*
X007796Y006188D01*
X007797Y006188D02*
X007771Y006238D01*
X007743Y006287D01*
X007712Y006334D01*
X007679Y006379D01*
X007710Y006403D01*
X007745Y006357D01*
X007777Y006308D01*
X007806Y006257D01*
X007833Y006205D01*
X007825Y006201D01*
X007798Y006253D01*
X007769Y006303D01*
X007738Y006351D01*
X007703Y006398D01*
X007696Y006392D01*
X007730Y006346D01*
X007762Y006298D01*
X007791Y006249D01*
X007817Y006198D01*
X007809Y006194D01*
X007783Y006244D01*
X007754Y006294D01*
X007723Y006341D01*
X007689Y006387D01*
X007682Y006381D01*
X007716Y006336D01*
X007746Y006289D01*
X007775Y006240D01*
X007800Y006190D01*
X016077Y005281D02*
X016060Y005317D01*
X016060Y005316D02*
X016116Y005345D01*
X016170Y005377D01*
X016222Y005412D01*
X016271Y005450D01*
X016318Y005492D01*
X016363Y005536D01*
X016405Y005583D01*
X016444Y005632D01*
X016480Y005683D01*
X016512Y005737D01*
X016542Y005792D01*
X016567Y005849D01*
X016590Y005908D01*
X016609Y005967D01*
X016624Y006028D01*
X016635Y006090D01*
X016643Y006152D01*
X016647Y006215D01*
X016647Y006277D01*
X016643Y006340D01*
X016635Y006402D01*
X016624Y006464D01*
X016609Y006525D01*
X016590Y006584D01*
X016567Y006643D01*
X016542Y006700D01*
X016512Y006755D01*
X016480Y006809D01*
X016444Y006860D01*
X016405Y006909D01*
X016363Y006956D01*
X016318Y007000D01*
X016271Y007042D01*
X016222Y007080D01*
X016170Y007115D01*
X016116Y007147D01*
X016060Y007176D01*
X016077Y007211D01*
X016077Y007212D01*
X016135Y007182D01*
X016191Y007149D01*
X016245Y007112D01*
X016297Y007073D01*
X016346Y007030D01*
X016392Y006984D01*
X016435Y006935D01*
X016476Y006884D01*
X016513Y006831D01*
X016547Y006775D01*
X016577Y006718D01*
X016604Y006658D01*
X016628Y006598D01*
X016647Y006535D01*
X016663Y006472D01*
X016675Y006408D01*
X016683Y006344D01*
X016687Y006279D01*
X016687Y006213D01*
X016683Y006148D01*
X016675Y006084D01*
X016663Y006020D01*
X016647Y005957D01*
X016628Y005894D01*
X016604Y005834D01*
X016577Y005774D01*
X016547Y005717D01*
X016513Y005661D01*
X016476Y005608D01*
X016435Y005557D01*
X016392Y005508D01*
X016346Y005462D01*
X016297Y005419D01*
X016245Y005380D01*
X016191Y005343D01*
X016135Y005310D01*
X016077Y005280D01*
X016073Y005288D01*
X016131Y005318D01*
X016186Y005351D01*
X016240Y005387D01*
X016291Y005426D01*
X016339Y005469D01*
X016385Y005514D01*
X016428Y005562D01*
X016469Y005613D01*
X016505Y005666D01*
X016539Y005721D01*
X016569Y005778D01*
X016596Y005837D01*
X016619Y005897D01*
X016638Y005959D01*
X016654Y006022D01*
X016666Y006085D01*
X016674Y006149D01*
X016678Y006214D01*
X016678Y006278D01*
X016674Y006343D01*
X016666Y006407D01*
X016654Y006470D01*
X016638Y006533D01*
X016619Y006595D01*
X016596Y006655D01*
X016569Y006714D01*
X016539Y006771D01*
X016505Y006826D01*
X016469Y006879D01*
X016428Y006930D01*
X016385Y006978D01*
X016339Y007023D01*
X016291Y007066D01*
X016240Y007105D01*
X016186Y007141D01*
X016131Y007174D01*
X016073Y007204D01*
X016070Y007196D01*
X016127Y007166D01*
X016182Y007134D01*
X016235Y007098D01*
X016285Y007059D01*
X016333Y007016D01*
X016379Y006971D01*
X016422Y006924D01*
X016461Y006874D01*
X016498Y006821D01*
X016531Y006766D01*
X016561Y006710D01*
X016588Y006651D01*
X016611Y006592D01*
X016630Y006531D01*
X016645Y006468D01*
X016657Y006405D01*
X016665Y006342D01*
X016669Y006278D01*
X016669Y006214D01*
X016665Y006150D01*
X016657Y006087D01*
X016645Y006024D01*
X016630Y005961D01*
X016611Y005900D01*
X016588Y005841D01*
X016561Y005782D01*
X016531Y005726D01*
X016498Y005671D01*
X016461Y005618D01*
X016422Y005568D01*
X016379Y005521D01*
X016333Y005476D01*
X016285Y005433D01*
X016235Y005394D01*
X016182Y005358D01*
X016127Y005326D01*
X016070Y005296D01*
X016066Y005304D01*
X016122Y005334D01*
X016177Y005366D01*
X016229Y005402D01*
X016279Y005440D01*
X016327Y005482D01*
X016372Y005527D01*
X016415Y005574D01*
X016454Y005624D01*
X016490Y005676D01*
X016523Y005730D01*
X016553Y005786D01*
X016579Y005844D01*
X016602Y005903D01*
X016621Y005964D01*
X016636Y006025D01*
X016648Y006088D01*
X016656Y006151D01*
X016660Y006214D01*
X016660Y006278D01*
X016656Y006341D01*
X016648Y006404D01*
X016636Y006467D01*
X016621Y006528D01*
X016602Y006589D01*
X016579Y006648D01*
X016553Y006706D01*
X016523Y006762D01*
X016490Y006816D01*
X016454Y006868D01*
X016415Y006918D01*
X016372Y006965D01*
X016327Y007010D01*
X016279Y007052D01*
X016229Y007090D01*
X016177Y007126D01*
X016122Y007158D01*
X016066Y007188D01*
X016062Y007179D01*
X016118Y007151D01*
X016172Y007118D01*
X016224Y007083D01*
X016274Y007045D01*
X016321Y007003D01*
X016366Y006959D01*
X016408Y006912D01*
X016447Y006863D01*
X016483Y006811D01*
X016516Y006757D01*
X016545Y006702D01*
X016571Y006644D01*
X016594Y006586D01*
X016612Y006526D01*
X016628Y006465D01*
X016639Y006403D01*
X016647Y006340D01*
X016651Y006277D01*
X016651Y006215D01*
X016647Y006152D01*
X016639Y006089D01*
X016628Y006027D01*
X016612Y005966D01*
X016594Y005906D01*
X016571Y005848D01*
X016545Y005790D01*
X016516Y005735D01*
X016483Y005681D01*
X016447Y005629D01*
X016408Y005580D01*
X016366Y005533D01*
X016321Y005489D01*
X016274Y005447D01*
X016224Y005409D01*
X016172Y005374D01*
X016118Y005341D01*
X016062Y005313D01*
X014959Y005402D02*
X014984Y005434D01*
X014983Y005433D02*
X015031Y005398D01*
X015080Y005366D01*
X015131Y005337D01*
X015183Y005311D01*
X015167Y005275D01*
X015166Y005275D01*
X015112Y005302D01*
X015059Y005332D01*
X015008Y005365D01*
X014959Y005402D01*
X014964Y005409D01*
X015013Y005373D01*
X015064Y005340D01*
X015116Y005310D01*
X015170Y005283D01*
X015174Y005291D01*
X015120Y005318D01*
X015068Y005347D01*
X015018Y005380D01*
X014970Y005416D01*
X014975Y005423D01*
X015023Y005388D01*
X015073Y005355D01*
X015124Y005326D01*
X015178Y005299D01*
X015181Y005307D01*
X015129Y005334D01*
X015078Y005363D01*
X015028Y005395D01*
X014981Y005430D01*
X015157Y007211D02*
X015174Y007175D01*
X015174Y007176D02*
X015124Y007150D01*
X015075Y007122D01*
X015028Y007091D01*
X014983Y007058D01*
X014959Y007089D01*
X015005Y007124D01*
X015054Y007156D01*
X015105Y007185D01*
X015157Y007212D01*
X015161Y007204D01*
X015109Y007177D01*
X015059Y007148D01*
X015011Y007117D01*
X014964Y007082D01*
X014970Y007075D01*
X015016Y007109D01*
X015064Y007141D01*
X015113Y007170D01*
X015164Y007196D01*
X015168Y007188D01*
X015118Y007162D01*
X015068Y007133D01*
X015021Y007102D01*
X014975Y007068D01*
X014981Y007061D01*
X015026Y007095D01*
X015073Y007125D01*
X015122Y007154D01*
X015172Y007179D01*
X019025Y007089D02*
X019000Y007057D01*
X019001Y007058D02*
X018953Y007093D01*
X018904Y007125D01*
X018853Y007154D01*
X018801Y007180D01*
X018817Y007216D01*
X018818Y007216D01*
X018872Y007189D01*
X018925Y007159D01*
X018976Y007126D01*
X019025Y007089D01*
X019020Y007082D01*
X018971Y007118D01*
X018920Y007151D01*
X018868Y007181D01*
X018814Y007208D01*
X018810Y007200D01*
X018864Y007173D01*
X018916Y007144D01*
X018966Y007111D01*
X019014Y007075D01*
X019009Y007068D01*
X018961Y007103D01*
X018911Y007136D01*
X018860Y007165D01*
X018806Y007192D01*
X018803Y007184D01*
X018855Y007157D01*
X018906Y007128D01*
X018956Y007096D01*
X019003Y007061D01*
X017907Y007211D02*
X017924Y007175D01*
X017924Y007176D02*
X017868Y007147D01*
X017814Y007115D01*
X017762Y007080D01*
X017713Y007042D01*
X017666Y007000D01*
X017621Y006956D01*
X017579Y006909D01*
X017540Y006860D01*
X017504Y006809D01*
X017472Y006755D01*
X017442Y006700D01*
X017417Y006643D01*
X017394Y006584D01*
X017375Y006525D01*
X017360Y006464D01*
X017349Y006402D01*
X017341Y006340D01*
X017337Y006277D01*
X017337Y006215D01*
X017341Y006152D01*
X017349Y006090D01*
X017360Y006028D01*
X017375Y005967D01*
X017394Y005908D01*
X017417Y005849D01*
X017442Y005792D01*
X017472Y005737D01*
X017504Y005683D01*
X017540Y005632D01*
X017579Y005583D01*
X017621Y005536D01*
X017666Y005492D01*
X017713Y005450D01*
X017762Y005412D01*
X017814Y005377D01*
X017868Y005345D01*
X017924Y005316D01*
X017907Y005281D01*
X017907Y005280D01*
X017849Y005310D01*
X017793Y005343D01*
X017739Y005380D01*
X017687Y005419D01*
X017638Y005462D01*
X017592Y005508D01*
X017549Y005557D01*
X017508Y005608D01*
X017471Y005661D01*
X017437Y005717D01*
X017407Y005774D01*
X017380Y005834D01*
X017356Y005894D01*
X017337Y005957D01*
X017321Y006020D01*
X017309Y006084D01*
X017301Y006148D01*
X017297Y006213D01*
X017297Y006279D01*
X017301Y006344D01*
X017309Y006408D01*
X017321Y006472D01*
X017337Y006535D01*
X017356Y006598D01*
X017380Y006658D01*
X017407Y006718D01*
X017437Y006775D01*
X017471Y006831D01*
X017508Y006884D01*
X017549Y006935D01*
X017592Y006984D01*
X017638Y007030D01*
X017687Y007073D01*
X017739Y007112D01*
X017793Y007149D01*
X017849Y007182D01*
X017907Y007212D01*
X017911Y007204D01*
X017853Y007174D01*
X017798Y007141D01*
X017744Y007105D01*
X017693Y007066D01*
X017645Y007023D01*
X017599Y006978D01*
X017556Y006930D01*
X017515Y006879D01*
X017479Y006826D01*
X017445Y006771D01*
X017415Y006714D01*
X017388Y006655D01*
X017365Y006595D01*
X017346Y006533D01*
X017330Y006470D01*
X017318Y006407D01*
X017310Y006343D01*
X017306Y006278D01*
X017306Y006214D01*
X017310Y006149D01*
X017318Y006085D01*
X017330Y006022D01*
X017346Y005959D01*
X017365Y005897D01*
X017388Y005837D01*
X017415Y005778D01*
X017445Y005721D01*
X017479Y005666D01*
X017515Y005613D01*
X017556Y005562D01*
X017599Y005514D01*
X017645Y005469D01*
X017693Y005426D01*
X017744Y005387D01*
X017798Y005351D01*
X017853Y005318D01*
X017911Y005288D01*
X017914Y005296D01*
X017857Y005326D01*
X017802Y005358D01*
X017749Y005394D01*
X017699Y005433D01*
X017651Y005476D01*
X017605Y005521D01*
X017562Y005568D01*
X017523Y005618D01*
X017486Y005671D01*
X017453Y005726D01*
X017423Y005782D01*
X017396Y005841D01*
X017373Y005900D01*
X017354Y005961D01*
X017339Y006024D01*
X017327Y006087D01*
X017319Y006150D01*
X017315Y006214D01*
X017315Y006278D01*
X017319Y006342D01*
X017327Y006405D01*
X017339Y006468D01*
X017354Y006531D01*
X017373Y006592D01*
X017396Y006651D01*
X017423Y006710D01*
X017453Y006766D01*
X017486Y006821D01*
X017523Y006874D01*
X017562Y006924D01*
X017605Y006971D01*
X017651Y007016D01*
X017699Y007059D01*
X017749Y007098D01*
X017802Y007134D01*
X017857Y007166D01*
X017914Y007196D01*
X017918Y007188D01*
X017862Y007158D01*
X017807Y007126D01*
X017755Y007090D01*
X017705Y007052D01*
X017657Y007010D01*
X017612Y006965D01*
X017569Y006918D01*
X017530Y006868D01*
X017494Y006816D01*
X017461Y006762D01*
X017431Y006706D01*
X017405Y006648D01*
X017382Y006589D01*
X017363Y006528D01*
X017348Y006467D01*
X017336Y006404D01*
X017328Y006341D01*
X017324Y006278D01*
X017324Y006214D01*
X017328Y006151D01*
X017336Y006088D01*
X017348Y006025D01*
X017363Y005964D01*
X017382Y005903D01*
X017405Y005844D01*
X017431Y005786D01*
X017461Y005730D01*
X017494Y005676D01*
X017530Y005624D01*
X017569Y005574D01*
X017612Y005527D01*
X017657Y005482D01*
X017705Y005440D01*
X017755Y005402D01*
X017807Y005366D01*
X017862Y005334D01*
X017918Y005304D01*
X017922Y005313D01*
X017866Y005341D01*
X017812Y005374D01*
X017760Y005409D01*
X017710Y005447D01*
X017663Y005489D01*
X017618Y005533D01*
X017576Y005580D01*
X017537Y005629D01*
X017501Y005681D01*
X017468Y005735D01*
X017439Y005790D01*
X017413Y005848D01*
X017390Y005906D01*
X017372Y005966D01*
X017356Y006027D01*
X017345Y006089D01*
X017337Y006152D01*
X017333Y006215D01*
X017333Y006277D01*
X017337Y006340D01*
X017345Y006403D01*
X017356Y006465D01*
X017372Y006526D01*
X017390Y006586D01*
X017413Y006644D01*
X017439Y006702D01*
X017468Y006757D01*
X017501Y006811D01*
X017537Y006863D01*
X017576Y006912D01*
X017618Y006959D01*
X017663Y007003D01*
X017710Y007045D01*
X017760Y007083D01*
X017812Y007118D01*
X017866Y007151D01*
X017922Y007179D01*
X018827Y005280D02*
X018810Y005316D01*
X018810Y005315D02*
X018860Y005341D01*
X018909Y005369D01*
X018956Y005400D01*
X019001Y005433D01*
X019025Y005402D01*
X018979Y005367D01*
X018930Y005335D01*
X018879Y005306D01*
X018827Y005279D01*
X018823Y005287D01*
X018875Y005314D01*
X018925Y005343D01*
X018973Y005374D01*
X019020Y005409D01*
X019014Y005416D01*
X018968Y005382D01*
X018920Y005350D01*
X018871Y005321D01*
X018820Y005295D01*
X018816Y005303D01*
X018866Y005329D01*
X018916Y005358D01*
X018963Y005389D01*
X019009Y005423D01*
X019003Y005430D01*
X018958Y005396D01*
X018911Y005366D01*
X018862Y005337D01*
X018812Y005312D01*
D45*
X026267Y012296D02*
X027967Y012296D01*
X028317Y013096D02*
X028317Y013888D01*
X026417Y013496D02*
X026419Y013548D01*
X026425Y013600D01*
X026435Y013652D01*
X026448Y013702D01*
X026465Y013752D01*
X026486Y013800D01*
X026511Y013846D01*
X026539Y013890D01*
X026570Y013932D01*
X026604Y013972D01*
X026641Y014009D01*
X026681Y014043D01*
X026723Y014074D01*
X026767Y014102D01*
X026813Y014127D01*
X026861Y014148D01*
X026911Y014165D01*
X026961Y014178D01*
X027013Y014188D01*
X027065Y014194D01*
X027117Y014196D01*
X027169Y014194D01*
X027221Y014188D01*
X027273Y014178D01*
X027323Y014165D01*
X027373Y014148D01*
X027421Y014127D01*
X027467Y014102D01*
X027511Y014074D01*
X027553Y014043D01*
X027593Y014009D01*
X027630Y013972D01*
X027664Y013932D01*
X027695Y013890D01*
X027723Y013846D01*
X027748Y013800D01*
X027769Y013752D01*
X027786Y013702D01*
X027799Y013652D01*
X027809Y013600D01*
X027815Y013548D01*
X027817Y013496D01*
X027815Y013444D01*
X027809Y013392D01*
X027799Y013340D01*
X027786Y013290D01*
X027769Y013240D01*
X027748Y013192D01*
X027723Y013146D01*
X027695Y013102D01*
X027664Y013060D01*
X027630Y013020D01*
X027593Y012983D01*
X027553Y012949D01*
X027511Y012918D01*
X027467Y012890D01*
X027421Y012865D01*
X027373Y012844D01*
X027323Y012827D01*
X027273Y012814D01*
X027221Y012804D01*
X027169Y012798D01*
X027117Y012796D01*
X027065Y012798D01*
X027013Y012804D01*
X026961Y012814D01*
X026911Y012827D01*
X026861Y012844D01*
X026813Y012865D01*
X026767Y012890D01*
X026723Y012918D01*
X026681Y012949D01*
X026641Y012983D01*
X026604Y013020D01*
X026570Y013060D01*
X026539Y013102D01*
X026511Y013146D01*
X026486Y013192D01*
X026465Y013240D01*
X026448Y013290D01*
X026435Y013340D01*
X026425Y013392D01*
X026419Y013444D01*
X026417Y013496D01*
X025917Y013096D02*
X025917Y013900D01*
X026267Y014696D02*
X027967Y014696D01*
X041617Y010246D02*
X042117Y010246D01*
X041617Y010246D02*
X041617Y006246D01*
X042117Y006246D01*
X043117Y006246D02*
X043617Y006246D01*
X043617Y010246D01*
X043117Y010246D01*
D46*
X029217Y022146D02*
X029219Y022196D01*
X029225Y022246D01*
X029235Y022296D01*
X029248Y022344D01*
X029265Y022392D01*
X029286Y022438D01*
X029310Y022482D01*
X029338Y022524D01*
X029369Y022564D01*
X029403Y022601D01*
X029440Y022636D01*
X029479Y022667D01*
X029520Y022696D01*
X029564Y022721D01*
X029610Y022743D01*
X029657Y022761D01*
X029705Y022775D01*
X029754Y022786D01*
X029804Y022793D01*
X029854Y022796D01*
X029905Y022795D01*
X029955Y022790D01*
X030005Y022781D01*
X030053Y022769D01*
X030101Y022752D01*
X030147Y022732D01*
X030192Y022709D01*
X030235Y022682D01*
X030275Y022652D01*
X030313Y022619D01*
X030348Y022583D01*
X030381Y022544D01*
X030410Y022503D01*
X030436Y022460D01*
X030459Y022415D01*
X030478Y022368D01*
X030493Y022320D01*
X030505Y022271D01*
X030513Y022221D01*
X030517Y022171D01*
X030517Y022121D01*
X030513Y022071D01*
X030505Y022021D01*
X030493Y021972D01*
X030478Y021924D01*
X030459Y021877D01*
X030436Y021832D01*
X030410Y021789D01*
X030381Y021748D01*
X030348Y021709D01*
X030313Y021673D01*
X030275Y021640D01*
X030235Y021610D01*
X030192Y021583D01*
X030147Y021560D01*
X030101Y021540D01*
X030053Y021523D01*
X030005Y021511D01*
X029955Y021502D01*
X029905Y021497D01*
X029854Y021496D01*
X029804Y021499D01*
X029754Y021506D01*
X029705Y021517D01*
X029657Y021531D01*
X029610Y021549D01*
X029564Y021571D01*
X029520Y021596D01*
X029479Y021625D01*
X029440Y021656D01*
X029403Y021691D01*
X029369Y021728D01*
X029338Y021768D01*
X029310Y021810D01*
X029286Y021854D01*
X029265Y021900D01*
X029248Y021948D01*
X029235Y021996D01*
X029225Y022046D01*
X029219Y022096D01*
X029217Y022146D01*
X018499Y021746D02*
X018501Y021767D01*
X018507Y021787D01*
X018516Y021807D01*
X018528Y021824D01*
X018543Y021838D01*
X018561Y021850D01*
X018581Y021858D01*
X018601Y021863D01*
X018622Y021864D01*
X018643Y021861D01*
X018663Y021855D01*
X018682Y021844D01*
X018699Y021831D01*
X018712Y021815D01*
X018723Y021797D01*
X018731Y021777D01*
X018735Y021757D01*
X018735Y021735D01*
X018731Y021715D01*
X018723Y021695D01*
X018712Y021677D01*
X018699Y021661D01*
X018682Y021648D01*
X018663Y021637D01*
X018643Y021631D01*
X018622Y021628D01*
X018601Y021629D01*
X018581Y021634D01*
X018561Y021642D01*
X018543Y021654D01*
X018528Y021668D01*
X018516Y021685D01*
X018507Y021705D01*
X018501Y021725D01*
X018499Y021746D01*
X002749Y021746D02*
X002751Y021767D01*
X002757Y021787D01*
X002766Y021807D01*
X002778Y021824D01*
X002793Y021838D01*
X002811Y021850D01*
X002831Y021858D01*
X002851Y021863D01*
X002872Y021864D01*
X002893Y021861D01*
X002913Y021855D01*
X002932Y021844D01*
X002949Y021831D01*
X002962Y021815D01*
X002973Y021797D01*
X002981Y021777D01*
X002985Y021757D01*
X002985Y021735D01*
X002981Y021715D01*
X002973Y021695D01*
X002962Y021677D01*
X002949Y021661D01*
X002932Y021648D01*
X002913Y021637D01*
X002893Y021631D01*
X002872Y021628D01*
X002851Y021629D01*
X002831Y021634D01*
X002811Y021642D01*
X002793Y021654D01*
X002778Y021668D01*
X002766Y021685D01*
X002757Y021705D01*
X002751Y021725D01*
X002749Y021746D01*
X002749Y005746D02*
X002751Y005767D01*
X002757Y005787D01*
X002766Y005807D01*
X002778Y005824D01*
X002793Y005838D01*
X002811Y005850D01*
X002831Y005858D01*
X002851Y005863D01*
X002872Y005864D01*
X002893Y005861D01*
X002913Y005855D01*
X002932Y005844D01*
X002949Y005831D01*
X002962Y005815D01*
X002973Y005797D01*
X002981Y005777D01*
X002985Y005757D01*
X002985Y005735D01*
X002981Y005715D01*
X002973Y005695D01*
X002962Y005677D01*
X002949Y005661D01*
X002932Y005648D01*
X002913Y005637D01*
X002893Y005631D01*
X002872Y005628D01*
X002851Y005629D01*
X002831Y005634D01*
X002811Y005642D01*
X002793Y005654D01*
X002778Y005668D01*
X002766Y005685D01*
X002757Y005705D01*
X002751Y005725D01*
X002749Y005746D01*
X018499Y005746D02*
X018501Y005767D01*
X018507Y005787D01*
X018516Y005807D01*
X018528Y005824D01*
X018543Y005838D01*
X018561Y005850D01*
X018581Y005858D01*
X018601Y005863D01*
X018622Y005864D01*
X018643Y005861D01*
X018663Y005855D01*
X018682Y005844D01*
X018699Y005831D01*
X018712Y005815D01*
X018723Y005797D01*
X018731Y005777D01*
X018735Y005757D01*
X018735Y005735D01*
X018731Y005715D01*
X018723Y005695D01*
X018712Y005677D01*
X018699Y005661D01*
X018682Y005648D01*
X018663Y005637D01*
X018643Y005631D01*
X018622Y005628D01*
X018601Y005629D01*
X018581Y005634D01*
X018561Y005642D01*
X018543Y005654D01*
X018528Y005668D01*
X018516Y005685D01*
X018507Y005705D01*
X018501Y005725D01*
X018499Y005746D01*
D47*
X028137Y020866D02*
X028137Y021099D01*
X028253Y021216D01*
X028370Y021099D01*
X028370Y020866D01*
X028496Y020866D02*
X028729Y020866D01*
X028613Y020866D02*
X028613Y021216D01*
X028496Y021099D01*
X028370Y021041D02*
X028137Y021041D01*
X028855Y021041D02*
X028972Y021099D01*
X029030Y021099D01*
X029088Y021041D01*
X029088Y020924D01*
X029030Y020866D01*
X028913Y020866D01*
X028855Y020924D01*
X028855Y021041D02*
X028855Y021216D01*
X029088Y021216D01*
X029453Y021157D02*
X029512Y021216D01*
X029629Y021216D01*
X029687Y021157D01*
X029687Y021099D01*
X029453Y020866D01*
X029687Y020866D01*
X029812Y020866D02*
X029812Y021099D01*
X029871Y021099D01*
X029929Y021041D01*
X029988Y021099D01*
X030046Y021041D01*
X030046Y020866D01*
X029929Y020866D02*
X029929Y021041D01*
X030172Y021099D02*
X030172Y020866D01*
X030288Y020866D02*
X030288Y021041D01*
X030347Y021099D01*
X030405Y021041D01*
X030405Y020866D01*
X030288Y021041D02*
X030230Y021099D01*
X030172Y021099D01*
X029331Y020924D02*
X029272Y020924D01*
X029272Y020866D01*
X029331Y020866D01*
X029331Y020924D01*
X029331Y020866D02*
X029214Y020749D01*
D48*
X028867Y017071D03*
X029867Y017071D03*
X030867Y017071D03*
D49*
X017517Y007996D03*
D50*
X017892Y007996D03*
X015842Y007996D03*
D51*
X019867Y011576D03*
X019867Y014416D03*
D52*
X021862Y011996D02*
X021862Y011746D01*
X021862Y011496D01*
X022112Y011496D02*
X022112Y011746D01*
X022112Y011996D01*
X021992Y006866D02*
X021742Y006866D01*
X021992Y006866D02*
X022242Y006866D01*
X022242Y006616D02*
X021992Y006616D01*
X021742Y006616D01*
X023862Y006496D02*
X023862Y006746D01*
X023862Y006996D01*
X024112Y006996D02*
X024112Y006746D01*
X024112Y006496D01*
M02*
