G75*
G70*
%OFA0B0*%
%FSLAX24Y24*%
%IPPOS*%
%LPD*%
%AMOC8*
5,1,8,0,0,1.08239X$1,22.5*
%
%ADD10C,0.0440*%
%ADD11OC8,0.0630*%
%ADD12C,0.0520*%
%ADD13OC8,0.0600*%
%ADD14OC8,0.0520*%
%ADD15OC8,0.1000*%
%ADD16OC8,0.0760*%
%ADD17C,0.0650*%
%ADD18C,0.0660*%
%ADD19C,0.0740*%
%ADD20C,0.1890*%
%ADD21C,0.0600*%
%ADD22C,0.0520*%
%ADD23C,0.0554*%
%ADD24C,0.0160*%
%ADD25C,0.0560*%
%ADD26R,0.0787X0.0787*%
%ADD27C,0.0357*%
%ADD28C,0.0396*%
%ADD29C,0.0827*%
%ADD30C,0.1000*%
%ADD31C,0.1660*%
D10*
X008147Y013746D02*
X008587Y013746D01*
X008587Y015746D02*
X008147Y015746D01*
D11*
X006867Y015746D03*
X005867Y015746D03*
X005867Y013746D03*
X006867Y013746D03*
X009867Y014746D03*
X009867Y015746D03*
X020992Y011746D03*
X022992Y011746D03*
X026492Y008746D03*
X026492Y007746D03*
X024992Y006746D03*
X022992Y006746D03*
X021992Y007746D03*
X021992Y005746D03*
X004117Y006246D03*
X004117Y005246D03*
X001367Y005246D03*
X001367Y006246D03*
D12*
X005867Y006006D02*
X005867Y005486D01*
X006867Y005486D02*
X006867Y006006D01*
X007867Y006006D02*
X007867Y005486D01*
X007867Y007986D02*
X007867Y008506D01*
X006867Y008506D02*
X006867Y007986D01*
X005867Y007986D02*
X005867Y008506D01*
X010857Y008496D02*
X011377Y008496D01*
X011377Y009496D02*
X010857Y009496D01*
X010857Y010496D02*
X011377Y010496D01*
X011377Y011496D02*
X010857Y011496D01*
X010857Y012496D02*
X011377Y012496D01*
X011377Y013496D02*
X010857Y013496D01*
X010857Y014496D02*
X011377Y014496D01*
X011377Y015496D02*
X010857Y015496D01*
X010857Y016496D02*
X011377Y016496D01*
X011377Y017496D02*
X010857Y017496D01*
X010857Y018496D02*
X011377Y018496D01*
X011377Y019496D02*
X010857Y019496D01*
X010857Y020496D02*
X011377Y020496D01*
X011377Y021496D02*
X010857Y021496D01*
X013857Y021496D02*
X014377Y021496D01*
X014377Y020496D02*
X013857Y020496D01*
X013857Y019496D02*
X014377Y019496D01*
X014377Y018496D02*
X013857Y018496D01*
X013857Y017496D02*
X014377Y017496D01*
X014377Y016496D02*
X013857Y016496D01*
X013857Y015496D02*
X014377Y015496D01*
X014377Y014496D02*
X013857Y014496D01*
X013857Y013496D02*
X014377Y013496D01*
X014377Y012496D02*
X013857Y012496D01*
X013857Y011496D02*
X014377Y011496D01*
X014377Y010496D02*
X013857Y010496D01*
X013857Y009496D02*
X014377Y009496D01*
X014377Y008496D02*
X013857Y008496D01*
X015357Y007246D02*
X015877Y007246D01*
X015877Y006246D02*
X015357Y006246D01*
X015357Y005246D02*
X015877Y005246D01*
X018107Y005246D02*
X018627Y005246D01*
X018627Y006246D02*
X018107Y006246D01*
X018107Y007246D02*
X018627Y007246D01*
X020992Y007486D02*
X020992Y008006D01*
X022992Y008006D02*
X022992Y007486D01*
X024992Y007486D02*
X024992Y008006D01*
X024992Y010486D02*
X024992Y011006D01*
X022992Y011006D02*
X022992Y010486D01*
X020992Y010486D02*
X020992Y011006D01*
X007867Y018736D02*
X007867Y019256D01*
X006867Y019256D02*
X006867Y018736D01*
X005867Y018736D02*
X005867Y019256D01*
X005867Y021486D02*
X005867Y022006D01*
X006867Y022006D02*
X006867Y021486D01*
X007867Y021486D02*
X007867Y022006D01*
D13*
X021617Y021996D03*
X022617Y021996D03*
X022617Y022996D03*
X021617Y022996D03*
X021617Y020996D03*
X022617Y020996D03*
X022617Y019996D03*
X021617Y019996D03*
X021617Y018996D03*
X022617Y018996D03*
X025367Y018996D03*
X026367Y018996D03*
X026367Y019996D03*
X025367Y019996D03*
X025367Y020996D03*
X026367Y020996D03*
X026367Y021996D03*
X025367Y021996D03*
D14*
X024670Y022964D03*
X027670Y022964D03*
X032585Y023067D03*
X034695Y022464D03*
X032585Y020067D03*
X019867Y014996D03*
X015367Y018746D03*
X015367Y021746D03*
X009867Y021746D03*
X008617Y020246D03*
X009867Y018746D03*
X008617Y017496D03*
X005617Y017496D03*
X004367Y018996D03*
X005617Y020246D03*
X004367Y015996D03*
X004367Y014096D03*
X005117Y009246D03*
X005117Y008246D03*
X005117Y007246D03*
X002117Y007246D03*
X002117Y008246D03*
X002117Y009246D03*
X011117Y006996D03*
X014117Y006996D03*
X015617Y009246D03*
X018617Y009246D03*
X019867Y010996D03*
X027492Y010746D03*
X028742Y010746D03*
X028742Y007746D03*
X027492Y007746D03*
X026492Y005746D03*
X029492Y005746D03*
D15*
X024347Y015246D03*
X021387Y015246D03*
D16*
X038742Y007121D03*
X039867Y007121D03*
X040142Y002938D03*
X043292Y002938D03*
X023607Y002938D03*
X020457Y002938D03*
X004315Y002938D03*
X001166Y002938D03*
D17*
X042292Y007246D02*
X042941Y007246D01*
X042941Y008246D02*
X042292Y008246D01*
X042292Y009246D02*
X042941Y009246D01*
D18*
X042617Y010246D03*
X042617Y006246D03*
D19*
X028397Y012606D03*
X025837Y012606D03*
X025837Y014386D03*
X028397Y014386D03*
X018617Y014242D03*
X018617Y015242D03*
X018617Y016242D03*
X018617Y017242D03*
X018617Y013242D03*
X018617Y012242D03*
X018617Y011242D03*
X018617Y010242D03*
X002837Y010242D03*
X002837Y011242D03*
X002837Y012242D03*
X002837Y013242D03*
X002837Y014242D03*
X002837Y015242D03*
X002837Y016242D03*
X002837Y017242D03*
D20*
X038128Y012931D03*
X040451Y012931D03*
X039310Y014781D03*
D21*
X030867Y015946D02*
X030867Y016546D01*
X029867Y016546D02*
X029867Y015946D01*
X028867Y015946D02*
X028867Y016546D01*
D22*
X033895Y022464D03*
X004367Y014896D03*
D23*
X015090Y007996D02*
X015644Y007996D01*
X018090Y007996D02*
X018644Y007996D01*
D24*
X019190Y008237D02*
X020460Y008237D01*
X020500Y008334D02*
X020412Y008121D01*
X020412Y007370D01*
X020500Y007157D01*
X020663Y006994D01*
X020876Y006906D01*
X021107Y006906D01*
X021320Y006994D01*
X021483Y007157D01*
X021542Y007298D01*
X021729Y007111D01*
X022255Y007111D01*
X022442Y007298D01*
X022500Y007157D01*
X022503Y007154D01*
X022357Y007009D01*
X022357Y006482D01*
X022729Y006111D01*
X023255Y006111D01*
X023627Y006482D01*
X023627Y007009D01*
X023481Y007154D01*
X023483Y007157D01*
X023572Y007370D01*
X023572Y008121D01*
X023483Y008334D01*
X023320Y008497D01*
X023107Y008586D01*
X022876Y008586D01*
X022663Y008497D01*
X022500Y008334D01*
X022442Y008193D01*
X022255Y008381D01*
X021729Y008381D01*
X021542Y008193D01*
X021483Y008334D01*
X021320Y008497D01*
X021107Y008586D01*
X020876Y008586D01*
X020663Y008497D01*
X020500Y008334D01*
X020561Y008395D02*
X019088Y008395D01*
X019150Y008334D02*
X018982Y008502D01*
X018763Y008593D01*
X017971Y008593D01*
X017751Y008502D01*
X017583Y008334D01*
X017492Y008114D01*
X017492Y007877D01*
X017583Y007657D01*
X017641Y007600D01*
X017615Y007574D01*
X017527Y007361D01*
X017527Y007130D01*
X017615Y006917D01*
X017778Y006754D01*
X017798Y006746D01*
X017778Y006737D01*
X017615Y006574D01*
X017527Y006361D01*
X017527Y006130D01*
X017615Y005917D01*
X017778Y005754D01*
X017984Y005668D01*
X017938Y005653D01*
X017876Y005622D01*
X017820Y005581D01*
X017771Y005532D01*
X017730Y005476D01*
X017726Y005467D01*
X016258Y005467D01*
X016253Y005476D01*
X016212Y005532D01*
X016163Y005581D01*
X016107Y005622D01*
X016046Y005653D01*
X015999Y005668D01*
X016205Y005754D01*
X016368Y005917D01*
X016457Y006130D01*
X016457Y006361D01*
X016368Y006574D01*
X016205Y006737D01*
X016185Y006746D01*
X016205Y006754D01*
X016368Y006917D01*
X016457Y007130D01*
X016457Y007361D01*
X016368Y007574D01*
X016205Y007737D01*
X016186Y007745D01*
X016241Y007877D01*
X016241Y008114D01*
X016150Y008334D01*
X015982Y008502D01*
X015763Y008593D01*
X014971Y008593D01*
X014957Y008587D01*
X014957Y008611D01*
X014868Y008824D01*
X014705Y008987D01*
X014685Y008996D01*
X014705Y009004D01*
X014868Y009167D01*
X014957Y009380D01*
X014957Y009611D01*
X014868Y009824D01*
X014705Y009987D01*
X014685Y009996D01*
X014705Y010004D01*
X014868Y010167D01*
X014957Y010380D01*
X014957Y010611D01*
X014868Y010824D01*
X014705Y010987D01*
X014685Y010996D01*
X014705Y011004D01*
X014868Y011167D01*
X014957Y011380D01*
X014957Y011611D01*
X014868Y011824D01*
X014705Y011987D01*
X014685Y011996D01*
X014705Y012004D01*
X014868Y012167D01*
X014957Y012380D01*
X014957Y012611D01*
X014868Y012824D01*
X014705Y012987D01*
X014685Y012996D01*
X014705Y013004D01*
X014868Y013167D01*
X014957Y013380D01*
X014957Y013497D01*
X014966Y013497D01*
X015149Y013573D01*
X015172Y013596D01*
X016967Y013596D01*
X016967Y011800D01*
X016944Y011778D01*
X016868Y011595D01*
X016868Y011396D01*
X016944Y011213D01*
X017084Y011073D01*
X017268Y010997D01*
X017466Y010997D01*
X017649Y011073D01*
X017789Y011213D01*
X017865Y011396D01*
X017865Y011497D01*
X017966Y011497D01*
X017978Y011502D01*
X017927Y011379D01*
X017927Y011104D01*
X018032Y010851D01*
X018141Y010742D01*
X018032Y010632D01*
X017927Y010379D01*
X017927Y010104D01*
X018032Y009851D01*
X018217Y009666D01*
X018037Y009486D01*
X018037Y009005D01*
X018376Y008666D01*
X018857Y008666D01*
X019197Y009005D01*
X019197Y009486D01*
X019017Y009666D01*
X019202Y009851D01*
X019307Y010104D01*
X019307Y010379D01*
X019202Y010632D01*
X019092Y010742D01*
X019202Y010851D01*
X019287Y011056D01*
X019287Y010755D01*
X019626Y010416D01*
X020107Y010416D01*
X020412Y010720D01*
X020412Y010370D01*
X020500Y010157D01*
X020663Y009994D01*
X020876Y009906D01*
X021107Y009906D01*
X021320Y009994D01*
X021483Y010157D01*
X021572Y010370D01*
X021572Y011121D01*
X021483Y011334D01*
X021481Y011337D01*
X021627Y011482D01*
X021627Y012009D01*
X021255Y012381D01*
X020729Y012381D01*
X020357Y012009D01*
X020357Y011482D01*
X020503Y011337D01*
X020500Y011334D01*
X020447Y011205D01*
X020447Y011236D01*
X020107Y011576D01*
X019626Y011576D01*
X019307Y011256D01*
X019307Y011379D01*
X019202Y011632D01*
X019092Y011742D01*
X019202Y011851D01*
X019307Y012104D01*
X019307Y012379D01*
X019202Y012632D01*
X019092Y012742D01*
X019202Y012851D01*
X019307Y013104D01*
X019307Y013379D01*
X019202Y013632D01*
X019092Y013742D01*
X019202Y013851D01*
X019307Y014104D01*
X019307Y014379D01*
X019202Y014632D01*
X019092Y014742D01*
X019202Y014851D01*
X019287Y015056D01*
X019287Y014755D01*
X019626Y014416D01*
X020107Y014416D01*
X020447Y014755D01*
X020447Y015236D01*
X020107Y015576D01*
X019626Y015576D01*
X019307Y015256D01*
X019307Y015379D01*
X019202Y015632D01*
X019092Y015742D01*
X019202Y015851D01*
X019307Y016104D01*
X019307Y016379D01*
X019202Y016632D01*
X019008Y016827D01*
X018988Y016835D01*
X019036Y016883D01*
X019087Y016953D01*
X019126Y017030D01*
X019153Y017113D01*
X028617Y017113D01*
X028515Y017071D02*
X028341Y016897D01*
X028247Y016669D01*
X028247Y015822D01*
X028341Y015594D01*
X028515Y015420D01*
X028743Y015326D01*
X028990Y015326D01*
X029218Y015420D01*
X029367Y015569D01*
X029515Y015420D01*
X029743Y015326D01*
X029990Y015326D01*
X030218Y015420D01*
X030367Y015569D01*
X030515Y015420D01*
X030743Y015326D01*
X030990Y015326D01*
X031218Y015420D01*
X031392Y015594D01*
X031487Y015822D01*
X031487Y016669D01*
X031392Y016897D01*
X031218Y017071D01*
X030990Y017166D01*
X030743Y017166D01*
X030515Y017071D01*
X030367Y016922D01*
X030218Y017071D01*
X029990Y017166D01*
X029743Y017166D01*
X029515Y017071D01*
X029367Y016922D01*
X029218Y017071D01*
X028990Y017166D01*
X028743Y017166D01*
X028515Y017071D01*
X028399Y016955D02*
X019088Y016955D01*
X019038Y016796D02*
X028299Y016796D01*
X028247Y016638D02*
X019197Y016638D01*
X019265Y016479D02*
X028247Y016479D01*
X028247Y016320D02*
X019307Y016320D01*
X019307Y016162D02*
X028247Y016162D01*
X028247Y016003D02*
X024748Y016003D01*
X024686Y016066D02*
X024007Y016066D01*
X023527Y015585D01*
X023527Y014906D01*
X024007Y014426D01*
X024686Y014426D01*
X025167Y014906D01*
X025167Y015585D01*
X024686Y016066D01*
X024907Y015845D02*
X028247Y015845D01*
X028303Y015686D02*
X025065Y015686D01*
X025167Y015528D02*
X028407Y015528D01*
X028637Y015369D02*
X025167Y015369D01*
X025167Y015211D02*
X038115Y015211D01*
X038131Y015269D02*
X038045Y014947D01*
X038045Y014614D01*
X038131Y014293D01*
X038187Y014195D01*
X037962Y014195D01*
X037640Y014109D01*
X037352Y013943D01*
X028723Y013943D01*
X028755Y013966D02*
X028685Y013915D01*
X028608Y013876D01*
X028525Y013849D01*
X028440Y013836D01*
X028417Y013836D01*
X028417Y014366D01*
X028417Y014406D01*
X028377Y014406D01*
X028377Y014936D01*
X028353Y014936D01*
X028268Y014922D01*
X028186Y014895D01*
X028108Y014856D01*
X028038Y014805D01*
X027977Y014744D01*
X027926Y014674D01*
X027887Y014597D01*
X027860Y014514D01*
X027847Y014429D01*
X027847Y014406D01*
X028377Y014406D01*
X028377Y014366D01*
X027847Y014366D01*
X027847Y014342D01*
X027860Y014257D01*
X027887Y014174D01*
X027926Y014097D01*
X027977Y014027D01*
X028038Y013966D01*
X028108Y013915D01*
X028186Y013876D01*
X028268Y013849D01*
X028353Y013836D01*
X028377Y013836D01*
X028377Y014366D01*
X028417Y014366D01*
X028947Y014366D01*
X028947Y014342D01*
X028933Y014257D01*
X028906Y014174D01*
X028867Y014097D01*
X028816Y014027D01*
X028755Y013966D01*
X028869Y014101D02*
X037627Y014101D01*
X037352Y013943D02*
X037116Y013707D01*
X036950Y013419D01*
X036864Y013097D01*
X036864Y012764D01*
X036950Y012442D01*
X037116Y012154D01*
X037352Y011918D01*
X037640Y011752D01*
X037962Y011666D01*
X038295Y011666D01*
X038617Y011752D01*
X038905Y011918D01*
X039141Y012154D01*
X039290Y012412D01*
X039439Y012154D01*
X039675Y011918D01*
X039963Y011752D01*
X040285Y011666D01*
X040618Y011666D01*
X040940Y011752D01*
X041228Y011918D01*
X041463Y012154D01*
X041630Y012442D01*
X041716Y012764D01*
X041716Y013097D01*
X041630Y013419D01*
X041463Y013707D01*
X041228Y013943D01*
X040940Y014109D01*
X040618Y014195D01*
X040432Y014195D01*
X040488Y014293D01*
X040574Y014614D01*
X040574Y014947D01*
X040488Y015269D01*
X040322Y015558D01*
X040086Y015793D01*
X039798Y015960D01*
X039476Y016046D01*
X039143Y016046D01*
X038821Y015960D01*
X038533Y015793D01*
X038297Y015558D01*
X038131Y015269D01*
X038189Y015369D02*
X031096Y015369D01*
X031326Y015528D02*
X038280Y015528D01*
X038426Y015686D02*
X031430Y015686D01*
X031487Y015845D02*
X038623Y015845D01*
X038985Y016003D02*
X031487Y016003D01*
X031487Y016162D02*
X043126Y016162D01*
X043126Y016320D02*
X031487Y016320D01*
X031487Y016479D02*
X043126Y016479D01*
X043126Y016638D02*
X031487Y016638D01*
X031434Y016796D02*
X043126Y016796D01*
X043126Y016955D02*
X031334Y016955D01*
X031117Y017113D02*
X043126Y017113D01*
X043126Y017272D02*
X019167Y017272D01*
X019167Y017262D02*
X019167Y017285D01*
X019153Y017370D01*
X019126Y017453D01*
X019087Y017530D01*
X019036Y017600D01*
X018975Y017661D01*
X018905Y017712D01*
X018828Y017751D01*
X018745Y017778D01*
X018660Y017792D01*
X018637Y017792D01*
X018637Y017262D01*
X018597Y017262D01*
X018597Y017792D01*
X018573Y017792D01*
X018488Y017778D01*
X018406Y017751D01*
X018328Y017712D01*
X018258Y017661D01*
X018197Y017600D01*
X018146Y017530D01*
X018107Y017453D01*
X018080Y017370D01*
X018067Y017285D01*
X018067Y017262D01*
X018597Y017262D01*
X018597Y017222D01*
X018067Y017222D01*
X018067Y017198D01*
X018080Y017113D01*
X014814Y017113D01*
X014868Y017167D02*
X014705Y017004D01*
X014685Y016996D01*
X014705Y016987D01*
X014868Y016824D01*
X014957Y016611D01*
X014957Y016380D01*
X014868Y016167D01*
X014705Y016004D01*
X014499Y015918D01*
X014546Y015903D01*
X014607Y015872D01*
X014663Y015831D01*
X014712Y015782D01*
X014753Y015726D01*
X014784Y015664D01*
X014806Y015599D01*
X014817Y015530D01*
X014817Y015496D01*
X014117Y015496D01*
X014117Y015496D01*
X014817Y015496D01*
X014817Y015461D01*
X014806Y015392D01*
X014784Y015327D01*
X014753Y015265D01*
X014712Y015209D01*
X014663Y015160D01*
X014607Y015119D01*
X014546Y015088D01*
X014499Y015073D01*
X014705Y014987D01*
X014868Y014824D01*
X014916Y014710D01*
X014944Y014778D01*
X015084Y014918D01*
X015268Y014994D01*
X015466Y014994D01*
X015649Y014918D01*
X015672Y014896D01*
X017946Y014896D01*
X018027Y014862D01*
X017927Y015104D01*
X017927Y015379D01*
X018032Y015632D01*
X018141Y015742D01*
X018032Y015851D01*
X017927Y016104D01*
X017927Y016379D01*
X018032Y016632D01*
X018226Y016827D01*
X018246Y016835D01*
X018197Y016883D01*
X018146Y016953D01*
X018107Y017030D01*
X018080Y017113D01*
X018067Y017272D02*
X014912Y017272D01*
X014868Y017167D02*
X014957Y017380D01*
X014957Y017611D01*
X014868Y017824D01*
X014705Y017987D01*
X014685Y017996D01*
X014705Y018004D01*
X014868Y018167D01*
X014944Y018348D01*
X015126Y018166D01*
X015607Y018166D01*
X015782Y018340D01*
X015858Y018156D01*
X016027Y017987D01*
X016247Y017896D01*
X016486Y017896D01*
X016707Y017987D01*
X016815Y018096D01*
X017668Y018096D01*
X017777Y017987D01*
X017997Y017896D01*
X018236Y017896D01*
X018457Y017987D01*
X018625Y018156D01*
X018717Y018376D01*
X018717Y018408D01*
X018747Y018396D01*
X018986Y018396D01*
X019207Y018487D01*
X019375Y018656D01*
X019467Y018876D01*
X019467Y019115D01*
X019375Y019335D01*
X019267Y019444D01*
X019267Y019547D01*
X019375Y019656D01*
X019467Y019876D01*
X019467Y020115D01*
X019375Y020335D01*
X019207Y020504D01*
X018986Y020596D01*
X018747Y020596D01*
X018527Y020504D01*
X018358Y020335D01*
X018267Y020115D01*
X018267Y019876D01*
X018358Y019656D01*
X018467Y019547D01*
X018467Y019444D01*
X018358Y019335D01*
X018267Y019115D01*
X018267Y019083D01*
X018236Y019096D01*
X017997Y019096D01*
X017777Y019004D01*
X017668Y018896D01*
X016815Y018896D01*
X016707Y019004D01*
X016486Y019096D01*
X016247Y019096D01*
X016027Y019004D01*
X015947Y018924D01*
X015947Y018986D01*
X015607Y019326D01*
X015126Y019326D01*
X014787Y018986D01*
X014787Y018906D01*
X014705Y018987D01*
X014685Y018996D01*
X014705Y019004D01*
X014868Y019167D01*
X014957Y019380D01*
X014957Y019611D01*
X014868Y019824D01*
X014705Y019987D01*
X014685Y019996D01*
X014705Y020004D01*
X014868Y020167D01*
X014957Y020380D01*
X014957Y020611D01*
X014868Y020824D01*
X014705Y020987D01*
X014685Y020996D01*
X014705Y021004D01*
X014868Y021167D01*
X014944Y021348D01*
X015126Y021166D01*
X015607Y021166D01*
X015947Y021505D01*
X015947Y021986D01*
X015607Y022326D01*
X015126Y022326D01*
X014787Y021986D01*
X014787Y021906D01*
X014705Y021987D01*
X014492Y022076D01*
X013741Y022076D01*
X013528Y021987D01*
X013365Y021824D01*
X013277Y021611D01*
X013277Y021380D01*
X013365Y021167D01*
X013528Y021004D01*
X013548Y020996D01*
X013528Y020987D01*
X013365Y020824D01*
X013277Y020611D01*
X013277Y020380D01*
X013365Y020167D01*
X013528Y020004D01*
X013548Y019996D01*
X013528Y019987D01*
X013365Y019824D01*
X013277Y019611D01*
X013277Y019380D01*
X013365Y019167D01*
X013528Y019004D01*
X013548Y018996D01*
X013528Y018987D01*
X013365Y018824D01*
X013277Y018611D01*
X013277Y018494D01*
X013268Y018494D01*
X013084Y018418D01*
X012944Y018278D01*
X012868Y018095D01*
X012868Y017896D01*
X012944Y017713D01*
X012967Y017691D01*
X012967Y016850D01*
X012899Y016918D01*
X012716Y016994D01*
X012518Y016994D01*
X012334Y016918D01*
X012194Y016778D01*
X012118Y016595D01*
X012118Y016396D01*
X012194Y016213D01*
X012217Y016191D01*
X012217Y015300D01*
X012194Y015278D01*
X012118Y015095D01*
X012118Y014896D01*
X012194Y014713D01*
X012334Y014573D01*
X012518Y014497D01*
X012716Y014497D01*
X012899Y014573D01*
X012967Y014641D01*
X012967Y014300D01*
X012944Y014278D01*
X012868Y014095D01*
X012868Y013896D01*
X012944Y013713D01*
X013084Y013573D01*
X013268Y013497D01*
X013277Y013497D01*
X013277Y013380D01*
X013365Y013167D01*
X013528Y013004D01*
X013548Y012996D01*
X013528Y012987D01*
X013365Y012824D01*
X013277Y012611D01*
X013277Y012380D01*
X013365Y012167D01*
X013528Y012004D01*
X013548Y011996D01*
X013528Y011987D01*
X013365Y011824D01*
X013277Y011611D01*
X013277Y011380D01*
X013365Y011167D01*
X013528Y011004D01*
X013548Y010996D01*
X013528Y010987D01*
X013365Y010824D01*
X013277Y010611D01*
X013277Y010380D01*
X013365Y010167D01*
X013528Y010004D01*
X013548Y009996D01*
X013528Y009987D01*
X013365Y009824D01*
X013277Y009611D01*
X013277Y009380D01*
X013365Y009167D01*
X013528Y009004D01*
X013548Y008996D01*
X013528Y008987D01*
X013365Y008824D01*
X013277Y008611D01*
X013277Y008380D01*
X013365Y008167D01*
X013528Y008004D01*
X013741Y007916D01*
X014492Y007916D01*
X014492Y007916D01*
X014492Y007877D01*
X014583Y007657D01*
X014751Y007489D01*
X014818Y007461D01*
X014777Y007361D01*
X014777Y007130D01*
X014865Y006917D01*
X015028Y006754D01*
X015048Y006746D01*
X015028Y006737D01*
X014865Y006574D01*
X014777Y006361D01*
X014777Y006130D01*
X014865Y005917D01*
X015028Y005754D01*
X015234Y005668D01*
X015188Y005653D01*
X015126Y005622D01*
X015070Y005581D01*
X015021Y005532D01*
X014980Y005476D01*
X014976Y005467D01*
X008447Y005467D01*
X008447Y006121D01*
X008358Y006334D01*
X008195Y006497D01*
X007982Y006586D01*
X007751Y006586D01*
X007538Y006497D01*
X007375Y006334D01*
X007367Y006314D01*
X007358Y006334D01*
X007195Y006497D01*
X006982Y006586D01*
X006751Y006586D01*
X006538Y006497D01*
X006375Y006334D01*
X006367Y006314D01*
X006358Y006334D01*
X006195Y006497D01*
X005982Y006586D01*
X005751Y006586D01*
X005538Y006497D01*
X005375Y006334D01*
X005287Y006121D01*
X005287Y005467D01*
X004752Y005467D01*
X004752Y005509D01*
X004515Y005746D01*
X004752Y005982D01*
X004752Y006509D01*
X004380Y006881D01*
X003854Y006881D01*
X003482Y006509D01*
X003482Y006168D01*
X003282Y006367D01*
X003013Y006479D01*
X002721Y006479D01*
X002451Y006367D01*
X002245Y006161D01*
X002133Y005891D01*
X002133Y005600D01*
X002188Y005467D01*
X002002Y005467D01*
X002002Y005509D01*
X001666Y005845D01*
X001862Y006040D01*
X001862Y006246D01*
X001862Y006451D01*
X001572Y006741D01*
X001367Y006741D01*
X001367Y006246D01*
X001367Y006246D01*
X001862Y006246D01*
X001367Y006246D01*
X001367Y006246D01*
X001367Y006741D01*
X001332Y006741D01*
X001332Y022281D01*
X001408Y022261D01*
X001711Y022261D01*
X002003Y022339D01*
X002266Y022491D01*
X002480Y022705D01*
X002631Y022967D01*
X002709Y023259D01*
X002709Y023562D01*
X002689Y023638D01*
X032336Y023638D01*
X032005Y023308D01*
X032005Y022827D01*
X032345Y022487D01*
X032825Y022487D01*
X033165Y022827D01*
X033165Y023308D01*
X032835Y023638D01*
X043126Y023638D01*
X043126Y011146D01*
X043081Y011191D01*
X042780Y011316D01*
X042454Y011316D01*
X042152Y011191D01*
X041922Y010960D01*
X041797Y010659D01*
X041797Y010332D01*
X041922Y010031D01*
X042059Y009894D01*
X042066Y009877D01*
X042085Y009858D01*
X041927Y009792D01*
X041745Y009611D01*
X041647Y009374D01*
X041647Y009117D01*
X041745Y008880D01*
X041880Y008746D01*
X041745Y008611D01*
X041647Y008374D01*
X041647Y008117D01*
X041745Y007880D01*
X041927Y007699D01*
X042010Y007664D01*
X041963Y007631D01*
X041907Y007574D01*
X041860Y007510D01*
X041824Y007439D01*
X041799Y007364D01*
X041787Y007285D01*
X041787Y007274D01*
X042588Y007274D01*
X042588Y007217D01*
X041787Y007217D01*
X041787Y007206D01*
X041799Y007127D01*
X041824Y007052D01*
X041860Y006981D01*
X041907Y006917D01*
X041963Y006860D01*
X042027Y006814D01*
X042098Y006778D01*
X042174Y006753D01*
X042201Y006749D01*
X042066Y006614D01*
X042059Y006597D01*
X041922Y006460D01*
X041797Y006159D01*
X041797Y005832D01*
X041922Y005531D01*
X041986Y005467D01*
X030033Y005467D01*
X030072Y005505D01*
X030072Y005986D01*
X029732Y006326D01*
X029251Y006326D01*
X028912Y005986D01*
X028912Y005505D01*
X028950Y005467D01*
X027033Y005467D01*
X027072Y005505D01*
X027072Y005986D01*
X026732Y006326D01*
X026251Y006326D01*
X025912Y005986D01*
X025912Y005505D01*
X025950Y005467D01*
X022413Y005467D01*
X022487Y005540D01*
X022487Y005746D01*
X022487Y005951D01*
X022197Y006241D01*
X021992Y006241D01*
X021992Y005746D01*
X021992Y005746D01*
X022487Y005746D01*
X021992Y005746D01*
X021992Y005746D01*
X021992Y006241D01*
X021787Y006241D01*
X021497Y005951D01*
X021497Y005746D01*
X021992Y005746D01*
X021992Y005746D01*
X021497Y005746D01*
X021497Y005540D01*
X021570Y005467D01*
X019149Y005467D01*
X019215Y005627D01*
X019215Y005864D01*
X019156Y006007D01*
X019207Y006130D01*
X019207Y006361D01*
X019118Y006574D01*
X018955Y006737D01*
X018935Y006746D01*
X018955Y006754D01*
X019118Y006917D01*
X019207Y007130D01*
X019207Y007361D01*
X019118Y007574D01*
X019093Y007600D01*
X019150Y007657D01*
X019241Y007877D01*
X019241Y008114D01*
X019150Y008334D01*
X019241Y008078D02*
X020412Y008078D01*
X020412Y007920D02*
X019241Y007920D01*
X019193Y007761D02*
X020412Y007761D01*
X020412Y007603D02*
X019096Y007603D01*
X019172Y007444D02*
X020412Y007444D01*
X020447Y007286D02*
X019207Y007286D01*
X019206Y007127D02*
X020529Y007127D01*
X020723Y006969D02*
X019140Y006969D01*
X019012Y006810D02*
X022357Y006810D01*
X022357Y006652D02*
X019040Y006652D01*
X019152Y006493D02*
X022357Y006493D01*
X022504Y006335D02*
X019207Y006335D01*
X019207Y006176D02*
X021723Y006176D01*
X021564Y006018D02*
X019160Y006018D01*
X019215Y005859D02*
X021497Y005859D01*
X021497Y005701D02*
X019215Y005701D01*
X019180Y005542D02*
X021497Y005542D01*
X021992Y005859D02*
X021992Y005859D01*
X021992Y006018D02*
X021992Y006018D01*
X021992Y006176D02*
X021992Y006176D01*
X022261Y006176D02*
X022663Y006176D01*
X022419Y006018D02*
X025944Y006018D01*
X025912Y005859D02*
X022487Y005859D01*
X022487Y005701D02*
X025912Y005701D01*
X025912Y005542D02*
X022487Y005542D01*
X023321Y006176D02*
X024663Y006176D01*
X024729Y006111D02*
X024357Y006482D01*
X024357Y007009D01*
X024503Y007154D01*
X024500Y007157D01*
X024412Y007370D01*
X024412Y008121D01*
X024500Y008334D01*
X024663Y008497D01*
X024876Y008586D01*
X025107Y008586D01*
X025320Y008497D01*
X025483Y008334D01*
X025572Y008121D01*
X025572Y007370D01*
X025483Y007157D01*
X025481Y007154D01*
X025627Y007009D01*
X025627Y006482D01*
X025255Y006111D01*
X024729Y006111D01*
X024504Y006335D02*
X023479Y006335D01*
X023627Y006493D02*
X024357Y006493D01*
X024357Y006652D02*
X023627Y006652D01*
X023627Y006810D02*
X024357Y006810D01*
X024357Y006969D02*
X023627Y006969D01*
X023508Y007127D02*
X024476Y007127D01*
X024447Y007286D02*
X023537Y007286D01*
X023572Y007444D02*
X024412Y007444D01*
X024412Y007603D02*
X023572Y007603D01*
X023572Y007761D02*
X024412Y007761D01*
X024412Y007920D02*
X023572Y007920D01*
X023572Y008078D02*
X024412Y008078D01*
X024460Y008237D02*
X023524Y008237D01*
X023422Y008395D02*
X024561Y008395D01*
X024800Y008554D02*
X023183Y008554D01*
X022800Y008554D02*
X021183Y008554D01*
X021422Y008395D02*
X022561Y008395D01*
X022460Y008237D02*
X022398Y008237D01*
X021585Y008237D02*
X021524Y008237D01*
X020800Y008554D02*
X018856Y008554D01*
X018904Y008712D02*
X025857Y008712D01*
X025857Y008554D02*
X025183Y008554D01*
X025422Y008395D02*
X025944Y008395D01*
X025857Y008482D02*
X026193Y008147D01*
X025997Y007951D01*
X025997Y007746D01*
X026492Y007746D01*
X026987Y007746D01*
X026987Y007951D01*
X026791Y008147D01*
X027127Y008482D01*
X027127Y009009D01*
X026755Y009381D01*
X026229Y009381D01*
X025857Y009009D01*
X025857Y008482D01*
X026102Y008237D02*
X025524Y008237D01*
X025572Y008078D02*
X026125Y008078D01*
X025997Y007920D02*
X025572Y007920D01*
X025572Y007761D02*
X025997Y007761D01*
X025997Y007746D02*
X025997Y007540D01*
X026287Y007251D01*
X026492Y007251D01*
X026697Y007251D01*
X026987Y007540D01*
X026987Y007746D01*
X026492Y007746D01*
X026492Y007746D01*
X026492Y007746D01*
X026492Y007745D02*
X026492Y007251D01*
X026492Y007745D01*
X026492Y007745D01*
X026492Y007746D02*
X025997Y007746D01*
X025997Y007603D02*
X025572Y007603D01*
X025572Y007444D02*
X026093Y007444D01*
X026251Y007286D02*
X025537Y007286D01*
X025508Y007127D02*
X038042Y007127D01*
X038042Y006969D02*
X025627Y006969D01*
X025627Y006810D02*
X038062Y006810D01*
X038042Y006831D02*
X038452Y006421D01*
X039032Y006421D01*
X039304Y006693D01*
X039577Y006421D01*
X040157Y006421D01*
X040567Y006831D01*
X040567Y007410D01*
X040157Y007821D01*
X039577Y007821D01*
X039304Y007548D01*
X039032Y007821D01*
X038452Y007821D01*
X038042Y007410D01*
X038042Y006831D01*
X038220Y006652D02*
X025627Y006652D01*
X025627Y006493D02*
X038379Y006493D01*
X039105Y006493D02*
X039504Y006493D01*
X039345Y006652D02*
X039263Y006652D01*
X040230Y006493D02*
X041955Y006493D01*
X041870Y006335D02*
X025479Y006335D01*
X025321Y006176D02*
X026102Y006176D01*
X026881Y006176D02*
X029102Y006176D01*
X028944Y006018D02*
X027039Y006018D01*
X027072Y005859D02*
X028912Y005859D01*
X028912Y005701D02*
X027072Y005701D01*
X027072Y005542D02*
X028912Y005542D01*
X030072Y005542D02*
X041917Y005542D01*
X041851Y005701D02*
X030072Y005701D01*
X030072Y005859D02*
X041797Y005859D01*
X041797Y006018D02*
X030039Y006018D01*
X029881Y006176D02*
X041804Y006176D01*
X042104Y006652D02*
X040388Y006652D01*
X040547Y006810D02*
X042034Y006810D01*
X041869Y006969D02*
X040567Y006969D01*
X040567Y007127D02*
X041799Y007127D01*
X041787Y007286D02*
X040567Y007286D01*
X040533Y007444D02*
X041827Y007444D01*
X041935Y007603D02*
X040374Y007603D01*
X040216Y007761D02*
X041864Y007761D01*
X041729Y007920D02*
X029322Y007920D01*
X029322Y007986D02*
X028982Y008326D01*
X028501Y008326D01*
X028162Y007986D01*
X028162Y007505D01*
X028501Y007166D01*
X028982Y007166D01*
X029322Y007505D01*
X029322Y007986D01*
X029229Y008078D02*
X041663Y008078D01*
X041647Y008237D02*
X029070Y008237D01*
X028413Y008237D02*
X026881Y008237D01*
X026859Y008078D02*
X027202Y008078D01*
X027309Y008186D02*
X027052Y007928D01*
X027052Y007746D01*
X027492Y007746D01*
X027492Y007746D01*
X027492Y008186D01*
X027674Y008186D01*
X027932Y007928D01*
X027932Y007746D01*
X027492Y007746D01*
X027492Y007746D01*
X027492Y008186D01*
X027309Y008186D01*
X027492Y008078D02*
X027492Y008078D01*
X027492Y007920D02*
X027492Y007920D01*
X027492Y007761D02*
X027492Y007761D01*
X027492Y007746D02*
X027492Y007746D01*
X027932Y007746D01*
X027932Y007563D01*
X027674Y007306D01*
X027492Y007306D01*
X027492Y007745D01*
X027492Y007745D01*
X027492Y007306D01*
X027309Y007306D01*
X027052Y007563D01*
X027052Y007746D01*
X027492Y007746D01*
X027492Y007603D02*
X027492Y007603D01*
X027492Y007444D02*
X027492Y007444D01*
X027813Y007444D02*
X028222Y007444D01*
X028162Y007603D02*
X027932Y007603D01*
X027932Y007761D02*
X028162Y007761D01*
X028162Y007920D02*
X027932Y007920D01*
X027781Y008078D02*
X028254Y008078D01*
X027052Y007920D02*
X026987Y007920D01*
X026987Y007761D02*
X027052Y007761D01*
X027052Y007603D02*
X026987Y007603D01*
X026891Y007444D02*
X027170Y007444D01*
X026732Y007286D02*
X028381Y007286D01*
X029102Y007286D02*
X038042Y007286D01*
X038076Y007444D02*
X029261Y007444D01*
X029322Y007603D02*
X038234Y007603D01*
X038393Y007761D02*
X029322Y007761D01*
X027127Y008554D02*
X041722Y008554D01*
X041656Y008395D02*
X027040Y008395D01*
X027127Y008712D02*
X041847Y008712D01*
X041754Y008871D02*
X027127Y008871D01*
X027106Y009029D02*
X041683Y009029D01*
X041647Y009188D02*
X026947Y009188D01*
X026789Y009346D02*
X041647Y009346D01*
X041701Y009505D02*
X019177Y009505D01*
X019197Y009346D02*
X026195Y009346D01*
X026036Y009188D02*
X019197Y009188D01*
X019197Y009029D02*
X025878Y009029D01*
X025857Y008871D02*
X019062Y008871D01*
X018329Y008712D02*
X015904Y008712D01*
X015857Y008666D02*
X016197Y009005D01*
X016197Y009486D01*
X015857Y009826D01*
X015376Y009826D01*
X015037Y009486D01*
X015037Y009005D01*
X015376Y008666D01*
X015857Y008666D01*
X015856Y008554D02*
X017877Y008554D01*
X017645Y008395D02*
X016088Y008395D01*
X016190Y008237D02*
X017543Y008237D01*
X017492Y008078D02*
X016241Y008078D01*
X016241Y007920D02*
X017492Y007920D01*
X017540Y007761D02*
X016193Y007761D01*
X016339Y007603D02*
X017638Y007603D01*
X017561Y007444D02*
X016422Y007444D01*
X016457Y007286D02*
X017527Y007286D01*
X017528Y007127D02*
X016456Y007127D01*
X016390Y006969D02*
X017593Y006969D01*
X017721Y006810D02*
X016262Y006810D01*
X016290Y006652D02*
X017693Y006652D01*
X017582Y006493D02*
X016402Y006493D01*
X016457Y006335D02*
X017527Y006335D01*
X017527Y006176D02*
X016457Y006176D01*
X016410Y006018D02*
X017573Y006018D01*
X017672Y005859D02*
X016311Y005859D01*
X016078Y005701D02*
X017906Y005701D01*
X017781Y005542D02*
X016202Y005542D01*
X015156Y005701D02*
X008447Y005701D01*
X008447Y005859D02*
X014922Y005859D01*
X014823Y006018D02*
X008447Y006018D01*
X008424Y006176D02*
X014777Y006176D01*
X014777Y006335D02*
X008357Y006335D01*
X008199Y006493D02*
X013798Y006493D01*
X013876Y006416D02*
X014357Y006416D01*
X014697Y006755D01*
X014697Y007236D01*
X014357Y007576D01*
X013876Y007576D01*
X013537Y007236D01*
X013537Y006755D01*
X013876Y006416D01*
X013640Y006652D02*
X011395Y006652D01*
X011299Y006556D02*
X011557Y006813D01*
X011557Y006996D01*
X011557Y007178D01*
X011299Y007436D01*
X011117Y007436D01*
X011117Y006996D01*
X011117Y006996D01*
X011557Y006996D01*
X011117Y006996D01*
X011117Y006996D01*
X011117Y007436D01*
X010934Y007436D01*
X010677Y007178D01*
X010677Y006996D01*
X011117Y006996D01*
X011117Y006996D01*
X011117Y006995D02*
X011117Y006556D01*
X011299Y006556D01*
X011117Y006556D02*
X011117Y006995D01*
X011117Y006995D01*
X011117Y006996D02*
X010677Y006996D01*
X010677Y006813D01*
X010934Y006556D01*
X011117Y006556D01*
X011117Y006652D02*
X011117Y006652D01*
X011117Y006810D02*
X011117Y006810D01*
X011117Y006969D02*
X011117Y006969D01*
X011117Y007127D02*
X011117Y007127D01*
X011117Y007286D02*
X011117Y007286D01*
X011448Y007286D02*
X013587Y007286D01*
X013537Y007127D02*
X011557Y007127D01*
X011557Y006969D02*
X013537Y006969D01*
X013537Y006810D02*
X011554Y006810D01*
X010838Y006652D02*
X004608Y006652D01*
X004731Y006810D02*
X004450Y006810D01*
X004573Y006969D02*
X002462Y006969D01*
X002557Y007063D02*
X002557Y007246D01*
X002557Y007428D01*
X002299Y007686D01*
X002117Y007686D01*
X002117Y007246D01*
X002117Y007246D01*
X002557Y007246D01*
X002117Y007246D01*
X002117Y007246D01*
X002117Y007686D01*
X001934Y007686D01*
X001677Y007428D01*
X001677Y007246D01*
X002117Y007246D01*
X002117Y007246D01*
X002117Y007245D02*
X002117Y006806D01*
X002299Y006806D01*
X002557Y007063D01*
X002557Y007127D02*
X004537Y007127D01*
X004537Y007005D02*
X004876Y006666D01*
X005357Y006666D01*
X005697Y007005D01*
X005697Y007428D01*
X005751Y007406D01*
X005982Y007406D01*
X006195Y007494D01*
X006358Y007657D01*
X006367Y007677D01*
X006375Y007657D01*
X006538Y007494D01*
X006751Y007406D01*
X006982Y007406D01*
X007195Y007494D01*
X007358Y007657D01*
X007444Y007863D01*
X007459Y007817D01*
X007490Y007755D01*
X007531Y007699D01*
X007580Y007650D01*
X007636Y007609D01*
X007698Y007578D01*
X007764Y007556D01*
X007832Y007546D01*
X007867Y007546D01*
X007901Y007546D01*
X007970Y007556D01*
X008036Y007578D01*
X008097Y007609D01*
X008153Y007650D01*
X008202Y007699D01*
X008243Y007755D01*
X008274Y007817D01*
X008296Y007882D01*
X008307Y007951D01*
X008307Y008246D01*
X008307Y008540D01*
X008296Y008609D01*
X008274Y008674D01*
X008243Y008736D01*
X008202Y008792D01*
X008153Y008841D01*
X008097Y008882D01*
X008036Y008913D01*
X007970Y008935D01*
X007901Y008946D01*
X007867Y008946D01*
X007867Y008246D01*
X007867Y008246D01*
X008307Y008246D01*
X007867Y008246D01*
X007867Y008246D01*
X007867Y008946D01*
X007832Y008946D01*
X007764Y008935D01*
X007698Y008913D01*
X007636Y008882D01*
X007580Y008841D01*
X007531Y008792D01*
X007490Y008736D01*
X007459Y008674D01*
X007444Y008628D01*
X007358Y008834D01*
X007195Y008997D01*
X006982Y009086D01*
X006751Y009086D01*
X006538Y008997D01*
X006375Y008834D01*
X006367Y008814D01*
X006358Y008834D01*
X006195Y008997D01*
X005982Y009086D01*
X005751Y009086D01*
X005697Y009063D01*
X005697Y009486D01*
X005357Y009826D01*
X004876Y009826D01*
X004537Y009486D01*
X004537Y009005D01*
X004796Y008746D01*
X004537Y008486D01*
X004537Y008005D01*
X004796Y007746D01*
X004537Y007486D01*
X004537Y007005D01*
X004537Y007286D02*
X002557Y007286D01*
X002540Y007444D02*
X004537Y007444D01*
X004654Y007603D02*
X002381Y007603D01*
X002299Y007806D02*
X002117Y007806D01*
X002117Y008245D01*
X002117Y008245D01*
X002117Y008246D02*
X002117Y008246D01*
X002117Y008246D01*
X002117Y008686D01*
X002299Y008686D01*
X002557Y008428D01*
X002557Y008246D01*
X002117Y008246D01*
X002117Y008686D01*
X001934Y008686D01*
X001677Y008428D01*
X001677Y008246D01*
X002117Y008246D01*
X002557Y008246D01*
X002557Y008063D01*
X002299Y007806D01*
X002413Y007920D02*
X004622Y007920D01*
X004537Y008078D02*
X002557Y008078D01*
X002557Y008237D02*
X004537Y008237D01*
X004537Y008395D02*
X002557Y008395D01*
X002430Y008554D02*
X004605Y008554D01*
X004763Y008712D02*
X001332Y008712D01*
X001332Y008554D02*
X001803Y008554D01*
X001677Y008395D02*
X001332Y008395D01*
X001332Y008237D02*
X001677Y008237D01*
X001677Y008246D02*
X001677Y008063D01*
X001934Y007806D01*
X002117Y007806D01*
X002117Y008245D01*
X002117Y008246D02*
X001677Y008246D01*
X001677Y008078D02*
X001332Y008078D01*
X001332Y007920D02*
X001820Y007920D01*
X002117Y007920D02*
X002117Y007920D01*
X002117Y008078D02*
X002117Y008078D01*
X002117Y008237D02*
X002117Y008237D01*
X002117Y008246D02*
X002117Y008246D01*
X002117Y008395D02*
X002117Y008395D01*
X002117Y008554D02*
X002117Y008554D01*
X002117Y008806D02*
X002299Y008806D01*
X002557Y009063D01*
X002557Y009246D01*
X002557Y009428D01*
X002299Y009686D01*
X002117Y009686D01*
X002117Y009246D01*
X002117Y009246D01*
X002557Y009246D01*
X002117Y009246D01*
X002117Y009246D01*
X002117Y009686D01*
X001934Y009686D01*
X001677Y009428D01*
X001677Y009246D01*
X002117Y009246D01*
X002117Y009246D01*
X002117Y009245D02*
X002117Y008806D01*
X002117Y009245D01*
X002117Y009245D01*
X002117Y009246D02*
X001677Y009246D01*
X001677Y009063D01*
X001934Y008806D01*
X002117Y008806D01*
X002117Y008871D02*
X002117Y008871D01*
X002117Y009029D02*
X002117Y009029D01*
X002117Y009188D02*
X002117Y009188D01*
X002117Y009346D02*
X002117Y009346D01*
X002117Y009505D02*
X002117Y009505D01*
X002117Y009663D02*
X002117Y009663D01*
X002321Y009663D02*
X002439Y009663D01*
X002446Y009657D02*
X002700Y009552D01*
X002974Y009552D01*
X003228Y009657D01*
X003422Y009851D01*
X003527Y010104D01*
X003527Y010379D01*
X003422Y010632D01*
X003313Y010742D01*
X003422Y010851D01*
X003527Y011104D01*
X003527Y011379D01*
X003422Y011632D01*
X003313Y011742D01*
X003422Y011851D01*
X003527Y012104D01*
X003527Y012379D01*
X003422Y012632D01*
X003313Y012742D01*
X003422Y012851D01*
X003527Y013104D01*
X003527Y013379D01*
X003422Y013632D01*
X003313Y013742D01*
X003422Y013851D01*
X003527Y014104D01*
X003527Y014379D01*
X003422Y014632D01*
X003313Y014742D01*
X003422Y014851D01*
X003527Y015104D01*
X003527Y015379D01*
X003422Y015632D01*
X003313Y015742D01*
X003422Y015851D01*
X003527Y016104D01*
X003527Y016379D01*
X003422Y016632D01*
X003228Y016827D01*
X003208Y016835D01*
X003257Y016883D01*
X003308Y016953D01*
X003347Y017030D01*
X003374Y017113D01*
X005179Y017113D01*
X005037Y017255D02*
X005376Y016916D01*
X005857Y016916D01*
X006197Y017255D01*
X006197Y017736D01*
X005857Y018076D01*
X005376Y018076D01*
X005037Y017736D01*
X005037Y017255D01*
X005037Y017272D02*
X003387Y017272D01*
X003387Y017262D02*
X003387Y017285D01*
X003374Y017370D01*
X003347Y017453D01*
X003308Y017530D01*
X003257Y017600D01*
X003195Y017661D01*
X003125Y017712D01*
X003048Y017751D01*
X002966Y017778D01*
X002880Y017792D01*
X002857Y017792D01*
X002857Y017262D01*
X002817Y017262D01*
X002817Y017792D01*
X002794Y017792D01*
X002708Y017778D01*
X002626Y017751D01*
X002549Y017712D01*
X002479Y017661D01*
X002418Y017600D01*
X002367Y017530D01*
X002327Y017453D01*
X002301Y017370D01*
X002287Y017285D01*
X002287Y017262D01*
X002817Y017262D01*
X002817Y017222D01*
X002287Y017222D01*
X002287Y017198D01*
X002301Y017113D01*
X001332Y017113D01*
X001332Y016955D02*
X002366Y016955D01*
X002367Y016953D02*
X002418Y016883D01*
X002466Y016835D01*
X002446Y016827D01*
X002252Y016632D01*
X002147Y016379D01*
X002147Y016104D01*
X002252Y015851D01*
X002361Y015742D01*
X002252Y015632D01*
X002147Y015379D01*
X002147Y015104D01*
X002252Y014851D01*
X002361Y014742D01*
X002252Y014632D01*
X002147Y014379D01*
X002147Y014104D01*
X002252Y013851D01*
X002361Y013742D01*
X002252Y013632D01*
X002147Y013379D01*
X002147Y013104D01*
X002252Y012851D01*
X002361Y012742D01*
X002252Y012632D01*
X002147Y012379D01*
X002147Y012104D01*
X002252Y011851D01*
X002361Y011742D01*
X002252Y011632D01*
X002147Y011379D01*
X002147Y011104D01*
X002252Y010851D01*
X002361Y010742D01*
X002252Y010632D01*
X002147Y010379D01*
X002147Y010104D01*
X002252Y009851D01*
X002446Y009657D01*
X002479Y009505D02*
X004556Y009505D01*
X004537Y009346D02*
X002557Y009346D01*
X002557Y009188D02*
X004537Y009188D01*
X004537Y009029D02*
X002523Y009029D01*
X002364Y008871D02*
X004671Y008871D01*
X005697Y009188D02*
X010356Y009188D01*
X010365Y009167D02*
X010528Y009004D01*
X010548Y008996D01*
X010528Y008987D01*
X010365Y008824D01*
X010277Y008611D01*
X010277Y008380D01*
X010365Y008167D01*
X010528Y008004D01*
X010741Y007916D01*
X011492Y007916D01*
X011705Y008004D01*
X011868Y008167D01*
X011957Y008380D01*
X011957Y008611D01*
X011868Y008824D01*
X011705Y008987D01*
X011685Y008996D01*
X011705Y009004D01*
X011868Y009167D01*
X011957Y009380D01*
X011957Y009611D01*
X011868Y009824D01*
X011705Y009987D01*
X011685Y009996D01*
X011705Y010004D01*
X011868Y010167D01*
X011957Y010380D01*
X011957Y010611D01*
X011868Y010824D01*
X011705Y010987D01*
X011685Y010996D01*
X011705Y011004D01*
X011868Y011167D01*
X011957Y011380D01*
X011957Y011611D01*
X011868Y011824D01*
X011705Y011987D01*
X011685Y011996D01*
X011705Y012004D01*
X011868Y012167D01*
X011957Y012380D01*
X011957Y012611D01*
X011868Y012824D01*
X011705Y012987D01*
X011685Y012996D01*
X011705Y013004D01*
X011868Y013167D01*
X011957Y013380D01*
X011957Y013611D01*
X011868Y013824D01*
X011705Y013987D01*
X011499Y014073D01*
X011546Y014088D01*
X011607Y014119D01*
X011663Y014160D01*
X011712Y014209D01*
X011753Y014265D01*
X011784Y014327D01*
X011806Y014392D01*
X011817Y014461D01*
X011817Y014496D01*
X011817Y014530D01*
X011806Y014599D01*
X011784Y014664D01*
X011753Y014726D01*
X011712Y014782D01*
X011663Y014831D01*
X011607Y014872D01*
X011546Y014903D01*
X011499Y014918D01*
X011705Y015004D01*
X011868Y015167D01*
X011957Y015380D01*
X011957Y015611D01*
X011868Y015824D01*
X011705Y015987D01*
X011685Y015996D01*
X011705Y016004D01*
X011868Y016167D01*
X011957Y016380D01*
X011957Y016611D01*
X011868Y016824D01*
X011705Y016987D01*
X011685Y016996D01*
X011705Y017004D01*
X011868Y017167D01*
X011957Y017380D01*
X011957Y017611D01*
X011868Y017824D01*
X011705Y017987D01*
X011685Y017996D01*
X011705Y018004D01*
X011868Y018167D01*
X011957Y018380D01*
X011957Y018611D01*
X011868Y018824D01*
X011705Y018987D01*
X011685Y018996D01*
X011705Y019004D01*
X011868Y019167D01*
X011957Y019380D01*
X011957Y019611D01*
X011868Y019824D01*
X011705Y019987D01*
X011685Y019996D01*
X011705Y020004D01*
X011868Y020167D01*
X011957Y020380D01*
X011957Y020611D01*
X011868Y020824D01*
X011705Y020987D01*
X011685Y020996D01*
X011705Y021004D01*
X011868Y021167D01*
X011957Y021380D01*
X011957Y021611D01*
X011868Y021824D01*
X011705Y021987D01*
X011492Y022076D01*
X010741Y022076D01*
X010528Y021987D01*
X010447Y021906D01*
X010447Y021986D01*
X010107Y022326D01*
X009626Y022326D01*
X009287Y021986D01*
X009287Y021505D01*
X009626Y021166D01*
X010107Y021166D01*
X010290Y021348D01*
X010365Y021167D01*
X010528Y021004D01*
X010548Y020996D01*
X010528Y020987D01*
X010365Y020824D01*
X010277Y020611D01*
X010277Y020380D01*
X010365Y020167D01*
X010528Y020004D01*
X010548Y019996D01*
X010528Y019987D01*
X010365Y019824D01*
X010277Y019611D01*
X010277Y019380D01*
X010365Y019167D01*
X010528Y019004D01*
X010548Y018996D01*
X010528Y018987D01*
X010447Y018906D01*
X010447Y018986D01*
X010107Y019326D01*
X009626Y019326D01*
X009287Y018986D01*
X009287Y018505D01*
X009626Y018166D01*
X010107Y018166D01*
X010290Y018348D01*
X010365Y018167D01*
X010528Y018004D01*
X010548Y017996D01*
X010528Y017987D01*
X010365Y017824D01*
X010277Y017611D01*
X010277Y017380D01*
X010365Y017167D01*
X010528Y017004D01*
X010548Y016996D01*
X010528Y016987D01*
X010365Y016824D01*
X010277Y016611D01*
X010277Y016380D01*
X010365Y016167D01*
X010528Y016004D01*
X010548Y015996D01*
X010528Y015987D01*
X010502Y015961D01*
X010502Y016009D01*
X010130Y016381D01*
X009604Y016381D01*
X009232Y016009D01*
X009232Y015482D01*
X009568Y015147D01*
X009372Y014951D01*
X009372Y014746D01*
X009867Y014746D01*
X010362Y014746D01*
X010362Y014951D01*
X010166Y015147D01*
X010313Y015293D01*
X010365Y015167D01*
X010528Y015004D01*
X010734Y014918D01*
X010688Y014903D01*
X010626Y014872D01*
X010570Y014831D01*
X010521Y014782D01*
X010480Y014726D01*
X010449Y014664D01*
X010428Y014599D01*
X010417Y014530D01*
X010417Y014496D01*
X011117Y014496D01*
X011817Y014496D01*
X011117Y014496D01*
X011117Y014496D01*
X011117Y014496D01*
X010417Y014496D01*
X010417Y014461D01*
X010428Y014392D01*
X010449Y014327D01*
X010480Y014265D01*
X010521Y014209D01*
X010570Y014160D01*
X010626Y014119D01*
X010688Y014088D01*
X010734Y014073D01*
X010528Y013987D01*
X010365Y013824D01*
X010277Y013611D01*
X010277Y013380D01*
X010365Y013167D01*
X010528Y013004D01*
X010548Y012996D01*
X010528Y012987D01*
X010365Y012824D01*
X010277Y012611D01*
X010277Y012380D01*
X010365Y012167D01*
X010528Y012004D01*
X010548Y011996D01*
X010528Y011987D01*
X010365Y011824D01*
X010277Y011611D01*
X010277Y011380D01*
X010365Y011167D01*
X010528Y011004D01*
X010548Y010996D01*
X010528Y010987D01*
X010365Y010824D01*
X010277Y010611D01*
X010277Y010380D01*
X010365Y010167D01*
X010528Y010004D01*
X010548Y009996D01*
X010528Y009987D01*
X010365Y009824D01*
X010277Y009611D01*
X010277Y009380D01*
X010365Y009167D01*
X010291Y009346D02*
X005697Y009346D01*
X005677Y009505D02*
X010277Y009505D01*
X010298Y009663D02*
X005519Y009663D01*
X005360Y009822D02*
X010364Y009822D01*
X010521Y009980D02*
X003476Y009980D01*
X003527Y010139D02*
X010393Y010139D01*
X010311Y010297D02*
X003527Y010297D01*
X003495Y010456D02*
X010277Y010456D01*
X010278Y010614D02*
X003430Y010614D01*
X003344Y010773D02*
X010344Y010773D01*
X010472Y010931D02*
X003456Y010931D01*
X003521Y011090D02*
X010442Y011090D01*
X010331Y011248D02*
X003527Y011248D01*
X003515Y011407D02*
X010277Y011407D01*
X010277Y011565D02*
X003450Y011565D01*
X003331Y011724D02*
X010324Y011724D01*
X010423Y011882D02*
X003435Y011882D01*
X003501Y012041D02*
X010491Y012041D01*
X010351Y012199D02*
X003527Y012199D01*
X003527Y012358D02*
X010286Y012358D01*
X010277Y012516D02*
X003470Y012516D01*
X003380Y012675D02*
X010303Y012675D01*
X010374Y012833D02*
X003405Y012833D01*
X003481Y012992D02*
X010540Y012992D01*
X010381Y013150D02*
X007170Y013150D01*
X007130Y013111D02*
X007502Y013482D01*
X007502Y014009D01*
X007130Y014381D01*
X006604Y014381D01*
X006268Y014045D01*
X006072Y014241D01*
X005867Y014241D01*
X005867Y013746D01*
X005867Y013746D01*
X005867Y014241D01*
X005662Y014241D01*
X005372Y013951D01*
X005372Y013746D01*
X005867Y013746D01*
X005867Y013746D01*
X005867Y013745D02*
X005867Y013251D01*
X006072Y013251D01*
X006268Y013446D01*
X006604Y013111D01*
X007130Y013111D01*
X007328Y013309D02*
X007820Y013309D01*
X007841Y013288D02*
X008039Y013206D01*
X008694Y013206D01*
X008893Y013288D01*
X009044Y013440D01*
X009127Y013638D01*
X009127Y013853D01*
X009044Y014051D01*
X008893Y014203D01*
X008694Y014286D01*
X008039Y014286D01*
X007841Y014203D01*
X007689Y014051D01*
X007607Y013853D01*
X007607Y013638D01*
X007689Y013440D01*
X007841Y013288D01*
X007677Y013467D02*
X007487Y013467D01*
X007502Y013626D02*
X007612Y013626D01*
X007607Y013784D02*
X007502Y013784D01*
X007502Y013943D02*
X007644Y013943D01*
X007739Y014101D02*
X007409Y014101D01*
X007250Y014260D02*
X007978Y014260D01*
X008756Y014260D02*
X009652Y014260D01*
X009662Y014251D02*
X009867Y014251D01*
X010072Y014251D01*
X010362Y014540D01*
X010362Y014746D01*
X009867Y014746D01*
X009867Y014746D01*
X009867Y014746D01*
X009867Y014745D02*
X009867Y014251D01*
X009867Y014745D01*
X009867Y014745D01*
X009867Y014746D02*
X009372Y014746D01*
X009372Y014540D01*
X009662Y014251D01*
X009867Y014260D02*
X009867Y014260D01*
X009867Y014418D02*
X009867Y014418D01*
X009867Y014577D02*
X009867Y014577D01*
X009867Y014735D02*
X009867Y014735D01*
X010240Y014418D02*
X010423Y014418D01*
X010424Y014577D02*
X010362Y014577D01*
X010362Y014735D02*
X010487Y014735D01*
X010362Y014894D02*
X010670Y014894D01*
X010479Y015052D02*
X010260Y015052D01*
X010230Y015211D02*
X010347Y015211D01*
X009503Y015211D02*
X008707Y015211D01*
X008694Y015206D02*
X008893Y015288D01*
X009044Y015440D01*
X009127Y015638D01*
X009127Y015853D01*
X009044Y016051D01*
X008893Y016203D01*
X008694Y016286D01*
X008039Y016286D01*
X007841Y016203D01*
X007689Y016051D01*
X007607Y015853D01*
X007607Y015638D01*
X007689Y015440D01*
X007841Y015288D01*
X008039Y015206D01*
X008694Y015206D01*
X008974Y015369D02*
X009345Y015369D01*
X009232Y015528D02*
X009081Y015528D01*
X009127Y015686D02*
X009232Y015686D01*
X009232Y015845D02*
X009127Y015845D01*
X009064Y016003D02*
X009232Y016003D01*
X009385Y016162D02*
X008934Y016162D01*
X009544Y016320D02*
X007190Y016320D01*
X007130Y016381D02*
X006604Y016381D01*
X006268Y016045D01*
X006072Y016241D01*
X005867Y016241D01*
X005867Y015746D01*
X005867Y015746D01*
X005867Y016241D01*
X005662Y016241D01*
X005372Y015951D01*
X005372Y015746D01*
X005867Y015746D01*
X005867Y015746D01*
X005867Y015745D02*
X005867Y015251D01*
X006072Y015251D01*
X006268Y015446D01*
X006604Y015111D01*
X007130Y015111D01*
X007502Y015482D01*
X007502Y016009D01*
X007130Y016381D01*
X007348Y016162D02*
X007799Y016162D01*
X007669Y016003D02*
X007502Y016003D01*
X007502Y015845D02*
X007607Y015845D01*
X007607Y015686D02*
X007502Y015686D01*
X007502Y015528D02*
X007652Y015528D01*
X007759Y015369D02*
X007389Y015369D01*
X007230Y015211D02*
X008026Y015211D01*
X009372Y014894D02*
X004947Y014894D01*
X004947Y014780D02*
X004947Y015011D01*
X004858Y015224D01*
X004695Y015387D01*
X004613Y015421D01*
X004947Y015755D01*
X004947Y016236D01*
X004607Y016576D01*
X004126Y016576D01*
X003787Y016236D01*
X003787Y015755D01*
X004121Y015421D01*
X004038Y015387D01*
X003875Y015224D01*
X003787Y015011D01*
X003787Y014780D01*
X003875Y014567D01*
X004038Y014404D01*
X004048Y014400D01*
X003927Y014278D01*
X003927Y014096D01*
X004367Y014096D01*
X004807Y014096D01*
X004807Y014278D01*
X004685Y014400D01*
X004695Y014404D01*
X004858Y014567D01*
X004947Y014780D01*
X004928Y014735D02*
X009372Y014735D01*
X009372Y014577D02*
X004863Y014577D01*
X004710Y014418D02*
X009494Y014418D01*
X010081Y014260D02*
X010484Y014260D01*
X010661Y014101D02*
X008994Y014101D01*
X009089Y013943D02*
X010484Y013943D01*
X010349Y013784D02*
X009127Y013784D01*
X009122Y013626D02*
X010283Y013626D01*
X010277Y013467D02*
X009056Y013467D01*
X008914Y013309D02*
X010306Y013309D01*
X011573Y014101D02*
X012871Y014101D01*
X012868Y013943D02*
X011749Y013943D01*
X011885Y013784D02*
X012915Y013784D01*
X013031Y013626D02*
X011950Y013626D01*
X011957Y013467D02*
X013277Y013467D01*
X013306Y013309D02*
X011927Y013309D01*
X011852Y013150D02*
X013381Y013150D01*
X013540Y012992D02*
X011694Y012992D01*
X011859Y012833D02*
X013374Y012833D01*
X013303Y012675D02*
X011930Y012675D01*
X011957Y012516D02*
X013277Y012516D01*
X013286Y012358D02*
X011947Y012358D01*
X011882Y012199D02*
X013351Y012199D01*
X013491Y012041D02*
X011742Y012041D01*
X011810Y011882D02*
X013423Y011882D01*
X013324Y011724D02*
X011910Y011724D01*
X011957Y011565D02*
X013277Y011565D01*
X013277Y011407D02*
X011957Y011407D01*
X011902Y011248D02*
X013331Y011248D01*
X013442Y011090D02*
X011791Y011090D01*
X011761Y010931D02*
X013472Y010931D01*
X013344Y010773D02*
X011890Y010773D01*
X011955Y010614D02*
X013278Y010614D01*
X013277Y010456D02*
X011957Y010456D01*
X011922Y010297D02*
X013311Y010297D01*
X013393Y010139D02*
X011840Y010139D01*
X011712Y009980D02*
X013521Y009980D01*
X013364Y009822D02*
X011869Y009822D01*
X011935Y009663D02*
X013298Y009663D01*
X013277Y009505D02*
X011957Y009505D01*
X011943Y009346D02*
X013291Y009346D01*
X013356Y009188D02*
X011877Y009188D01*
X011731Y009029D02*
X013502Y009029D01*
X013412Y008871D02*
X011821Y008871D01*
X011915Y008712D02*
X013319Y008712D01*
X013277Y008554D02*
X011957Y008554D01*
X011957Y008395D02*
X013277Y008395D01*
X013336Y008237D02*
X011897Y008237D01*
X011780Y008078D02*
X013453Y008078D01*
X013730Y007920D02*
X011503Y007920D01*
X010730Y007920D02*
X008302Y007920D01*
X008307Y008078D02*
X010453Y008078D01*
X010336Y008237D02*
X008307Y008237D01*
X008307Y008395D02*
X010277Y008395D01*
X010277Y008554D02*
X008304Y008554D01*
X008255Y008712D02*
X010319Y008712D01*
X010412Y008871D02*
X008112Y008871D01*
X007867Y008871D02*
X007867Y008871D01*
X007867Y008712D02*
X007867Y008712D01*
X007867Y008554D02*
X007867Y008554D01*
X007867Y008395D02*
X007867Y008395D01*
X007867Y008245D02*
X007867Y007546D01*
X007867Y008245D01*
X007867Y008245D01*
X007867Y008237D02*
X007867Y008237D01*
X007867Y008078D02*
X007867Y008078D01*
X007867Y007920D02*
X007867Y007920D01*
X007867Y007761D02*
X007867Y007761D01*
X007867Y007603D02*
X007867Y007603D01*
X008085Y007603D02*
X014638Y007603D01*
X014540Y007761D02*
X008246Y007761D01*
X007648Y007603D02*
X007304Y007603D01*
X007402Y007761D02*
X007487Y007761D01*
X007076Y007444D02*
X013745Y007444D01*
X014488Y007444D02*
X014811Y007444D01*
X014777Y007286D02*
X014646Y007286D01*
X014697Y007127D02*
X014778Y007127D01*
X014843Y006969D02*
X014697Y006969D01*
X014697Y006810D02*
X014971Y006810D01*
X014943Y006652D02*
X014593Y006652D01*
X014435Y006493D02*
X014832Y006493D01*
X014117Y005996D02*
X011117Y005996D01*
X010679Y006810D02*
X005502Y006810D01*
X005660Y006969D02*
X010677Y006969D01*
X010677Y007127D02*
X005697Y007127D01*
X005697Y007286D02*
X010785Y007286D01*
X008447Y005542D02*
X015031Y005542D01*
X014915Y008712D02*
X015329Y008712D01*
X015171Y008871D02*
X014821Y008871D01*
X014731Y009029D02*
X015037Y009029D01*
X015037Y009188D02*
X014877Y009188D01*
X014943Y009346D02*
X015037Y009346D01*
X015056Y009505D02*
X014957Y009505D01*
X014935Y009663D02*
X015214Y009663D01*
X015373Y009822D02*
X014869Y009822D01*
X014712Y009980D02*
X017978Y009980D01*
X017927Y010139D02*
X014840Y010139D01*
X014922Y010297D02*
X017927Y010297D01*
X017959Y010456D02*
X014957Y010456D01*
X014955Y010614D02*
X018024Y010614D01*
X018109Y010773D02*
X014890Y010773D01*
X014761Y010931D02*
X017998Y010931D01*
X017933Y011090D02*
X017666Y011090D01*
X017804Y011248D02*
X017927Y011248D01*
X017938Y011407D02*
X017865Y011407D01*
X017367Y011496D02*
X017367Y013996D01*
X014867Y013996D01*
X014957Y013467D02*
X016967Y013467D01*
X016967Y013309D02*
X014927Y013309D01*
X014852Y013150D02*
X016967Y013150D01*
X016967Y012992D02*
X014694Y012992D01*
X014859Y012833D02*
X016967Y012833D01*
X016967Y012675D02*
X014930Y012675D01*
X014957Y012516D02*
X016967Y012516D01*
X016967Y012358D02*
X014947Y012358D01*
X014882Y012199D02*
X016967Y012199D01*
X016967Y012041D02*
X014742Y012041D01*
X014810Y011882D02*
X016967Y011882D01*
X016922Y011724D02*
X014910Y011724D01*
X014957Y011565D02*
X016868Y011565D01*
X016868Y011407D02*
X014957Y011407D01*
X014902Y011248D02*
X016929Y011248D01*
X017067Y011090D02*
X014791Y011090D01*
X015860Y009822D02*
X018060Y009822D01*
X018214Y009663D02*
X016019Y009663D01*
X016177Y009505D02*
X018056Y009505D01*
X018037Y009346D02*
X016197Y009346D01*
X016197Y009188D02*
X018037Y009188D01*
X018037Y009029D02*
X016197Y009029D01*
X016062Y008871D02*
X018171Y008871D01*
X019019Y009663D02*
X041798Y009663D01*
X041999Y009822D02*
X019173Y009822D01*
X019255Y009980D02*
X020695Y009980D01*
X020518Y010139D02*
X019307Y010139D01*
X019307Y010297D02*
X020442Y010297D01*
X020412Y010456D02*
X020147Y010456D01*
X020306Y010614D02*
X020412Y010614D01*
X019586Y010456D02*
X019275Y010456D01*
X019209Y010614D02*
X019427Y010614D01*
X019287Y010773D02*
X019124Y010773D01*
X019235Y010931D02*
X019287Y010931D01*
X019295Y011407D02*
X019458Y011407D01*
X019616Y011565D02*
X019229Y011565D01*
X019110Y011724D02*
X020357Y011724D01*
X020357Y011882D02*
X019215Y011882D01*
X019280Y012041D02*
X020389Y012041D01*
X020548Y012199D02*
X019307Y012199D01*
X019307Y012358D02*
X020706Y012358D01*
X021277Y012358D02*
X022706Y012358D01*
X022729Y012381D02*
X022357Y012009D01*
X022357Y011482D01*
X022503Y011337D01*
X022500Y011334D01*
X022412Y011121D01*
X022412Y010370D01*
X022500Y010157D01*
X022663Y009994D01*
X022876Y009906D01*
X023107Y009906D01*
X023320Y009994D01*
X023483Y010157D01*
X023572Y010370D01*
X023572Y011121D01*
X023483Y011334D01*
X023481Y011337D01*
X023627Y011482D01*
X023627Y012009D01*
X023255Y012381D01*
X022729Y012381D01*
X022548Y012199D02*
X021436Y012199D01*
X021594Y012041D02*
X022389Y012041D01*
X022357Y011882D02*
X021627Y011882D01*
X021627Y011724D02*
X022357Y011724D01*
X022357Y011565D02*
X021627Y011565D01*
X021551Y011407D02*
X022432Y011407D01*
X022465Y011248D02*
X021519Y011248D01*
X021572Y011090D02*
X022412Y011090D01*
X022412Y010931D02*
X021572Y010931D01*
X021572Y010773D02*
X022412Y010773D01*
X022412Y010614D02*
X021572Y010614D01*
X021572Y010456D02*
X022412Y010456D01*
X022442Y010297D02*
X021542Y010297D01*
X021465Y010139D02*
X022518Y010139D01*
X022695Y009980D02*
X021288Y009980D01*
X023288Y009980D02*
X024695Y009980D01*
X024663Y009994D02*
X024876Y009906D01*
X025107Y009906D01*
X025320Y009994D01*
X025483Y010157D01*
X025572Y010370D01*
X025572Y011121D01*
X025483Y011334D01*
X025320Y011497D01*
X025107Y011586D01*
X024876Y011586D01*
X024663Y011497D01*
X024500Y011334D01*
X024412Y011121D01*
X024412Y010370D01*
X024500Y010157D01*
X024663Y009994D01*
X024518Y010139D02*
X023465Y010139D01*
X023542Y010297D02*
X024442Y010297D01*
X024412Y010456D02*
X023572Y010456D01*
X023572Y010614D02*
X024412Y010614D01*
X024412Y010773D02*
X023572Y010773D01*
X023572Y010931D02*
X024412Y010931D01*
X024412Y011090D02*
X023572Y011090D01*
X023519Y011248D02*
X024465Y011248D01*
X024573Y011407D02*
X023551Y011407D01*
X023627Y011565D02*
X024828Y011565D01*
X025155Y011565D02*
X043126Y011565D01*
X043126Y011407D02*
X025410Y011407D01*
X025519Y011248D02*
X027174Y011248D01*
X027251Y011326D02*
X026912Y010986D01*
X026912Y010505D01*
X027251Y010166D01*
X027732Y010166D01*
X028072Y010505D01*
X028072Y010986D01*
X027732Y011326D01*
X027251Y011326D01*
X027016Y011090D02*
X025572Y011090D01*
X025572Y010931D02*
X026912Y010931D01*
X026912Y010773D02*
X025572Y010773D01*
X025572Y010614D02*
X026912Y010614D01*
X026961Y010456D02*
X025572Y010456D01*
X025542Y010297D02*
X027119Y010297D01*
X027864Y010297D02*
X028369Y010297D01*
X028501Y010166D02*
X028162Y010505D01*
X028162Y010986D01*
X028501Y011326D01*
X028982Y011326D01*
X029322Y010986D01*
X029322Y010505D01*
X028982Y010166D01*
X028501Y010166D01*
X028211Y010456D02*
X028022Y010456D01*
X028072Y010614D02*
X028162Y010614D01*
X028162Y010773D02*
X028072Y010773D01*
X028072Y010931D02*
X028162Y010931D01*
X028266Y011090D02*
X027967Y011090D01*
X027809Y011248D02*
X028424Y011248D01*
X029059Y011248D02*
X042292Y011248D01*
X042051Y011090D02*
X029217Y011090D01*
X029322Y010931D02*
X041910Y010931D01*
X041844Y010773D02*
X029322Y010773D01*
X029322Y010614D02*
X041797Y010614D01*
X041797Y010456D02*
X029272Y010456D01*
X029114Y010297D02*
X041811Y010297D01*
X041877Y010139D02*
X025465Y010139D01*
X025288Y009980D02*
X041972Y009980D01*
X042942Y011248D02*
X043126Y011248D01*
X043126Y011724D02*
X040836Y011724D01*
X041166Y011882D02*
X043126Y011882D01*
X043126Y012041D02*
X041351Y012041D01*
X041490Y012199D02*
X043126Y012199D01*
X043126Y012358D02*
X041581Y012358D01*
X041650Y012516D02*
X043126Y012516D01*
X043126Y012675D02*
X041692Y012675D01*
X041716Y012833D02*
X043126Y012833D01*
X043126Y012992D02*
X041716Y012992D01*
X041702Y013150D02*
X043126Y013150D01*
X043126Y013309D02*
X041659Y013309D01*
X041602Y013467D02*
X043126Y013467D01*
X043126Y013626D02*
X041510Y013626D01*
X041386Y013784D02*
X043126Y013784D01*
X043126Y013943D02*
X041227Y013943D01*
X040953Y014101D02*
X043126Y014101D01*
X043126Y014260D02*
X040469Y014260D01*
X040522Y014418D02*
X043126Y014418D01*
X043126Y014577D02*
X040564Y014577D01*
X040574Y014735D02*
X043126Y014735D01*
X043126Y014894D02*
X040574Y014894D01*
X040546Y015052D02*
X043126Y015052D01*
X043126Y015211D02*
X040504Y015211D01*
X040430Y015369D02*
X043126Y015369D01*
X043126Y015528D02*
X040339Y015528D01*
X040193Y015686D02*
X043126Y015686D01*
X043126Y015845D02*
X039996Y015845D01*
X039634Y016003D02*
X043126Y016003D01*
X043126Y017430D02*
X019134Y017430D01*
X019167Y017262D02*
X018637Y017262D01*
X018637Y017222D01*
X019167Y017222D01*
X019167Y017198D01*
X019153Y017113D01*
X018637Y017272D02*
X018597Y017272D01*
X018597Y017430D02*
X018637Y017430D01*
X018637Y017589D02*
X018597Y017589D01*
X018597Y017747D02*
X018637Y017747D01*
X018836Y017747D02*
X043126Y017747D01*
X043126Y017589D02*
X019044Y017589D01*
X018397Y017747D02*
X014900Y017747D01*
X014957Y017589D02*
X018189Y017589D01*
X018100Y017430D02*
X014957Y017430D01*
X014787Y017906D02*
X016223Y017906D01*
X016510Y017906D02*
X017973Y017906D01*
X018260Y017906D02*
X043126Y017906D01*
X043126Y018064D02*
X018534Y018064D01*
X018653Y018223D02*
X043126Y018223D01*
X043126Y018381D02*
X026629Y018381D01*
X026623Y018376D02*
X026987Y018739D01*
X026987Y019252D01*
X026743Y019496D01*
X026987Y019739D01*
X026987Y020252D01*
X026743Y020496D01*
X026987Y020739D01*
X026987Y021252D01*
X026644Y021595D01*
X026847Y021797D01*
X026847Y021976D01*
X026387Y021976D01*
X026387Y022016D01*
X026347Y022016D01*
X026347Y022476D01*
X026168Y022476D01*
X025966Y022273D01*
X025623Y022616D01*
X025142Y022616D01*
X025250Y022724D01*
X025250Y023204D01*
X024910Y023544D01*
X024430Y023544D01*
X024090Y023204D01*
X024090Y022724D01*
X024430Y022384D01*
X024878Y022384D01*
X024747Y022252D01*
X024747Y021739D01*
X024990Y021496D01*
X024747Y021252D01*
X024747Y020739D01*
X024990Y020496D01*
X024747Y020252D01*
X024747Y019739D01*
X024990Y019496D01*
X024747Y019252D01*
X024747Y018739D01*
X025110Y018376D01*
X025623Y018376D01*
X025867Y018619D01*
X026110Y018376D01*
X026623Y018376D01*
X026787Y018540D02*
X043126Y018540D01*
X043126Y018698D02*
X026946Y018698D01*
X026987Y018857D02*
X043126Y018857D01*
X043126Y019015D02*
X026987Y019015D01*
X026987Y019174D02*
X043126Y019174D01*
X043126Y019332D02*
X026907Y019332D01*
X026748Y019491D02*
X043126Y019491D01*
X043126Y019649D02*
X032789Y019649D01*
X032767Y019627D02*
X033025Y019885D01*
X033025Y020067D01*
X032585Y020067D01*
X032585Y020067D01*
X032585Y019627D01*
X032403Y019627D01*
X032145Y019885D01*
X032145Y020067D01*
X032585Y020067D01*
X032585Y020067D01*
X032585Y019627D01*
X032767Y019627D01*
X032585Y019649D02*
X032585Y019649D01*
X032585Y019808D02*
X032585Y019808D01*
X032585Y019966D02*
X032585Y019966D01*
X032585Y020067D02*
X032585Y020067D01*
X032145Y020067D01*
X032145Y020250D01*
X032403Y020507D01*
X032585Y020507D01*
X032585Y020067D01*
X032585Y020067D01*
X033025Y020067D01*
X033025Y020250D01*
X032767Y020507D01*
X032585Y020507D01*
X032585Y020067D01*
X032585Y020125D02*
X032585Y020125D01*
X032585Y020283D02*
X032585Y020283D01*
X032585Y020442D02*
X032585Y020442D01*
X032337Y020442D02*
X026797Y020442D01*
X026848Y020600D02*
X043126Y020600D01*
X043126Y020442D02*
X032833Y020442D01*
X032992Y020283D02*
X043126Y020283D01*
X043126Y020125D02*
X033025Y020125D01*
X033025Y019966D02*
X043126Y019966D01*
X043126Y019808D02*
X032948Y019808D01*
X032381Y019649D02*
X026897Y019649D01*
X026987Y019808D02*
X032223Y019808D01*
X032145Y019966D02*
X026987Y019966D01*
X026987Y020125D02*
X032145Y020125D01*
X032179Y020283D02*
X026956Y020283D01*
X026987Y020759D02*
X043126Y020759D01*
X043126Y020917D02*
X026987Y020917D01*
X026987Y021076D02*
X029494Y021076D01*
X029431Y021093D02*
X029718Y021016D01*
X030015Y021016D01*
X030303Y021093D01*
X030561Y021241D01*
X030771Y021452D01*
X030920Y021709D01*
X030997Y021997D01*
X030997Y022294D01*
X030920Y022582D01*
X030771Y022839D01*
X030561Y023050D01*
X030303Y023199D01*
X030015Y023276D01*
X029718Y023276D01*
X029431Y023199D01*
X029173Y023050D01*
X028962Y022839D01*
X028814Y022582D01*
X028737Y022294D01*
X028737Y021997D01*
X028814Y021709D01*
X028962Y021452D01*
X029173Y021241D01*
X029431Y021093D01*
X029185Y021234D02*
X026987Y021234D01*
X026846Y021393D02*
X029022Y021393D01*
X028905Y021551D02*
X026688Y021551D01*
X026759Y021710D02*
X028814Y021710D01*
X028771Y021868D02*
X026847Y021868D01*
X026847Y022016D02*
X026387Y022016D01*
X026387Y022476D01*
X026565Y022476D01*
X026847Y022194D01*
X026847Y022016D01*
X026847Y022027D02*
X028737Y022027D01*
X028737Y022185D02*
X026847Y022185D01*
X026697Y022344D02*
X028750Y022344D01*
X028792Y022502D02*
X028028Y022502D01*
X027910Y022384D02*
X027430Y022384D01*
X027090Y022724D01*
X027090Y023204D01*
X027430Y023544D01*
X027910Y023544D01*
X028250Y023204D01*
X028250Y022724D01*
X027910Y022384D01*
X028187Y022661D02*
X028859Y022661D01*
X028951Y022819D02*
X028250Y022819D01*
X028250Y022978D02*
X029101Y022978D01*
X029322Y023136D02*
X028250Y023136D01*
X028160Y023295D02*
X032005Y023295D01*
X032005Y023136D02*
X030411Y023136D01*
X030633Y022978D02*
X032005Y022978D01*
X032013Y022819D02*
X030783Y022819D01*
X030874Y022661D02*
X032172Y022661D01*
X032330Y022502D02*
X030941Y022502D01*
X030983Y022344D02*
X033317Y022344D01*
X033315Y022349D02*
X033403Y022135D01*
X033566Y021972D01*
X033779Y021884D01*
X034010Y021884D01*
X034223Y021972D01*
X034387Y022135D01*
X034391Y022146D01*
X034513Y022024D01*
X034695Y022024D01*
X034877Y022024D01*
X035135Y022282D01*
X035135Y022464D01*
X035135Y022646D01*
X034877Y022904D01*
X034695Y022904D01*
X034695Y022464D01*
X034695Y022464D01*
X035135Y022464D01*
X034695Y022464D01*
X034695Y022024D01*
X034695Y022464D01*
X034695Y022464D01*
X034695Y022464D01*
X034695Y022904D01*
X034513Y022904D01*
X034391Y022782D01*
X034387Y022793D01*
X034223Y022956D01*
X034010Y023044D01*
X033779Y023044D01*
X033566Y022956D01*
X033403Y022793D01*
X033315Y022579D01*
X033315Y022349D01*
X033315Y022502D02*
X032840Y022502D01*
X032999Y022661D02*
X033348Y022661D01*
X033430Y022819D02*
X033157Y022819D01*
X033165Y022978D02*
X033619Y022978D01*
X033165Y023136D02*
X043126Y023136D01*
X043126Y022978D02*
X034171Y022978D01*
X034360Y022819D02*
X034428Y022819D01*
X034695Y022819D02*
X034695Y022819D01*
X034695Y022661D02*
X034695Y022661D01*
X034695Y022502D02*
X034695Y022502D01*
X034695Y022344D02*
X034695Y022344D01*
X034695Y022185D02*
X034695Y022185D01*
X034695Y022027D02*
X034695Y022027D01*
X034880Y022027D02*
X043126Y022027D01*
X043126Y022185D02*
X035038Y022185D01*
X035135Y022344D02*
X043126Y022344D01*
X043126Y022502D02*
X035135Y022502D01*
X035121Y022661D02*
X043126Y022661D01*
X043126Y022819D02*
X034962Y022819D01*
X034510Y022027D02*
X034278Y022027D01*
X033512Y022027D02*
X030997Y022027D01*
X030997Y022185D02*
X033383Y022185D01*
X033165Y023295D02*
X043126Y023295D01*
X043126Y023453D02*
X033020Y023453D01*
X032861Y023612D02*
X043126Y023612D01*
X043126Y021868D02*
X030962Y021868D01*
X030920Y021710D02*
X043126Y021710D01*
X043126Y021551D02*
X030828Y021551D01*
X030712Y021393D02*
X043126Y021393D01*
X043126Y021234D02*
X030548Y021234D01*
X030239Y021076D02*
X043126Y021076D01*
X038073Y015052D02*
X025167Y015052D01*
X025155Y014894D02*
X025623Y014894D01*
X025626Y014895D02*
X025548Y014856D01*
X025478Y014805D01*
X025417Y014744D01*
X025366Y014674D01*
X025327Y014597D01*
X025300Y014514D01*
X025287Y014429D01*
X025287Y014406D01*
X025817Y014406D01*
X025817Y014936D01*
X025793Y014936D01*
X025708Y014922D01*
X025626Y014895D01*
X025817Y014894D02*
X025857Y014894D01*
X025857Y014936D02*
X025880Y014936D01*
X025965Y014922D01*
X026048Y014895D01*
X026125Y014856D01*
X026195Y014805D01*
X026256Y014744D01*
X026307Y014674D01*
X026346Y014597D01*
X026373Y014514D01*
X026387Y014429D01*
X026387Y014406D01*
X025857Y014406D01*
X025817Y014406D01*
X025817Y014366D01*
X025287Y014366D01*
X025287Y014342D01*
X025300Y014257D01*
X025327Y014174D01*
X025366Y014097D01*
X025417Y014027D01*
X025478Y013966D01*
X025548Y013915D01*
X025626Y013876D01*
X025708Y013849D01*
X025793Y013836D01*
X025817Y013836D01*
X025817Y014366D01*
X025857Y014366D01*
X025857Y014406D01*
X025857Y014936D01*
X026050Y014894D02*
X028183Y014894D01*
X028377Y014894D02*
X028417Y014894D01*
X028417Y014936D02*
X028440Y014936D01*
X028525Y014922D01*
X028608Y014895D01*
X028685Y014856D01*
X028755Y014805D01*
X028816Y014744D01*
X028867Y014674D01*
X028906Y014597D01*
X028933Y014514D01*
X028947Y014429D01*
X028947Y014406D01*
X028417Y014406D01*
X028417Y014936D01*
X028610Y014894D02*
X038045Y014894D01*
X038045Y014735D02*
X028822Y014735D01*
X028913Y014577D02*
X038055Y014577D01*
X038097Y014418D02*
X028947Y014418D01*
X028934Y014260D02*
X038150Y014260D01*
X037194Y013784D02*
X019135Y013784D01*
X019204Y013626D02*
X037069Y013626D01*
X036978Y013467D02*
X019270Y013467D01*
X019307Y013309D02*
X036920Y013309D01*
X036878Y013150D02*
X028827Y013150D01*
X028788Y013190D02*
X028982Y012996D01*
X029087Y012743D01*
X029087Y012468D01*
X028982Y012215D01*
X028788Y012021D01*
X028534Y011916D01*
X028259Y011916D01*
X028006Y012021D01*
X027812Y012215D01*
X027707Y012468D01*
X027707Y012743D01*
X027812Y012996D01*
X028006Y013190D01*
X028259Y013296D01*
X028534Y013296D01*
X028788Y013190D01*
X028983Y012992D02*
X036864Y012992D01*
X036864Y012833D02*
X029049Y012833D01*
X029087Y012675D02*
X036887Y012675D01*
X036930Y012516D02*
X029087Y012516D01*
X029041Y012358D02*
X036998Y012358D01*
X037090Y012199D02*
X028966Y012199D01*
X028808Y012041D02*
X037229Y012041D01*
X037414Y011882D02*
X023627Y011882D01*
X023627Y011724D02*
X037744Y011724D01*
X038513Y011724D02*
X040067Y011724D01*
X039737Y011882D02*
X038843Y011882D01*
X039028Y012041D02*
X039552Y012041D01*
X039413Y012199D02*
X039167Y012199D01*
X039258Y012358D02*
X039321Y012358D01*
X031117Y012496D02*
X031117Y014371D01*
X029117Y014371D01*
X028417Y014418D02*
X028377Y014418D01*
X028377Y014260D02*
X028417Y014260D01*
X028417Y014101D02*
X028377Y014101D01*
X028377Y013943D02*
X028417Y013943D01*
X028070Y013943D02*
X026163Y013943D01*
X026195Y013966D02*
X026256Y014027D01*
X026307Y014097D01*
X026346Y014174D01*
X026373Y014257D01*
X026387Y014342D01*
X026387Y014366D01*
X025857Y014366D01*
X025857Y013836D01*
X025880Y013836D01*
X025965Y013849D01*
X026048Y013876D01*
X026125Y013915D01*
X026195Y013966D01*
X026309Y014101D02*
X027924Y014101D01*
X027860Y014260D02*
X026374Y014260D01*
X026387Y014418D02*
X027847Y014418D01*
X027881Y014577D02*
X026353Y014577D01*
X026262Y014735D02*
X027971Y014735D01*
X028377Y014735D02*
X028417Y014735D01*
X028417Y014577D02*
X028377Y014577D01*
X029096Y015369D02*
X029637Y015369D01*
X029407Y015528D02*
X029326Y015528D01*
X030096Y015369D02*
X030637Y015369D01*
X030407Y015528D02*
X030326Y015528D01*
X030334Y016955D02*
X030399Y016955D01*
X030617Y017113D02*
X030117Y017113D01*
X029617Y017113D02*
X029117Y017113D01*
X029334Y016955D02*
X029399Y016955D01*
X026104Y018381D02*
X025629Y018381D01*
X025787Y018540D02*
X025946Y018540D01*
X025104Y018381D02*
X022879Y018381D01*
X022873Y018376D02*
X023237Y018739D01*
X023237Y019252D01*
X022894Y019595D01*
X023097Y019797D01*
X023097Y019976D01*
X022637Y019976D01*
X022637Y020016D01*
X022597Y020016D01*
X022597Y020476D01*
X022418Y020476D01*
X022216Y020273D01*
X021993Y020496D01*
X022216Y020718D01*
X022418Y020516D01*
X022597Y020516D01*
X022597Y020976D01*
X022637Y020976D01*
X022637Y021016D01*
X022597Y021016D01*
X022597Y021476D01*
X022418Y021476D01*
X022216Y021273D01*
X021993Y021496D01*
X022216Y021718D01*
X022418Y021516D01*
X022597Y021516D01*
X022597Y021976D01*
X022637Y021976D01*
X022637Y022016D01*
X023097Y022016D01*
X023097Y022194D01*
X022894Y022397D01*
X023237Y022739D01*
X023237Y023252D01*
X022873Y023616D01*
X022360Y023616D01*
X022117Y023372D01*
X021873Y023616D01*
X021360Y023616D01*
X020997Y023252D01*
X020997Y022739D01*
X021240Y022496D01*
X020997Y022252D01*
X020997Y021739D01*
X021240Y021496D01*
X020997Y021252D01*
X020997Y020739D01*
X021240Y020496D01*
X020997Y020252D01*
X020997Y019739D01*
X021240Y019496D01*
X020997Y019252D01*
X020997Y018739D01*
X021360Y018376D01*
X021873Y018376D01*
X022117Y018619D01*
X022360Y018376D01*
X022873Y018376D01*
X023037Y018540D02*
X024946Y018540D01*
X024787Y018698D02*
X023196Y018698D01*
X023237Y018857D02*
X024747Y018857D01*
X024747Y019015D02*
X023237Y019015D01*
X023237Y019174D02*
X024747Y019174D01*
X024826Y019332D02*
X023157Y019332D01*
X022998Y019491D02*
X024985Y019491D01*
X024836Y019649D02*
X022949Y019649D01*
X023097Y019808D02*
X024747Y019808D01*
X024747Y019966D02*
X023097Y019966D01*
X023097Y020016D02*
X022637Y020016D01*
X022637Y020476D01*
X022815Y020476D01*
X023097Y020194D01*
X023097Y020016D01*
X023097Y020125D02*
X024747Y020125D01*
X024777Y020283D02*
X023008Y020283D01*
X022849Y020442D02*
X024936Y020442D01*
X024885Y020600D02*
X022900Y020600D01*
X022815Y020516D02*
X023097Y020797D01*
X023097Y020976D01*
X022637Y020976D01*
X022637Y020516D01*
X022815Y020516D01*
X022637Y020442D02*
X022597Y020442D01*
X022597Y020600D02*
X022637Y020600D01*
X022637Y020759D02*
X022597Y020759D01*
X022597Y020917D02*
X022637Y020917D01*
X022637Y021016D02*
X023097Y021016D01*
X023097Y021194D01*
X022815Y021476D01*
X022637Y021476D01*
X022637Y021016D01*
X022637Y021076D02*
X022597Y021076D01*
X022597Y021234D02*
X022637Y021234D01*
X022637Y021393D02*
X022597Y021393D01*
X022637Y021516D02*
X022815Y021516D01*
X023097Y021797D01*
X023097Y021976D01*
X022637Y021976D01*
X022637Y021516D01*
X022637Y021551D02*
X022597Y021551D01*
X022597Y021710D02*
X022637Y021710D01*
X022637Y021868D02*
X022597Y021868D01*
X022382Y021551D02*
X022049Y021551D01*
X022096Y021393D02*
X022335Y021393D01*
X022851Y021551D02*
X024934Y021551D01*
X024887Y021393D02*
X022898Y021393D01*
X023057Y021234D02*
X024747Y021234D01*
X024747Y021076D02*
X023097Y021076D01*
X023097Y020917D02*
X024747Y020917D01*
X024747Y020759D02*
X023058Y020759D01*
X022637Y020283D02*
X022597Y020283D01*
X022597Y020125D02*
X022637Y020125D01*
X022384Y020442D02*
X022047Y020442D01*
X022098Y020600D02*
X022333Y020600D01*
X022225Y020283D02*
X022206Y020283D01*
X021186Y020442D02*
X019269Y020442D01*
X019397Y020283D02*
X021027Y020283D01*
X020997Y020125D02*
X019463Y020125D01*
X019467Y019966D02*
X020997Y019966D01*
X020997Y019808D02*
X019438Y019808D01*
X019369Y019649D02*
X021086Y019649D01*
X021235Y019491D02*
X019267Y019491D01*
X019377Y019332D02*
X021076Y019332D01*
X020997Y019174D02*
X019442Y019174D01*
X019467Y019015D02*
X020997Y019015D01*
X020997Y018857D02*
X019459Y018857D01*
X019393Y018698D02*
X021037Y018698D01*
X021196Y018540D02*
X019259Y018540D01*
X018717Y018381D02*
X021354Y018381D01*
X021879Y018381D02*
X022354Y018381D01*
X022196Y018540D02*
X022037Y018540D01*
X018867Y018996D02*
X018867Y019996D01*
X018464Y020442D02*
X014957Y020442D01*
X014957Y020600D02*
X021135Y020600D01*
X020997Y020759D02*
X014896Y020759D01*
X014775Y020917D02*
X020997Y020917D01*
X020997Y021076D02*
X018916Y021076D01*
X019032Y021124D02*
X019238Y021330D01*
X019350Y021600D01*
X019350Y021891D01*
X019238Y022161D01*
X019032Y022367D01*
X018763Y022479D01*
X018471Y022479D01*
X018201Y022367D01*
X017995Y022161D01*
X017883Y021891D01*
X017883Y021600D01*
X017995Y021330D01*
X018201Y021124D01*
X018471Y021012D01*
X018763Y021012D01*
X019032Y021124D01*
X019142Y021234D02*
X020997Y021234D01*
X021137Y021393D02*
X019264Y021393D01*
X019330Y021551D02*
X021184Y021551D01*
X021026Y021710D02*
X019350Y021710D01*
X019350Y021868D02*
X020997Y021868D01*
X020997Y022027D02*
X019294Y022027D01*
X019214Y022185D02*
X020997Y022185D01*
X021088Y022344D02*
X019056Y022344D01*
X018177Y022344D02*
X008150Y022344D01*
X008153Y022341D02*
X008097Y022382D01*
X008036Y022413D01*
X007970Y022435D01*
X007901Y022446D01*
X007867Y022446D01*
X007867Y021746D01*
X007867Y021746D01*
X008307Y021746D01*
X008307Y022040D01*
X008296Y022109D01*
X008274Y022174D01*
X008243Y022236D01*
X008202Y022292D01*
X008153Y022341D01*
X008269Y022185D02*
X009486Y022185D01*
X009327Y022027D02*
X008307Y022027D01*
X008307Y021868D02*
X009287Y021868D01*
X009287Y021710D02*
X008307Y021710D01*
X008307Y021746D02*
X007867Y021746D01*
X007867Y021746D01*
X007867Y022446D01*
X007832Y022446D01*
X007764Y022435D01*
X007698Y022413D01*
X007636Y022382D01*
X007580Y022341D01*
X007531Y022292D01*
X007490Y022236D01*
X007459Y022174D01*
X007444Y022128D01*
X007358Y022334D01*
X007195Y022497D01*
X006982Y022586D01*
X006751Y022586D01*
X006538Y022497D01*
X006375Y022334D01*
X006367Y022314D01*
X006358Y022334D01*
X006195Y022497D01*
X005982Y022586D01*
X005751Y022586D01*
X005538Y022497D01*
X005375Y022334D01*
X005287Y022121D01*
X005287Y021370D01*
X005375Y021157D01*
X005538Y020994D01*
X005751Y020906D01*
X005982Y020906D01*
X006195Y020994D01*
X006358Y021157D01*
X006367Y021177D01*
X006375Y021157D01*
X006538Y020994D01*
X006751Y020906D01*
X006982Y020906D01*
X007195Y020994D01*
X007358Y021157D01*
X007444Y021363D01*
X007459Y021317D01*
X007490Y021255D01*
X007531Y021199D01*
X007580Y021150D01*
X007636Y021109D01*
X007698Y021078D01*
X007764Y021056D01*
X007832Y021046D01*
X007867Y021046D01*
X007901Y021046D01*
X007970Y021056D01*
X008036Y021078D01*
X008097Y021109D01*
X008153Y021150D01*
X008202Y021199D01*
X008243Y021255D01*
X008274Y021317D01*
X008296Y021382D01*
X008307Y021451D01*
X008307Y021746D01*
X008307Y021551D02*
X009287Y021551D01*
X009399Y021393D02*
X008297Y021393D01*
X008228Y021234D02*
X009558Y021234D01*
X010175Y021234D02*
X010337Y021234D01*
X010456Y021076D02*
X008029Y021076D01*
X007867Y021076D02*
X007867Y021076D01*
X007867Y021046D02*
X007867Y021745D01*
X007867Y021745D01*
X007867Y021046D01*
X007705Y021076D02*
X007277Y021076D01*
X007390Y021234D02*
X007506Y021234D01*
X007867Y021234D02*
X007867Y021234D01*
X007867Y021393D02*
X007867Y021393D01*
X007867Y021551D02*
X007867Y021551D01*
X007867Y021710D02*
X007867Y021710D01*
X007867Y021868D02*
X007867Y021868D01*
X007867Y022027D02*
X007867Y022027D01*
X007867Y022185D02*
X007867Y022185D01*
X007867Y022344D02*
X007867Y022344D01*
X007583Y022344D02*
X007349Y022344D01*
X007420Y022185D02*
X007464Y022185D01*
X007184Y022502D02*
X021233Y022502D01*
X021075Y022661D02*
X002435Y022661D01*
X002546Y022819D02*
X020997Y022819D01*
X020997Y022978D02*
X002634Y022978D01*
X002676Y023136D02*
X020997Y023136D01*
X021039Y023295D02*
X002709Y023295D01*
X002709Y023453D02*
X021197Y023453D01*
X021356Y023612D02*
X002696Y023612D01*
X002721Y022479D02*
X002451Y022367D01*
X002245Y022161D01*
X002133Y021891D01*
X002133Y021600D01*
X002245Y021330D01*
X002451Y021124D01*
X002721Y021012D01*
X003013Y021012D01*
X003282Y021124D01*
X003488Y021330D01*
X003600Y021600D01*
X003600Y021891D01*
X003488Y022161D01*
X003282Y022367D01*
X003013Y022479D01*
X002721Y022479D01*
X002427Y022344D02*
X002011Y022344D01*
X002269Y022185D02*
X001332Y022185D01*
X001332Y022027D02*
X002189Y022027D01*
X002133Y021868D02*
X001332Y021868D01*
X001332Y021710D02*
X002133Y021710D01*
X002153Y021551D02*
X001332Y021551D01*
X001332Y021393D02*
X002219Y021393D01*
X002341Y021234D02*
X001332Y021234D01*
X001332Y021076D02*
X002568Y021076D01*
X003166Y021076D02*
X005456Y021076D01*
X005343Y021234D02*
X003392Y021234D01*
X003514Y021393D02*
X005287Y021393D01*
X005287Y021551D02*
X003580Y021551D01*
X003600Y021710D02*
X005287Y021710D01*
X005287Y021868D02*
X003600Y021868D01*
X003544Y022027D02*
X005287Y022027D01*
X005313Y022185D02*
X003464Y022185D01*
X003306Y022344D02*
X005384Y022344D01*
X005550Y022502D02*
X002277Y022502D01*
X001332Y020917D02*
X005724Y020917D01*
X005857Y020826D02*
X006197Y020486D01*
X006197Y020005D01*
X006014Y019822D01*
X006195Y019747D01*
X006358Y019584D01*
X006367Y019564D01*
X006375Y019584D01*
X006538Y019747D01*
X006751Y019836D01*
X006982Y019836D01*
X007195Y019747D01*
X007358Y019584D01*
X007444Y019378D01*
X007459Y019424D01*
X007490Y019486D01*
X007531Y019542D01*
X007580Y019591D01*
X007636Y019632D01*
X007698Y019663D01*
X007764Y019685D01*
X007832Y019696D01*
X007867Y019696D01*
X007867Y018996D01*
X007867Y018996D01*
X008307Y018996D01*
X008307Y019290D01*
X008296Y019359D01*
X008274Y019424D01*
X008243Y019486D01*
X008202Y019542D01*
X008153Y019591D01*
X008097Y019632D01*
X008036Y019663D01*
X007970Y019685D01*
X007901Y019696D01*
X007867Y019696D01*
X007867Y018996D01*
X007867Y018996D01*
X008307Y018996D01*
X008307Y018701D01*
X008296Y018632D01*
X008274Y018567D01*
X008243Y018505D01*
X008202Y018449D01*
X008153Y018400D01*
X008097Y018359D01*
X008036Y018328D01*
X007970Y018306D01*
X007901Y018296D01*
X007867Y018296D01*
X007867Y018995D01*
X007867Y018995D01*
X007867Y018296D01*
X007832Y018296D01*
X007764Y018306D01*
X007698Y018328D01*
X007636Y018359D01*
X007580Y018400D01*
X007531Y018449D01*
X007490Y018505D01*
X007459Y018567D01*
X007444Y018613D01*
X007358Y018407D01*
X007195Y018244D01*
X006982Y018156D01*
X006751Y018156D01*
X006538Y018244D01*
X006375Y018407D01*
X006367Y018427D01*
X006358Y018407D01*
X006195Y018244D01*
X005982Y018156D01*
X005751Y018156D01*
X005538Y018244D01*
X005375Y018407D01*
X005287Y018620D01*
X005287Y019371D01*
X005375Y019584D01*
X005456Y019666D01*
X005376Y019666D01*
X005037Y020005D01*
X005037Y020486D01*
X005376Y020826D01*
X005857Y020826D01*
X005924Y020759D02*
X008309Y020759D01*
X008376Y020826D02*
X008037Y020486D01*
X008037Y020005D01*
X008376Y019666D01*
X008857Y019666D01*
X009197Y020005D01*
X009197Y020486D01*
X008857Y020826D01*
X008376Y020826D01*
X008151Y020600D02*
X006082Y020600D01*
X006197Y020442D02*
X008037Y020442D01*
X008037Y020283D02*
X006197Y020283D01*
X006197Y020125D02*
X008037Y020125D01*
X008076Y019966D02*
X006157Y019966D01*
X006050Y019808D02*
X006684Y019808D01*
X006440Y019649D02*
X006293Y019649D01*
X007050Y019808D02*
X008234Y019808D01*
X008064Y019649D02*
X010292Y019649D01*
X010277Y019491D02*
X008240Y019491D01*
X008300Y019332D02*
X010297Y019332D01*
X010259Y019174D02*
X010362Y019174D01*
X010417Y019015D02*
X010517Y019015D01*
X009474Y019174D02*
X008307Y019174D01*
X008307Y019015D02*
X009316Y019015D01*
X009287Y018857D02*
X008307Y018857D01*
X008306Y018698D02*
X009287Y018698D01*
X009287Y018540D02*
X008261Y018540D01*
X008127Y018381D02*
X009411Y018381D01*
X009569Y018223D02*
X007144Y018223D01*
X007332Y018381D02*
X007606Y018381D01*
X007473Y018540D02*
X007413Y018540D01*
X007867Y018540D02*
X007867Y018540D01*
X007867Y018698D02*
X007867Y018698D01*
X007867Y018857D02*
X007867Y018857D01*
X007867Y019015D02*
X007867Y019015D01*
X007867Y019174D02*
X007867Y019174D01*
X007867Y019332D02*
X007867Y019332D01*
X007867Y019491D02*
X007867Y019491D01*
X007867Y019649D02*
X007867Y019649D01*
X007670Y019649D02*
X007293Y019649D01*
X007397Y019491D02*
X007494Y019491D01*
X007867Y018381D02*
X007867Y018381D01*
X008365Y018064D02*
X005868Y018064D01*
X006027Y017906D02*
X008206Y017906D01*
X008048Y017747D02*
X006185Y017747D01*
X006197Y017589D02*
X008037Y017589D01*
X008037Y017736D02*
X008037Y017255D01*
X008376Y016916D01*
X008857Y016916D01*
X009197Y017255D01*
X009197Y017736D01*
X008857Y018076D01*
X008376Y018076D01*
X008037Y017736D01*
X008037Y017430D02*
X006197Y017430D01*
X006197Y017272D02*
X008037Y017272D01*
X008179Y017113D02*
X006054Y017113D01*
X005896Y016955D02*
X008337Y016955D01*
X008896Y016955D02*
X010495Y016955D01*
X010419Y017113D02*
X009054Y017113D01*
X009197Y017272D02*
X010322Y017272D01*
X010277Y017430D02*
X009197Y017430D01*
X009197Y017589D02*
X010277Y017589D01*
X010333Y017747D02*
X009185Y017747D01*
X009027Y017906D02*
X010446Y017906D01*
X010468Y018064D02*
X008868Y018064D01*
X010164Y018223D02*
X010342Y018223D01*
X011765Y018064D02*
X012868Y018064D01*
X012868Y017906D02*
X011787Y017906D01*
X011900Y017747D02*
X012930Y017747D01*
X012967Y017589D02*
X011957Y017589D01*
X011957Y017430D02*
X012967Y017430D01*
X012967Y017272D02*
X011912Y017272D01*
X011814Y017113D02*
X012967Y017113D01*
X012967Y016955D02*
X012811Y016955D01*
X012422Y016955D02*
X011738Y016955D01*
X011880Y016796D02*
X012212Y016796D01*
X012136Y016638D02*
X011946Y016638D01*
X011957Y016479D02*
X012118Y016479D01*
X012150Y016320D02*
X011932Y016320D01*
X011863Y016162D02*
X012217Y016162D01*
X012217Y016003D02*
X011704Y016003D01*
X011847Y015845D02*
X012217Y015845D01*
X012217Y015686D02*
X011925Y015686D01*
X011957Y015528D02*
X012217Y015528D01*
X012217Y015369D02*
X011952Y015369D01*
X011887Y015211D02*
X012166Y015211D01*
X012118Y015052D02*
X011754Y015052D01*
X011564Y014894D02*
X012119Y014894D01*
X012185Y014735D02*
X011746Y014735D01*
X011809Y014577D02*
X012330Y014577D01*
X011810Y014418D02*
X012967Y014418D01*
X012967Y014577D02*
X012903Y014577D01*
X012937Y014260D02*
X011749Y014260D01*
X012617Y014996D02*
X012617Y016496D01*
X014644Y015845D02*
X018037Y015845D01*
X018086Y015686D02*
X014773Y015686D01*
X014817Y015528D02*
X017988Y015528D01*
X017927Y015369D02*
X014798Y015369D01*
X014714Y015211D02*
X017927Y015211D01*
X017948Y015052D02*
X014548Y015052D01*
X014798Y014894D02*
X015060Y014894D01*
X014927Y014735D02*
X014905Y014735D01*
X015367Y014496D02*
X017867Y014496D01*
X017867Y011996D01*
X019159Y012675D02*
X025147Y012675D01*
X025147Y012743D02*
X025147Y012468D01*
X025252Y012215D01*
X025446Y012021D01*
X025699Y011916D01*
X025974Y011916D01*
X026228Y012021D01*
X026422Y012215D01*
X026527Y012468D01*
X026527Y012743D01*
X026422Y012996D01*
X026228Y013190D01*
X025974Y013296D01*
X025699Y013296D01*
X025446Y013190D01*
X025252Y012996D01*
X025147Y012743D01*
X025184Y012833D02*
X019184Y012833D01*
X019260Y012992D02*
X025250Y012992D01*
X025406Y013150D02*
X019307Y013150D01*
X019250Y012516D02*
X025147Y012516D01*
X025192Y012358D02*
X023277Y012358D01*
X023436Y012199D02*
X025267Y012199D01*
X025425Y012041D02*
X023594Y012041D01*
X026248Y012041D02*
X027985Y012041D01*
X027827Y012199D02*
X026406Y012199D01*
X026481Y012358D02*
X027752Y012358D01*
X027707Y012516D02*
X026527Y012516D01*
X026527Y012675D02*
X027707Y012675D01*
X027744Y012833D02*
X026489Y012833D01*
X026423Y012992D02*
X027810Y012992D01*
X027966Y013150D02*
X026267Y013150D01*
X025857Y013943D02*
X025817Y013943D01*
X025817Y014101D02*
X025857Y014101D01*
X025857Y014260D02*
X025817Y014260D01*
X025817Y014418D02*
X025857Y014418D01*
X025857Y014577D02*
X025817Y014577D01*
X025817Y014735D02*
X025857Y014735D01*
X025411Y014735D02*
X024996Y014735D01*
X024838Y014577D02*
X025321Y014577D01*
X025287Y014418D02*
X020110Y014418D01*
X020268Y014577D02*
X020896Y014577D01*
X021047Y014426D02*
X021726Y014426D01*
X022207Y014906D01*
X022207Y015585D01*
X021726Y016066D01*
X021047Y016066D01*
X020567Y015585D01*
X020567Y014906D01*
X021047Y014426D01*
X020737Y014735D02*
X020427Y014735D01*
X020447Y014894D02*
X020579Y014894D01*
X020567Y015052D02*
X020447Y015052D01*
X020447Y015211D02*
X020567Y015211D01*
X020567Y015369D02*
X020313Y015369D01*
X020154Y015528D02*
X020567Y015528D01*
X020668Y015686D02*
X019148Y015686D01*
X019196Y015845D02*
X020826Y015845D01*
X020985Y016003D02*
X019265Y016003D01*
X019245Y015528D02*
X019579Y015528D01*
X019420Y015369D02*
X019307Y015369D01*
X019285Y015052D02*
X019287Y015052D01*
X019287Y014894D02*
X019220Y014894D01*
X019306Y014735D02*
X019099Y014735D01*
X019225Y014577D02*
X019465Y014577D01*
X019623Y014418D02*
X019290Y014418D01*
X019307Y014260D02*
X025300Y014260D01*
X025364Y014101D02*
X019305Y014101D01*
X019240Y013943D02*
X025510Y013943D01*
X023856Y014577D02*
X021878Y014577D01*
X022036Y014735D02*
X023697Y014735D01*
X023539Y014894D02*
X022195Y014894D01*
X022207Y015052D02*
X023527Y015052D01*
X023527Y015211D02*
X022207Y015211D01*
X022207Y015369D02*
X023527Y015369D01*
X023527Y015528D02*
X022207Y015528D01*
X022105Y015686D02*
X023628Y015686D01*
X023786Y015845D02*
X021947Y015845D01*
X021788Y016003D02*
X023945Y016003D01*
X018195Y016796D02*
X014880Y016796D01*
X014946Y016638D02*
X018037Y016638D01*
X017968Y016479D02*
X014957Y016479D01*
X014932Y016320D02*
X017927Y016320D01*
X017927Y016162D02*
X014863Y016162D01*
X014704Y016003D02*
X017968Y016003D01*
X018146Y016955D02*
X014738Y016955D01*
X013367Y017996D02*
X013367Y013996D01*
X010529Y016003D02*
X010502Y016003D01*
X010370Y016162D02*
X010348Y016162D01*
X010301Y016320D02*
X010190Y016320D01*
X010277Y016479D02*
X004703Y016479D01*
X004862Y016320D02*
X006544Y016320D01*
X006385Y016162D02*
X006150Y016162D01*
X005867Y016162D02*
X005867Y016162D01*
X005867Y016003D02*
X005867Y016003D01*
X005867Y015845D02*
X005867Y015845D01*
X005867Y015746D02*
X005372Y015746D01*
X005372Y015540D01*
X005662Y015251D01*
X005867Y015251D01*
X005867Y015745D01*
X005867Y015745D01*
X005867Y015686D02*
X005867Y015686D01*
X005867Y015528D02*
X005867Y015528D01*
X005867Y015369D02*
X005867Y015369D01*
X006191Y015369D02*
X006345Y015369D01*
X006503Y015211D02*
X004864Y015211D01*
X004929Y015052D02*
X009474Y015052D01*
X010288Y016638D02*
X003417Y016638D01*
X003486Y016479D02*
X004030Y016479D01*
X003871Y016320D02*
X003527Y016320D01*
X003527Y016162D02*
X003787Y016162D01*
X003787Y016003D02*
X003485Y016003D01*
X003416Y015845D02*
X003787Y015845D01*
X003855Y015686D02*
X003368Y015686D01*
X003465Y015528D02*
X004014Y015528D01*
X004020Y015369D02*
X003527Y015369D01*
X003527Y015211D02*
X003870Y015211D01*
X003804Y015052D02*
X003506Y015052D01*
X003440Y014894D02*
X003787Y014894D01*
X003805Y014735D02*
X003319Y014735D01*
X003445Y014577D02*
X003871Y014577D01*
X004023Y014418D02*
X003511Y014418D01*
X003527Y014260D02*
X003927Y014260D01*
X003927Y014101D02*
X003526Y014101D01*
X003460Y013943D02*
X003927Y013943D01*
X003927Y013913D02*
X004184Y013656D01*
X004367Y013656D01*
X004549Y013656D01*
X004807Y013913D01*
X004807Y014096D01*
X004367Y014096D01*
X004367Y014096D01*
X004367Y014096D01*
X004367Y014095D02*
X004367Y013656D01*
X004367Y014095D01*
X004367Y014095D01*
X004367Y014096D02*
X003927Y014096D01*
X003927Y013913D01*
X004055Y013784D02*
X003356Y013784D01*
X003425Y013626D02*
X005372Y013626D01*
X005372Y013540D02*
X005662Y013251D01*
X005867Y013251D01*
X005867Y013745D01*
X005867Y013745D01*
X005867Y013746D02*
X005372Y013746D01*
X005372Y013540D01*
X005445Y013467D02*
X003490Y013467D01*
X003527Y013309D02*
X005603Y013309D01*
X005867Y013309D02*
X005867Y013309D01*
X005867Y013467D02*
X005867Y013467D01*
X005867Y013626D02*
X005867Y013626D01*
X005867Y013784D02*
X005867Y013784D01*
X005867Y013943D02*
X005867Y013943D01*
X005867Y014101D02*
X005867Y014101D01*
X006211Y014101D02*
X006325Y014101D01*
X006483Y014260D02*
X004807Y014260D01*
X004807Y014101D02*
X005523Y014101D01*
X005372Y013943D02*
X004807Y013943D01*
X004678Y013784D02*
X005372Y013784D01*
X006130Y013309D02*
X006405Y013309D01*
X006564Y013150D02*
X003527Y013150D01*
X002269Y012833D02*
X001332Y012833D01*
X001332Y012675D02*
X002295Y012675D01*
X002204Y012516D02*
X001332Y012516D01*
X001332Y012358D02*
X002147Y012358D01*
X002147Y012199D02*
X001332Y012199D01*
X001332Y012041D02*
X002173Y012041D01*
X002239Y011882D02*
X001332Y011882D01*
X001332Y011724D02*
X002344Y011724D01*
X002224Y011565D02*
X001332Y011565D01*
X001332Y011407D02*
X002159Y011407D01*
X002147Y011248D02*
X001332Y011248D01*
X001332Y011090D02*
X002153Y011090D01*
X002219Y010931D02*
X001332Y010931D01*
X001332Y010773D02*
X002330Y010773D01*
X002245Y010614D02*
X001332Y010614D01*
X001332Y010456D02*
X002179Y010456D01*
X002147Y010297D02*
X001332Y010297D01*
X001332Y010139D02*
X002147Y010139D01*
X002198Y009980D02*
X001332Y009980D01*
X001332Y009822D02*
X002281Y009822D01*
X001912Y009663D02*
X001332Y009663D01*
X001332Y009505D02*
X001754Y009505D01*
X001677Y009346D02*
X001332Y009346D01*
X001332Y009188D02*
X001677Y009188D01*
X001710Y009029D02*
X001332Y009029D01*
X001332Y008871D02*
X001869Y008871D01*
X003235Y009663D02*
X004714Y009663D01*
X004873Y009822D02*
X003393Y009822D01*
X006117Y009029D02*
X006616Y009029D01*
X006412Y008871D02*
X006321Y008871D01*
X007117Y009029D02*
X010502Y009029D01*
X007621Y008871D02*
X007321Y008871D01*
X007409Y008712D02*
X007478Y008712D01*
X006429Y007603D02*
X006304Y007603D01*
X006076Y007444D02*
X006657Y007444D01*
X006534Y006493D02*
X006199Y006493D01*
X006357Y006335D02*
X006376Y006335D01*
X007199Y006493D02*
X007534Y006493D01*
X007376Y006335D02*
X007357Y006335D01*
X005534Y006493D02*
X004752Y006493D01*
X004752Y006335D02*
X005376Y006335D01*
X005310Y006176D02*
X004752Y006176D01*
X004752Y006018D02*
X005287Y006018D01*
X005287Y005859D02*
X004629Y005859D01*
X004559Y005701D02*
X005287Y005701D01*
X005287Y005542D02*
X004718Y005542D01*
X003482Y006176D02*
X003473Y006176D01*
X003482Y006335D02*
X003314Y006335D01*
X003482Y006493D02*
X001819Y006493D01*
X001862Y006335D02*
X002419Y006335D01*
X002260Y006176D02*
X001862Y006176D01*
X001839Y006018D02*
X002186Y006018D01*
X002133Y005859D02*
X001681Y005859D01*
X001809Y005701D02*
X002133Y005701D01*
X002157Y005542D02*
X001968Y005542D01*
X001367Y006335D02*
X001367Y006335D01*
X001367Y006493D02*
X001367Y006493D01*
X001367Y006652D02*
X001367Y006652D01*
X001332Y006810D02*
X001929Y006810D01*
X001934Y006806D02*
X002117Y006806D01*
X002117Y007245D01*
X002117Y007245D01*
X002117Y007246D02*
X001677Y007246D01*
X001677Y007063D01*
X001934Y006806D01*
X002117Y006810D02*
X002117Y006810D01*
X002117Y006969D02*
X002117Y006969D01*
X002117Y007127D02*
X002117Y007127D01*
X002117Y007286D02*
X002117Y007286D01*
X002117Y007444D02*
X002117Y007444D01*
X002117Y007603D02*
X002117Y007603D01*
X001852Y007603D02*
X001332Y007603D01*
X001332Y007761D02*
X004780Y007761D01*
X003784Y006810D02*
X002304Y006810D01*
X001771Y006969D02*
X001332Y006969D01*
X001332Y007127D02*
X001677Y007127D01*
X001677Y007286D02*
X001332Y007286D01*
X001332Y007444D02*
X001693Y007444D01*
X001660Y006652D02*
X003625Y006652D01*
X002194Y012992D02*
X001332Y012992D01*
X001332Y013150D02*
X002147Y013150D01*
X002147Y013309D02*
X001332Y013309D01*
X001332Y013467D02*
X002184Y013467D01*
X002250Y013626D02*
X001332Y013626D01*
X001332Y013784D02*
X002318Y013784D01*
X002214Y013943D02*
X001332Y013943D01*
X001332Y014101D02*
X002148Y014101D01*
X002147Y014260D02*
X001332Y014260D01*
X001332Y014418D02*
X002164Y014418D01*
X002229Y014577D02*
X001332Y014577D01*
X001332Y014735D02*
X002355Y014735D01*
X002234Y014894D02*
X001332Y014894D01*
X001332Y015052D02*
X002169Y015052D01*
X002147Y015211D02*
X001332Y015211D01*
X001332Y015369D02*
X002147Y015369D01*
X002209Y015528D02*
X001332Y015528D01*
X001332Y015686D02*
X002306Y015686D01*
X002258Y015845D02*
X001332Y015845D01*
X001332Y016003D02*
X002189Y016003D01*
X002147Y016162D02*
X001332Y016162D01*
X001332Y016320D02*
X002147Y016320D01*
X002189Y016479D02*
X001332Y016479D01*
X001332Y016638D02*
X002257Y016638D01*
X002416Y016796D02*
X001332Y016796D01*
X001332Y017272D02*
X002287Y017272D01*
X002301Y017113D02*
X002327Y017030D01*
X002367Y016953D01*
X002817Y017272D02*
X002857Y017272D01*
X002857Y017262D02*
X003387Y017262D01*
X003387Y017222D02*
X002857Y017222D01*
X002857Y017262D01*
X002857Y017430D02*
X002817Y017430D01*
X002817Y017589D02*
X002857Y017589D01*
X002857Y017747D02*
X002817Y017747D01*
X002618Y017747D02*
X001332Y017747D01*
X001332Y017589D02*
X002409Y017589D01*
X002320Y017430D02*
X001332Y017430D01*
X001332Y017906D02*
X005206Y017906D01*
X005365Y018064D02*
X001332Y018064D01*
X001332Y018223D02*
X005590Y018223D01*
X005401Y018381D02*
X001332Y018381D01*
X001332Y018540D02*
X004002Y018540D01*
X004126Y018416D02*
X003787Y018755D01*
X003787Y019236D01*
X004126Y019576D01*
X004607Y019576D01*
X004947Y019236D01*
X004947Y018755D01*
X004607Y018416D01*
X004126Y018416D01*
X003844Y018698D02*
X001332Y018698D01*
X001332Y018857D02*
X003787Y018857D01*
X003787Y019015D02*
X001332Y019015D01*
X001332Y019174D02*
X003787Y019174D01*
X003883Y019332D02*
X001332Y019332D01*
X001332Y019491D02*
X004041Y019491D01*
X004692Y019491D02*
X005336Y019491D01*
X005287Y019332D02*
X004850Y019332D01*
X004947Y019174D02*
X005287Y019174D01*
X005287Y019015D02*
X004947Y019015D01*
X004947Y018857D02*
X005287Y018857D01*
X005287Y018698D02*
X004889Y018698D01*
X004731Y018540D02*
X005320Y018540D01*
X006144Y018223D02*
X006590Y018223D01*
X006401Y018381D02*
X006332Y018381D01*
X005048Y017747D02*
X003057Y017747D01*
X003265Y017589D02*
X005037Y017589D01*
X005037Y017430D02*
X003354Y017430D01*
X003387Y017222D02*
X003387Y017198D01*
X003374Y017113D01*
X003308Y016955D02*
X005337Y016955D01*
X005583Y016162D02*
X004947Y016162D01*
X004947Y016003D02*
X005425Y016003D01*
X005372Y015845D02*
X004947Y015845D01*
X004878Y015686D02*
X005372Y015686D01*
X005384Y015528D02*
X004719Y015528D01*
X004713Y015369D02*
X005543Y015369D01*
X003259Y016796D02*
X010353Y016796D01*
X011891Y018223D02*
X012921Y018223D01*
X013047Y018381D02*
X011957Y018381D01*
X011957Y018540D02*
X013277Y018540D01*
X013313Y018698D02*
X011921Y018698D01*
X011836Y018857D02*
X013397Y018857D01*
X013517Y019015D02*
X011716Y019015D01*
X011871Y019174D02*
X013362Y019174D01*
X013297Y019332D02*
X011937Y019332D01*
X011957Y019491D02*
X013277Y019491D01*
X013292Y019649D02*
X011941Y019649D01*
X011875Y019808D02*
X013358Y019808D01*
X013507Y019966D02*
X011726Y019966D01*
X011826Y020125D02*
X013407Y020125D01*
X013317Y020283D02*
X011916Y020283D01*
X011957Y020442D02*
X013277Y020442D01*
X013277Y020600D02*
X011957Y020600D01*
X011896Y020759D02*
X013338Y020759D01*
X013458Y020917D02*
X011775Y020917D01*
X011777Y021076D02*
X013456Y021076D01*
X013337Y021234D02*
X011896Y021234D01*
X011957Y021393D02*
X013277Y021393D01*
X013277Y021551D02*
X011957Y021551D01*
X011916Y021710D02*
X013318Y021710D01*
X013409Y021868D02*
X011824Y021868D01*
X011610Y022027D02*
X013623Y022027D01*
X014610Y022027D02*
X014827Y022027D01*
X014986Y022185D02*
X010247Y022185D01*
X010406Y022027D02*
X010623Y022027D01*
X010458Y020917D02*
X007010Y020917D01*
X006724Y020917D02*
X006010Y020917D01*
X006277Y021076D02*
X006456Y021076D01*
X005309Y020759D02*
X001332Y020759D01*
X001332Y020600D02*
X005151Y020600D01*
X005037Y020442D02*
X001332Y020442D01*
X001332Y020283D02*
X005037Y020283D01*
X005037Y020125D02*
X001332Y020125D01*
X001332Y019966D02*
X005076Y019966D01*
X005234Y019808D02*
X001332Y019808D01*
X001332Y019649D02*
X005440Y019649D01*
X008924Y020759D02*
X010338Y020759D01*
X010277Y020600D02*
X009082Y020600D01*
X009197Y020442D02*
X010277Y020442D01*
X010317Y020283D02*
X009197Y020283D01*
X009197Y020125D02*
X010407Y020125D01*
X010507Y019966D02*
X009157Y019966D01*
X008999Y019808D02*
X010358Y019808D01*
X014726Y019966D02*
X018267Y019966D01*
X018271Y020125D02*
X014826Y020125D01*
X014916Y020283D02*
X018336Y020283D01*
X018295Y019808D02*
X014875Y019808D01*
X014941Y019649D02*
X018365Y019649D01*
X018467Y019491D02*
X014957Y019491D01*
X014937Y019332D02*
X018357Y019332D01*
X018291Y019174D02*
X015759Y019174D01*
X015917Y019015D02*
X016053Y019015D01*
X016367Y018496D02*
X018117Y018496D01*
X017700Y018064D02*
X016784Y018064D01*
X015950Y018064D02*
X014765Y018064D01*
X014891Y018223D02*
X015069Y018223D01*
X015664Y018223D02*
X015830Y018223D01*
X016680Y019015D02*
X017803Y019015D01*
X014974Y019174D02*
X014871Y019174D01*
X014816Y019015D02*
X014716Y019015D01*
X014777Y021076D02*
X018318Y021076D01*
X018091Y021234D02*
X015675Y021234D01*
X015834Y021393D02*
X017969Y021393D01*
X017903Y021551D02*
X015947Y021551D01*
X015947Y021710D02*
X017883Y021710D01*
X017883Y021868D02*
X015947Y021868D01*
X015906Y022027D02*
X017939Y022027D01*
X018019Y022185D02*
X015747Y022185D01*
X015058Y021234D02*
X014896Y021234D01*
X021877Y023612D02*
X022356Y023612D01*
X022197Y023453D02*
X022036Y023453D01*
X022877Y023612D02*
X032309Y023612D01*
X032151Y023453D02*
X028001Y023453D01*
X027339Y023453D02*
X025001Y023453D01*
X025160Y023295D02*
X027180Y023295D01*
X027090Y023136D02*
X025250Y023136D01*
X025250Y022978D02*
X027090Y022978D01*
X027090Y022819D02*
X025250Y022819D01*
X025187Y022661D02*
X027153Y022661D01*
X027312Y022502D02*
X025737Y022502D01*
X025895Y022344D02*
X026036Y022344D01*
X026347Y022344D02*
X026387Y022344D01*
X026387Y022185D02*
X026347Y022185D01*
X026347Y022027D02*
X026387Y022027D01*
X024838Y022344D02*
X022947Y022344D01*
X023000Y022502D02*
X024312Y022502D01*
X024153Y022661D02*
X023158Y022661D01*
X023237Y022819D02*
X024090Y022819D01*
X024090Y022978D02*
X023237Y022978D01*
X023237Y023136D02*
X024090Y023136D01*
X024180Y023295D02*
X023194Y023295D01*
X023036Y023453D02*
X024339Y023453D01*
X024747Y022185D02*
X023097Y022185D01*
X023097Y022027D02*
X024747Y022027D01*
X024747Y021868D02*
X023097Y021868D01*
X023009Y021710D02*
X024776Y021710D01*
X022224Y021710D02*
X022207Y021710D01*
X018014Y014894D02*
X017950Y014894D01*
X020117Y011565D02*
X020357Y011565D01*
X020432Y011407D02*
X020275Y011407D01*
X020434Y011248D02*
X020465Y011248D01*
X026492Y007603D02*
X026492Y007603D01*
X026492Y007444D02*
X026492Y007444D01*
X026492Y007286D02*
X026492Y007286D01*
X022476Y007127D02*
X022272Y007127D01*
X022357Y006969D02*
X021260Y006969D01*
X021454Y007127D02*
X021712Y007127D01*
X021553Y007286D02*
X021537Y007286D01*
X022430Y007286D02*
X022447Y007286D01*
X039091Y007761D02*
X039518Y007761D01*
X039359Y007603D02*
X039249Y007603D01*
X006550Y022502D02*
X006184Y022502D01*
X006349Y022344D02*
X006384Y022344D01*
X004367Y013943D02*
X004367Y013943D01*
X004367Y013784D02*
X004367Y013784D01*
D25*
X016367Y018496D03*
X018117Y018496D03*
X018867Y018996D03*
X018867Y019996D03*
X014117Y005996D03*
X011117Y005996D03*
D26*
X001166Y000576D03*
X043292Y000576D03*
X001166Y023805D03*
D27*
X013367Y017996D03*
X012617Y016496D03*
X012617Y014996D03*
X013367Y013996D03*
X014867Y013996D03*
X015367Y014496D03*
X017867Y011996D03*
X017367Y011496D03*
D28*
X029117Y014371D03*
X031117Y014371D03*
X031117Y012496D03*
D29*
X018617Y021746D03*
X002867Y021746D03*
X002867Y005746D03*
D30*
X042617Y005996D03*
X042617Y010496D03*
D31*
X042898Y000970D03*
X001560Y000970D03*
X001560Y023411D03*
M02*
