G75*
G70*
%OFA0B0*%
%FSLAX24Y24*%
%IPPOS*%
%LPD*%
%AMOC8*
5,1,8,0,0,1.08239X$1,22.5*
%
%ADD10C,0.0440*%
%ADD11OC8,0.0630*%
%ADD12C,0.0520*%
%ADD13OC8,0.0520*%
%ADD14C,0.0669*%
%ADD15OC8,0.1000*%
%ADD16OC8,0.0760*%
%ADD17C,0.0740*%
%ADD18C,0.1890*%
%ADD19OC8,0.0600*%
%ADD20C,0.0560*%
%ADD21R,0.7283X0.0394*%
%ADD22R,0.0394X0.7283*%
%ADD23R,0.0397X0.0397*%
%ADD24C,0.0660*%
%ADD25C,0.0630*%
%ADD26C,0.0866*%
%ADD27C,0.0600*%
%ADD28C,0.0160*%
%ADD29C,0.0396*%
%ADD30C,0.0357*%
%ADD31C,0.0827*%
%ADD32C,0.1181*%
D10*
X007546Y014034D02*
X007986Y014034D01*
X007986Y016034D02*
X007546Y016034D01*
D11*
X006266Y016409D03*
X006266Y015409D03*
X006266Y014034D03*
X005266Y014034D03*
X003266Y015034D03*
X009266Y015409D03*
X009266Y016409D03*
X019141Y014534D03*
X020141Y014534D03*
X023641Y012909D03*
X021141Y011534D03*
X019141Y011534D03*
X018016Y008284D03*
X018016Y006284D03*
X019141Y006284D03*
X021141Y006284D03*
X005266Y006409D03*
X004266Y006409D03*
X003266Y006409D03*
X002266Y006409D03*
D12*
X006266Y007649D02*
X006266Y008169D01*
X007266Y008169D02*
X007266Y007649D01*
X008266Y007649D02*
X008266Y008169D01*
X010256Y008784D02*
X010776Y008784D01*
X010776Y009784D02*
X010256Y009784D01*
X010256Y010784D02*
X010776Y010784D01*
X010776Y011784D02*
X010256Y011784D01*
X010256Y012784D02*
X010776Y012784D01*
X010776Y013784D02*
X010256Y013784D01*
X010256Y014784D02*
X010776Y014784D01*
X010776Y015784D02*
X010256Y015784D01*
X010256Y016784D02*
X010776Y016784D01*
X010776Y017784D02*
X010256Y017784D01*
X010256Y018784D02*
X010776Y018784D01*
X010776Y019784D02*
X010256Y019784D01*
X010256Y020784D02*
X010776Y020784D01*
X010776Y021784D02*
X010256Y021784D01*
X008266Y022149D02*
X008266Y022669D01*
X007266Y022669D02*
X007266Y022149D01*
X006266Y022149D02*
X006266Y022669D01*
X006266Y019669D02*
X006266Y019149D01*
X007266Y019149D02*
X007266Y019669D01*
X008266Y019669D02*
X008266Y019149D01*
X013256Y018784D02*
X013776Y018784D01*
X013776Y017784D02*
X013256Y017784D01*
X013256Y016784D02*
X013776Y016784D01*
X013776Y015784D02*
X013256Y015784D01*
X013256Y014784D02*
X013776Y014784D01*
X013776Y013784D02*
X013256Y013784D01*
X013256Y012784D02*
X013776Y012784D01*
X013776Y011784D02*
X013256Y011784D01*
X013256Y010784D02*
X013776Y010784D01*
X013776Y009784D02*
X013256Y009784D01*
X014641Y009794D02*
X014641Y009274D01*
X013776Y008784D02*
X013256Y008784D01*
X014641Y008169D02*
X014641Y007649D01*
X015641Y007649D02*
X015641Y008169D01*
X016641Y008169D02*
X016641Y007649D01*
X016641Y009274D02*
X016641Y009794D01*
X015641Y009794D02*
X015641Y009274D01*
X008266Y009649D02*
X008266Y010169D01*
X007266Y010169D02*
X007266Y009649D01*
X006266Y009649D02*
X006266Y010169D01*
X013256Y019784D02*
X013776Y019784D01*
X013776Y020784D02*
X013256Y020784D01*
X013256Y021784D02*
X013776Y021784D01*
D13*
X015016Y020284D03*
X016016Y020284D03*
X016016Y023284D03*
X015016Y023284D03*
X009266Y020784D03*
X006266Y020784D03*
X005266Y019409D03*
X006266Y017784D03*
X005266Y016409D03*
X009266Y017784D03*
X016516Y015534D03*
X019141Y013534D03*
X019141Y012534D03*
X016516Y011534D03*
X022141Y012534D03*
X022141Y013534D03*
X013516Y007409D03*
X013516Y006409D03*
X014641Y006284D03*
X016641Y006284D03*
X022141Y006284D03*
X025141Y006284D03*
X010516Y006409D03*
X010516Y007409D03*
X005266Y007534D03*
X005266Y008534D03*
X005266Y009534D03*
X002266Y009534D03*
X002266Y008534D03*
X002266Y007534D03*
D14*
X019391Y007534D03*
X020891Y007534D03*
X022391Y007534D03*
X022391Y010534D03*
X020891Y010534D03*
X019391Y010534D03*
D15*
X002936Y019816D03*
X002936Y022776D03*
D16*
X024641Y016784D03*
X025641Y016784D03*
D17*
X022796Y016394D03*
X020236Y016394D03*
X018016Y016531D03*
X018016Y017531D03*
X020236Y018174D03*
X022796Y018174D03*
X018016Y015531D03*
X018016Y014531D03*
X018016Y013531D03*
X018016Y012531D03*
X018016Y011531D03*
X018016Y010531D03*
X002236Y010531D03*
X002236Y011531D03*
X002236Y012531D03*
X002236Y013531D03*
X002236Y014531D03*
X002236Y015531D03*
X002236Y016531D03*
X002236Y017531D03*
D18*
X037528Y013219D03*
X039851Y013219D03*
X038709Y015070D03*
D19*
X022016Y020284D03*
X021016Y020284D03*
X021016Y021284D03*
X022016Y021284D03*
X022016Y022284D03*
X014016Y023284D03*
X013016Y023284D03*
X012016Y023284D03*
X011016Y023284D03*
X010016Y023284D03*
X009016Y023284D03*
D20*
X024550Y022261D03*
X025550Y022261D03*
X025550Y021261D03*
X024550Y021261D03*
X024550Y020261D03*
X025550Y020261D03*
X025550Y019261D03*
X024550Y019261D03*
D21*
X039217Y016563D03*
X039217Y023453D03*
D22*
X035378Y020008D03*
D23*
X035378Y023453D03*
X042662Y023453D03*
X042662Y016563D03*
X035378Y016563D03*
D24*
X042016Y009534D03*
X042016Y008534D03*
X042016Y007534D03*
D25*
X024641Y012909D03*
X004266Y015034D03*
D26*
X000573Y002657D03*
X003723Y002657D03*
X039549Y002657D03*
X042699Y002657D03*
D27*
X021016Y022284D03*
D28*
X021448Y021840D02*
X021584Y021840D01*
X021639Y021784D02*
X021516Y021908D01*
X021393Y021784D01*
X021516Y021661D01*
X021639Y021784D01*
X021536Y021681D02*
X021496Y021681D01*
X020639Y021784D02*
X020609Y021755D01*
X020494Y021803D01*
X020288Y021803D01*
X020097Y021724D01*
X019952Y021578D01*
X019873Y021388D01*
X019873Y021181D01*
X019952Y020991D01*
X019991Y020952D01*
X019991Y019367D01*
X019952Y019328D01*
X019873Y019138D01*
X019873Y018931D01*
X019930Y018794D01*
X019845Y018759D01*
X019651Y018565D01*
X019546Y018312D01*
X019546Y018037D01*
X019651Y017784D01*
X019845Y017589D01*
X020099Y017484D01*
X020373Y017484D01*
X020627Y017589D01*
X020821Y017784D01*
X020926Y018037D01*
X020926Y018312D01*
X020821Y018565D01*
X020738Y018648D01*
X020830Y018741D01*
X020909Y018931D01*
X020909Y019138D01*
X020830Y019328D01*
X020791Y019367D01*
X020791Y019664D01*
X021273Y019664D01*
X021615Y020007D01*
X021817Y019804D01*
X021996Y019804D01*
X021996Y020264D01*
X022036Y020264D01*
X022036Y019804D01*
X022215Y019804D01*
X022496Y020086D01*
X022496Y020264D01*
X022036Y020264D01*
X022036Y020304D01*
X022496Y020304D01*
X022496Y020483D01*
X022294Y020685D01*
X022636Y021028D01*
X022636Y021541D01*
X022393Y021784D01*
X022636Y022028D01*
X022636Y022541D01*
X022273Y022904D01*
X021759Y022904D01*
X021516Y022661D01*
X021367Y022810D01*
X021139Y022904D01*
X020893Y022904D01*
X020665Y022810D01*
X020490Y022636D01*
X020396Y022408D01*
X020396Y022161D01*
X020490Y021933D01*
X020639Y021784D01*
X020584Y021840D02*
X018729Y021840D01*
X018749Y021889D02*
X018638Y021619D01*
X018431Y021413D01*
X018162Y021301D01*
X017870Y021301D01*
X017601Y021413D01*
X017394Y021619D01*
X017283Y021889D01*
X017283Y022180D01*
X017394Y022450D01*
X017601Y022656D01*
X017870Y022768D01*
X018162Y022768D01*
X018431Y022656D01*
X018638Y022450D01*
X018749Y022180D01*
X018749Y021889D01*
X018749Y021998D02*
X020463Y021998D01*
X020398Y022157D02*
X018749Y022157D01*
X018693Y022315D02*
X020396Y022315D01*
X020423Y022474D02*
X018614Y022474D01*
X018455Y022632D02*
X020489Y022632D01*
X020646Y022791D02*
X016343Y022791D01*
X016256Y022704D02*
X016596Y023044D01*
X016596Y023525D01*
X016256Y023864D01*
X015776Y023864D01*
X015516Y023605D01*
X015256Y023864D01*
X014776Y023864D01*
X014544Y023633D01*
X014273Y023904D01*
X013759Y023904D01*
X013417Y023562D01*
X013215Y023764D01*
X013036Y023764D01*
X013036Y023304D01*
X012996Y023304D01*
X012996Y023764D01*
X012817Y023764D01*
X012615Y023562D01*
X012273Y023904D01*
X011759Y023904D01*
X011516Y023661D01*
X011273Y023904D01*
X010759Y023904D01*
X010516Y023661D01*
X010273Y023904D01*
X009759Y023904D01*
X009516Y023661D01*
X009273Y023904D01*
X008759Y023904D01*
X008396Y023541D01*
X008396Y023090D01*
X008369Y023099D01*
X008301Y023109D01*
X008266Y023109D01*
X008231Y023109D01*
X008163Y023099D01*
X008097Y023077D01*
X008035Y023046D01*
X007979Y023005D01*
X007930Y022956D01*
X007890Y022900D01*
X007858Y022838D01*
X007843Y022792D01*
X007758Y022998D01*
X007595Y023161D01*
X007381Y023249D01*
X007151Y023249D01*
X006937Y023161D01*
X006774Y022998D01*
X006766Y022978D01*
X006758Y022998D01*
X006595Y023161D01*
X006381Y023249D01*
X006151Y023249D01*
X005937Y023161D01*
X005774Y022998D01*
X005686Y022785D01*
X005686Y022034D01*
X005774Y021821D01*
X005937Y021658D01*
X006151Y021569D01*
X006381Y021569D01*
X006595Y021658D01*
X006758Y021821D01*
X006766Y021841D01*
X006774Y021821D01*
X006937Y021658D01*
X007151Y021569D01*
X007381Y021569D01*
X007595Y021658D01*
X007758Y021821D01*
X007843Y022027D01*
X007858Y021981D01*
X007890Y021919D01*
X007930Y021863D01*
X007979Y021814D01*
X008035Y021773D01*
X008097Y021742D01*
X008163Y021720D01*
X008231Y021709D01*
X008266Y021709D01*
X008301Y021709D01*
X008369Y021720D01*
X008435Y021742D01*
X008497Y021773D01*
X008553Y021814D01*
X008602Y021863D01*
X008642Y021919D01*
X008674Y021981D01*
X008695Y022046D01*
X008706Y022115D01*
X008706Y022409D01*
X008266Y022409D01*
X008266Y021709D01*
X008266Y022409D01*
X008266Y022409D01*
X008266Y022409D01*
X008706Y022409D01*
X008706Y022704D01*
X008703Y022720D01*
X008759Y022664D01*
X009273Y022664D01*
X009516Y022908D01*
X009759Y022664D01*
X009811Y022664D01*
X009748Y022513D01*
X009748Y022306D01*
X009809Y022158D01*
X009764Y022113D01*
X009676Y021900D01*
X009676Y021669D01*
X009764Y021456D01*
X009927Y021293D01*
X009947Y021284D01*
X009927Y021276D01*
X009764Y021113D01*
X009762Y021108D01*
X009506Y021364D01*
X009856Y021364D01*
X009857Y021206D02*
X009665Y021206D01*
X009506Y021364D02*
X009026Y021364D01*
X006506Y021364D01*
X006026Y021364D01*
X000338Y021364D01*
X000338Y021206D02*
X005867Y021206D01*
X005709Y021047D02*
X000338Y021047D01*
X000338Y020889D02*
X005686Y020889D01*
X005686Y021025D02*
X005686Y020544D01*
X006026Y020204D01*
X006042Y020204D01*
X005937Y020161D01*
X005774Y019998D01*
X005693Y019802D01*
X005506Y019989D01*
X005026Y019989D01*
X004686Y019650D01*
X004686Y019169D01*
X005026Y018829D01*
X005506Y018829D01*
X005693Y019016D01*
X005774Y018821D01*
X005937Y018658D01*
X006151Y018569D01*
X006381Y018569D01*
X006595Y018658D01*
X006758Y018821D01*
X006766Y018841D01*
X006774Y018821D01*
X006937Y018658D01*
X007151Y018569D01*
X007381Y018569D01*
X007595Y018658D01*
X007758Y018821D01*
X007843Y019027D01*
X007858Y018981D01*
X007890Y018919D01*
X007930Y018863D01*
X007979Y018814D01*
X008035Y018773D01*
X008097Y018742D01*
X008163Y018720D01*
X008231Y018709D01*
X008266Y018709D01*
X008301Y018709D01*
X008369Y018720D01*
X008435Y018742D01*
X008497Y018773D01*
X008553Y018814D01*
X008602Y018863D01*
X008642Y018919D01*
X008674Y018981D01*
X008695Y019046D01*
X008706Y019115D01*
X008706Y019409D01*
X008266Y019409D01*
X008266Y018709D01*
X008266Y019409D01*
X008266Y019409D01*
X008266Y019409D01*
X008706Y019409D01*
X008706Y019704D01*
X008695Y019772D01*
X008674Y019838D01*
X008642Y019900D01*
X008602Y019956D01*
X008553Y020005D01*
X008497Y020046D01*
X008435Y020077D01*
X008369Y020099D01*
X008301Y020109D01*
X008266Y020109D01*
X008266Y019409D01*
X008266Y020109D01*
X008231Y020109D01*
X008163Y020099D01*
X008097Y020077D01*
X008035Y020046D01*
X007979Y020005D01*
X007930Y019956D01*
X007890Y019900D01*
X007858Y019838D01*
X007843Y019792D01*
X007758Y019998D01*
X007595Y020161D01*
X007381Y020249D01*
X007151Y020249D01*
X006937Y020161D01*
X006774Y019998D01*
X006766Y019978D01*
X006758Y019998D01*
X006595Y020161D01*
X006490Y020204D01*
X006506Y020204D01*
X006846Y020544D01*
X006846Y021025D01*
X006506Y021364D01*
X006665Y021206D02*
X008867Y021206D01*
X008709Y021047D02*
X006823Y021047D01*
X006846Y020889D02*
X008686Y020889D01*
X008686Y021025D02*
X008686Y020544D01*
X009026Y020204D01*
X009506Y020204D01*
X009762Y020461D01*
X009764Y020456D01*
X009927Y020293D01*
X009947Y020284D01*
X009927Y020276D01*
X009764Y020113D01*
X009676Y019900D01*
X009676Y019669D01*
X009764Y019456D01*
X009927Y019293D01*
X009947Y019284D01*
X009927Y019276D01*
X009764Y019113D01*
X009676Y018900D01*
X009676Y018669D01*
X009764Y018456D01*
X009927Y018293D01*
X009947Y018284D01*
X009927Y018276D01*
X009764Y018113D01*
X009762Y018108D01*
X009506Y018364D01*
X009026Y018364D01*
X008686Y018025D01*
X008686Y017544D01*
X009026Y017204D01*
X009506Y017204D01*
X009762Y017461D01*
X009764Y017456D01*
X009927Y017293D01*
X009947Y017284D01*
X009927Y017276D01*
X009764Y017113D01*
X009676Y016900D01*
X009676Y016897D01*
X009529Y017044D01*
X009003Y017044D01*
X008631Y016672D01*
X008631Y016146D01*
X008967Y015810D01*
X008771Y015614D01*
X008771Y015409D01*
X008771Y015204D01*
X009061Y014914D01*
X009266Y014914D01*
X009471Y014914D01*
X009761Y015204D01*
X009761Y015409D01*
X009266Y015409D01*
X009266Y014914D01*
X009266Y015409D01*
X009266Y015409D01*
X009266Y015409D01*
X008771Y015409D01*
X009266Y015409D01*
X009266Y015409D01*
X009761Y015409D01*
X009761Y015464D01*
X009764Y015456D01*
X009927Y015293D01*
X010134Y015207D01*
X010087Y015192D01*
X010025Y015161D01*
X009969Y015120D01*
X009920Y015071D01*
X009880Y015015D01*
X009848Y014953D01*
X009827Y014887D01*
X009816Y014819D01*
X009816Y014784D01*
X009816Y014750D01*
X009827Y014681D01*
X009848Y014616D01*
X009880Y014554D01*
X009920Y014498D01*
X009969Y014449D01*
X010025Y014408D01*
X010087Y014377D01*
X010134Y014362D01*
X009927Y014276D01*
X009764Y014113D01*
X009676Y013900D01*
X009676Y013669D01*
X009764Y013456D01*
X009927Y013293D01*
X009947Y013284D01*
X009927Y013276D01*
X009764Y013113D01*
X009676Y012900D01*
X009676Y012669D01*
X009764Y012456D01*
X009927Y012293D01*
X009947Y012284D01*
X009927Y012276D01*
X009764Y012113D01*
X009676Y011900D01*
X009676Y011669D01*
X009764Y011456D01*
X009927Y011293D01*
X009947Y011284D01*
X009927Y011276D01*
X009764Y011113D01*
X009676Y010900D01*
X009676Y010669D01*
X009764Y010456D01*
X009927Y010293D01*
X009947Y010284D01*
X009927Y010276D01*
X009764Y010113D01*
X009676Y009900D01*
X009676Y009669D01*
X009764Y009456D01*
X009927Y009293D01*
X009947Y009284D01*
X009927Y009276D01*
X009764Y009113D01*
X009676Y008900D01*
X009676Y008669D01*
X009764Y008456D01*
X009927Y008293D01*
X010141Y008204D01*
X010891Y008204D01*
X011105Y008293D01*
X011268Y008456D01*
X011356Y008669D01*
X011356Y008900D01*
X011268Y009113D01*
X011105Y009276D01*
X011084Y009284D01*
X011105Y009293D01*
X011268Y009456D01*
X011356Y009669D01*
X011356Y009900D01*
X011268Y010113D01*
X011105Y010276D01*
X011084Y010284D01*
X011105Y010293D01*
X011268Y010456D01*
X011356Y010669D01*
X011356Y010900D01*
X011268Y011113D01*
X011105Y011276D01*
X011084Y011284D01*
X011105Y011293D01*
X011268Y011456D01*
X011356Y011669D01*
X011356Y011900D01*
X011268Y012113D01*
X011105Y012276D01*
X011084Y012284D01*
X011105Y012293D01*
X011268Y012456D01*
X011356Y012669D01*
X011356Y012900D01*
X011268Y013113D01*
X011105Y013276D01*
X011084Y013284D01*
X011105Y013293D01*
X011268Y013456D01*
X011356Y013669D01*
X011356Y013900D01*
X011268Y014113D01*
X011105Y014276D01*
X010898Y014362D01*
X010945Y014377D01*
X011007Y014408D01*
X011063Y014449D01*
X011112Y014498D01*
X011152Y014554D01*
X011184Y014616D01*
X011205Y014681D01*
X011216Y014750D01*
X011216Y014784D01*
X010516Y014784D01*
X010516Y014784D01*
X009816Y014784D01*
X010516Y014784D01*
X010516Y014784D01*
X011216Y014784D01*
X011216Y014819D01*
X011205Y014887D01*
X011184Y014953D01*
X011152Y015015D01*
X011112Y015071D01*
X011063Y015120D01*
X011007Y015161D01*
X010945Y015192D01*
X010898Y015207D01*
X011105Y015293D01*
X011268Y015456D01*
X011356Y015669D01*
X011356Y015900D01*
X011268Y016113D01*
X011105Y016276D01*
X011084Y016284D01*
X011105Y016293D01*
X011268Y016456D01*
X011356Y016669D01*
X011356Y016900D01*
X011268Y017113D01*
X011105Y017276D01*
X011084Y017284D01*
X011105Y017293D01*
X011268Y017456D01*
X011356Y017669D01*
X011356Y017900D01*
X011268Y018113D01*
X011105Y018276D01*
X011084Y018284D01*
X011105Y018293D01*
X011268Y018456D01*
X011356Y018669D01*
X011356Y018900D01*
X011268Y019113D01*
X011105Y019276D01*
X011084Y019284D01*
X011105Y019293D01*
X011268Y019456D01*
X011356Y019669D01*
X011356Y019900D01*
X011268Y020113D01*
X011105Y020276D01*
X011084Y020284D01*
X011105Y020293D01*
X011268Y020456D01*
X011356Y020669D01*
X011356Y020900D01*
X011268Y021113D01*
X011105Y021276D01*
X011084Y021284D01*
X011105Y021293D01*
X011268Y021456D01*
X011356Y021669D01*
X011356Y021900D01*
X011311Y022009D01*
X012721Y022009D01*
X012676Y021900D01*
X012676Y021669D01*
X012764Y021456D01*
X012927Y021293D01*
X012947Y021284D01*
X012927Y021276D01*
X012764Y021113D01*
X012676Y020900D01*
X012676Y020669D01*
X012764Y020456D01*
X012927Y020293D01*
X012947Y020284D01*
X012927Y020276D01*
X012764Y020113D01*
X012676Y019900D01*
X012676Y019669D01*
X012764Y019456D01*
X012927Y019293D01*
X012947Y019284D01*
X012927Y019276D01*
X012764Y019113D01*
X012676Y018900D01*
X012676Y018669D01*
X012764Y018456D01*
X012927Y018293D01*
X012947Y018284D01*
X012927Y018276D01*
X012764Y018113D01*
X012676Y017900D01*
X012676Y017704D01*
X012673Y017707D01*
X012490Y017783D01*
X012416Y017783D01*
X012416Y017848D01*
X012439Y017871D01*
X012515Y018054D01*
X012515Y018253D01*
X012439Y018436D01*
X012299Y018576D01*
X012116Y018652D01*
X011918Y018652D01*
X011735Y018576D01*
X011594Y018436D01*
X011518Y018253D01*
X011518Y018054D01*
X011594Y017871D01*
X011616Y017850D01*
X011616Y014214D01*
X011593Y014192D01*
X011518Y014009D01*
X011518Y013810D01*
X011593Y013627D01*
X011734Y013487D01*
X011917Y013411D01*
X012115Y013411D01*
X012298Y013487D01*
X012439Y013627D01*
X012514Y013810D01*
X012514Y013849D01*
X012667Y013786D01*
X012676Y013786D01*
X012676Y013669D01*
X012764Y013456D01*
X012927Y013293D01*
X012947Y013284D01*
X012927Y013276D01*
X012764Y013113D01*
X012676Y012900D01*
X012676Y012669D01*
X012764Y012456D01*
X012927Y012293D01*
X012947Y012284D01*
X012927Y012276D01*
X012764Y012113D01*
X012676Y011900D01*
X012676Y011669D01*
X012764Y011456D01*
X012927Y011293D01*
X012947Y011284D01*
X012927Y011276D01*
X012764Y011113D01*
X012676Y010900D01*
X012676Y010669D01*
X012764Y010456D01*
X012927Y010293D01*
X012947Y010284D01*
X012927Y010276D01*
X012764Y010113D01*
X012676Y009900D01*
X012676Y009669D01*
X012764Y009456D01*
X012927Y009293D01*
X012947Y009284D01*
X012927Y009276D01*
X012764Y009113D01*
X012676Y008900D01*
X012676Y008669D01*
X012764Y008456D01*
X012927Y008293D01*
X013141Y008204D01*
X013891Y008204D01*
X014105Y008293D01*
X014268Y008456D01*
X014356Y008669D01*
X014356Y008900D01*
X014330Y008964D01*
X014354Y008939D01*
X014410Y008898D01*
X014472Y008867D01*
X014538Y008845D01*
X014606Y008834D01*
X014641Y008834D01*
X014676Y008834D01*
X014744Y008845D01*
X014810Y008867D01*
X014872Y008898D01*
X014928Y008939D01*
X014977Y008988D01*
X015017Y009044D01*
X015049Y009106D01*
X015064Y009152D01*
X015149Y008946D01*
X015312Y008783D01*
X015459Y008722D01*
X015312Y008661D01*
X015149Y008498D01*
X015064Y008292D01*
X015049Y008338D01*
X015017Y008400D01*
X014977Y008456D01*
X014928Y008505D01*
X014872Y008546D01*
X014810Y008577D01*
X014744Y008599D01*
X014676Y008609D01*
X014641Y008609D01*
X014606Y008609D01*
X014538Y008599D01*
X014472Y008577D01*
X014410Y008546D01*
X014354Y008505D01*
X014305Y008456D01*
X014265Y008400D01*
X014233Y008338D01*
X014212Y008272D01*
X014201Y008204D01*
X014201Y007909D01*
X014201Y007615D01*
X014212Y007546D01*
X014233Y007481D01*
X014265Y007419D01*
X014305Y007363D01*
X014354Y007314D01*
X014410Y007273D01*
X014472Y007242D01*
X014538Y007220D01*
X014606Y007209D01*
X014641Y007209D01*
X014676Y007209D01*
X014744Y007220D01*
X014810Y007242D01*
X014872Y007273D01*
X014928Y007314D01*
X014977Y007363D01*
X015017Y007419D01*
X015049Y007481D01*
X015064Y007527D01*
X015149Y007321D01*
X015312Y007158D01*
X015526Y007069D01*
X015756Y007069D01*
X015970Y007158D01*
X016133Y007321D01*
X016141Y007341D01*
X016149Y007321D01*
X016312Y007158D01*
X016526Y007069D01*
X016756Y007069D01*
X016970Y007158D01*
X017133Y007321D01*
X017221Y007534D01*
X017221Y008285D01*
X017133Y008498D01*
X016970Y008661D01*
X016823Y008722D01*
X016970Y008783D01*
X017133Y008946D01*
X017221Y009159D01*
X017221Y009910D01*
X017133Y010123D01*
X016970Y010286D01*
X016756Y010374D01*
X016526Y010374D01*
X016312Y010286D01*
X016149Y010123D01*
X016141Y010103D01*
X016133Y010123D01*
X015970Y010286D01*
X015756Y010374D01*
X015526Y010374D01*
X015312Y010286D01*
X015149Y010123D01*
X015064Y009917D01*
X015049Y009963D01*
X015017Y010025D01*
X014977Y010081D01*
X014928Y010130D01*
X014872Y010171D01*
X014810Y010202D01*
X014744Y010224D01*
X014676Y010234D01*
X014641Y010234D01*
X014606Y010234D01*
X014538Y010224D01*
X014472Y010202D01*
X014410Y010171D01*
X014354Y010130D01*
X014305Y010081D01*
X014290Y010060D01*
X014268Y010113D01*
X014105Y010276D01*
X014084Y010284D01*
X014105Y010293D01*
X014268Y010456D01*
X014356Y010669D01*
X014356Y010900D01*
X014268Y011113D01*
X014105Y011276D01*
X014084Y011284D01*
X014105Y011293D01*
X014268Y011456D01*
X014356Y011669D01*
X014356Y011900D01*
X014268Y012113D01*
X014105Y012276D01*
X014084Y012284D01*
X014105Y012293D01*
X014268Y012456D01*
X014356Y012669D01*
X014356Y012900D01*
X014268Y013113D01*
X014105Y013276D01*
X014084Y013284D01*
X014105Y013293D01*
X014268Y013456D01*
X014356Y013669D01*
X014356Y013900D01*
X014268Y014113D01*
X014105Y014276D01*
X014084Y014284D01*
X014105Y014293D01*
X014268Y014456D01*
X014356Y014669D01*
X014356Y014900D01*
X014268Y015113D01*
X014105Y015276D01*
X013898Y015362D01*
X013945Y015377D01*
X014007Y015408D01*
X014063Y015449D01*
X014112Y015498D01*
X014152Y015554D01*
X014184Y015616D01*
X014205Y015681D01*
X014216Y015750D01*
X014216Y015784D01*
X013516Y015784D01*
X013516Y015784D01*
X014216Y015784D01*
X014216Y015819D01*
X014205Y015887D01*
X014184Y015953D01*
X014152Y016015D01*
X014112Y016071D01*
X014063Y016120D01*
X014007Y016161D01*
X013945Y016192D01*
X013898Y016207D01*
X014105Y016293D01*
X014268Y016456D01*
X014356Y016669D01*
X014356Y016900D01*
X014268Y017113D01*
X014105Y017276D01*
X014084Y017284D01*
X014105Y017293D01*
X014140Y017328D01*
X014288Y017266D01*
X014494Y017266D01*
X014684Y017345D01*
X014724Y017384D01*
X016808Y017384D01*
X016847Y017345D01*
X017038Y017266D01*
X017244Y017266D01*
X017434Y017345D01*
X017482Y017393D01*
X017506Y017319D01*
X017546Y017242D01*
X017596Y017172D01*
X017645Y017124D01*
X017625Y017115D01*
X017431Y016921D01*
X017326Y016668D01*
X017326Y016393D01*
X017431Y016140D01*
X017540Y016031D01*
X017431Y015921D01*
X017326Y015668D01*
X017326Y015393D01*
X017431Y015140D01*
X017540Y015031D01*
X017431Y014921D01*
X017326Y014668D01*
X017326Y014393D01*
X017431Y014140D01*
X017540Y014031D01*
X017431Y013921D01*
X017326Y013668D01*
X017326Y013393D01*
X017431Y013140D01*
X017540Y013031D01*
X017431Y012921D01*
X017326Y012668D01*
X017326Y012393D01*
X017431Y012140D01*
X017540Y012031D01*
X017431Y011921D01*
X017326Y011668D01*
X017326Y011393D01*
X017431Y011140D01*
X017540Y011031D01*
X017431Y010921D01*
X017326Y010668D01*
X017326Y010393D01*
X017431Y010140D01*
X017625Y009946D01*
X017879Y009841D01*
X018153Y009841D01*
X018407Y009946D01*
X018601Y010140D01*
X018706Y010393D01*
X018706Y010668D01*
X018601Y010921D01*
X018492Y011031D01*
X018601Y011140D01*
X018612Y011166D01*
X018854Y010923D01*
X018836Y010905D01*
X018736Y010665D01*
X018736Y010404D01*
X018836Y010164D01*
X019020Y009979D01*
X019261Y009880D01*
X019521Y009880D01*
X019762Y009979D01*
X019946Y010164D01*
X020046Y010404D01*
X020046Y010665D01*
X019946Y010905D01*
X019762Y011089D01*
X019643Y011139D01*
X019776Y011271D01*
X019776Y011797D01*
X019500Y012073D01*
X019721Y012294D01*
X019721Y012775D01*
X019381Y013114D01*
X019343Y013114D01*
X019581Y013352D01*
X019581Y013534D01*
X019141Y013534D01*
X019141Y013534D01*
X019581Y013534D01*
X019581Y013717D01*
X019323Y013974D01*
X019141Y013974D01*
X018959Y013974D01*
X018701Y013717D01*
X018701Y013680D01*
X018601Y013921D01*
X018492Y014031D01*
X018601Y014140D01*
X018670Y014306D01*
X018936Y014039D01*
X019141Y014039D01*
X019346Y014039D01*
X019542Y014235D01*
X019878Y013899D01*
X020404Y013899D01*
X020776Y014271D01*
X020776Y014797D01*
X020404Y015169D01*
X019878Y015169D01*
X019542Y014833D01*
X019346Y015029D01*
X019141Y015029D01*
X019141Y014534D01*
X019141Y014039D01*
X019141Y014534D01*
X019141Y014534D01*
X019141Y015029D01*
X018936Y015029D01*
X018667Y014761D01*
X018601Y014921D01*
X018492Y015031D01*
X018601Y015140D01*
X018706Y015393D01*
X018706Y015668D01*
X018601Y015921D01*
X018492Y016031D01*
X018601Y016140D01*
X018706Y016393D01*
X018706Y016668D01*
X018601Y016921D01*
X018407Y017115D01*
X018387Y017124D01*
X018435Y017172D01*
X018486Y017242D01*
X018526Y017319D01*
X018552Y017402D01*
X024269Y017402D01*
X024351Y017484D02*
X023941Y017074D01*
X023941Y016494D01*
X024351Y016084D01*
X024931Y016084D01*
X025141Y016295D01*
X025351Y016084D01*
X025931Y016084D01*
X026341Y016494D01*
X026341Y017074D01*
X025931Y017484D01*
X025351Y017484D01*
X025141Y017274D01*
X024931Y017484D01*
X024351Y017484D01*
X024110Y017243D02*
X018487Y017243D01*
X018437Y017085D02*
X023952Y017085D01*
X023941Y016926D02*
X022939Y016926D01*
X022925Y016931D02*
X022839Y016944D01*
X022816Y016944D01*
X022816Y016414D01*
X023346Y016414D01*
X023346Y016438D01*
X023332Y016523D01*
X023306Y016606D01*
X023266Y016683D01*
X023215Y016753D01*
X023154Y016814D01*
X023084Y016865D01*
X023007Y016904D01*
X022925Y016931D01*
X022816Y016926D02*
X022776Y016926D01*
X022776Y016944D02*
X022753Y016944D01*
X022667Y016931D01*
X022585Y016904D01*
X022508Y016865D01*
X022438Y016814D01*
X022376Y016753D01*
X022326Y016683D01*
X022286Y016606D01*
X022260Y016523D01*
X022246Y016438D01*
X022246Y016414D01*
X022776Y016414D01*
X022776Y016374D01*
X022816Y016374D01*
X022816Y015844D01*
X022839Y015844D01*
X022925Y015858D01*
X023007Y015885D01*
X023084Y015924D01*
X023154Y015975D01*
X023215Y016036D01*
X023266Y016106D01*
X023306Y016183D01*
X023332Y016266D01*
X023346Y016351D01*
X023346Y016374D01*
X022816Y016374D01*
X022816Y016414D01*
X022776Y016414D01*
X022776Y016944D01*
X022653Y016926D02*
X020379Y016926D01*
X020365Y016931D02*
X020279Y016944D01*
X020256Y016944D01*
X020256Y016414D01*
X020786Y016414D01*
X020786Y016438D01*
X020772Y016523D01*
X020746Y016606D01*
X020706Y016683D01*
X020655Y016753D01*
X020594Y016814D01*
X020524Y016865D01*
X020447Y016904D01*
X020365Y016931D01*
X020256Y016926D02*
X020216Y016926D01*
X020216Y016944D02*
X020193Y016944D01*
X020107Y016931D01*
X020025Y016904D01*
X019948Y016865D01*
X019878Y016814D01*
X019816Y016753D01*
X019766Y016683D01*
X019726Y016606D01*
X019700Y016523D01*
X019686Y016438D01*
X019686Y016414D01*
X020216Y016414D01*
X020216Y016374D01*
X020256Y016374D01*
X020256Y015844D01*
X020279Y015844D01*
X020365Y015858D01*
X020447Y015885D01*
X020524Y015924D01*
X020594Y015975D01*
X020655Y016036D01*
X020706Y016106D01*
X020746Y016183D01*
X020772Y016266D01*
X020786Y016351D01*
X020786Y016374D01*
X020256Y016374D01*
X020256Y016414D01*
X020216Y016414D01*
X020216Y016944D01*
X020093Y016926D02*
X018596Y016926D01*
X018664Y016768D02*
X019832Y016768D01*
X019728Y016609D02*
X018706Y016609D01*
X018706Y016451D02*
X019688Y016451D01*
X019686Y016374D02*
X019686Y016351D01*
X019700Y016266D01*
X019726Y016183D01*
X019766Y016106D01*
X019816Y016036D01*
X019878Y015975D01*
X019948Y015924D01*
X020025Y015885D01*
X020107Y015858D01*
X020193Y015844D01*
X020216Y015844D01*
X020216Y016374D01*
X019686Y016374D01*
X019695Y016292D02*
X018664Y016292D01*
X018595Y016134D02*
X019751Y016134D01*
X019877Y015975D02*
X018547Y015975D01*
X018644Y015817D02*
X037680Y015817D01*
X037697Y015847D02*
X037530Y015558D01*
X037444Y015236D01*
X037444Y014903D01*
X037530Y014582D01*
X037586Y014484D01*
X037361Y014484D01*
X037040Y014398D01*
X036751Y014232D01*
X036516Y013996D01*
X036349Y013708D01*
X036263Y013386D01*
X036263Y013053D01*
X036349Y012731D01*
X036516Y012443D01*
X036751Y012207D01*
X037040Y012041D01*
X037361Y011955D01*
X037694Y011955D01*
X038016Y012041D01*
X038304Y012207D01*
X038540Y012443D01*
X038689Y012701D01*
X038838Y012443D01*
X039074Y012207D01*
X039362Y012041D01*
X039684Y011955D01*
X040017Y011955D01*
X040339Y012041D01*
X040627Y012207D01*
X040863Y012443D01*
X041029Y012731D01*
X041116Y013053D01*
X041116Y013386D01*
X041029Y013708D01*
X040863Y013996D01*
X040627Y014232D01*
X042858Y014232D01*
X042858Y014390D02*
X040352Y014390D01*
X040339Y014398D02*
X040017Y014484D01*
X039831Y014484D01*
X039888Y014582D01*
X039974Y014903D01*
X039974Y015236D01*
X039888Y015558D01*
X039721Y015847D01*
X039521Y016046D01*
X041238Y016046D01*
X041160Y015857D01*
X041160Y015495D01*
X041298Y015160D01*
X041554Y014904D01*
X041889Y014766D01*
X042251Y014766D01*
X042586Y014904D01*
X042842Y015160D01*
X042858Y015198D01*
X042858Y006312D01*
X042842Y006349D01*
X042586Y006606D01*
X042251Y006744D01*
X041889Y006744D01*
X041554Y006606D01*
X041298Y006349D01*
X041160Y006015D01*
X041160Y005701D01*
X021455Y005701D01*
X021680Y005925D01*
X021901Y005704D01*
X022381Y005704D01*
X022721Y006044D01*
X022721Y006525D01*
X022381Y006864D01*
X021901Y006864D01*
X021680Y006644D01*
X021404Y006919D01*
X021117Y006919D01*
X021262Y006979D01*
X021446Y007164D01*
X021546Y007404D01*
X021546Y007665D01*
X021446Y007905D01*
X021262Y008089D01*
X021021Y008189D01*
X020761Y008189D01*
X020520Y008089D01*
X020336Y007905D01*
X020236Y007665D01*
X020236Y007404D01*
X020336Y007164D01*
X020520Y006979D01*
X020761Y006880D01*
X020838Y006880D01*
X020506Y006547D01*
X020506Y006021D01*
X020827Y005701D01*
X019455Y005701D01*
X019776Y006021D01*
X019776Y006547D01*
X019444Y006880D01*
X019521Y006880D01*
X019762Y006979D01*
X019946Y007164D01*
X020046Y007404D01*
X020046Y007665D01*
X019946Y007905D01*
X019762Y008089D01*
X019521Y008189D01*
X019261Y008189D01*
X019020Y008089D01*
X018836Y007905D01*
X018736Y007665D01*
X018736Y007404D01*
X018836Y007164D01*
X019020Y006979D01*
X019165Y006919D01*
X018878Y006919D01*
X018506Y006547D01*
X018506Y006494D01*
X018221Y006779D01*
X018016Y006779D01*
X017811Y006779D01*
X017521Y006489D01*
X017521Y006284D01*
X017521Y006079D01*
X017811Y005789D01*
X018016Y005789D01*
X018221Y005789D01*
X018506Y006074D01*
X018506Y006021D01*
X018827Y005701D01*
X000338Y005701D01*
X000338Y008702D01*
X000353Y008664D01*
X000609Y008408D01*
X000944Y008270D01*
X001306Y008270D01*
X001641Y008408D01*
X001826Y008593D01*
X001826Y008534D01*
X001826Y008352D01*
X002084Y008094D01*
X002266Y008094D01*
X002448Y008094D01*
X002706Y008352D01*
X002706Y008534D01*
X002266Y008534D01*
X002266Y008094D01*
X002266Y008534D01*
X002266Y008534D01*
X002266Y008534D01*
X001826Y008534D01*
X002266Y008534D01*
X002266Y008534D01*
X002706Y008534D01*
X002706Y008717D01*
X002448Y008974D01*
X002266Y008974D01*
X002084Y008974D01*
X001985Y008875D01*
X002036Y008999D01*
X002036Y009142D01*
X002084Y009094D01*
X002266Y009094D01*
X002448Y009094D01*
X002706Y009352D01*
X002706Y009534D01*
X002266Y009534D01*
X002266Y009094D01*
X002266Y009534D01*
X002266Y009534D01*
X002266Y009534D01*
X002706Y009534D01*
X002706Y009717D01*
X002521Y009902D01*
X002627Y009946D01*
X002821Y010140D01*
X002926Y010393D01*
X002926Y010668D01*
X002821Y010921D01*
X002712Y011031D01*
X002821Y011140D01*
X002926Y011393D01*
X002926Y011668D01*
X002821Y011921D01*
X002712Y012031D01*
X002821Y012140D01*
X002926Y012393D01*
X002926Y012668D01*
X002821Y012921D01*
X002712Y013031D01*
X002821Y013140D01*
X002926Y013393D01*
X002926Y013668D01*
X002821Y013921D01*
X002712Y014031D01*
X002821Y014140D01*
X002926Y014393D01*
X002926Y014668D01*
X002922Y014678D01*
X003061Y014539D01*
X003266Y014539D01*
X003471Y014539D01*
X003692Y014761D01*
X003728Y014675D01*
X003906Y014496D01*
X004140Y014399D01*
X004392Y014399D01*
X004626Y014496D01*
X004804Y014675D01*
X004901Y014908D01*
X004901Y015161D01*
X004804Y015394D01*
X004626Y015573D01*
X004392Y015669D01*
X004140Y015669D01*
X003906Y015573D01*
X003728Y015394D01*
X003692Y015308D01*
X003471Y015529D01*
X003266Y015529D01*
X003266Y015034D01*
X003266Y014539D01*
X003266Y015034D01*
X003266Y015034D01*
X003266Y015529D01*
X003061Y015529D01*
X002926Y015395D01*
X002926Y015668D01*
X002926Y015670D01*
X002984Y015612D01*
X003167Y015536D01*
X003365Y015536D01*
X003548Y015612D01*
X003689Y015752D01*
X003764Y015935D01*
X003764Y016134D01*
X004721Y016134D01*
X004686Y016169D02*
X005026Y015829D01*
X005506Y015829D01*
X005826Y016149D01*
X005967Y016008D01*
X005631Y015672D01*
X005631Y015146D01*
X006003Y014774D01*
X006529Y014774D01*
X006901Y015146D01*
X006901Y015672D01*
X006565Y016008D01*
X006761Y016204D01*
X006761Y016409D01*
X006266Y016409D01*
X006266Y016409D01*
X006761Y016409D01*
X006761Y016614D01*
X006471Y016904D01*
X006266Y016904D01*
X006061Y016904D01*
X005826Y016670D01*
X005506Y016989D01*
X005026Y016989D01*
X004686Y016650D01*
X004686Y016169D01*
X004686Y016292D02*
X003699Y016292D01*
X003689Y016317D02*
X003666Y016339D01*
X003666Y017230D01*
X003689Y017252D01*
X003764Y017435D01*
X003764Y017634D01*
X003689Y017817D01*
X003548Y017957D01*
X003365Y018033D01*
X003167Y018033D01*
X002984Y017957D01*
X002843Y017817D01*
X002774Y017650D01*
X002773Y017659D01*
X002746Y017742D01*
X002707Y017819D01*
X002656Y017889D01*
X002595Y017950D01*
X002525Y018001D01*
X002448Y018040D01*
X002365Y018067D01*
X002280Y018081D01*
X002256Y018081D01*
X002256Y017551D01*
X002216Y017551D01*
X002216Y018081D01*
X002193Y018081D01*
X002108Y018067D01*
X002025Y018040D01*
X001948Y018001D01*
X001878Y017950D01*
X001817Y017889D01*
X001766Y017819D01*
X001727Y017742D01*
X001700Y017659D01*
X001686Y017574D01*
X001686Y017551D01*
X002216Y017551D01*
X002216Y017511D01*
X001686Y017511D01*
X001686Y017487D01*
X001700Y017402D01*
X000338Y017402D01*
X000338Y017560D02*
X001686Y017560D01*
X001700Y017402D02*
X001727Y017319D01*
X001766Y017242D01*
X001817Y017172D01*
X001865Y017124D01*
X001846Y017115D01*
X001652Y016921D01*
X001546Y016668D01*
X001546Y016393D01*
X001652Y016140D01*
X001761Y016031D01*
X001652Y015921D01*
X001546Y015668D01*
X001546Y015393D01*
X001652Y015140D01*
X001761Y015031D01*
X001652Y014921D01*
X001546Y014668D01*
X001546Y014393D01*
X001652Y014140D01*
X001761Y014031D01*
X001652Y013921D01*
X001546Y013668D01*
X001546Y013393D01*
X001652Y013140D01*
X001761Y013031D01*
X001652Y012921D01*
X001546Y012668D01*
X001546Y012393D01*
X001652Y012140D01*
X001761Y012031D01*
X001652Y011921D01*
X001546Y011668D01*
X001546Y011393D01*
X001652Y011140D01*
X001761Y011031D01*
X001652Y010921D01*
X001546Y010668D01*
X001546Y010393D01*
X001652Y010140D01*
X001846Y009946D01*
X001994Y009884D01*
X001851Y009742D01*
X001641Y009952D01*
X001306Y010091D01*
X000944Y010091D01*
X000609Y009952D01*
X000353Y009696D01*
X000338Y009659D01*
X000338Y018151D01*
X000353Y018113D01*
X000609Y017857D01*
X000944Y017718D01*
X001306Y017718D01*
X001641Y017857D01*
X001897Y018113D01*
X002036Y018448D01*
X002036Y018810D01*
X001897Y019145D01*
X001641Y019401D01*
X001306Y019539D01*
X000944Y019539D01*
X000609Y019401D01*
X000353Y019145D01*
X000338Y019107D01*
X000338Y023944D01*
X035050Y023944D01*
X034998Y023922D01*
X034908Y023832D01*
X034860Y023715D01*
X034860Y023191D01*
X034861Y023187D01*
X034861Y016829D01*
X034860Y016825D01*
X034860Y016301D01*
X034908Y016183D01*
X034998Y016093D01*
X035116Y016045D01*
X035640Y016045D01*
X035644Y016046D01*
X037896Y016046D01*
X037697Y015847D01*
X037826Y015975D02*
X023155Y015975D01*
X023281Y016134D02*
X024302Y016134D01*
X024143Y016292D02*
X023337Y016292D01*
X023344Y016451D02*
X023985Y016451D01*
X023941Y016609D02*
X023304Y016609D01*
X023200Y016768D02*
X023941Y016768D01*
X022816Y016768D02*
X022776Y016768D01*
X022776Y016609D02*
X022816Y016609D01*
X022816Y016451D02*
X022776Y016451D01*
X022776Y016374D02*
X022246Y016374D01*
X022246Y016351D01*
X022260Y016266D01*
X022286Y016183D01*
X022326Y016106D01*
X022376Y016036D01*
X022438Y015975D01*
X022508Y015924D01*
X022585Y015885D01*
X022667Y015858D01*
X022753Y015844D01*
X022776Y015844D01*
X022776Y016374D01*
X022776Y016292D02*
X022816Y016292D01*
X022816Y016134D02*
X022776Y016134D01*
X022776Y015975D02*
X022816Y015975D01*
X022437Y015975D02*
X020595Y015975D01*
X020721Y016134D02*
X022311Y016134D01*
X022255Y016292D02*
X020777Y016292D01*
X020784Y016451D02*
X022248Y016451D01*
X022288Y016609D02*
X020744Y016609D01*
X020640Y016768D02*
X022392Y016768D01*
X022659Y017484D02*
X022933Y017484D01*
X023187Y017589D01*
X023381Y017784D01*
X023486Y018037D01*
X023486Y018312D01*
X023381Y018565D01*
X023187Y018759D01*
X023145Y018777D01*
X023309Y018845D01*
X023455Y018991D01*
X023518Y019141D01*
X023565Y019141D01*
X023565Y018914D01*
X023639Y018736D01*
X023776Y018600D01*
X024026Y018350D01*
X024204Y018276D01*
X025897Y018276D01*
X026075Y018350D01*
X026212Y018486D01*
X026462Y018736D01*
X026535Y018914D01*
X026535Y019607D01*
X026472Y019761D01*
X026535Y019914D01*
X026535Y020607D01*
X026472Y020761D01*
X026535Y020914D01*
X026535Y021607D01*
X026472Y021761D01*
X026535Y021914D01*
X026535Y022607D01*
X026462Y022786D01*
X026325Y022922D01*
X026075Y023172D01*
X025897Y023246D01*
X024204Y023246D01*
X024026Y023172D01*
X023734Y022880D01*
X023619Y022928D01*
X023413Y022928D01*
X023222Y022849D01*
X023077Y022703D01*
X022998Y022513D01*
X022998Y022306D01*
X023077Y022116D01*
X023116Y022077D01*
X023116Y020928D01*
X022913Y020928D01*
X022722Y020849D01*
X022577Y020703D01*
X022498Y020513D01*
X022498Y020306D01*
X022577Y020116D01*
X022616Y020077D01*
X022616Y019617D01*
X022577Y019578D01*
X022498Y019388D01*
X022498Y019181D01*
X022577Y018991D01*
X022703Y018864D01*
X022659Y018864D01*
X022405Y018759D01*
X022211Y018565D01*
X022106Y018312D01*
X022106Y018037D01*
X022211Y017784D01*
X022405Y017589D01*
X022659Y017484D01*
X022475Y017560D02*
X020557Y017560D01*
X020756Y017719D02*
X022276Y017719D01*
X022172Y017877D02*
X020860Y017877D01*
X020925Y018036D02*
X022107Y018036D01*
X022106Y018194D02*
X020926Y018194D01*
X020909Y018353D02*
X022123Y018353D01*
X022189Y018511D02*
X020843Y018511D01*
X020759Y018670D02*
X022316Y018670D01*
X022572Y018828D02*
X020866Y018828D01*
X020909Y018987D02*
X022581Y018987D01*
X022513Y019145D02*
X020906Y019145D01*
X020840Y019304D02*
X022498Y019304D01*
X022529Y019462D02*
X020791Y019462D01*
X020791Y019621D02*
X022616Y019621D01*
X022616Y019779D02*
X021388Y019779D01*
X021546Y019938D02*
X021684Y019938D01*
X021996Y019938D02*
X022036Y019938D01*
X022036Y020096D02*
X021996Y020096D01*
X021996Y020255D02*
X022036Y020255D01*
X022348Y019938D02*
X022616Y019938D01*
X022596Y020096D02*
X022496Y020096D01*
X022496Y020255D02*
X022519Y020255D01*
X022496Y020413D02*
X022498Y020413D01*
X022522Y020572D02*
X022407Y020572D01*
X022339Y020730D02*
X022604Y020730D01*
X022497Y020889D02*
X022820Y020889D01*
X022636Y021047D02*
X023116Y021047D01*
X023116Y021206D02*
X022636Y021206D01*
X022636Y021364D02*
X023116Y021364D01*
X023116Y021523D02*
X022636Y021523D01*
X022496Y021681D02*
X023116Y021681D01*
X023116Y021840D02*
X022448Y021840D01*
X022607Y021998D02*
X023116Y021998D01*
X023060Y022157D02*
X022636Y022157D01*
X022636Y022315D02*
X022998Y022315D01*
X022998Y022474D02*
X022636Y022474D01*
X022545Y022632D02*
X023048Y022632D01*
X023165Y022791D02*
X022386Y022791D01*
X021646Y022791D02*
X021386Y022791D01*
X020055Y021681D02*
X018664Y021681D01*
X018542Y021523D02*
X019929Y021523D01*
X019873Y021364D02*
X018315Y021364D01*
X017717Y021364D02*
X014176Y021364D01*
X014105Y021293D02*
X014268Y021456D01*
X014356Y021669D01*
X014356Y021900D01*
X014312Y022006D01*
X014347Y021970D01*
X014538Y021891D01*
X014744Y021891D01*
X014934Y021970D01*
X015080Y022116D01*
X015159Y022306D01*
X015159Y022513D01*
X015080Y022703D01*
X015079Y022704D01*
X015256Y022704D01*
X015516Y022964D01*
X015776Y022704D01*
X016256Y022704D01*
X016501Y022949D02*
X023803Y022949D01*
X023962Y023108D02*
X016596Y023108D01*
X016596Y023266D02*
X034860Y023266D01*
X034861Y023108D02*
X026139Y023108D01*
X026298Y022949D02*
X034861Y022949D01*
X034861Y022791D02*
X026456Y022791D01*
X026525Y022632D02*
X034861Y022632D01*
X034861Y022474D02*
X026535Y022474D01*
X026535Y022315D02*
X034861Y022315D01*
X034861Y022157D02*
X026535Y022157D01*
X026535Y021998D02*
X034861Y021998D01*
X034861Y021840D02*
X026505Y021840D01*
X026505Y021681D02*
X034861Y021681D01*
X034861Y021523D02*
X026535Y021523D01*
X026535Y021364D02*
X034861Y021364D01*
X034861Y021206D02*
X026535Y021206D01*
X026535Y021047D02*
X034861Y021047D01*
X034861Y020889D02*
X026525Y020889D01*
X026484Y020730D02*
X034861Y020730D01*
X034861Y020572D02*
X026535Y020572D01*
X026535Y020413D02*
X034861Y020413D01*
X034861Y020255D02*
X026535Y020255D01*
X026535Y020096D02*
X034861Y020096D01*
X034861Y019938D02*
X026535Y019938D01*
X026480Y019779D02*
X034861Y019779D01*
X034861Y019621D02*
X026530Y019621D01*
X026535Y019462D02*
X034861Y019462D01*
X034861Y019304D02*
X026535Y019304D01*
X026535Y019145D02*
X034861Y019145D01*
X034861Y018987D02*
X026535Y018987D01*
X026500Y018828D02*
X034861Y018828D01*
X034861Y018670D02*
X026395Y018670D01*
X026237Y018511D02*
X034861Y018511D01*
X034861Y018353D02*
X026078Y018353D01*
X026013Y017402D02*
X034861Y017402D01*
X034861Y017560D02*
X023117Y017560D01*
X023316Y017719D02*
X034861Y017719D01*
X034861Y017877D02*
X023420Y017877D01*
X023485Y018036D02*
X034861Y018036D01*
X034861Y018194D02*
X023486Y018194D01*
X023469Y018353D02*
X024022Y018353D01*
X023864Y018511D02*
X023403Y018511D01*
X023276Y018670D02*
X023705Y018670D01*
X023601Y018828D02*
X023269Y018828D01*
X023451Y018987D02*
X023565Y018987D01*
X023016Y019284D02*
X023016Y020409D01*
X023516Y019659D02*
X023516Y022409D01*
X024899Y021761D02*
X025059Y021921D01*
X025126Y022081D01*
X025157Y022020D01*
X025200Y021961D01*
X025251Y021910D01*
X025309Y021867D01*
X025318Y021863D01*
X025315Y021857D01*
X025315Y021813D01*
X025211Y021769D01*
X025050Y021609D01*
X024899Y021761D01*
X024978Y021840D02*
X025315Y021840D01*
X025172Y021998D02*
X025091Y021998D01*
X025123Y021681D02*
X024978Y021681D01*
X025050Y020912D02*
X025202Y020761D01*
X025050Y020609D01*
X024899Y020761D01*
X025050Y020912D01*
X025027Y020889D02*
X025074Y020889D01*
X025172Y020730D02*
X024929Y020730D01*
X025050Y019912D02*
X025202Y019761D01*
X025050Y019609D01*
X024899Y019761D01*
X025050Y019912D01*
X024918Y019779D02*
X025183Y019779D01*
X025062Y019621D02*
X025039Y019621D01*
X021738Y020685D02*
X021615Y020562D01*
X021393Y020784D01*
X021516Y020908D01*
X021738Y020685D01*
X021693Y020730D02*
X021447Y020730D01*
X021497Y020889D02*
X021535Y020889D01*
X021605Y020572D02*
X021625Y020572D01*
X020391Y021284D02*
X020391Y019034D01*
X019916Y018828D02*
X019534Y018828D01*
X019534Y018888D02*
X019455Y019078D01*
X019309Y019224D01*
X019119Y019303D01*
X018913Y019303D01*
X018722Y019224D01*
X018683Y019184D01*
X015724Y019184D01*
X015684Y019224D01*
X015494Y019303D01*
X015288Y019303D01*
X015097Y019224D01*
X014952Y019078D01*
X014873Y018888D01*
X014873Y018803D01*
X014788Y018803D01*
X014597Y018724D01*
X014452Y018578D01*
X014373Y018388D01*
X014373Y018303D01*
X014288Y018303D01*
X014140Y018241D01*
X014105Y018276D01*
X014084Y018284D01*
X014105Y018293D01*
X014268Y018456D01*
X014356Y018669D01*
X014356Y018900D01*
X014268Y019113D01*
X014105Y019276D01*
X014084Y019284D01*
X014105Y019293D01*
X014268Y019456D01*
X014356Y019669D01*
X014356Y019900D01*
X014268Y020113D01*
X014105Y020276D01*
X014084Y020284D01*
X014105Y020293D01*
X014268Y020456D01*
X014356Y020669D01*
X014356Y020900D01*
X014268Y021113D01*
X014105Y021276D01*
X014084Y021284D01*
X014105Y021293D01*
X014175Y021206D02*
X019873Y021206D01*
X019928Y021047D02*
X014295Y021047D01*
X014356Y020889D02*
X019991Y020889D01*
X019991Y020730D02*
X018918Y020730D01*
X018934Y020724D02*
X018744Y020803D01*
X018538Y020803D01*
X018347Y020724D01*
X018308Y020684D01*
X017224Y020684D01*
X017184Y020724D01*
X016994Y020803D01*
X016788Y020803D01*
X016597Y020724D01*
X016497Y020623D01*
X016256Y020864D01*
X015776Y020864D01*
X015516Y020605D01*
X015256Y020864D01*
X014776Y020864D01*
X014436Y020525D01*
X014436Y020044D01*
X014776Y019704D01*
X015256Y019704D01*
X015516Y019964D01*
X015776Y019704D01*
X016256Y019704D01*
X016497Y019945D01*
X016597Y019845D01*
X016788Y019766D01*
X016994Y019766D01*
X017184Y019845D01*
X017224Y019884D01*
X018308Y019884D01*
X018347Y019845D01*
X018538Y019766D01*
X018744Y019766D01*
X018934Y019845D01*
X019080Y019991D01*
X019159Y020181D01*
X019159Y020388D01*
X019080Y020578D01*
X018934Y020724D01*
X019083Y020572D02*
X019991Y020572D01*
X019991Y020413D02*
X019148Y020413D01*
X019159Y020255D02*
X019991Y020255D01*
X019991Y020096D02*
X019124Y020096D01*
X019027Y019938D02*
X019991Y019938D01*
X019991Y019779D02*
X018776Y019779D01*
X018506Y019779D02*
X017026Y019779D01*
X016756Y019779D02*
X016331Y019779D01*
X016490Y019938D02*
X016505Y019938D01*
X016891Y020284D02*
X018641Y020284D01*
X018364Y020730D02*
X017168Y020730D01*
X016614Y020730D02*
X016390Y020730D01*
X015642Y020730D02*
X015390Y020730D01*
X014642Y020730D02*
X014356Y020730D01*
X014316Y020572D02*
X014483Y020572D01*
X014436Y020413D02*
X014225Y020413D01*
X014126Y020255D02*
X014436Y020255D01*
X014436Y020096D02*
X014275Y020096D01*
X014340Y019938D02*
X014542Y019938D01*
X014701Y019779D02*
X014356Y019779D01*
X014336Y019621D02*
X019991Y019621D01*
X019991Y019462D02*
X014270Y019462D01*
X014116Y019304D02*
X019942Y019304D01*
X019876Y019145D02*
X019388Y019145D01*
X019493Y018987D02*
X019873Y018987D01*
X019534Y018888D02*
X019534Y018681D01*
X019455Y018491D01*
X019309Y018345D01*
X019119Y018266D01*
X018913Y018266D01*
X018722Y018345D01*
X018683Y018384D01*
X018659Y018384D01*
X018659Y018181D01*
X018580Y017991D01*
X018453Y017864D01*
X018486Y017819D01*
X018526Y017742D01*
X018552Y017659D01*
X018566Y017574D01*
X018566Y017551D01*
X018036Y017551D01*
X018036Y017511D01*
X018566Y017511D01*
X018566Y017487D01*
X018552Y017402D01*
X018566Y017560D02*
X019915Y017560D01*
X019716Y017719D02*
X018533Y017719D01*
X018467Y017877D02*
X019612Y017877D01*
X019547Y018036D02*
X018599Y018036D01*
X018659Y018194D02*
X019546Y018194D01*
X019563Y018353D02*
X019317Y018353D01*
X019464Y018511D02*
X019629Y018511D01*
X019529Y018670D02*
X019756Y018670D01*
X019016Y018784D02*
X015391Y018784D01*
X014914Y018987D02*
X014320Y018987D01*
X014356Y018828D02*
X014873Y018828D01*
X015019Y019145D02*
X014235Y019145D01*
X014356Y018670D02*
X014544Y018670D01*
X014424Y018511D02*
X014291Y018511D01*
X014373Y018353D02*
X014165Y018353D01*
X014391Y017784D02*
X017141Y017784D01*
X017545Y017243D02*
X014137Y017243D01*
X014279Y017085D02*
X017595Y017085D01*
X017436Y016926D02*
X014345Y016926D01*
X014356Y016768D02*
X017367Y016768D01*
X017326Y016609D02*
X014331Y016609D01*
X014263Y016451D02*
X017326Y016451D01*
X017368Y016292D02*
X014104Y016292D01*
X014044Y016134D02*
X017437Y016134D01*
X017485Y015975D02*
X016895Y015975D01*
X016756Y016114D02*
X016276Y016114D01*
X015936Y015775D01*
X015936Y015294D01*
X016276Y014954D01*
X016756Y014954D01*
X017096Y015294D01*
X017096Y015775D01*
X016756Y016114D01*
X017054Y015817D02*
X017388Y015817D01*
X017326Y015658D02*
X017096Y015658D01*
X017096Y015500D02*
X017326Y015500D01*
X017347Y015341D02*
X017096Y015341D01*
X016985Y015183D02*
X017413Y015183D01*
X017534Y015024D02*
X016826Y015024D01*
X017408Y014866D02*
X014356Y014866D01*
X014356Y014707D02*
X017342Y014707D01*
X017326Y014549D02*
X014306Y014549D01*
X014202Y014390D02*
X017327Y014390D01*
X017393Y014232D02*
X014149Y014232D01*
X014284Y014073D02*
X017497Y014073D01*
X017428Y013915D02*
X014350Y013915D01*
X014356Y013756D02*
X017363Y013756D01*
X017326Y013598D02*
X014327Y013598D01*
X014251Y013439D02*
X017326Y013439D01*
X017373Y013281D02*
X014093Y013281D01*
X014258Y013122D02*
X017448Y013122D01*
X017474Y012964D02*
X014329Y012964D01*
X014356Y012805D02*
X017383Y012805D01*
X017326Y012647D02*
X014347Y012647D01*
X014281Y012488D02*
X017326Y012488D01*
X017352Y012330D02*
X014142Y012330D01*
X014209Y012171D02*
X017418Y012171D01*
X017523Y012013D02*
X016858Y012013D01*
X016756Y012114D02*
X016276Y012114D01*
X015936Y011775D01*
X015936Y011294D01*
X016276Y010954D01*
X016756Y010954D01*
X017096Y011294D01*
X017096Y011775D01*
X016756Y012114D01*
X017016Y011854D02*
X017403Y011854D01*
X017338Y011696D02*
X017096Y011696D01*
X017096Y011537D02*
X017326Y011537D01*
X017332Y011379D02*
X017096Y011379D01*
X017022Y011220D02*
X017398Y011220D01*
X017509Y011062D02*
X016864Y011062D01*
X017424Y010903D02*
X014354Y010903D01*
X014356Y010745D02*
X017358Y010745D01*
X017326Y010586D02*
X014322Y010586D01*
X014240Y010428D02*
X017326Y010428D01*
X017377Y010269D02*
X016986Y010269D01*
X017138Y010111D02*
X017460Y010111D01*
X017618Y009952D02*
X017203Y009952D01*
X017221Y009794D02*
X041420Y009794D01*
X041465Y009903D02*
X041366Y009664D01*
X041366Y009405D01*
X041465Y009166D01*
X041648Y008983D01*
X041723Y008952D01*
X041684Y008923D01*
X041627Y008867D01*
X041580Y008802D01*
X041543Y008730D01*
X041519Y008654D01*
X041506Y008575D01*
X041506Y008543D01*
X042007Y008543D01*
X042007Y008526D01*
X018651Y008526D01*
X018651Y008547D02*
X018279Y008919D01*
X017753Y008919D01*
X017381Y008547D01*
X017381Y008021D01*
X017753Y007649D01*
X018279Y007649D01*
X018651Y008021D01*
X018651Y008547D01*
X018651Y008367D02*
X041534Y008367D01*
X041543Y008339D02*
X041580Y008267D01*
X041627Y008202D01*
X041684Y008145D01*
X041723Y008117D01*
X041648Y008085D01*
X041465Y007903D01*
X041366Y007664D01*
X041366Y007405D01*
X041465Y007166D01*
X041648Y006983D01*
X041887Y006884D01*
X042145Y006884D01*
X042384Y006983D01*
X042567Y007166D01*
X042666Y007405D01*
X042666Y007664D01*
X042567Y007903D01*
X042384Y008085D01*
X042309Y008117D01*
X042348Y008145D01*
X042405Y008202D01*
X042452Y008267D01*
X042489Y008339D01*
X042513Y008415D01*
X042526Y008494D01*
X042526Y008526D01*
X042025Y008526D01*
X042858Y008526D01*
X042858Y008684D02*
X042503Y008684D01*
X042513Y008654D02*
X042489Y008730D01*
X042452Y008802D01*
X042405Y008867D01*
X042348Y008923D01*
X042309Y008952D01*
X042384Y008983D01*
X042567Y009166D01*
X042666Y009405D01*
X042666Y009664D01*
X042567Y009903D01*
X042384Y010085D01*
X042145Y010184D01*
X041887Y010184D01*
X041648Y010085D01*
X041465Y009903D01*
X041515Y009952D02*
X022697Y009952D01*
X022762Y009979D02*
X022521Y009880D01*
X022261Y009880D01*
X022020Y009979D01*
X021836Y010164D01*
X021736Y010404D01*
X021736Y010665D01*
X021836Y010905D01*
X022020Y011089D01*
X022261Y011189D01*
X022521Y011189D01*
X022762Y011089D01*
X022946Y010905D01*
X023046Y010665D01*
X023046Y010404D01*
X022946Y010164D01*
X022762Y009979D01*
X022893Y010111D02*
X041709Y010111D01*
X042323Y010111D02*
X042858Y010111D01*
X042858Y010269D02*
X022990Y010269D01*
X023046Y010428D02*
X042858Y010428D01*
X042858Y010586D02*
X023046Y010586D01*
X023012Y010745D02*
X042858Y010745D01*
X042858Y010903D02*
X022947Y010903D01*
X022789Y011062D02*
X042858Y011062D01*
X042858Y011220D02*
X021725Y011220D01*
X021776Y011271D02*
X021428Y010923D01*
X021446Y010905D01*
X021546Y010665D01*
X021546Y010404D01*
X021446Y010164D01*
X021262Y009979D01*
X021021Y009880D01*
X020761Y009880D01*
X020520Y009979D01*
X020336Y010164D01*
X020236Y010404D01*
X020236Y010665D01*
X020336Y010905D01*
X020520Y011089D01*
X020639Y011139D01*
X020506Y011271D01*
X020506Y011797D01*
X020878Y012169D01*
X021404Y012169D01*
X021776Y011797D01*
X021776Y011271D01*
X021776Y011379D02*
X042858Y011379D01*
X042858Y011537D02*
X021776Y011537D01*
X021776Y011696D02*
X042858Y011696D01*
X042858Y011854D02*
X021719Y011854D01*
X021842Y012013D02*
X021561Y012013D01*
X021684Y012171D02*
X019598Y012171D01*
X019561Y012013D02*
X020721Y012013D01*
X020563Y011854D02*
X019719Y011854D01*
X019776Y011696D02*
X020506Y011696D01*
X020506Y011537D02*
X019776Y011537D01*
X019776Y011379D02*
X020506Y011379D01*
X020557Y011220D02*
X019725Y011220D01*
X019789Y011062D02*
X020493Y011062D01*
X020335Y010903D02*
X019947Y010903D01*
X020012Y010745D02*
X020270Y010745D01*
X020236Y010586D02*
X020046Y010586D01*
X020046Y010428D02*
X020236Y010428D01*
X020292Y010269D02*
X019990Y010269D01*
X019893Y010111D02*
X020389Y010111D01*
X020585Y009952D02*
X019697Y009952D01*
X019085Y009952D02*
X018414Y009952D01*
X018572Y010111D02*
X018889Y010111D01*
X018792Y010269D02*
X018655Y010269D01*
X018706Y010428D02*
X018736Y010428D01*
X018736Y010586D02*
X018706Y010586D01*
X018674Y010745D02*
X018770Y010745D01*
X018835Y010903D02*
X018608Y010903D01*
X018523Y011062D02*
X018715Y011062D01*
X018609Y011901D02*
X018601Y011921D01*
X018492Y012031D01*
X018601Y012140D01*
X018635Y012221D01*
X018782Y012073D01*
X018609Y011901D01*
X018509Y012013D02*
X018721Y012013D01*
X018684Y012171D02*
X018614Y012171D01*
X018632Y012846D02*
X018601Y012921D01*
X018492Y013031D01*
X018601Y013140D01*
X018701Y013381D01*
X018701Y013352D01*
X018939Y013114D01*
X018901Y013114D01*
X018632Y012846D01*
X018558Y012964D02*
X018750Y012964D01*
X018584Y013122D02*
X018931Y013122D01*
X018772Y013281D02*
X018659Y013281D01*
X019141Y013534D02*
X019141Y013974D01*
X019141Y013534D01*
X019141Y013534D01*
X019141Y013598D02*
X019141Y013598D01*
X019141Y013756D02*
X019141Y013756D01*
X019141Y013915D02*
X019141Y013915D01*
X019141Y014073D02*
X019141Y014073D01*
X019141Y014232D02*
X019141Y014232D01*
X019141Y014390D02*
X019141Y014390D01*
X019141Y014534D02*
X019141Y014534D01*
X019141Y014549D02*
X019141Y014549D01*
X019141Y014707D02*
X019141Y014707D01*
X019141Y014866D02*
X019141Y014866D01*
X019141Y015024D02*
X019141Y015024D01*
X019351Y015024D02*
X019733Y015024D01*
X019574Y014866D02*
X019510Y014866D01*
X018931Y015024D02*
X018498Y015024D01*
X018619Y015183D02*
X037444Y015183D01*
X037444Y015024D02*
X020549Y015024D01*
X020708Y014866D02*
X037454Y014866D01*
X037497Y014707D02*
X020776Y014707D01*
X020776Y014549D02*
X037549Y014549D01*
X037026Y014390D02*
X020776Y014390D01*
X020736Y014232D02*
X036752Y014232D01*
X036593Y014073D02*
X022422Y014073D01*
X022381Y014114D02*
X021901Y014114D01*
X021561Y013775D01*
X021561Y013294D01*
X021821Y013034D01*
X021561Y012775D01*
X021561Y012294D01*
X021901Y011954D01*
X022381Y011954D01*
X022721Y012294D01*
X022721Y012775D01*
X022461Y013034D01*
X022721Y013294D01*
X022721Y013775D01*
X022381Y014114D01*
X022581Y013915D02*
X036469Y013915D01*
X036377Y013756D02*
X022721Y013756D01*
X022721Y013598D02*
X036320Y013598D01*
X036277Y013439D02*
X025009Y013439D01*
X025001Y013448D02*
X024767Y013544D01*
X024515Y013544D01*
X024281Y013448D01*
X024103Y013269D01*
X024067Y013183D01*
X023846Y013404D01*
X023641Y013404D01*
X023641Y012909D01*
X023641Y012414D01*
X023846Y012414D01*
X024067Y012636D01*
X024103Y012550D01*
X024281Y012371D01*
X024515Y012274D01*
X024767Y012274D01*
X025001Y012371D01*
X025179Y012550D01*
X025276Y012783D01*
X025276Y013036D01*
X025179Y013269D01*
X025001Y013448D01*
X025168Y013281D02*
X036263Y013281D01*
X036263Y013122D02*
X025240Y013122D01*
X025276Y012964D02*
X036287Y012964D01*
X036329Y012805D02*
X025276Y012805D01*
X025220Y012647D02*
X036398Y012647D01*
X036489Y012488D02*
X025118Y012488D01*
X024901Y012330D02*
X036629Y012330D01*
X036813Y012171D02*
X022598Y012171D01*
X022721Y012330D02*
X024381Y012330D01*
X024164Y012488D02*
X023920Y012488D01*
X023641Y012488D02*
X023641Y012488D01*
X023641Y012414D02*
X023641Y012909D01*
X023641Y012909D01*
X023146Y012909D01*
X023146Y012704D01*
X023436Y012414D01*
X023641Y012414D01*
X023641Y012647D02*
X023641Y012647D01*
X023641Y012805D02*
X023641Y012805D01*
X023641Y012909D02*
X023641Y012909D01*
X023146Y012909D01*
X023146Y013114D01*
X023436Y013404D01*
X023641Y013404D01*
X023641Y012909D01*
X023641Y012909D01*
X023641Y012964D02*
X023641Y012964D01*
X023641Y013122D02*
X023641Y013122D01*
X023641Y013281D02*
X023641Y013281D01*
X023970Y013281D02*
X024114Y013281D01*
X024273Y013439D02*
X022721Y013439D01*
X022708Y013281D02*
X023312Y013281D01*
X023154Y013122D02*
X022549Y013122D01*
X022532Y012964D02*
X023146Y012964D01*
X023146Y012805D02*
X022690Y012805D01*
X022721Y012647D02*
X023203Y012647D01*
X023362Y012488D02*
X022721Y012488D01*
X022440Y012013D02*
X037144Y012013D01*
X037912Y012013D02*
X039466Y012013D01*
X039136Y012171D02*
X038242Y012171D01*
X038427Y012330D02*
X038951Y012330D01*
X038812Y012488D02*
X038566Y012488D01*
X038658Y012647D02*
X038721Y012647D01*
X040235Y012013D02*
X042858Y012013D01*
X042858Y012171D02*
X040565Y012171D01*
X040750Y012330D02*
X042858Y012330D01*
X042858Y012488D02*
X040889Y012488D01*
X040981Y012647D02*
X042858Y012647D01*
X042858Y012805D02*
X041049Y012805D01*
X041092Y012964D02*
X042858Y012964D01*
X042858Y013122D02*
X041116Y013122D01*
X041116Y013281D02*
X042858Y013281D01*
X042858Y013439D02*
X041101Y013439D01*
X041059Y013598D02*
X042858Y013598D01*
X042858Y013756D02*
X041001Y013756D01*
X040910Y013915D02*
X042858Y013915D01*
X042858Y014073D02*
X040785Y014073D01*
X040627Y014232D02*
X040339Y014398D01*
X039869Y014549D02*
X042858Y014549D01*
X042858Y014707D02*
X039921Y014707D01*
X039964Y014866D02*
X041647Y014866D01*
X041434Y015024D02*
X039974Y015024D01*
X039974Y015183D02*
X041289Y015183D01*
X041223Y015341D02*
X039946Y015341D01*
X039903Y015500D02*
X041160Y015500D01*
X041160Y015658D02*
X039830Y015658D01*
X039738Y015817D02*
X041160Y015817D01*
X041209Y015975D02*
X039592Y015975D01*
X037588Y015658D02*
X018706Y015658D01*
X018706Y015500D02*
X037515Y015500D01*
X037472Y015341D02*
X018685Y015341D01*
X018624Y014866D02*
X018772Y014866D01*
X018743Y014232D02*
X018639Y014232D01*
X018535Y014073D02*
X018902Y014073D01*
X018899Y013915D02*
X018604Y013915D01*
X018669Y013756D02*
X018741Y013756D01*
X019383Y013915D02*
X019862Y013915D01*
X019704Y014073D02*
X019380Y014073D01*
X019539Y014232D02*
X019545Y014232D01*
X019541Y013756D02*
X021561Y013756D01*
X021561Y013598D02*
X019581Y013598D01*
X019581Y013439D02*
X021561Y013439D01*
X021574Y013281D02*
X019510Y013281D01*
X019351Y013122D02*
X021733Y013122D01*
X021750Y012964D02*
X019532Y012964D01*
X019690Y012805D02*
X021592Y012805D01*
X021561Y012647D02*
X019721Y012647D01*
X019721Y012488D02*
X021561Y012488D01*
X021561Y012330D02*
X019721Y012330D01*
X021566Y011062D02*
X021993Y011062D01*
X021835Y010903D02*
X021447Y010903D01*
X021512Y010745D02*
X021770Y010745D01*
X021736Y010586D02*
X021546Y010586D01*
X021546Y010428D02*
X021736Y010428D01*
X021792Y010269D02*
X021490Y010269D01*
X021393Y010111D02*
X021889Y010111D01*
X022085Y009952D02*
X021197Y009952D01*
X018514Y008684D02*
X041528Y008684D01*
X041506Y008526D02*
X041506Y008494D01*
X041519Y008415D01*
X041543Y008339D01*
X041622Y008209D02*
X018651Y008209D01*
X018651Y008050D02*
X018981Y008050D01*
X018830Y007892D02*
X018521Y007892D01*
X018363Y007733D02*
X018765Y007733D01*
X018736Y007575D02*
X017221Y007575D01*
X017221Y007733D02*
X017669Y007733D01*
X017510Y007892D02*
X017221Y007892D01*
X017221Y008050D02*
X017381Y008050D01*
X017381Y008209D02*
X017221Y008209D01*
X017187Y008367D02*
X017381Y008367D01*
X017381Y008526D02*
X017105Y008526D01*
X016913Y008684D02*
X017518Y008684D01*
X017676Y008843D02*
X017030Y008843D01*
X017156Y009001D02*
X041630Y009001D01*
X041610Y008843D02*
X018356Y008843D01*
X017221Y009160D02*
X041471Y009160D01*
X041402Y009318D02*
X017221Y009318D01*
X017221Y009477D02*
X041366Y009477D01*
X041366Y009635D02*
X017221Y009635D01*
X016296Y010269D02*
X015986Y010269D01*
X016138Y010111D02*
X016144Y010111D01*
X015296Y010269D02*
X014111Y010269D01*
X014269Y010111D02*
X014335Y010111D01*
X014641Y010111D02*
X014641Y010111D01*
X014641Y010234D02*
X014641Y009534D01*
X014641Y008834D01*
X014641Y009534D01*
X014641Y009534D01*
X014641Y009534D01*
X014641Y010234D01*
X014641Y009952D02*
X014641Y009952D01*
X014641Y009794D02*
X014641Y009794D01*
X014641Y009635D02*
X014641Y009635D01*
X014641Y009477D02*
X014641Y009477D01*
X014641Y009318D02*
X014641Y009318D01*
X014641Y009160D02*
X014641Y009160D01*
X014641Y009001D02*
X014641Y009001D01*
X014641Y008843D02*
X014641Y008843D01*
X014729Y008843D02*
X015252Y008843D01*
X015369Y008684D02*
X014356Y008684D01*
X014356Y008843D02*
X014553Y008843D01*
X014641Y008609D02*
X014641Y007909D01*
X014641Y007209D01*
X014641Y007909D01*
X014641Y007909D01*
X014201Y007909D01*
X014641Y007909D01*
X014641Y007909D01*
X014641Y007909D01*
X014641Y008609D01*
X014641Y008526D02*
X014641Y008526D01*
X014641Y008367D02*
X014641Y008367D01*
X014641Y008209D02*
X014641Y008209D01*
X014641Y008050D02*
X014641Y008050D01*
X014641Y007892D02*
X014641Y007892D01*
X014641Y007733D02*
X014641Y007733D01*
X014641Y007575D02*
X014641Y007575D01*
X014641Y007416D02*
X014641Y007416D01*
X014641Y007258D02*
X014641Y007258D01*
X014842Y007258D02*
X015212Y007258D01*
X015110Y007416D02*
X015016Y007416D01*
X015453Y007099D02*
X014026Y007099D01*
X014096Y007169D02*
X013836Y006909D01*
X014096Y006650D01*
X014096Y006560D01*
X014401Y006864D01*
X014881Y006864D01*
X015221Y006525D01*
X015221Y006044D01*
X014881Y005704D01*
X014401Y005704D01*
X014061Y006044D01*
X014061Y006134D01*
X013756Y005829D01*
X013276Y005829D01*
X012936Y006169D01*
X012936Y006650D01*
X013196Y006909D01*
X012936Y007169D01*
X012936Y007650D01*
X013276Y007989D01*
X013756Y007989D01*
X014096Y007650D01*
X014096Y007169D01*
X014096Y007258D02*
X014440Y007258D01*
X014266Y007416D02*
X014096Y007416D01*
X014096Y007575D02*
X014207Y007575D01*
X014201Y007733D02*
X014012Y007733D01*
X013854Y007892D02*
X014201Y007892D01*
X014201Y008050D02*
X008846Y008050D01*
X008846Y007892D02*
X010178Y007892D01*
X010276Y007989D02*
X009936Y007650D01*
X009936Y007169D01*
X010276Y006829D01*
X010314Y006829D01*
X010076Y006592D01*
X010076Y006409D01*
X010076Y006227D01*
X010334Y005969D01*
X010516Y005969D01*
X010698Y005969D01*
X010956Y006227D01*
X010956Y006409D01*
X010516Y006409D01*
X010516Y005969D01*
X010516Y006409D01*
X010516Y006409D01*
X010076Y006409D01*
X010516Y006409D01*
X010516Y006409D01*
X010516Y006409D01*
X010956Y006409D01*
X010956Y006592D01*
X010718Y006829D01*
X010756Y006829D01*
X011096Y007169D01*
X011096Y007650D01*
X010756Y007989D01*
X010276Y007989D01*
X010130Y008209D02*
X008846Y008209D01*
X008846Y008285D02*
X008758Y008498D01*
X008595Y008661D01*
X008381Y008749D01*
X008151Y008749D01*
X007937Y008661D01*
X007774Y008498D01*
X007766Y008478D01*
X007758Y008498D01*
X007595Y008661D01*
X007381Y008749D01*
X007151Y008749D01*
X006937Y008661D01*
X006774Y008498D01*
X006766Y008478D01*
X006758Y008498D01*
X006595Y008661D01*
X006381Y008749D01*
X006151Y008749D01*
X005937Y008661D01*
X005846Y008570D01*
X005846Y008775D01*
X005586Y009034D01*
X005823Y009272D01*
X005937Y009158D01*
X006151Y009069D01*
X006381Y009069D01*
X006595Y009158D01*
X006758Y009321D01*
X006766Y009341D01*
X006774Y009321D01*
X006937Y009158D01*
X007151Y009069D01*
X007381Y009069D01*
X007595Y009158D01*
X007758Y009321D01*
X007843Y009527D01*
X007858Y009481D01*
X007890Y009419D01*
X007930Y009363D01*
X007979Y009314D01*
X008035Y009273D01*
X008097Y009242D01*
X008163Y009220D01*
X008231Y009209D01*
X008266Y009209D01*
X008301Y009209D01*
X008369Y009220D01*
X008435Y009242D01*
X008497Y009273D01*
X008553Y009314D01*
X008602Y009363D01*
X008642Y009419D01*
X008674Y009481D01*
X008695Y009546D01*
X008706Y009615D01*
X008706Y009909D01*
X008266Y009909D01*
X008266Y009209D01*
X008266Y009909D01*
X008266Y009909D01*
X008266Y009909D01*
X008706Y009909D01*
X008706Y010204D01*
X008695Y010272D01*
X008674Y010338D01*
X008642Y010400D01*
X008602Y010456D01*
X008553Y010505D01*
X008497Y010546D01*
X008435Y010577D01*
X008369Y010599D01*
X008301Y010609D01*
X008266Y010609D01*
X008231Y010609D01*
X008163Y010599D01*
X008097Y010577D01*
X008035Y010546D01*
X007979Y010505D01*
X007930Y010456D01*
X007890Y010400D01*
X007858Y010338D01*
X007843Y010292D01*
X007758Y010498D01*
X007595Y010661D01*
X007381Y010749D01*
X007151Y010749D01*
X006937Y010661D01*
X006774Y010498D01*
X006766Y010478D01*
X006758Y010498D01*
X006595Y010661D01*
X006381Y010749D01*
X006151Y010749D01*
X005937Y010661D01*
X005774Y010498D01*
X005686Y010285D01*
X005686Y009935D01*
X005506Y010114D01*
X005026Y010114D01*
X004686Y009775D01*
X004686Y009294D01*
X004946Y009034D01*
X004686Y008775D01*
X004686Y008294D01*
X004946Y008034D01*
X004686Y007775D01*
X004686Y007294D01*
X004969Y007011D01*
X004766Y006807D01*
X004529Y007044D01*
X004003Y007044D01*
X003766Y006807D01*
X003529Y007044D01*
X003003Y007044D01*
X002667Y006708D01*
X002471Y006904D01*
X002266Y006904D01*
X002266Y006409D01*
X002266Y005914D01*
X002471Y005914D01*
X002667Y006110D01*
X003003Y005774D01*
X003529Y005774D01*
X003766Y006011D01*
X004003Y005774D01*
X004529Y005774D01*
X004766Y006011D01*
X005003Y005774D01*
X005529Y005774D01*
X005901Y006146D01*
X005901Y006672D01*
X005563Y007011D01*
X005823Y007272D01*
X005937Y007158D01*
X006151Y007069D01*
X006381Y007069D01*
X006595Y007158D01*
X006758Y007321D01*
X006766Y007341D01*
X006774Y007321D01*
X006937Y007158D01*
X007151Y007069D01*
X007381Y007069D01*
X007595Y007158D01*
X007758Y007321D01*
X007766Y007341D01*
X007774Y007321D01*
X007937Y007158D01*
X008151Y007069D01*
X008381Y007069D01*
X008595Y007158D01*
X008758Y007321D01*
X008846Y007534D01*
X008846Y008285D01*
X008812Y008367D02*
X009853Y008367D01*
X009735Y008526D02*
X008730Y008526D01*
X008538Y008684D02*
X009676Y008684D01*
X009676Y008843D02*
X005778Y008843D01*
X005846Y008684D02*
X005994Y008684D01*
X006538Y008684D02*
X006994Y008684D01*
X006802Y008526D02*
X006730Y008526D01*
X006597Y009160D02*
X006935Y009160D01*
X006777Y009318D02*
X006755Y009318D01*
X005935Y009160D02*
X005712Y009160D01*
X005619Y009001D02*
X009718Y009001D01*
X009811Y009160D02*
X007597Y009160D01*
X007755Y009318D02*
X007975Y009318D01*
X007860Y009477D02*
X007822Y009477D01*
X008266Y009477D02*
X008266Y009477D01*
X008266Y009635D02*
X008266Y009635D01*
X008266Y009794D02*
X008266Y009794D01*
X008266Y009909D02*
X008266Y010609D01*
X008266Y009909D01*
X008266Y009909D01*
X008266Y009952D02*
X008266Y009952D01*
X008266Y010111D02*
X008266Y010111D01*
X008266Y010269D02*
X008266Y010269D01*
X008266Y010428D02*
X008266Y010428D01*
X008266Y010586D02*
X008266Y010586D01*
X008407Y010586D02*
X009710Y010586D01*
X009676Y010745D02*
X007392Y010745D01*
X007140Y010745D02*
X006392Y010745D01*
X006140Y010745D02*
X002894Y010745D01*
X002926Y010586D02*
X005863Y010586D01*
X005745Y010428D02*
X002926Y010428D01*
X002875Y010269D02*
X005686Y010269D01*
X005686Y010111D02*
X005510Y010111D01*
X005668Y009952D02*
X005686Y009952D01*
X005022Y010111D02*
X002793Y010111D01*
X002634Y009952D02*
X004864Y009952D01*
X004705Y009794D02*
X002629Y009794D01*
X002706Y009635D02*
X004686Y009635D01*
X004686Y009477D02*
X002706Y009477D01*
X002672Y009318D02*
X004686Y009318D01*
X004820Y009160D02*
X002514Y009160D01*
X002266Y009160D02*
X002266Y009160D01*
X002266Y009318D02*
X002266Y009318D01*
X002266Y009477D02*
X002266Y009477D01*
X001903Y009794D02*
X001799Y009794D01*
X001839Y009952D02*
X001640Y009952D01*
X001680Y010111D02*
X000338Y010111D01*
X000338Y010269D02*
X001598Y010269D01*
X001546Y010428D02*
X000338Y010428D01*
X000338Y010586D02*
X001546Y010586D01*
X001578Y010745D02*
X000338Y010745D01*
X000338Y010903D02*
X001644Y010903D01*
X001729Y011062D02*
X000338Y011062D01*
X000338Y011220D02*
X001618Y011220D01*
X001552Y011379D02*
X000338Y011379D01*
X000338Y011537D02*
X001546Y011537D01*
X001558Y011696D02*
X000338Y011696D01*
X000338Y011854D02*
X001624Y011854D01*
X001743Y012013D02*
X000338Y012013D01*
X000338Y012171D02*
X001638Y012171D01*
X001573Y012330D02*
X000338Y012330D01*
X000338Y012488D02*
X001546Y012488D01*
X001546Y012647D02*
X000338Y012647D01*
X000338Y012805D02*
X001603Y012805D01*
X001694Y012964D02*
X000338Y012964D01*
X000338Y013122D02*
X001669Y013122D01*
X001593Y013281D02*
X000338Y013281D01*
X000338Y013439D02*
X001546Y013439D01*
X001546Y013598D02*
X000338Y013598D01*
X000338Y013756D02*
X001583Y013756D01*
X001649Y013915D02*
X000338Y013915D01*
X000338Y014073D02*
X001718Y014073D01*
X001613Y014232D02*
X000338Y014232D01*
X000338Y014390D02*
X001548Y014390D01*
X001546Y014549D02*
X000338Y014549D01*
X000338Y014707D02*
X001563Y014707D01*
X001629Y014866D02*
X000338Y014866D01*
X000338Y015024D02*
X001755Y015024D01*
X001634Y015183D02*
X000338Y015183D01*
X000338Y015341D02*
X001568Y015341D01*
X001546Y015500D02*
X000338Y015500D01*
X000338Y015658D02*
X001546Y015658D01*
X001608Y015817D02*
X000338Y015817D01*
X000338Y015975D02*
X001706Y015975D01*
X001657Y016134D02*
X000338Y016134D01*
X000338Y016292D02*
X001588Y016292D01*
X001546Y016451D02*
X000338Y016451D01*
X000338Y016609D02*
X001546Y016609D01*
X001588Y016768D02*
X000338Y016768D01*
X000338Y016926D02*
X001657Y016926D01*
X001815Y017085D02*
X000338Y017085D01*
X000338Y017243D02*
X001765Y017243D01*
X002216Y017560D02*
X002256Y017560D01*
X002256Y017719D02*
X002216Y017719D01*
X002216Y017877D02*
X002256Y017877D01*
X002256Y018036D02*
X002216Y018036D01*
X002017Y018036D02*
X001820Y018036D01*
X001809Y017877D02*
X001661Y017877D01*
X001719Y017719D02*
X001308Y017719D01*
X000943Y017719D02*
X000338Y017719D01*
X000338Y017877D02*
X000589Y017877D01*
X000431Y018036D02*
X000338Y018036D01*
X000338Y019145D02*
X000354Y019145D01*
X000338Y019304D02*
X000513Y019304D01*
X000338Y019462D02*
X000758Y019462D01*
X000338Y019621D02*
X002116Y019621D01*
X002116Y019477D02*
X002597Y018996D01*
X003276Y018996D01*
X003756Y019477D01*
X003756Y020156D01*
X003276Y020636D01*
X002597Y020636D01*
X002116Y020156D01*
X002116Y019477D01*
X002130Y019462D02*
X001492Y019462D01*
X001738Y019304D02*
X002289Y019304D01*
X002447Y019145D02*
X001896Y019145D01*
X001963Y018987D02*
X004868Y018987D01*
X004710Y019145D02*
X003425Y019145D01*
X003584Y019304D02*
X004686Y019304D01*
X004686Y019462D02*
X003742Y019462D01*
X003756Y019621D02*
X004686Y019621D01*
X004816Y019779D02*
X003756Y019779D01*
X003756Y019938D02*
X004974Y019938D01*
X005558Y019938D02*
X005749Y019938D01*
X005873Y020096D02*
X003756Y020096D01*
X003657Y020255D02*
X005975Y020255D01*
X005817Y020413D02*
X003499Y020413D01*
X003340Y020572D02*
X005686Y020572D01*
X005686Y020730D02*
X000338Y020730D01*
X000338Y020572D02*
X002532Y020572D01*
X002374Y020413D02*
X000338Y020413D01*
X000338Y020255D02*
X002215Y020255D01*
X002116Y020096D02*
X000338Y020096D01*
X000338Y019938D02*
X002116Y019938D01*
X002116Y019779D02*
X000338Y019779D01*
X002028Y018828D02*
X005771Y018828D01*
X005706Y018987D02*
X005664Y018987D01*
X005925Y018670D02*
X002036Y018670D01*
X002036Y018511D02*
X009741Y018511D01*
X009676Y018670D02*
X007607Y018670D01*
X007761Y018828D02*
X007965Y018828D01*
X007856Y018987D02*
X007826Y018987D01*
X008266Y018987D02*
X008266Y018987D01*
X008266Y019145D02*
X008266Y019145D01*
X008266Y019304D02*
X008266Y019304D01*
X008266Y019409D02*
X008266Y019409D01*
X008266Y019462D02*
X008266Y019462D01*
X008266Y019621D02*
X008266Y019621D01*
X008266Y019779D02*
X008266Y019779D01*
X008266Y019938D02*
X008266Y019938D01*
X008266Y020096D02*
X008266Y020096D01*
X008376Y020096D02*
X009757Y020096D01*
X009692Y019938D02*
X008615Y019938D01*
X008693Y019779D02*
X009676Y019779D01*
X009696Y019621D02*
X008706Y019621D01*
X008706Y019462D02*
X009762Y019462D01*
X009916Y019304D02*
X008706Y019304D01*
X008706Y019145D02*
X009797Y019145D01*
X009712Y018987D02*
X008676Y018987D01*
X008567Y018828D02*
X009676Y018828D01*
X009518Y018353D02*
X009867Y018353D01*
X009846Y018194D02*
X009676Y018194D01*
X009014Y018353D02*
X006518Y018353D01*
X006506Y018364D02*
X006026Y018364D01*
X005686Y018025D01*
X005686Y017544D01*
X006026Y017204D01*
X006506Y017204D01*
X006846Y017544D01*
X006846Y018025D01*
X006506Y018364D01*
X006676Y018194D02*
X008856Y018194D01*
X008697Y018036D02*
X006835Y018036D01*
X006846Y017877D02*
X008686Y017877D01*
X008686Y017719D02*
X006846Y017719D01*
X006846Y017560D02*
X008686Y017560D01*
X008828Y017402D02*
X006704Y017402D01*
X006545Y017243D02*
X008987Y017243D01*
X009545Y017243D02*
X009895Y017243D01*
X009818Y017402D02*
X009704Y017402D01*
X009753Y017085D02*
X003666Y017085D01*
X003666Y016926D02*
X004963Y016926D01*
X004804Y016768D02*
X003666Y016768D01*
X003666Y016609D02*
X004686Y016609D01*
X004686Y016451D02*
X003666Y016451D01*
X003689Y016317D02*
X003764Y016134D01*
X003764Y015975D02*
X004880Y015975D01*
X004419Y015658D02*
X005631Y015658D01*
X005631Y015500D02*
X004699Y015500D01*
X004826Y015341D02*
X005631Y015341D01*
X005631Y015183D02*
X004892Y015183D01*
X004901Y015024D02*
X005753Y015024D01*
X005911Y014866D02*
X004884Y014866D01*
X004818Y014707D02*
X009823Y014707D01*
X009823Y014866D02*
X006620Y014866D01*
X006529Y014669D02*
X006003Y014669D01*
X005667Y014333D01*
X005471Y014529D01*
X005266Y014529D01*
X005266Y014034D01*
X005266Y013539D01*
X005471Y013539D01*
X005667Y013735D01*
X006003Y013399D01*
X006529Y013399D01*
X006901Y013771D01*
X006901Y014297D01*
X006529Y014669D01*
X006650Y014549D02*
X007377Y014549D01*
X007439Y014574D02*
X007240Y014492D01*
X007088Y014340D01*
X007006Y014142D01*
X007006Y013927D01*
X007088Y013729D01*
X007240Y013577D01*
X007439Y013494D01*
X008093Y013494D01*
X008292Y013577D01*
X008444Y013729D01*
X008526Y013927D01*
X008526Y014142D01*
X008444Y014340D01*
X008292Y014492D01*
X008093Y014574D01*
X007439Y014574D01*
X007138Y014390D02*
X006808Y014390D01*
X006901Y014232D02*
X007043Y014232D01*
X007006Y014073D02*
X006901Y014073D01*
X006901Y013915D02*
X007011Y013915D01*
X007077Y013756D02*
X006886Y013756D01*
X006727Y013598D02*
X007219Y013598D01*
X006569Y013439D02*
X009781Y013439D01*
X009705Y013598D02*
X008313Y013598D01*
X008455Y013756D02*
X009676Y013756D01*
X009682Y013915D02*
X008521Y013915D01*
X008526Y014073D02*
X009748Y014073D01*
X009883Y014232D02*
X008489Y014232D01*
X008394Y014390D02*
X010060Y014390D01*
X009883Y014549D02*
X008155Y014549D01*
X008951Y015024D02*
X006779Y015024D01*
X006901Y015183D02*
X008792Y015183D01*
X008771Y015341D02*
X006901Y015341D01*
X006901Y015500D02*
X007425Y015500D01*
X007439Y015494D02*
X007240Y015577D01*
X007088Y015729D01*
X007006Y015927D01*
X007006Y016142D01*
X007088Y016340D01*
X007240Y016492D01*
X007439Y016574D01*
X008093Y016574D01*
X008292Y016492D01*
X008444Y016340D01*
X008526Y016142D01*
X008526Y015927D01*
X008444Y015729D01*
X008292Y015577D01*
X008093Y015494D01*
X007439Y015494D01*
X007158Y015658D02*
X006901Y015658D01*
X006757Y015817D02*
X007052Y015817D01*
X007006Y015975D02*
X006598Y015975D01*
X006691Y016134D02*
X007006Y016134D01*
X007068Y016292D02*
X006761Y016292D01*
X006761Y016451D02*
X007199Y016451D01*
X006761Y016609D02*
X008631Y016609D01*
X008631Y016451D02*
X008333Y016451D01*
X008464Y016292D02*
X008631Y016292D01*
X008643Y016134D02*
X008526Y016134D01*
X008526Y015975D02*
X008802Y015975D01*
X008960Y015817D02*
X008480Y015817D01*
X008374Y015658D02*
X008815Y015658D01*
X008771Y015500D02*
X008107Y015500D01*
X009266Y015341D02*
X009266Y015341D01*
X009266Y015183D02*
X009266Y015183D01*
X009266Y015024D02*
X009266Y015024D01*
X009581Y015024D02*
X009886Y015024D01*
X009740Y015183D02*
X010069Y015183D01*
X009879Y015341D02*
X009761Y015341D01*
X009676Y015699D02*
X009565Y015810D01*
X009691Y015937D01*
X009676Y015900D01*
X009676Y015699D01*
X009676Y015817D02*
X009571Y015817D01*
X009901Y016250D02*
X009901Y016319D01*
X009927Y016293D01*
X009947Y016284D01*
X009927Y016276D01*
X009901Y016250D01*
X009901Y016292D02*
X009928Y016292D01*
X009687Y016926D02*
X009647Y016926D01*
X008885Y016926D02*
X005569Y016926D01*
X005728Y016768D02*
X005924Y016768D01*
X006266Y016768D02*
X006266Y016768D01*
X006266Y016904D02*
X006266Y016409D01*
X006266Y016409D01*
X006266Y016904D01*
X006266Y016609D02*
X006266Y016609D01*
X006266Y016451D02*
X006266Y016451D01*
X005841Y016134D02*
X005811Y016134D01*
X005934Y015975D02*
X005652Y015975D01*
X005775Y015817D02*
X003715Y015817D01*
X003595Y015658D02*
X004113Y015658D01*
X003833Y015500D02*
X003501Y015500D01*
X003659Y015341D02*
X003706Y015341D01*
X003266Y015341D02*
X003266Y015341D01*
X003266Y015183D02*
X003266Y015183D01*
X003266Y015034D02*
X003266Y015034D01*
X003266Y015024D02*
X003266Y015024D01*
X003266Y014866D02*
X003266Y014866D01*
X003266Y014707D02*
X003266Y014707D01*
X003266Y014549D02*
X003266Y014549D01*
X003481Y014549D02*
X003853Y014549D01*
X003714Y014707D02*
X003639Y014707D01*
X003051Y014549D02*
X002926Y014549D01*
X002925Y014390D02*
X004922Y014390D01*
X005061Y014529D02*
X004771Y014239D01*
X004771Y014034D01*
X004771Y013829D01*
X005061Y013539D01*
X005266Y013539D01*
X005266Y014034D01*
X005266Y014034D01*
X004771Y014034D01*
X005266Y014034D01*
X005266Y014034D01*
X005266Y014529D01*
X005061Y014529D01*
X005266Y014390D02*
X005266Y014390D01*
X005266Y014232D02*
X005266Y014232D01*
X005266Y014073D02*
X005266Y014073D01*
X005266Y014034D02*
X005266Y014034D01*
X005266Y013915D02*
X005266Y013915D01*
X005266Y013756D02*
X005266Y013756D01*
X005266Y013598D02*
X005266Y013598D01*
X005530Y013598D02*
X005804Y013598D01*
X005963Y013439D02*
X002926Y013439D01*
X002926Y013598D02*
X005002Y013598D01*
X004844Y013756D02*
X002890Y013756D01*
X002824Y013915D02*
X004771Y013915D01*
X004771Y014073D02*
X002755Y014073D01*
X002860Y014232D02*
X004771Y014232D01*
X004678Y014549D02*
X005882Y014549D01*
X005724Y014390D02*
X005610Y014390D01*
X003266Y015500D02*
X003266Y015500D01*
X003031Y015500D02*
X002926Y015500D01*
X002926Y015658D02*
X002937Y015658D01*
X002768Y015975D02*
X002712Y016031D01*
X002768Y016086D01*
X002768Y015975D01*
X002767Y015975D01*
X003266Y016034D02*
X003266Y017534D01*
X003729Y017719D02*
X005686Y017719D01*
X005686Y017877D02*
X003628Y017877D01*
X003764Y017560D02*
X005686Y017560D01*
X005828Y017402D02*
X003751Y017402D01*
X003680Y017243D02*
X005987Y017243D01*
X006608Y016768D02*
X008726Y016768D01*
X011104Y016292D02*
X011616Y016292D01*
X011616Y016134D02*
X011247Y016134D01*
X011325Y015975D02*
X011616Y015975D01*
X011616Y015817D02*
X011356Y015817D01*
X011352Y015658D02*
X011616Y015658D01*
X011616Y015500D02*
X011286Y015500D01*
X011153Y015341D02*
X011616Y015341D01*
X011616Y015183D02*
X010963Y015183D01*
X011145Y015024D02*
X011616Y015024D01*
X011616Y014866D02*
X011209Y014866D01*
X011209Y014707D02*
X011616Y014707D01*
X011616Y014549D02*
X011149Y014549D01*
X010972Y014390D02*
X011616Y014390D01*
X011616Y014232D02*
X011149Y014232D01*
X011284Y014073D02*
X011544Y014073D01*
X011518Y013915D02*
X011350Y013915D01*
X011356Y013756D02*
X011540Y013756D01*
X011623Y013598D02*
X011327Y013598D01*
X011251Y013439D02*
X011848Y013439D01*
X012184Y013439D02*
X012781Y013439D01*
X012705Y013598D02*
X012409Y013598D01*
X012492Y013756D02*
X012676Y013756D01*
X012016Y013909D02*
X012016Y018034D01*
X012022Y018029D01*
X012017Y018154D01*
X012474Y018353D02*
X012867Y018353D01*
X012846Y018194D02*
X012515Y018194D01*
X012508Y018036D02*
X012732Y018036D01*
X012676Y017877D02*
X012442Y017877D01*
X012644Y017719D02*
X012676Y017719D01*
X012889Y017331D02*
X012927Y017293D01*
X012947Y017284D01*
X012927Y017276D01*
X012889Y017238D01*
X012889Y017331D01*
X012889Y017243D02*
X012895Y017243D01*
X012391Y017284D02*
X012391Y015284D01*
X013947Y015341D02*
X015936Y015341D01*
X015936Y015500D02*
X014113Y015500D01*
X014198Y015658D02*
X015936Y015658D01*
X015978Y015817D02*
X014216Y015817D01*
X014172Y015975D02*
X016137Y015975D01*
X016047Y015183D02*
X014198Y015183D01*
X014304Y015024D02*
X016206Y015024D01*
X012766Y014284D02*
X012766Y016284D01*
X011616Y016451D02*
X011263Y016451D01*
X011331Y016609D02*
X011616Y016609D01*
X011616Y016768D02*
X011356Y016768D01*
X011345Y016926D02*
X011616Y016926D01*
X011616Y017085D02*
X011279Y017085D01*
X011137Y017243D02*
X011616Y017243D01*
X011616Y017402D02*
X011214Y017402D01*
X011311Y017560D02*
X011616Y017560D01*
X011616Y017719D02*
X011356Y017719D01*
X011356Y017877D02*
X011592Y017877D01*
X011526Y018036D02*
X011300Y018036D01*
X011186Y018194D02*
X011518Y018194D01*
X011560Y018353D02*
X011165Y018353D01*
X011291Y018511D02*
X011670Y018511D01*
X011356Y018670D02*
X012676Y018670D01*
X012676Y018828D02*
X011356Y018828D01*
X011320Y018987D02*
X012712Y018987D01*
X012797Y019145D02*
X011235Y019145D01*
X011116Y019304D02*
X012916Y019304D01*
X012762Y019462D02*
X011270Y019462D01*
X011336Y019621D02*
X012696Y019621D01*
X012676Y019779D02*
X011356Y019779D01*
X011340Y019938D02*
X012692Y019938D01*
X012757Y020096D02*
X011275Y020096D01*
X011126Y020255D02*
X012906Y020255D01*
X012807Y020413D02*
X011225Y020413D01*
X011316Y020572D02*
X012716Y020572D01*
X012676Y020730D02*
X011356Y020730D01*
X011356Y020889D02*
X012676Y020889D01*
X012737Y021047D02*
X011295Y021047D01*
X011175Y021206D02*
X012857Y021206D01*
X012856Y021364D02*
X011176Y021364D01*
X011295Y021523D02*
X012737Y021523D01*
X012676Y021681D02*
X011356Y021681D01*
X011356Y021840D02*
X012676Y021840D01*
X012717Y021998D02*
X011315Y021998D01*
X010266Y022409D02*
X014641Y022409D01*
X015109Y022632D02*
X017577Y022632D01*
X017418Y022474D02*
X015159Y022474D01*
X015159Y022315D02*
X017339Y022315D01*
X017283Y022157D02*
X015097Y022157D01*
X014963Y021998D02*
X017283Y021998D01*
X017303Y021840D02*
X014356Y021840D01*
X014356Y021681D02*
X017368Y021681D01*
X017490Y021523D02*
X014295Y021523D01*
X014315Y021998D02*
X014319Y021998D01*
X013614Y022809D02*
X013220Y022809D01*
X013417Y023007D01*
X013614Y022809D01*
X013474Y022949D02*
X013360Y022949D01*
X012812Y022809D02*
X012418Y022809D01*
X012615Y023007D01*
X012812Y022809D01*
X012672Y022949D02*
X012558Y022949D01*
X012996Y023425D02*
X013036Y023425D01*
X013036Y023583D02*
X012996Y023583D01*
X012996Y023742D02*
X013036Y023742D01*
X013237Y023742D02*
X013597Y023742D01*
X013755Y023900D02*
X012277Y023900D01*
X012435Y023742D02*
X012795Y023742D01*
X012636Y023583D02*
X012594Y023583D01*
X013396Y023583D02*
X013438Y023583D01*
X014277Y023900D02*
X034976Y023900D01*
X034871Y023742D02*
X016379Y023742D01*
X016537Y023583D02*
X034860Y023583D01*
X034860Y023425D02*
X016596Y023425D01*
X015653Y023742D02*
X015379Y023742D01*
X014653Y023742D02*
X014435Y023742D01*
X014544Y022936D02*
X014534Y022926D01*
X014538Y022928D01*
X014553Y022928D01*
X014544Y022936D01*
X015343Y022791D02*
X015689Y022791D01*
X015531Y022949D02*
X015501Y022949D01*
X011755Y023900D02*
X011277Y023900D01*
X011435Y023742D02*
X011597Y023742D01*
X010755Y023900D02*
X010277Y023900D01*
X010435Y023742D02*
X010597Y023742D01*
X009755Y023900D02*
X009277Y023900D01*
X009435Y023742D02*
X009597Y023742D01*
X008755Y023900D02*
X000338Y023900D01*
X000338Y023742D02*
X008597Y023742D01*
X008438Y023583D02*
X003289Y023583D01*
X003276Y023596D02*
X002597Y023596D01*
X002116Y023116D01*
X002116Y022437D01*
X002597Y021956D01*
X003276Y021956D01*
X003756Y022437D01*
X003756Y023116D01*
X003276Y023596D01*
X003447Y023425D02*
X008396Y023425D01*
X008396Y023266D02*
X003606Y023266D01*
X003756Y023108D02*
X005884Y023108D01*
X005754Y022949D02*
X003756Y022949D01*
X003756Y022791D02*
X005689Y022791D01*
X005686Y022632D02*
X003756Y022632D01*
X003756Y022474D02*
X005686Y022474D01*
X005686Y022315D02*
X003635Y022315D01*
X003477Y022157D02*
X005686Y022157D01*
X005701Y021998D02*
X003318Y021998D01*
X002554Y021998D02*
X000338Y021998D01*
X000338Y021840D02*
X005766Y021840D01*
X005914Y021681D02*
X000338Y021681D01*
X000338Y021523D02*
X009737Y021523D01*
X009676Y021681D02*
X007618Y021681D01*
X007766Y021840D02*
X007953Y021840D01*
X007852Y021998D02*
X007831Y021998D01*
X008266Y021998D02*
X008266Y021998D01*
X008266Y021840D02*
X008266Y021840D01*
X008579Y021840D02*
X009676Y021840D01*
X009717Y021998D02*
X008680Y021998D01*
X008706Y022157D02*
X009808Y022157D01*
X009748Y022315D02*
X008706Y022315D01*
X008706Y022474D02*
X009748Y022474D01*
X009798Y022632D02*
X008706Y022632D01*
X008266Y022632D02*
X008266Y022632D01*
X008266Y022474D02*
X008266Y022474D01*
X008266Y022409D02*
X008266Y023109D01*
X008266Y022409D01*
X008266Y022409D01*
X008266Y022315D02*
X008266Y022315D01*
X008266Y022157D02*
X008266Y022157D01*
X008266Y022791D02*
X008266Y022791D01*
X008266Y022949D02*
X008266Y022949D01*
X008266Y023108D02*
X008266Y023108D01*
X008310Y023108D02*
X008396Y023108D01*
X008222Y023108D02*
X007648Y023108D01*
X007778Y022949D02*
X007926Y022949D01*
X006884Y023108D02*
X006648Y023108D01*
X006766Y021840D02*
X006766Y021840D01*
X006618Y021681D02*
X006914Y021681D01*
X006026Y021364D02*
X005686Y021025D01*
X006557Y020255D02*
X008975Y020255D01*
X008817Y020413D02*
X006715Y020413D01*
X006846Y020572D02*
X008686Y020572D01*
X008686Y020730D02*
X006846Y020730D01*
X006873Y020096D02*
X006659Y020096D01*
X007659Y020096D02*
X008156Y020096D01*
X007917Y019938D02*
X007783Y019938D01*
X008686Y021025D02*
X009026Y021364D01*
X009715Y020413D02*
X009807Y020413D01*
X009906Y020255D02*
X009557Y020255D01*
X008266Y018828D02*
X008266Y018828D01*
X006925Y018670D02*
X006607Y018670D01*
X006761Y018828D02*
X006771Y018828D01*
X006014Y018353D02*
X001996Y018353D01*
X001931Y018194D02*
X005856Y018194D01*
X005697Y018036D02*
X002456Y018036D01*
X002664Y017877D02*
X002904Y017877D01*
X002803Y017719D02*
X002754Y017719D01*
X002775Y017417D02*
X002843Y017252D01*
X002866Y017230D01*
X002866Y016814D01*
X002821Y016921D01*
X002627Y017115D01*
X002607Y017124D01*
X002656Y017172D01*
X002707Y017242D01*
X002746Y017319D01*
X002773Y017402D01*
X002781Y017402D01*
X002773Y017402D02*
X002775Y017417D01*
X002707Y017243D02*
X002852Y017243D01*
X002866Y017085D02*
X002658Y017085D01*
X002816Y016926D02*
X002866Y016926D01*
X002880Y013281D02*
X009939Y013281D01*
X009774Y013122D02*
X002804Y013122D01*
X002779Y012964D02*
X009703Y012964D01*
X009676Y012805D02*
X002869Y012805D01*
X002926Y012647D02*
X009685Y012647D01*
X009751Y012488D02*
X002926Y012488D01*
X002900Y012330D02*
X009890Y012330D01*
X009823Y012171D02*
X002835Y012171D01*
X002730Y012013D02*
X009723Y012013D01*
X009676Y011854D02*
X002849Y011854D01*
X002915Y011696D02*
X009676Y011696D01*
X009731Y011537D02*
X002926Y011537D01*
X002921Y011379D02*
X009841Y011379D01*
X009872Y011220D02*
X002855Y011220D01*
X002744Y011062D02*
X009743Y011062D01*
X009677Y010903D02*
X002829Y010903D01*
X000610Y009952D02*
X000338Y009952D01*
X000338Y009794D02*
X000451Y009794D01*
X002036Y009001D02*
X004913Y009001D01*
X004754Y008843D02*
X002580Y008843D01*
X002706Y008684D02*
X004686Y008684D01*
X004686Y008526D02*
X002706Y008526D01*
X002706Y008367D02*
X004686Y008367D01*
X004771Y008209D02*
X002563Y008209D01*
X002448Y007974D02*
X002266Y007974D01*
X002084Y007974D01*
X001826Y007717D01*
X001826Y007534D01*
X001826Y007352D01*
X002084Y007094D01*
X002266Y007094D01*
X002448Y007094D01*
X002706Y007352D01*
X002706Y007534D01*
X002266Y007534D01*
X002266Y007094D01*
X002266Y007534D01*
X002266Y007534D01*
X002266Y007534D01*
X001826Y007534D01*
X002266Y007534D01*
X002266Y007534D01*
X002706Y007534D01*
X002706Y007717D01*
X002448Y007974D01*
X002531Y007892D02*
X004803Y007892D01*
X004686Y007733D02*
X002689Y007733D01*
X002706Y007575D02*
X004686Y007575D01*
X004686Y007416D02*
X002706Y007416D01*
X002612Y007258D02*
X004722Y007258D01*
X004881Y007099D02*
X002453Y007099D01*
X002266Y007099D02*
X002266Y007099D01*
X002266Y007258D02*
X002266Y007258D01*
X002266Y007416D02*
X002266Y007416D01*
X002266Y007534D02*
X002266Y007974D01*
X002266Y007534D01*
X002266Y007534D01*
X002266Y007575D02*
X002266Y007575D01*
X002266Y007733D02*
X002266Y007733D01*
X002266Y007892D02*
X002266Y007892D01*
X002001Y007892D02*
X000338Y007892D01*
X000338Y008050D02*
X004930Y008050D01*
X005586Y008034D02*
X005686Y007935D01*
X005686Y008134D01*
X005586Y008034D01*
X005602Y008050D02*
X005686Y008050D01*
X005810Y007258D02*
X005837Y007258D01*
X005651Y007099D02*
X006078Y007099D01*
X006454Y007099D02*
X007078Y007099D01*
X006837Y007258D02*
X006695Y007258D01*
X007454Y007099D02*
X008078Y007099D01*
X007837Y007258D02*
X007695Y007258D01*
X008454Y007099D02*
X010006Y007099D01*
X009936Y007258D02*
X008695Y007258D01*
X008797Y007416D02*
X009936Y007416D01*
X009936Y007575D02*
X008846Y007575D01*
X008846Y007733D02*
X010020Y007733D01*
X009391Y007409D02*
X009391Y008784D01*
X009902Y009318D02*
X008557Y009318D01*
X008672Y009477D02*
X009756Y009477D01*
X009690Y009635D02*
X008706Y009635D01*
X008706Y009794D02*
X009676Y009794D01*
X009698Y009952D02*
X008706Y009952D01*
X008706Y010111D02*
X009763Y010111D01*
X009921Y010269D02*
X008696Y010269D01*
X008622Y010428D02*
X009792Y010428D01*
X011111Y010269D02*
X012921Y010269D01*
X012792Y010428D02*
X011240Y010428D01*
X011322Y010586D02*
X012710Y010586D01*
X012676Y010745D02*
X011356Y010745D01*
X011354Y010903D02*
X012677Y010903D01*
X012743Y011062D02*
X011289Y011062D01*
X011160Y011220D02*
X012872Y011220D01*
X012841Y011379D02*
X011191Y011379D01*
X011301Y011537D02*
X012731Y011537D01*
X012676Y011696D02*
X011356Y011696D01*
X011356Y011854D02*
X012676Y011854D01*
X012723Y012013D02*
X011309Y012013D01*
X011209Y012171D02*
X012823Y012171D01*
X012890Y012330D02*
X011142Y012330D01*
X011281Y012488D02*
X012751Y012488D01*
X012685Y012647D02*
X011347Y012647D01*
X011356Y012805D02*
X012676Y012805D01*
X012703Y012964D02*
X011329Y012964D01*
X011258Y013122D02*
X012774Y013122D01*
X012939Y013281D02*
X011093Y013281D01*
X014309Y012013D02*
X016174Y012013D01*
X016016Y011854D02*
X014356Y011854D01*
X014356Y011696D02*
X015936Y011696D01*
X015936Y011537D02*
X014301Y011537D01*
X014191Y011379D02*
X015936Y011379D01*
X016010Y011220D02*
X014160Y011220D01*
X014289Y011062D02*
X016168Y011062D01*
X015144Y010111D02*
X014947Y010111D01*
X015052Y009952D02*
X015079Y009952D01*
X014201Y009389D02*
X014201Y009240D01*
X014212Y009171D01*
X014213Y009168D01*
X014105Y009276D01*
X014084Y009284D01*
X014105Y009293D01*
X014201Y009389D01*
X014201Y009318D02*
X014130Y009318D01*
X014986Y009001D02*
X015126Y009001D01*
X015177Y008526D02*
X014899Y008526D01*
X015034Y008367D02*
X015095Y008367D01*
X014383Y008526D02*
X014297Y008526D01*
X014248Y008367D02*
X014179Y008367D01*
X014202Y008209D02*
X013902Y008209D01*
X013130Y008209D02*
X010902Y008209D01*
X011179Y008367D02*
X012853Y008367D01*
X012735Y008526D02*
X011297Y008526D01*
X011356Y008684D02*
X012676Y008684D01*
X012676Y008843D02*
X011356Y008843D01*
X011314Y009001D02*
X012718Y009001D01*
X012811Y009160D02*
X011221Y009160D01*
X011130Y009318D02*
X012902Y009318D01*
X012756Y009477D02*
X011276Y009477D01*
X011342Y009635D02*
X012690Y009635D01*
X012676Y009794D02*
X011356Y009794D01*
X011334Y009952D02*
X012698Y009952D01*
X012763Y010111D02*
X011269Y010111D01*
X008266Y009318D02*
X008266Y009318D01*
X007994Y008684D02*
X007538Y008684D01*
X007730Y008526D02*
X007802Y008526D01*
X007787Y010428D02*
X007910Y010428D01*
X008125Y010586D02*
X007669Y010586D01*
X006863Y010586D02*
X006669Y010586D01*
X002266Y008974D02*
X002266Y008534D01*
X002266Y008974D01*
X002266Y008843D02*
X002266Y008843D01*
X002266Y008684D02*
X002266Y008684D01*
X002266Y008534D02*
X002266Y008534D01*
X002266Y008526D02*
X002266Y008526D01*
X002266Y008367D02*
X002266Y008367D01*
X002266Y008209D02*
X002266Y008209D01*
X001969Y008209D02*
X000338Y008209D01*
X000338Y008367D02*
X000708Y008367D01*
X000492Y008526D02*
X000338Y008526D01*
X000338Y008684D02*
X000345Y008684D01*
X001543Y008367D02*
X001826Y008367D01*
X001826Y008526D02*
X001759Y008526D01*
X001843Y007733D02*
X000338Y007733D01*
X000338Y007575D02*
X001826Y007575D01*
X001826Y007416D02*
X000338Y007416D01*
X000338Y007258D02*
X001920Y007258D01*
X002079Y007099D02*
X000338Y007099D01*
X000338Y006941D02*
X002899Y006941D01*
X002741Y006782D02*
X002593Y006782D01*
X002266Y006782D02*
X002266Y006782D01*
X002266Y006904D02*
X002061Y006904D01*
X001771Y006614D01*
X001771Y006409D01*
X001771Y006204D01*
X002061Y005914D01*
X002266Y005914D01*
X002266Y006409D01*
X002266Y006409D01*
X001771Y006409D01*
X002266Y006409D01*
X002266Y006409D01*
X002266Y006904D01*
X002266Y006624D02*
X002266Y006624D01*
X002266Y006465D02*
X002266Y006465D01*
X002266Y006409D02*
X002266Y006409D01*
X002266Y006307D02*
X002266Y006307D01*
X002266Y006148D02*
X002266Y006148D01*
X002266Y005990D02*
X002266Y005990D01*
X002546Y005990D02*
X002787Y005990D01*
X002946Y005831D02*
X000338Y005831D01*
X000338Y005990D02*
X001985Y005990D01*
X001827Y006148D02*
X000338Y006148D01*
X000338Y006307D02*
X001771Y006307D01*
X001771Y006465D02*
X000338Y006465D01*
X000338Y006624D02*
X001780Y006624D01*
X001939Y006782D02*
X000338Y006782D01*
X003633Y006941D02*
X003899Y006941D01*
X004633Y006941D02*
X004899Y006941D01*
X005633Y006941D02*
X010164Y006941D01*
X010267Y006782D02*
X005791Y006782D01*
X005901Y006624D02*
X010108Y006624D01*
X010076Y006465D02*
X005901Y006465D01*
X005901Y006307D02*
X010076Y006307D01*
X010155Y006148D02*
X005901Y006148D01*
X005744Y005990D02*
X010313Y005990D01*
X010516Y005990D02*
X010516Y005990D01*
X010516Y006148D02*
X010516Y006148D01*
X010516Y006307D02*
X010516Y006307D01*
X010719Y005990D02*
X013115Y005990D01*
X012957Y006148D02*
X010877Y006148D01*
X010956Y006307D02*
X012936Y006307D01*
X012936Y006465D02*
X010956Y006465D01*
X010924Y006624D02*
X012936Y006624D01*
X013069Y006782D02*
X010765Y006782D01*
X010868Y006941D02*
X013164Y006941D01*
X013006Y007099D02*
X011026Y007099D01*
X011096Y007258D02*
X012936Y007258D01*
X012936Y007416D02*
X011096Y007416D01*
X011096Y007575D02*
X012936Y007575D01*
X013020Y007733D02*
X011012Y007733D01*
X010854Y007892D02*
X013178Y007892D01*
X013868Y006941D02*
X019113Y006941D01*
X018900Y007099D02*
X016829Y007099D01*
X016881Y006864D02*
X016401Y006864D01*
X016061Y006525D01*
X016061Y006044D01*
X016401Y005704D01*
X016881Y005704D01*
X017221Y006044D01*
X017221Y006525D01*
X016881Y006864D01*
X016963Y006782D02*
X018741Y006782D01*
X018582Y006624D02*
X018377Y006624D01*
X018016Y006624D02*
X018016Y006624D01*
X018016Y006779D02*
X018016Y006284D01*
X018016Y005789D01*
X018016Y006284D01*
X018016Y006284D01*
X017521Y006284D01*
X018016Y006284D01*
X018016Y006284D01*
X018016Y006284D01*
X018016Y006779D01*
X018016Y006465D02*
X018016Y006465D01*
X018016Y006307D02*
X018016Y006307D01*
X018016Y006148D02*
X018016Y006148D01*
X018016Y005990D02*
X018016Y005990D01*
X018016Y005831D02*
X018016Y005831D01*
X018263Y005831D02*
X018696Y005831D01*
X018537Y005990D02*
X018421Y005990D01*
X017769Y005831D02*
X017008Y005831D01*
X017167Y005990D02*
X017610Y005990D01*
X017521Y006148D02*
X017221Y006148D01*
X017221Y006307D02*
X017521Y006307D01*
X017521Y006465D02*
X017221Y006465D01*
X017122Y006624D02*
X017655Y006624D01*
X017070Y007258D02*
X018797Y007258D01*
X018736Y007416D02*
X017172Y007416D01*
X016453Y007099D02*
X015829Y007099D01*
X016070Y007258D02*
X016212Y007258D01*
X016319Y006782D02*
X014963Y006782D01*
X015122Y006624D02*
X016160Y006624D01*
X016061Y006465D02*
X015221Y006465D01*
X015221Y006307D02*
X016061Y006307D01*
X016061Y006148D02*
X015221Y006148D01*
X015167Y005990D02*
X016115Y005990D01*
X016274Y005831D02*
X015008Y005831D01*
X014274Y005831D02*
X013758Y005831D01*
X013917Y005990D02*
X014115Y005990D01*
X013274Y005831D02*
X005586Y005831D01*
X004946Y005831D02*
X004586Y005831D01*
X004744Y005990D02*
X004787Y005990D01*
X003946Y005831D02*
X003586Y005831D01*
X003744Y005990D02*
X003787Y005990D01*
X013963Y006782D02*
X014319Y006782D01*
X014160Y006624D02*
X014096Y006624D01*
X016141Y008478D02*
X016133Y008498D01*
X015970Y008661D01*
X015823Y008722D01*
X015970Y008783D01*
X016133Y008946D01*
X016141Y008966D01*
X016149Y008946D01*
X016312Y008783D01*
X016459Y008722D01*
X016312Y008661D01*
X016149Y008498D01*
X016141Y008478D01*
X016105Y008526D02*
X016177Y008526D01*
X016369Y008684D02*
X015913Y008684D01*
X016030Y008843D02*
X016252Y008843D01*
X019801Y008050D02*
X020481Y008050D01*
X020330Y007892D02*
X019951Y007892D01*
X020017Y007733D02*
X020265Y007733D01*
X020236Y007575D02*
X020046Y007575D01*
X020046Y007416D02*
X020236Y007416D01*
X020297Y007258D02*
X019985Y007258D01*
X019882Y007099D02*
X020400Y007099D01*
X020613Y006941D02*
X019669Y006941D01*
X019541Y006782D02*
X020741Y006782D01*
X020582Y006624D02*
X019700Y006624D01*
X019776Y006465D02*
X020506Y006465D01*
X020506Y006307D02*
X019776Y006307D01*
X019776Y006148D02*
X020506Y006148D01*
X020537Y005990D02*
X019744Y005990D01*
X019586Y005831D02*
X020696Y005831D01*
X021586Y005831D02*
X021774Y005831D01*
X022508Y005831D02*
X024774Y005831D01*
X024901Y005704D02*
X024561Y006044D01*
X024561Y006525D01*
X024901Y006864D01*
X025381Y006864D01*
X025721Y006525D01*
X025721Y006044D01*
X025381Y005704D01*
X024901Y005704D01*
X024615Y005990D02*
X022667Y005990D01*
X022721Y006148D02*
X024561Y006148D01*
X024561Y006307D02*
X022721Y006307D01*
X022721Y006465D02*
X024561Y006465D01*
X024660Y006624D02*
X022622Y006624D01*
X022463Y006782D02*
X024819Y006782D01*
X025463Y006782D02*
X042858Y006782D01*
X042858Y006624D02*
X042542Y006624D01*
X042726Y006465D02*
X042858Y006465D01*
X042858Y006941D02*
X042282Y006941D01*
X042500Y007099D02*
X042858Y007099D01*
X042858Y007258D02*
X042605Y007258D01*
X042666Y007416D02*
X042858Y007416D01*
X042858Y007575D02*
X042666Y007575D01*
X042637Y007733D02*
X042858Y007733D01*
X042858Y007892D02*
X042571Y007892D01*
X042419Y008050D02*
X042858Y008050D01*
X042858Y008209D02*
X042410Y008209D01*
X042498Y008367D02*
X042858Y008367D01*
X042526Y008543D02*
X042025Y008543D01*
X042025Y008526D01*
X042007Y008526D02*
X041506Y008526D01*
X041613Y008050D02*
X022801Y008050D01*
X022762Y008089D02*
X022521Y008189D01*
X022261Y008189D01*
X022020Y008089D01*
X021836Y007905D01*
X021736Y007665D01*
X021736Y007404D01*
X021836Y007164D01*
X022020Y006979D01*
X022261Y006880D01*
X022521Y006880D01*
X022762Y006979D01*
X022946Y007164D01*
X023046Y007404D01*
X023046Y007665D01*
X022946Y007905D01*
X022762Y008089D01*
X022951Y007892D02*
X041461Y007892D01*
X041395Y007733D02*
X023017Y007733D01*
X023046Y007575D02*
X041366Y007575D01*
X041366Y007416D02*
X023046Y007416D01*
X022985Y007258D02*
X041427Y007258D01*
X041532Y007099D02*
X022882Y007099D01*
X022669Y006941D02*
X041750Y006941D01*
X041599Y006624D02*
X025622Y006624D01*
X025721Y006465D02*
X041414Y006465D01*
X041281Y006307D02*
X025721Y006307D01*
X025721Y006148D02*
X041215Y006148D01*
X041160Y005990D02*
X025667Y005990D01*
X025508Y005831D02*
X041160Y005831D01*
X042526Y008543D02*
X042526Y008575D01*
X042513Y008654D01*
X042422Y008843D02*
X042858Y008843D01*
X042858Y009001D02*
X042402Y009001D01*
X042561Y009160D02*
X042858Y009160D01*
X042858Y009318D02*
X042630Y009318D01*
X042666Y009477D02*
X042858Y009477D01*
X042858Y009635D02*
X042666Y009635D01*
X042612Y009794D02*
X042858Y009794D01*
X042858Y009952D02*
X042517Y009952D01*
X038689Y013738D02*
X038650Y013805D01*
X038728Y013805D01*
X038689Y013738D01*
X038678Y013756D02*
X038700Y013756D01*
X042493Y014866D02*
X042858Y014866D01*
X042858Y015024D02*
X042706Y015024D01*
X042851Y015183D02*
X042858Y015183D01*
X042858Y017081D02*
X042400Y017081D01*
X042396Y017080D01*
X035895Y017080D01*
X035895Y022936D01*
X042396Y022936D01*
X042400Y022934D01*
X042858Y022934D01*
X042858Y017081D01*
X042858Y017085D02*
X035895Y017085D01*
X035895Y017243D02*
X042858Y017243D01*
X042858Y017402D02*
X035895Y017402D01*
X035895Y017560D02*
X042858Y017560D01*
X042858Y017719D02*
X035895Y017719D01*
X035895Y017877D02*
X042858Y017877D01*
X042858Y018036D02*
X035895Y018036D01*
X035895Y018194D02*
X042858Y018194D01*
X042858Y018353D02*
X035895Y018353D01*
X035895Y018511D02*
X042858Y018511D01*
X042858Y018670D02*
X035895Y018670D01*
X035895Y018828D02*
X042858Y018828D01*
X042858Y018987D02*
X035895Y018987D01*
X035895Y019145D02*
X042858Y019145D01*
X042858Y019304D02*
X035895Y019304D01*
X035895Y019462D02*
X042858Y019462D01*
X042858Y019621D02*
X035895Y019621D01*
X035895Y019779D02*
X042858Y019779D01*
X042858Y019938D02*
X035895Y019938D01*
X035895Y020096D02*
X042858Y020096D01*
X042858Y020255D02*
X035895Y020255D01*
X035895Y020413D02*
X042858Y020413D01*
X042858Y020572D02*
X035895Y020572D01*
X035895Y020730D02*
X042858Y020730D01*
X042858Y020889D02*
X035895Y020889D01*
X035895Y021047D02*
X042858Y021047D01*
X042858Y021206D02*
X035895Y021206D01*
X035895Y021364D02*
X042858Y021364D01*
X042858Y021523D02*
X035895Y021523D01*
X035895Y021681D02*
X042858Y021681D01*
X042858Y021840D02*
X035895Y021840D01*
X035895Y021998D02*
X042858Y021998D01*
X042858Y022157D02*
X035895Y022157D01*
X035895Y022315D02*
X042858Y022315D01*
X042858Y022474D02*
X035895Y022474D01*
X035895Y022632D02*
X042858Y022632D01*
X042858Y022791D02*
X035895Y022791D01*
X034861Y017243D02*
X026172Y017243D01*
X026330Y017085D02*
X034861Y017085D01*
X034861Y016926D02*
X026341Y016926D01*
X026341Y016768D02*
X034860Y016768D01*
X034860Y016609D02*
X026341Y016609D01*
X026297Y016451D02*
X034860Y016451D01*
X034863Y016292D02*
X026139Y016292D01*
X025980Y016134D02*
X034958Y016134D01*
X025302Y016134D02*
X024980Y016134D01*
X025139Y016292D02*
X025143Y016292D01*
X025013Y017402D02*
X025269Y017402D01*
X020256Y016768D02*
X020216Y016768D01*
X020216Y016609D02*
X020256Y016609D01*
X020256Y016451D02*
X020216Y016451D01*
X020216Y016292D02*
X020256Y016292D01*
X020256Y016134D02*
X020216Y016134D01*
X020216Y015975D02*
X020256Y015975D01*
X020578Y014073D02*
X021860Y014073D01*
X021701Y013915D02*
X020419Y013915D01*
X018715Y018353D02*
X018659Y018353D01*
X018141Y018284D02*
X014891Y018284D01*
X012741Y018511D02*
X012364Y018511D01*
X015331Y019779D02*
X015701Y019779D01*
X015542Y019938D02*
X015490Y019938D01*
X011614Y022809D02*
X011418Y022809D01*
X011516Y022908D01*
X011614Y022809D01*
X010614Y022809D02*
X010599Y022809D01*
X010559Y022849D01*
X010487Y022879D01*
X010516Y022908D01*
X010614Y022809D01*
X009633Y022791D02*
X009399Y022791D01*
X002584Y023583D02*
X000338Y023583D01*
X000338Y023425D02*
X002425Y023425D01*
X002267Y023266D02*
X000338Y023266D01*
X000338Y023108D02*
X002116Y023108D01*
X002116Y022949D02*
X000338Y022949D01*
X000338Y022791D02*
X002116Y022791D01*
X002116Y022632D02*
X000338Y022632D01*
X000338Y022474D02*
X002116Y022474D01*
X002237Y022315D02*
X000338Y022315D01*
X000338Y022157D02*
X002396Y022157D01*
X021301Y008050D02*
X021981Y008050D01*
X021830Y007892D02*
X021451Y007892D01*
X021517Y007733D02*
X021765Y007733D01*
X021736Y007575D02*
X021546Y007575D01*
X021546Y007416D02*
X021736Y007416D01*
X021797Y007258D02*
X021485Y007258D01*
X021382Y007099D02*
X021900Y007099D01*
X022113Y006941D02*
X021169Y006941D01*
X021541Y006782D02*
X021819Y006782D01*
D29*
X009391Y007409D03*
X009391Y008784D03*
X014391Y017784D03*
X014891Y018284D03*
X015391Y018784D03*
X017141Y017784D03*
X018141Y018284D03*
X019016Y018784D03*
X020391Y019034D03*
X018641Y020284D03*
X016891Y020284D03*
X020391Y021284D03*
X023016Y020409D03*
X023516Y019659D03*
X023016Y019284D03*
X023516Y022409D03*
X014641Y022409D03*
X010266Y022409D03*
D30*
X012017Y018154D03*
X012391Y017284D03*
X012766Y016284D03*
X012391Y015284D03*
X012766Y014284D03*
X012016Y013909D03*
X003266Y016034D03*
X003266Y017534D03*
D31*
X018016Y022034D03*
D32*
X001125Y018629D03*
X001125Y009180D03*
X042070Y005834D03*
X042070Y015676D03*
M02*
