G75*
G70*
%OFA0B0*%
%FSLAX24Y24*%
%IPPOS*%
%LPD*%
%AMOC8*
5,1,8,0,0,1.08239X$1,22.5*
%
%ADD10C,0.0040*%
%ADD11C,0.0050*%
%ADD12C,0.0060*%
%ADD13R,0.0600X0.1200*%
%ADD14R,0.0600X0.0300*%
%ADD15C,0.0010*%
%ADD16C,0.0031*%
D10*
X000681Y003644D02*
X000834Y003644D01*
X000911Y003721D01*
X000604Y004028D01*
X000604Y003721D01*
X000681Y003644D01*
X000911Y003721D02*
X000911Y004028D01*
X000834Y004104D01*
X000681Y004104D01*
X000604Y004028D01*
X001065Y004028D02*
X001141Y004104D01*
X001295Y004104D01*
X001372Y004028D01*
X001525Y003874D02*
X001832Y003874D01*
X001985Y004104D02*
X001985Y003644D01*
X002292Y003644D02*
X002292Y004104D01*
X002139Y003951D01*
X001985Y004104D01*
X002446Y004028D02*
X002446Y003951D01*
X002522Y003874D01*
X002753Y003874D01*
X002906Y003797D02*
X002906Y003721D01*
X002983Y003644D01*
X003136Y003644D01*
X003213Y003721D01*
X003136Y003874D02*
X002983Y003874D01*
X002906Y003797D01*
X002753Y003644D02*
X002522Y003644D01*
X002446Y003721D01*
X002446Y003797D01*
X002522Y003874D01*
X002446Y004028D02*
X002522Y004104D01*
X002753Y004104D01*
X002753Y003644D01*
X002906Y004028D02*
X002983Y004104D01*
X003136Y004104D01*
X003213Y004028D01*
X003213Y003951D01*
X003136Y003874D01*
X003827Y003644D02*
X004057Y003874D01*
X004134Y003797D02*
X003827Y004104D01*
X004134Y004104D02*
X004134Y003644D01*
X001372Y003644D02*
X001065Y003951D01*
X001065Y004028D01*
X001065Y003644D02*
X001372Y003644D01*
D11*
X001254Y005196D02*
X000171Y005196D01*
X001845Y005196D02*
X002927Y005196D01*
X003518Y005196D02*
X004601Y005196D01*
X005191Y005196D02*
X006274Y005196D01*
X006864Y005196D02*
X007947Y005196D01*
X008538Y005196D02*
X009620Y005196D01*
X010211Y005196D02*
X011294Y005196D01*
X011884Y005196D02*
X012967Y005196D01*
X013557Y005196D02*
X014640Y005196D01*
X015231Y005196D02*
X016313Y005196D01*
X016904Y005196D02*
X017986Y005196D01*
X018577Y005196D02*
X019660Y005196D01*
X020250Y005196D02*
X021333Y005196D01*
X021923Y005196D02*
X023006Y005196D01*
X023597Y005196D02*
X024679Y005196D01*
X025270Y005196D02*
X026353Y005196D01*
X026943Y005196D02*
X028026Y005196D01*
X028616Y005196D02*
X029699Y005196D01*
X030290Y005196D02*
X031372Y005196D01*
X031963Y005196D02*
X033046Y005196D01*
X033636Y005196D02*
X034719Y005196D01*
X035309Y005196D02*
X036392Y005196D01*
X036983Y005196D02*
X038065Y005196D01*
X038656Y005196D02*
X039738Y005196D01*
X040329Y005196D02*
X041412Y005196D01*
X042002Y005196D02*
X043085Y005196D01*
X023416Y013582D02*
X023416Y013732D01*
X023416Y013657D02*
X022966Y013657D01*
X022966Y013582D02*
X022966Y013732D01*
X023041Y013889D02*
X022966Y013964D01*
X022966Y014114D01*
X023041Y014189D01*
X022966Y014349D02*
X022966Y014649D01*
X022966Y014499D02*
X023416Y014499D01*
X023266Y014349D01*
X023341Y014189D02*
X023416Y014114D01*
X023416Y013964D01*
X023341Y013889D01*
X023041Y013889D01*
D12*
X022834Y013680D02*
X022834Y016139D01*
X024197Y016139D01*
X024197Y013680D01*
X022834Y013680D01*
D13*
X022516Y014909D03*
D14*
X024516Y014909D03*
X024516Y014009D03*
X024516Y015809D03*
D15*
X024300Y018761D02*
X024050Y019011D01*
X024050Y019511D01*
X024300Y019761D01*
X024050Y020011D01*
X024050Y020511D01*
X024300Y020761D01*
X024050Y021011D01*
X024050Y021511D01*
X024300Y021761D01*
X024050Y022011D01*
X024050Y022511D01*
X024300Y022761D01*
X025800Y022761D01*
X026050Y022511D01*
X026050Y022011D01*
X025800Y021761D01*
X026050Y021511D01*
X026050Y021011D01*
X025800Y020761D01*
X026050Y020511D01*
X026050Y020011D01*
X025800Y019761D01*
X026050Y019511D01*
X026050Y019011D01*
X025800Y018761D01*
X024300Y018761D01*
D16*
X035181Y016366D02*
X042859Y016366D01*
X042859Y016760D01*
X042859Y023256D02*
X042859Y023650D01*
M02*
